<svg width="32" height="32" viewBox="0 0 32 32" fill="none" xmlns="http://www.w3.org/2000/svg">
<rect width="32" height="32" rx="16" fill="#FF9900" fill-opacity="0.2"/>
<path d="M8.00373 16.2489C8.14404 12.1141 11.605 8.86458 15.7208 9.00434C19.8483 9.14411 23.1222 12.5917 23.0053 16.6449C22.8767 20.8146 19.3806 24.1573 15.2999 23.9943C11.0906 23.8312 7.87511 20.4069 8.00373 16.2489ZM15.5454 9.67988C11.7454 9.65659 8.6702 12.6499 8.63513 16.4003C8.61174 20.1856 11.6635 23.3071 15.4168 23.3304C19.1818 23.3537 22.3038 20.3138 22.3271 16.5867C22.3505 12.7664 19.3455 9.70318 15.5454 9.67988Z" fill="#FF9900"/>
<path d="M16.5607 19.8946C16.549 20.3372 16.1281 20.6866 15.5435 20.7215C14.9705 20.7565 14.4911 20.4303 14.5028 19.8713C14.5262 19.0443 14.6665 18.2174 14.7601 17.4021C14.7951 17.1109 14.8653 16.8314 14.9121 16.5402C15.029 15.7948 14.8302 15.5851 14.0234 15.7132C14.1521 15.061 14.7016 15.0027 15.1576 14.9096C15.637 14.8164 16.0579 15.0377 16.1281 15.5152C16.2099 16.0626 16.1632 16.6217 16.093 17.1808C16.0112 17.833 15.8358 18.4736 15.7539 19.1259C15.637 19.848 15.8358 20.0227 16.5607 19.8946Z"  fill="#FF9900"/>
<path d="M16.7309 13.0929C16.7309 13.582 16.3801 13.9198 15.8773 13.9082C15.3979 13.8965 15.0589 13.582 15.0472 13.1162C15.0355 12.627 15.3862 12.2776 15.8773 12.2659C16.3801 12.2543 16.7309 12.6037 16.7309 13.0929Z" fill="#FF9900"/>
</svg>
