<svg width="38" height="38" viewBox="0 0 38 38" fill="none" xmlns="http://www.w3.org/2000/svg">
<path d="M38 19C38 29.4934 29.4934 38 19 38C8.50659 38 0 29.4934 0 19C0 8.50659 8.50659 0 19 0C29.4934 0 38 8.50659 38 19Z" fill="#FF9900" fill-opacity="0.2"/>
<path d="M18.5877 20.2615C16.9323 17.9474 16.625 17.7099 16.625 16.8594C16.625 15.6944 17.6044 14.75 18.8125 14.75C20.0206 14.75 21 15.6944 21 16.8594C21 17.7099 20.6927 17.9474 19.0373 20.2615C18.9287 20.4128 18.6963 20.4128 18.5877 20.2615ZM18.8125 17.7383C19.3159 17.7383 19.724 17.3448 19.724 16.8594C19.724 16.374 19.3159 15.9805 18.8125 15.9805C18.3091 15.9805 17.901 16.374 17.901 16.8594C17.901 17.3448 18.3091 17.7383 18.8125 17.7383Z" fill="#FF9900"/>
<path d="M13.5 23.1875C13.5 22.7731 13.6646 22.3757 13.9576 22.0826C14.2507 21.7896 14.6481 21.625 15.0625 21.625H23.5" stroke="#FF9900" stroke-width="2" stroke-linecap="round" stroke-linejoin="round"/>
<path d="M15.0625 12.25H23.5V24.75H15.0625C14.6481 24.75 14.2507 24.5854 13.9576 24.2924C13.6646 23.9993 13.5 23.6019 13.5 23.1875V13.8125C13.5 13.3981 13.6646 13.0007 13.9576 12.7076C14.2507 12.4146 14.6481 12.25 15.0625 12.25Z" stroke="#FF9900" stroke-width="2" stroke-linecap="round" stroke-linejoin="round"/>
</svg>
