<svg width="21" height="25" viewBox="0 0 21 25" fill="none" xmlns="http://www.w3.org/2000/svg">
<path d="M10.2545 24.9999C7.85928 24.9999 5.46407 24.9999 3.08383 24.9999C1.07784 24.9999 0 23.9221 0 21.8862C0 17.6197 0 13.3682 0 9.10173C0 7.08077 1.07784 6.00293 3.0988 6.00293C7.85928 6.00293 12.6198 6.00293 17.3802 6.00293C19.4012 6.00293 20.494 7.08077 20.494 9.08676C20.494 13.3682 20.494 17.6646 20.494 21.946C20.494 23.9071 19.4012 24.985 17.4401 24.985C15.0299 24.9999 12.6347 24.9999 10.2545 24.9999Z" fill="#FF9900"/>
<path opacity="0.7" d="M10.2388 3.00879C12.5592 3.00879 14.8795 3.00879 17.1849 3.00879C17.5891 3.00879 17.9185 3.08364 18.1131 3.48783C18.2328 3.75729 18.173 3.96687 18.0233 4.19142C17.8586 4.44591 17.6041 4.52077 17.3047 4.52077C12.5891 4.52077 7.88852 4.52077 3.17295 4.52077C2.66397 4.52077 2.31966 4.26627 2.30469 3.78723C2.30469 3.26328 2.66397 3.00879 3.20289 3.00879C5.55319 3.00879 7.90349 3.00879 10.2388 3.00879Z" fill="#FF9900"/>
<path opacity="0.3" d="M10.2659 0C12.0324 0 13.8138 0 15.5803 0C16.1192 0 16.6282 0.0598803 16.6132 0.748503C16.6132 1.4521 16.0743 1.49701 15.5503 1.49701C11.9875 1.49701 8.42459 1.49701 4.84674 1.49701C4.33776 1.49701 3.85872 1.42216 3.84375 0.763473C3.84375 0.134731 4.26291 0 4.80183 0C6.62818 0 8.45453 0 10.2659 0Z" fill="#FF9900"/>
</svg>
