<svg width="117" height="37" viewBox="0 0 117 37" fill="none" xmlns="http://www.w3.org/2000/svg">
<path d="M10.8 7.29C12.3 7.29 13.69 7.73 14.97 8.61C16.25 9.49 17.25 10.69 17.97 12.21C18.71 13.71 19.08 15.36 19.08 17.16C19.08 17.74 19.08 20.2 19.08 24.54C19.08 25.22 18.85 25.8 18.39 26.28C17.93 26.76 17.37 27 16.71 27C16.07 27 15.52 26.76 15.06 26.28C14.6 25.8 14.37 25.22 14.37 24.54C14.37 19.68 14.37 17.22 14.37 17.16C14.37 15.72 13.94 14.5 13.08 13.5C12.24 12.48 11.22 11.97 10.02 11.97C9.2 11.97 8.4 12.21 7.62 12.69C6.8 13.17 6.16 13.84 5.7 14.7C5.26 15.56 5.04 16.48 5.04 17.46V24.48C5.04 25.2 4.78 25.81 4.26 26.31C3.74 26.81 3.11 27.04 2.37 27C1.71 26.96 1.15 26.68 0.69 26.16C0.23 25.64 0 25.03 0 24.33V9.72C0 9 0.26 8.4 0.78 7.92C1.3 7.42 1.92 7.19 2.64 7.23C3.32 7.25 3.89 7.52 4.35 8.04C4.81 8.56 5.04 9.17 5.04 9.87V10.08C6.64 8.22 8.56 7.29 10.8 7.29ZM35.3564 7.95C35.8564 7.45 36.4464 7.2 37.1264 7.2C37.8264 7.2 38.4164 7.45 38.8964 7.95C39.3964 8.45 39.6464 9.04 39.6464 9.72V24.48C39.6464 25.18 39.3964 25.78 38.8964 26.28C38.4164 26.76 37.8264 27 37.1264 27C36.4464 27 35.8564 26.76 35.3564 26.28C34.8764 25.78 34.6364 25.18 34.6364 24.48V24.12C33.0164 25.98 31.0864 26.91 28.8464 26.91C27.3464 26.91 25.9564 26.47 24.6764 25.59C23.4164 24.71 22.4164 23.52 21.6764 22.02C20.9364 20.5 20.5664 18.85 20.5664 17.07C20.5664 16.79 20.5664 14.32 20.5664 9.66C20.5664 8.98 20.7964 8.4 21.2564 7.92C21.7164 7.44 22.2664 7.2 22.9064 7.2C23.5664 7.2 24.1264 7.44 24.5864 7.92C25.0664 8.4 25.3064 8.98 25.3064 9.66C25.2864 14.56 25.2764 17.03 25.2764 17.07C25.2764 18.49 25.7064 19.71 26.5664 20.73C27.4264 21.75 28.4564 22.26 29.6564 22.26C30.7564 22.26 31.7964 21.84 32.7764 21C33.7764 20.16 34.3964 19.14 34.6364 17.94V9.72C34.6364 9.04 34.8764 8.45 35.3564 7.95ZM53.2828 22.83C53.6828 23.37 53.8828 23.93 53.8828 24.51C53.8828 25.09 53.6728 25.62 53.2528 26.1C52.8528 26.58 52.3328 26.86 51.6928 26.94C50.0128 27.16 48.4328 26.83 46.9528 25.95C45.8528 25.29 44.9928 24.38 44.3728 23.22C43.7528 22.06 43.4428 20.82 43.4428 19.5V13.95H43.2328C42.6528 13.95 42.1528 13.75 41.7328 13.35C41.3328 12.93 41.1328 12.43 41.1328 11.85C41.1328 11.25 41.3328 10.75 41.7328 10.35C42.1528 9.93 42.6528 9.72 43.2328 9.72H43.4428V6.51C43.4428 5.83 43.6828 5.25 44.1628 4.77C44.6628 4.27 45.2628 4.02 45.9628 4.02C46.6628 4.02 47.2528 4.27 47.7328 4.77C48.2328 5.25 48.4828 5.83 48.4828 6.51V9.72H50.3728C50.9528 9.72 51.4428 9.93 51.8428 10.35C52.2628 10.75 52.4728 11.25 52.4728 11.85C52.4728 12.43 52.2628 12.93 51.8428 13.35C51.4428 13.75 50.9528 13.95 50.3728 13.95H48.4828V19.47C48.4828 20.21 48.7028 20.82 49.1428 21.3C49.6028 21.76 50.1628 21.98 50.8228 21.96C50.9028 21.96 50.9928 21.95 51.0928 21.93C51.9528 21.79 52.6828 22.09 53.2828 22.83ZM69.1842 9.15C69.6242 9.59 69.8442 10.12 69.8442 10.74C69.8442 11.4 69.6142 11.96 69.1542 12.42C68.7142 12.86 68.1542 13.08 67.4742 13.08C66.8342 13.08 66.2542 12.82 65.7342 12.3C65.1742 11.84 64.3942 11.61 63.3942 11.61C62.8342 11.61 62.3642 11.75 61.9842 12.03C61.6042 12.31 61.4142 12.65 61.4142 13.05C61.4142 13.79 61.8842 14.31 62.8242 14.61L65.4942 15.39C66.1542 15.59 66.7142 15.79 67.1742 15.99C67.6542 16.17 68.1542 16.42 68.6742 16.74C69.1942 17.06 69.6142 17.42 69.9342 17.82C70.2542 18.2 70.5142 18.69 70.7142 19.29C70.9342 19.89 71.0442 20.56 71.0442 21.3C71.0442 22.5 70.6442 23.56 69.8442 24.48C69.0442 25.38 68.0642 26.05 66.9042 26.49C65.7642 26.91 64.5742 27.12 63.3342 27.12C62.0542 27.12 60.8442 26.92 59.7042 26.52C58.5842 26.12 57.6542 25.58 56.9142 24.9C56.3542 24.3 56.0742 23.64 56.0742 22.92C56.0742 22.36 56.2842 21.87 56.7042 21.45C57.1242 21.01 57.6642 20.79 58.3242 20.79C59.0842 20.79 59.6842 21.05 60.1242 21.57C60.6642 22.09 61.1742 22.44 61.6542 22.62C62.1342 22.8 62.7442 22.89 63.4842 22.89C64.1642 22.89 64.7242 22.74 65.1642 22.44C65.6242 22.12 65.8542 21.74 65.8542 21.3C65.8542 20.88 65.7442 20.51 65.5242 20.19C65.3042 19.87 64.8542 19.61 64.1742 19.41L61.7742 18.72C59.8742 18.16 58.4842 17.44 57.6042 16.56C56.7242 15.66 56.2842 14.46 56.2842 12.96C56.2842 11.86 56.6442 10.87 57.3642 9.99C58.1042 9.11 58.9942 8.46 60.0342 8.04C61.0742 7.6 62.1542 7.38 63.2742 7.38C64.8342 7.38 66.0242 7.52 66.8442 7.8C67.6642 8.06 68.4442 8.51 69.1842 9.15ZM79.6191 20.82C80.4991 21.84 81.5591 22.35 82.7991 22.35C84.0591 22.35 85.1291 21.84 86.0091 20.82C86.9091 19.8 87.3591 18.58 87.3591 17.16C87.3591 15.72 86.9091 14.5 86.0091 13.5C85.1291 12.48 84.0591 11.97 82.7991 11.97C81.5591 11.97 80.4991 12.48 79.6191 13.5C78.7391 14.5 78.2991 15.72 78.2991 17.16C78.2991 18.58 78.7391 19.8 79.6191 20.82ZM83.6391 7.29C85.1991 7.29 86.6391 7.73 87.9591 8.61C89.2791 9.49 90.3191 10.69 91.0791 12.21C91.8591 13.71 92.2491 15.36 92.2491 17.16C92.2491 18.94 91.8591 20.59 91.0791 22.11C90.3191 23.61 89.2791 24.8 87.9591 25.68C86.6391 26.56 85.1991 27 83.6391 27C82.4791 27 81.3691 26.75 80.3091 26.25C79.2691 25.73 78.3591 25.02 77.5791 24.12V24.48C77.5791 25.18 77.3291 25.78 76.8291 26.28C76.3491 26.76 75.7591 27 75.0591 27C74.3591 27 73.7591 26.76 73.2591 26.28C72.7791 25.78 72.5391 25.18 72.5391 24.48V3.33C72.5391 2.63 72.7791 2.04 73.2591 1.56C73.7591 1.06 74.3591 0.809999 75.0591 0.809999C75.7591 0.809999 76.3491 1.06 76.8291 1.56C77.3291 2.04 77.5791 2.63 77.5791 3.33V10.2C78.3591 9.28 79.2691 8.57 80.3091 8.07C81.3691 7.55 82.4791 7.29 83.6391 7.29ZM110.13 7.53C110.77 7.23 111.41 7.21 112.05 7.47C112.71 7.73 113.18 8.18 113.46 8.82C113.74 9.44 113.76 10.08 113.52 10.74L104.25 34.47C103.99 35.13 103.54 35.6 102.9 35.88C102.28 36.16 101.64 36.17 100.98 35.91C100.34 35.67 99.88 35.23 99.6 34.59C99.32 33.95 99.3 33.31 99.54 32.67L101.76 26.97L94.32 10.89C94.04 10.25 94.02 9.61 94.26 8.97C94.5 8.31 94.93 7.84 95.55 7.56C96.19 7.26 96.83 7.23 97.47 7.47C98.13 7.71 98.61 8.14 98.91 8.76L104.31 20.46L108.81 8.91C109.07 8.27 109.51 7.81 110.13 7.53Z" fill="#FF9900"/>
</svg>
