<svg width="31" height="17" viewBox="0 0 31 17" fill="none" xmlns="http://www.w3.org/2000/svg">
<rect x="0.144531" y="0.224609" width="29.8667" height="16" rx="3" fill="#FF9900"/>
<path d="M10.7928 9.8885C10.4898 10.0368 9.81653 10.1986 8.94125 10.1986C6.45006 10.1986 5.16406 8.64146 5.16406 6.58551C5.16406 4.11838 6.92136 2.75 9.10284 2.75C9.95119 2.75 10.5908 2.91852 10.8803 3.07356L10.5504 4.36779C10.2205 4.22623 9.75593 4.09816 9.18363 4.09816C7.89091 4.09816 6.88096 4.88009 6.88096 6.49114C6.88096 7.94041 7.73605 8.85042 9.19036 8.85042C9.68187 8.85042 10.2272 8.74257 10.5504 8.61449L10.7928 9.8885Z" fill="#1A0D00"/>
<path d="M18.142 6.40351C18.142 8.76953 16.7078 10.2053 14.6004 10.2053C12.4594 10.2053 11.207 8.58753 11.207 6.53159C11.207 4.36779 12.5873 2.75 14.7216 2.75C16.9368 2.75 18.142 4.40824 18.142 6.40351ZM12.9307 6.49788C12.9307 7.91345 13.5972 8.91109 14.688 8.91109C15.7922 8.91109 16.4251 7.85952 16.4251 6.45744C16.4251 5.1632 15.8056 4.04423 14.6812 4.04423C13.577 4.04423 12.9307 5.0958 12.9307 6.49788Z" fill="#1A0D00"/>
<path d="M19.2148 2.96666C19.8141 2.87229 20.5951 2.81836 21.4233 2.81836C22.79 2.81836 23.6788 3.06777 24.379 3.58681C25.1264 4.1463 25.5977 5.03608 25.5977 6.31009C25.5977 7.69195 25.0927 8.64915 24.3992 9.2356C23.6384 9.86923 22.4803 10.1658 21.0731 10.1658C20.2248 10.1658 19.6256 10.1119 19.2216 10.058V2.96666H19.2148ZM20.8577 8.85811C20.9991 8.89182 21.2213 8.89182 21.4233 8.89182C22.8978 8.9053 23.8606 8.08966 23.8606 6.36402C23.874 4.86082 22.992 4.07215 21.5916 4.07215C21.228 4.07215 20.9923 4.10585 20.851 4.13956V8.85811H20.8577Z" fill="#1A0D00"/>
<path d="M6.63221 12.9898C6.56488 13.0235 6.41003 13.0707 6.2215 13.0707C5.7906 13.0707 5.50781 12.7741 5.50781 12.3359C5.50781 11.891 5.8108 11.5742 6.27537 11.5742C6.43023 11.5742 6.56488 11.6147 6.63895 11.6484L6.57835 11.8506C6.51775 11.8169 6.41676 11.7832 6.27537 11.7832C5.94545 11.7832 5.7704 12.0259 5.7704 12.3292C5.7704 12.6595 5.98585 12.8685 6.26864 12.8685C6.41676 12.8685 6.51775 12.828 6.59182 12.7943L6.63221 12.9898Z" fill="#1A0D00"/>
<path d="M7.72643 13.037L7.70623 12.855H7.6995C7.61871 12.9696 7.46385 13.0707 7.26186 13.0707C6.97234 13.0707 6.82422 12.8685 6.82422 12.6595C6.82422 12.3157 7.13393 12.1202 7.68604 12.127V12.1C7.68604 11.9787 7.65237 11.7697 7.36285 11.7697C7.2282 11.7697 7.09354 11.8101 6.99254 11.8776L6.93195 11.7023C7.05314 11.6281 7.22146 11.5742 7.40325 11.5742C7.84089 11.5742 7.94862 11.8708 7.94862 12.1607V12.6999C7.94862 12.8213 7.95535 12.9493 7.97555 13.0437H7.72643V13.037ZM7.69277 12.309C7.40998 12.3022 7.0868 12.3562 7.0868 12.6325C7.0868 12.801 7.20126 12.8819 7.33592 12.8819C7.52445 12.8819 7.63891 12.7606 7.6793 12.6393C7.68604 12.6123 7.69277 12.5853 7.69277 12.5584V12.309Z" fill="#1A0D00"/>
<path d="M8.32972 12.7741C8.40378 12.8213 8.54517 12.8752 8.6731 12.8752C8.86162 12.8752 8.94915 12.7808 8.94915 12.6595C8.94915 12.5382 8.87508 12.464 8.67983 12.3966C8.42398 12.3022 8.30278 12.1607 8.30278 11.9921C8.30278 11.763 8.49131 11.5742 8.79429 11.5742C8.94241 11.5742 9.06361 11.6147 9.1444 11.6618L9.07707 11.8506C9.02321 11.8169 8.91548 11.7697 8.78082 11.7697C8.62597 11.7697 8.53844 11.8573 8.53844 11.9652C8.53844 12.0865 8.62597 12.1404 8.80775 12.2079C9.05687 12.3022 9.1848 12.4303 9.1848 12.6393C9.1848 12.8887 8.98954 13.0707 8.64616 13.0707C8.49131 13.0707 8.34318 13.0302 8.24219 12.9696L8.32972 12.7741Z" fill="#1A0D00"/>
<path d="M9.54297 10.9336H9.80555V11.8301H9.81229C9.85268 11.756 9.92001 11.6886 10.0008 11.6481C10.0749 11.6009 10.1691 11.574 10.2701 11.574C10.4654 11.574 10.7684 11.6953 10.7684 12.1874V13.0435H10.5058V12.2211C10.5058 11.9919 10.4183 11.7964 10.1759 11.7964C10.0075 11.7964 9.87288 11.9178 9.82575 12.0593C9.81229 12.093 9.80555 12.1335 9.80555 12.1806V13.0435H9.54297V10.9336Z" fill="#1A0D00"/>
<path d="M13.1075 12.3059C13.1075 12.8385 12.7372 13.0677 12.3938 13.0677C12.0033 13.0677 11.707 12.7845 11.707 12.3262C11.707 11.8476 12.0235 11.5645 12.4207 11.5645C12.8314 11.5712 13.1075 11.8678 13.1075 12.3059ZM11.9696 12.3194C11.9696 12.6362 12.1514 12.8722 12.4073 12.8722C12.6564 12.8722 12.8449 12.6362 12.8449 12.3127C12.8449 12.07 12.7237 11.7599 12.414 11.7599C12.1043 11.7667 11.9696 12.0498 11.9696 12.3194Z" fill="#1A0D00"/>
<path d="M13.4392 11.9891C13.4392 11.8408 13.4392 11.7195 13.4258 11.5982H13.6547L13.6682 11.8341H13.6749C13.749 11.6993 13.9106 11.5645 14.1462 11.5645C14.3415 11.5645 14.6512 11.6858 14.6512 12.1779V13.0339H14.3886V12.2048C14.3886 11.9756 14.3011 11.7802 14.0587 11.7802C13.8836 11.7802 13.7557 11.9015 13.7086 12.0498C13.6951 12.0835 13.6884 12.1239 13.6884 12.1711V13.0339H13.4258V11.9891H13.4392Z" fill="#1A0D00"/>
<path d="M16.9482 10.9336V12.666C16.9482 12.7941 16.9482 12.9356 16.9616 13.0367H16.726L16.7125 12.7873H16.7058C16.625 12.9491 16.4499 13.0704 16.2143 13.0704C15.8709 13.0704 15.6016 12.7738 15.6016 12.3424C15.6016 11.8638 15.8978 11.574 16.2412 11.574C16.4634 11.574 16.6115 11.6751 16.6721 11.7964H16.6788V10.9403H16.9482V10.9336ZM16.6856 12.1874C16.6856 12.1537 16.6856 12.1132 16.6721 12.0795C16.6317 11.911 16.4903 11.7762 16.2951 11.7762C16.0257 11.7762 15.8641 12.0121 15.8641 12.3289C15.8641 12.6188 16.0055 12.8615 16.2883 12.8615C16.4634 12.8615 16.625 12.7469 16.6721 12.5514C16.6788 12.5177 16.6856 12.4772 16.6856 12.4368V12.1874Z" fill="#1A0D00"/>
<path d="M17.5226 12.3696C17.5293 12.7202 17.7515 12.8685 18.0141 12.8685C18.2026 12.8685 18.3103 12.8347 18.4113 12.7943L18.4584 12.983C18.3642 13.0235 18.2093 13.0707 17.9804 13.0707C17.536 13.0707 17.2734 12.7808 17.2734 12.3494C17.2734 11.918 17.5293 11.5742 17.9467 11.5742C18.418 11.5742 18.5392 11.9854 18.5392 12.2483C18.5392 12.3022 18.5325 12.3427 18.5325 12.3696H17.5226ZM18.2834 12.1809C18.2834 12.0124 18.2161 11.7562 17.9198 11.7562C17.6572 11.7562 17.5428 11.9989 17.5226 12.1809H18.2834Z" fill="#1A0D00"/>
<path d="M18.8633 10.9336H19.1259V13.0367H18.8633V10.9336Z" fill="#1A0D00"/>
<path d="M19.8544 11.2032C19.8544 11.2909 19.7938 11.365 19.6861 11.365C19.5918 11.365 19.5312 11.2909 19.5312 11.2032C19.5312 11.1088 19.5986 11.0414 19.6928 11.0414C19.7938 11.0347 19.8544 11.1088 19.8544 11.2032ZM19.5649 13.0367V11.6009H19.8275V13.0367H19.5649Z" fill="#1A0D00"/>
<path d="M20.3598 11.6016L20.6426 12.4105C20.6897 12.5385 20.7301 12.6599 20.7571 12.7812H20.7638C20.7975 12.6599 20.8379 12.5453 20.885 12.4105L21.1611 11.6016H21.4304L20.8648 13.0374H20.6157L20.0703 11.6016H20.3598Z" fill="#1A0D00"/>
<path d="M21.7921 12.3696C21.7988 12.7202 22.021 12.8685 22.2836 12.8685C22.4721 12.8685 22.5798 12.8347 22.6808 12.7943L22.728 12.983C22.6337 13.0235 22.4788 13.0707 22.2499 13.0707C21.8056 13.0707 21.543 12.7808 21.543 12.3494C21.543 11.918 21.7988 11.5742 22.2163 11.5742C22.6876 11.5742 22.8088 11.9854 22.8088 12.2483C22.8088 12.3022 22.802 12.3427 22.802 12.3696H21.7921ZM22.5596 12.1809C22.5596 12.0124 22.4923 11.7562 22.1961 11.7562C21.9335 11.7562 21.819 11.9989 21.7988 12.1809H22.5596Z" fill="#1A0D00"/>
<path d="M23.1385 12.0528C23.1385 11.8843 23.1385 11.736 23.125 11.6079H23.3539L23.3607 11.891H23.3741C23.4414 11.6956 23.5963 11.5742 23.7714 11.5742C23.7983 11.5742 23.8185 11.5742 23.8454 11.581V11.8304C23.8185 11.8236 23.7916 11.8236 23.7579 11.8236C23.5761 11.8236 23.4414 11.9652 23.4078 12.1607C23.401 12.1944 23.3943 12.2348 23.3943 12.282V13.0505H23.1385V12.0528Z" fill="#1A0D00"/>
<path d="M24.2711 11.6016L24.5875 12.4509C24.6212 12.5453 24.6548 12.6599 24.6818 12.7475H24.6885C24.7154 12.6599 24.7424 12.552 24.7828 12.4509L25.0656 11.6083H25.3416L24.9511 12.6329C24.7626 13.125 24.6346 13.3744 24.4596 13.5294C24.3317 13.644 24.2037 13.6845 24.1364 13.6979L24.0691 13.4755C24.1364 13.4553 24.2172 13.4148 24.298 13.3474C24.3721 13.2935 24.4596 13.1924 24.5202 13.0576C24.5336 13.0306 24.5404 13.0104 24.5404 12.9969C24.5404 12.9834 24.5336 12.9632 24.5202 12.9295L23.9883 11.6083H24.2711V11.6016Z" fill="#1A0D00"/>
</svg>
