<svg width="30" height="30" viewBox="0 0 30 30" fill="none" xmlns="http://www.w3.org/2000/svg">
<g clip-path="url(#clip0_8_1286)">
<path d="M15 30C23.2843 30 30 23.2843 30 15C30 6.71573 23.2843 0 15 0C6.71573 0 0 6.71573 0 15C0 23.2843 6.71573 30 15 30Z" fill="#FF9900"/>
<path d="M13.1423 18.1117C11.0375 18.1117 9.11457 16.6955 8.47794 14.6816C8.25056 13.9605 8.1791 13.2265 8.26356 12.4794C8.48443 10.4135 10.0371 8.62706 12.0574 8.1918C13.9608 7.78254 15.5849 8.34122 16.8582 9.81588C17.7742 10.8748 18.1639 12.1286 18.0275 13.5188C17.8261 15.5521 16.7672 16.9813 14.8833 17.7869C14.3636 18.0077 13.7335 18.1117 13.1423 18.1117ZM14.7989 16.1173C13.4606 16.2083 12.3173 15.825 11.3688 14.9025C10.4333 13.9865 10.0176 12.8497 10.0111 11.5504C9.22501 12.8432 9.36143 14.7531 10.7127 15.9224C11.9989 17.0333 13.727 16.9164 14.7989 16.1173Z" fill="#FF9900"/>
<path d="M22.4167 7H6.58333C5.7092 7 5 7.71987 5 8.60714V20.3929C5 21.2801 5.7092 22 6.58333 22H22.4167C23.2908 22 24 21.2801 24 20.3929V8.60714C24 7.71987 23.2908 7 22.4167 7ZM10.8056 10.2143C11.97 10.2143 12.9167 11.1752 12.9167 12.3571C12.9167 13.5391 11.97 14.5 10.8056 14.5C9.64115 14.5 8.69444 13.5391 8.69444 12.3571C8.69444 11.1752 9.64115 10.2143 10.8056 10.2143ZM14.5 18.1429C14.5 18.4978 14.1701 18.7857 13.7611 18.7857H7.85C7.44097 18.7857 7.11111 18.4978 7.11111 18.1429V17.5C7.11111 16.4353 8.10399 15.5714 9.32778 15.5714H9.49271C9.89844 15.7422 10.3405 15.8393 10.8056 15.8393C11.2707 15.8393 11.716 15.7422 12.1184 15.5714H12.2833C13.5071 15.5714 14.5 16.4353 14.5 17.5V18.1429ZM21.8889 16.375C21.8889 16.5223 21.7701 16.6429 21.625 16.6429H16.875C16.7299 16.6429 16.6111 16.5223 16.6111 16.375V15.8393C16.6111 15.692 16.7299 15.5714 16.875 15.5714H21.625C21.7701 15.5714 21.8889 15.692 21.8889 15.8393V16.375ZM21.8889 14.2321C21.8889 14.3795 21.7701 14.5 21.625 14.5H16.875C16.7299 14.5 16.6111 14.3795 16.6111 14.2321V13.6964C16.6111 13.5491 16.7299 13.4286 16.875 13.4286H21.625C21.7701 13.4286 21.8889 13.5491 21.8889 13.6964V14.2321ZM21.8889 12.0893C21.8889 12.2366 21.7701 12.3571 21.625 12.3571H16.875C16.7299 12.3571 16.6111 12.2366 16.6111 12.0893V11.5536C16.6111 11.4062 16.7299 11.2857 16.875 11.2857H21.625C21.7701 11.2857 21.8889 11.4062 21.8889 11.5536V12.0893Z" fill="white"/>
</g>
<defs>
<clipPath id="clip0_8_1286">
<rect width="30" height="30" fill="white"/>
</clipPath>
</defs>
</svg>
