<svg width="15" height="10" viewBox="0 0 15 10" fill="none" xmlns="http://www.w3.org/2000/svg">
<g clip-path="url(#clip0_3125_2751)">
<path d="M7.5 10C5.40909 10 3.31818 10 1.22727 10C0.5 10 0.0454545 9.48837 0.0454545 8.7907C0.0454545 7.95349 0.0454545 7.11628 0.0454545 6.27907C0.0454545 6 0.181818 5.86047 0.454545 5.86047C0.909091 5.86047 1.22727 5.44186 1.22727 5.02326C1.22727 4.55814 0.863636 4.23256 0.454545 4.18605C0.136364 4.13953 0 4 0 3.72093C0 2.88372 0 2.04651 0 1.2093C0 0.511628 0.5 0 1.18182 0C5.40909 0 9.59091 0 13.8182 0C14.5 0 15 0.511628 15 1.2093C15 2.04651 15 2.93023 15 3.76744C15 4 14.8636 4.13953 14.6364 4.13953C14.1818 4.13953 13.8182 4.51163 13.8182 4.97674C13.8182 5.44186 14.1818 5.81395 14.5909 5.81395C14.8182 5.81395 14.9545 5.95349 14.9545 6.18605C14.9545 7.02326 14.9545 7.90698 14.9545 8.74419C14.9545 9.44186 14.4545 9.90698 13.8182 9.90698C11.7273 10 9.59091 10 7.5 10ZM14.3182 3.48837C14.3182 3.44186 14.3182 3.39535 14.3182 3.34884C14.3182 2.65116 14.3182 1.95349 14.3182 1.25581C14.3182 0.883721 14.1364 0.697674 13.7727 0.697674C10.6818 0.697674 7.63636 0.697674 4.54545 0.697674C4.5 0.697674 4.45455 0.697674 4.40909 0.697674C4.40909 0.837209 4.40909 0.930233 4.40909 1.06977C4.18182 1.06977 4 1.06977 3.77273 1.06977C3.77273 0.930233 3.77273 0.837209 3.77273 0.697674C3.72727 0.697674 3.68182 0.697674 3.63636 0.697674C2.81818 0.697674 2 0.697674 1.18182 0.697674C0.863636 0.697674 0.681818 0.883721 0.681818 1.2093C0.681818 1.95349 0.681818 2.65116 0.681818 3.39535C0.681818 3.48837 0.727273 3.53488 0.772727 3.53488C1.40909 3.72093 1.81818 4.32558 1.86364 4.97674C1.86364 5.67442 1.45455 6.23256 0.818182 6.46512C0.727273 6.51163 0.727273 6.55814 0.727273 6.60465C0.727273 7.30233 0.727273 8.04651 0.727273 8.74419C0.727273 9.06977 0.909091 9.25581 1.22727 9.25581C2.04545 9.25581 2.86364 9.25581 3.68182 9.25581C3.72727 9.25581 3.77273 9.25581 3.81818 9.25581C3.81818 9.11628 3.81818 9.02326 3.81818 8.93023C4.04545 8.93023 4.22727 8.93023 4.45455 8.93023C4.45455 9.06977 4.45455 9.16279 4.45455 9.30233C4.5 9.30233 4.54545 9.30233 4.59091 9.30233C7.68182 9.30233 10.7727 9.30233 13.8636 9.30233C14.1818 9.30233 14.3636 9.11628 14.3636 8.7907C14.3636 8.09302 14.3636 7.34884 14.3636 6.65116C14.3636 6.55814 14.3182 6.51163 14.2273 6.51163C13.3636 6.23256 12.9545 5.25581 13.3182 4.4186C13.5 3.90698 13.8182 3.62791 14.3182 3.48837Z" fill="#FF9900"/>
<path d="M6.13281 3.53488C6.13281 2.69767 6.81463 2 7.63281 2C8.45099 2 9.13281 2.69767 9.13281 3.53488C9.13281 4.37209 8.45099 5.06977 7.63281 5.06977C6.76918 5.06977 6.13281 4.37209 6.13281 3.53488ZM7.58736 2.69767C7.13281 2.69767 6.76918 3.06977 6.76918 3.53488C6.76918 4 7.13281 4.37209 7.58736 4.37209C8.0419 4.37209 8.40554 4 8.40554 3.53488C8.40554 3.06977 8.0419 2.69767 7.58736 2.69767Z" fill="#FF9900"/>
<path d="M10.5 8.00043C9.68182 8.00043 9 7.34927 9 6.46555C9 5.62834 9.68182 4.93066 10.5 4.93066C11.3182 4.93066 12 5.62834 12 6.46555C11.9545 7.30276 11.3182 8.00043 10.5 8.00043ZM10.5 7.30276C10.9545 7.30276 11.3182 6.93066 11.3182 6.46555C11.3182 6.00043 10.9545 5.62834 10.5 5.62834C10.0455 5.62834 9.68182 6.00043 9.68182 6.46555C9.68182 6.93066 10.0455 7.30276 10.5 7.30276Z" fill="#FF9900"/>
<path d="M7.22818 7.20902C7.09182 7.20902 7.00091 7.116 6.91 7.02298C6.86454 6.88344 6.86454 6.74391 7.00091 6.65088C7.27363 6.37181 7.54636 6.09274 7.81909 5.81367C8.72818 4.88344 9.63727 3.95321 10.5464 3.06949C10.5918 3.02298 10.6827 2.92995 10.7736 2.92995C10.91 2.79042 11.0918 2.83693 11.1373 2.97647C11.1827 3.116 11.1827 3.25554 11.0918 3.39507C11.0009 3.48809 10.91 3.58112 10.8191 3.67414C9.72818 4.79042 8.59182 5.95321 7.50091 7.06949C7.45545 7.116 7.36454 7.20902 7.22818 7.20902Z" fill="#FF9900"/>
<path d="M3.77344 2.88379C4.00071 2.88379 4.18253 2.88379 4.4098 2.88379C4.4098 3.25588 4.4098 3.67449 4.4098 4.04658C4.18253 4.04658 4.00071 4.04658 3.77344 4.04658C3.77344 3.67449 3.77344 3.30239 3.77344 2.88379Z" fill="#FF9900"/>
<path d="M3.77344 8.6042C3.77344 8.2321 3.77344 7.8135 3.77344 7.44141C4.00071 7.44141 4.18253 7.44141 4.4098 7.44141C4.4098 7.8135 4.4098 8.2321 4.4098 8.6042C4.18253 8.6042 4.00071 8.6042 3.77344 8.6042Z" fill="#FF9900"/>
<path d="M3.77344 4.41895C4.00071 4.41895 4.18253 4.41895 4.4098 4.41895C4.4098 4.79104 4.4098 5.20964 4.4098 5.58174C4.18253 5.58174 4.00071 5.58174 3.77344 5.58174C3.77344 5.20964 3.77344 4.79104 3.77344 4.41895Z" fill="#FF9900"/>
<path d="M3.77344 2.5583C3.77344 2.13969 3.77344 1.7676 3.77344 1.39551C4.00071 1.39551 4.18253 1.39551 4.4098 1.39551C4.4098 1.7676 4.4098 2.18621 4.4098 2.5583C4.18253 2.5583 4.00071 2.5583 3.77344 2.5583Z" fill="#FF9900"/>
<path d="M4.4098 7.11653C4.18253 7.11653 4.00071 7.11653 3.77344 7.11653C3.77344 6.93048 3.77344 6.74444 3.77344 6.51188C3.77344 6.32583 3.77344 6.13978 3.77344 5.90723C4.00071 5.90723 4.18253 5.90723 4.4098 5.90723C4.4098 6.32583 4.4098 6.69792 4.4098 7.11653Z" fill="#FF9900"/>
</g>
<defs>
<clipPath id="clip0_3125_2751">
<rect width="15" height="10" fill="black"/>
</clipPath>
</defs>
</svg>
