<svg width="11" height="11" viewBox="0 0 11 11" fill="none" xmlns="http://www.w3.org/2000/svg">
<g clip-path="url(#clip0_1869_43125)">
<path d="M1.41114 3.27162C1.84549 4.15147 1.38342 4.87048 0.625623 5.52328C0.385346 5.72195 0.440795 6.01523 0.662589 6.17607C1.46659 6.79101 1.70687 7.55733 1.4019 8.53179C1.30025 8.87238 1.5128 9.08051 1.84549 9.08997C2.76963 9.1089 3.38881 9.52517 3.69377 10.4334C3.81391 10.8024 4.1004 10.9254 4.42385 10.6983C5.20013 10.159 5.95792 10.1401 6.7342 10.6983C7.05765 10.9348 7.34413 10.8024 7.46427 10.4429C7.77848 9.55355 8.36993 9.1089 9.30332 9.08051C9.76539 9.06159 9.89477 8.85346 9.75614 8.37096C9.49738 7.53841 9.68221 6.87616 10.3476 6.31798C10.8097 5.93009 10.8097 5.71249 10.3568 5.3246C9.70994 4.77588 9.49738 4.16093 9.72842 3.31892C9.88552 2.76074 9.75614 2.59045 9.19242 2.5526C8.36993 2.5053 7.80621 2.15525 7.51048 1.33217C7.30717 0.764524 7.13158 0.726681 6.59558 0.991582C6.55861 1.0105 6.50317 1.02942 6.4662 1.04835C5.85627 1.50246 5.2833 1.46462 4.64564 1.05781C4.01722 0.669917 3.86012 0.726681 3.58288 1.43624C3.31488 2.12687 2.89901 2.5053 2.14122 2.52422C1.82701 2.52422 1.33721 2.5053 1.41114 3.27162ZM4.29447 9.9509C4.22053 9.84683 4.16509 9.79007 4.1466 9.72384C3.86936 8.88184 3.31488 8.42772 2.4277 8.42772C2.17818 8.42772 2.11349 8.29527 2.18742 8.04929C2.43694 7.25459 2.25211 6.59234 1.58673 6.09092C1.31873 5.89224 1.3557 5.72195 1.59597 5.5422C2.25211 5.05024 2.4277 4.39745 2.19666 3.62167C2.11349 3.33785 2.16894 3.21486 2.47391 3.20539C3.25943 3.18647 3.82315 2.83643 4.08191 2.04172C4.18357 1.72952 4.34067 1.65383 4.62716 1.86197C5.24633 2.31609 5.88399 2.33501 6.51241 1.87143C6.78041 1.67276 6.956 1.68222 7.06689 2.0228C7.32565 2.80804 7.8709 3.18647 8.66566 3.19593C8.97987 3.20539 9.04456 3.36623 8.96138 3.63113C8.71186 4.44475 8.93366 5.07862 9.59904 5.58004C9.81159 5.74087 9.82083 5.91117 9.59904 6.072C8.93366 6.56396 8.71186 7.20729 8.96138 8.02091C9.04456 8.29527 8.95214 8.43718 8.65642 8.44664C7.88938 8.46556 7.33489 8.80615 7.08537 9.58193C6.97448 9.92252 6.80813 9.98874 6.51241 9.76169C6.05034 9.41164 5.52358 9.32649 4.98757 9.57247C4.75654 9.66708 4.55323 9.80899 4.29447 9.9509Z" fill="white"/>
<path d="M3.71473 4.22714C3.80714 4.36905 3.87183 4.51096 3.98273 4.61503C4.91612 5.58003 5.85874 6.55448 6.81985 7.50056C6.93074 7.60462 7.15254 7.5857 7.32812 7.62355C7.29116 7.45325 7.31888 7.21673 7.21723 7.11267C6.26536 6.10037 5.29501 5.11645 4.32466 4.14199C4.22301 4.03793 4.03818 4.019 3.88108 4.00008C3.83487 3.99062 3.77942 4.13253 3.71473 4.22714Z" fill="white"/>
<path d="M6.7222 3.72575C6.24165 3.74468 5.87199 4.16095 5.89047 4.66237C5.90895 5.15433 6.28785 5.51383 6.75916 5.49491C7.23048 5.48545 7.60938 5.09756 7.60938 4.62452C7.60013 4.14203 7.17503 3.70683 6.7222 3.72575ZM6.73144 4.19879C6.87006 4.39747 7.01792 4.51099 7.00868 4.61506C6.99944 4.72859 6.84234 4.81374 6.74068 4.91781C6.64827 4.8232 6.49116 4.73805 6.47268 4.62452C6.46344 4.52992 6.60206 4.40693 6.73144 4.19879Z" fill="white"/>
<path d="M3.53588 6.99915C3.52664 7.47219 3.95174 7.89792 4.42306 7.89792C4.87589 7.88846 5.26403 7.49111 5.27327 7.01807C5.28251 6.53557 4.91285 6.14768 4.44154 6.13822C3.95175 6.1193 3.54512 6.51665 3.53588 6.99915ZM4.00719 7.02753C4.20126 6.88562 4.31216 6.73425 4.41382 6.73425C4.51547 6.74371 4.60789 6.90454 4.70954 6.99915C4.61713 7.09376 4.53395 7.25459 4.42306 7.27351C4.3214 7.29243 4.20126 7.15052 4.00719 7.02753Z" fill="white"/>
</g>
<defs>
<clipPath id="clip0_1869_43125">
<rect width="10.2303" height="10" fill="white" transform="matrix(-1 0 0 1 10.6953 0.821289)"/>
</clipPath>
</defs>
</svg>
