<svg width="18" height="16" viewBox="0 0 18 16" fill="none" xmlns="http://www.w3.org/2000/svg">
<g clip-path="url(#clip0_870_810)">
<path d="M16.1228 9.51917C16.2618 9.3951 16.3882 9.24622 16.5525 9.17178C17.0075 8.94845 17.3109 8.61347 17.1465 8.142C16.641 6.72761 16.0848 5.32562 15.5287 3.87401C14.2142 4.37029 12.9882 4.84175 11.7495 5.276C11.4209 5.38766 11.0543 5.4621 10.7131 5.4621C9.15844 5.48692 7.60379 5.47451 6.01123 5.38766C8.91829 4.28344 11.838 3.17922 14.7451 2.08741C14.4544 0.809496 14.0625 0.598578 12.925 1.02041C9.22164 2.40999 5.53093 3.79957 1.84022 5.20156C1.39785 5.36285 1.0313 5.69783 0.601562 5.95838C0.66476 5.2884 1.14506 5.01545 1.71383 4.80453C5.2655 3.47699 8.84245 2.17426 12.3688 0.784682C14.2774 0.0402652 14.7071 0.54895 15.2633 2.09982C15.9205 3.93605 16.6662 5.72265 17.3614 7.54647C17.8164 8.72513 17.5131 9.29585 16.2491 9.65565C16.2112 9.61843 16.1607 9.5688 16.1228 9.51917Z" fill="black"/>
<path d="M8.17441 15.4502C6.17738 15.4502 4.16772 15.4502 2.17069 15.4502C1.00786 15.4502 0.578125 15.0159 0.578125 13.8745C0.578125 11.7033 0.578125 9.53205 0.578125 7.36084C0.578125 6.23181 1.03314 5.78516 2.19597 5.78516C6.20266 5.78516 10.1967 5.78516 14.2034 5.78516C15.3536 5.78516 15.8339 6.24421 15.8339 7.34843C15.8339 9.54446 15.8339 11.7281 15.8339 13.9241C15.8339 14.9787 15.3789 15.4378 14.3045 15.4502C12.2569 15.4626 10.222 15.4502 8.17441 15.4502ZM8.21233 6.20699C6.19002 6.20699 4.16772 6.20699 2.15805 6.20699C1.28593 6.20699 0.969947 6.49235 0.969947 7.36084C0.957307 9.55687 0.957307 11.7405 0.969947 13.9365C0.969947 14.7802 1.29857 15.078 2.17069 15.078C6.19002 15.078 10.2094 15.078 14.2287 15.078C15.1134 15.078 15.4294 14.7926 15.4421 13.9489C15.4547 11.7405 15.4547 9.53205 15.4421 7.31121C15.4421 6.47995 15.1261 6.20699 14.2792 6.20699C12.2569 6.19459 10.2346 6.20699 8.21233 6.20699Z" fill="black"/>
<path d="M3.66242 10.4126C3.63715 10.4126 3.62451 10.4126 3.59923 10.4126C1.75387 10.4622 1.91819 10.2885 1.99402 8.51429C2.00666 8.30337 2.36057 7.96839 2.58807 7.94357C3.32116 7.86913 4.05425 7.90635 4.78733 7.91876C4.86317 7.91876 4.96428 7.94357 5.02748 7.98079C5.81112 8.42744 5.39402 9.17186 5.44458 9.7798C5.4825 10.2389 5.10332 10.4001 4.67358 10.4126C4.33231 10.4126 4.00369 10.4001 3.66242 10.4126Z" fill="black"/>
<path d="M6.51715 13.3042C6.23908 13.3042 5.96102 13.3414 5.70823 13.2918C5.56919 13.267 5.4428 13.1057 5.31641 13.0064C5.43016 12.9072 5.55655 12.7459 5.67031 12.7335C6.23908 12.7086 6.79522 12.7086 7.36399 12.7335C7.49038 12.7459 7.60414 12.9072 7.71789 13.0064C7.5915 13.1057 7.46511 13.267 7.32607 13.2918C7.07328 13.3414 6.79522 13.3042 6.51715 13.3042Z" fill="black"/>
<path d="M9.94271 12.7321C10.2334 12.7321 10.5241 12.7073 10.8148 12.7446C10.9159 12.757 11.055 12.9307 11.055 13.0299C11.055 13.1168 10.8907 13.2781 10.7895 13.2905C10.1829 13.3153 9.57617 13.3153 8.98211 13.2905C8.881 13.2905 8.79252 13.1292 8.69141 13.0423C8.79252 12.9431 8.89364 12.7694 9.00739 12.7446C9.31074 12.6949 9.62672 12.7321 9.94271 12.7321Z" fill="black"/>
<path d="M3.11894 13.3041C2.84087 13.3041 2.5628 13.3289 2.29737 13.2917C2.17098 13.2669 2.0825 13.1056 1.96875 13.0064C2.05723 12.9195 2.15834 12.7458 2.24682 12.7458C2.85351 12.721 3.4602 12.721 4.06689 12.7582C4.15537 12.7582 4.30704 12.9443 4.30704 13.0436C4.30704 13.1304 4.14273 13.2917 4.04161 13.3041C3.75091 13.3165 3.43492 13.3041 3.11894 13.3041Z" fill="black"/>
<path d="M13.2166 13.3035C12.9385 13.3035 12.6605 13.3283 12.395 13.2911C12.2686 13.2663 12.1675 13.1174 12.0664 13.0181C12.1549 12.9189 12.2434 12.7452 12.3445 12.7452C12.9512 12.7204 13.5579 12.7204 14.1772 12.7452C14.2657 12.7452 14.43 12.9313 14.43 13.0181C14.43 13.105 14.2783 13.2663 14.1645 13.2787C13.8486 13.3159 13.5326 13.2911 13.2166 13.3035Z" fill="black"/>
</g>
<defs>
<clipPath id="clip0_870_810">
<rect width="17" height="15" fill="white" transform="translate(0.578125 0.449219)"/>
</clipPath>
</defs>
</svg>
