<svg width="326" height="65" viewBox="0 0 326 65" fill="none" xmlns="http://www.w3.org/2000/svg">
<path d="M23.9062 38.5168V0.998047" stroke="#C7C7C7" stroke-miterlimit="10"/>
<path d="M47.1031 60.7691L45.2031 64.8602H2.50312L0.703125 60.7691L18.8031 48.1963H28.9031L47.1031 60.7691Z" fill="#EBEBEB"/>
<path d="M30.2016 36.1221L28.9016 48.1959H18.8016L17.6016 36.1221H30.2016Z" fill="#DBDBDB"/>
<path d="M47.1031 60.7686L45.2031 64.8597H2.50312L0.703125 60.7686H47.1031Z" fill="#DBDBDB"/>
<path d="M116.703 38.5168V0.998047" stroke="#C7C7C7" stroke-miterlimit="10"/>
<path d="M139.9 60.7691L138.1 64.8602H95.4L93.5 60.7691L111.7 48.1963H121.8L139.9 60.7691Z" fill="#EBEBEB"/>
<path d="M122.998 36.1221L121.798 48.1959H111.698L110.398 36.1221H122.998Z" fill="#DBDBDB"/>
<path d="M139.9 60.7686L138.1 64.8597H95.4L93.5 60.7686H139.9Z" fill="#DBDBDB"/>
<path d="M209.609 38.5168V0.998047" stroke="#C7C7C7" stroke-miterlimit="10"/>
<path d="M232.806 60.7691L230.906 64.8602H188.206L186.406 60.7691L204.506 48.1963H214.606L232.806 60.7691Z" fill="#EBEBEB"/>
<path d="M215.905 36.1221L214.605 48.1959H204.505L203.305 36.1221H215.905Z" fill="#DBDBDB"/>
<path d="M232.806 60.7686L230.906 64.8597H188.206L186.406 60.7686H232.806Z" fill="#DBDBDB"/>
<path d="M302.406 38.5168V0.998047" stroke="#C7C7C7" stroke-miterlimit="10"/>
<path d="M325.603 60.7691L323.803 64.8602H281.103L279.203 60.7691L297.403 48.1963H307.503L325.603 60.7691Z" fill="#EBEBEB"/>
<path d="M308.702 36.1221L307.502 48.1959H297.402L296.102 36.1221H308.702Z" fill="#DBDBDB"/>
<path d="M325.603 60.7686L323.803 64.8597H281.103L279.203 60.7686H325.603Z" fill="#DBDBDB"/>
</svg>
