<svg width="32" height="32" viewBox="0 0 32 32" fill="none" xmlns="http://www.w3.org/2000/svg">
<rect width="32" height="32" rx="16" fill="#FF9900" fill-opacity="0.2"/>
<path d="M9 15.4904C9.04702 11.5288 11.9976 8.34304 15.9945 8.00214C16.2061 7.97862 16.6176 8.15496 16.6176 8.249C16.6293 8.49587 16.5353 8.82502 16.3589 8.97784C13.7492 11.3289 13.7022 15.314 16.3354 17.6416C17.9812 19.0993 19.9091 19.4872 22.0251 18.8172C22.1779 18.7702 22.319 18.6644 22.46 18.6761C22.6481 18.6879 22.895 18.7349 23.0125 18.8642C23.0948 18.9582 23.0831 19.2756 22.989 19.3814C22.319 20.1338 21.7194 21.0037 20.9083 21.5797C16.3707 24.883 9.97571 22.144 9.12931 16.5954C9.07053 16.231 9.04702 15.8548 9 15.4904ZM14.8072 9.18944C12.221 9.7537 10.1403 12.3046 9.97571 15.0319C9.79937 18.0648 11.645 20.7803 14.5368 21.7443C16.9114 22.5319 20.1089 21.709 21.261 19.9927C18.2868 20.2631 15.877 19.2756 14.3723 16.6542C12.9263 14.1503 13.1967 11.6346 14.8072 9.18944Z" fill="#FF9900"/>
</svg>
