<svg width="292" height="150" viewBox="0 0 292 150" fill="none" xmlns="http://www.w3.org/2000/svg">
<g clip-path="url(#clip0_3125_3972)">
<path d="M140.298 149.7C199.062 149.7 246.698 142.089 246.698 132.7C246.698 123.311 199.062 115.7 140.298 115.7C81.5353 115.7 33.8984 123.311 33.8984 132.7C33.8984 142.089 81.5353 149.7 140.298 149.7Z" fill="#EBEBEB"/>
<path d="M26.6 43H0V69.6H26.6V43Z" fill="#1A0D00"/>
<path d="M13.2984 65.2004C18.2138 65.2004 22.1984 61.2157 22.1984 56.3004C22.1984 51.3851 18.2138 47.4004 13.2984 47.4004C8.3831 47.4004 4.39844 51.3851 4.39844 56.3004C4.39844 61.2157 8.3831 65.2004 13.2984 65.2004Z" fill="#455A64"/>
<path d="M11.7031 52.7002H9.70312V60.0002H11.7031V52.7002Z" fill="#263238"/>
<path d="M17.2031 52.7002H15.2031V60.0002H17.2031V52.7002Z" fill="#263238"/>
<path d="M84.5953 85.8003C85.5953 87.9003 81.7953 103.1 80.5953 106.2C79.3953 109.3 75.1953 126.7 73.1953 127.5C71.1953 128.3 61.2953 128 59.8953 127.5C58.4953 127 59.8953 124 61.4953 123C63.0953 122 64.9953 120.4 64.9953 120.4C64.9953 120.4 62.0953 93.5003 62.5953 90.5003C63.1953 87.4003 81.9953 80.1003 84.5953 85.8003Z" fill="#FF9900" fill-opacity="0.94"/>
<path opacity="0.1" d="M84.5953 85.8003C85.5953 87.9003 81.7953 103.1 80.5953 106.2C79.3953 109.3 75.1953 126.7 73.1953 127.5C71.1953 128.3 61.2953 128 59.8953 127.5C58.4953 127 59.8953 124 61.4953 123C63.0953 122 64.9953 120.4 64.9953 120.4C64.9953 120.4 62.0953 93.5003 62.5953 90.5003C63.1953 87.4003 81.9953 80.1003 84.5953 85.8003Z" fill="black"/>
<path opacity="0.1" d="M63.8953 126.4C63.9953 125.9 64.1953 125.3 64.4953 124.9C64.7953 124.5 65.1953 124.1 65.5953 123.7C65.9953 123.4 66.4953 123.1 66.9953 123C67.0953 123 67.0953 123.1 67.0953 123.1C66.8953 123.3 66.6953 123.4 66.5953 123.6C66.3953 123.8 66.1953 123.9 66.0953 124.1C65.7953 124.5 65.4953 124.8 65.2953 125.3C65.0953 125.7 64.7953 126.1 64.5953 126.6C64.3953 127 64.2953 127.5 64.0953 128C64.0953 128.1 63.8953 128.1 63.8953 128C63.7953 127.4 63.7953 126.9 63.8953 126.4Z" fill="black"/>
<path opacity="0.1" d="M61.0945 124.8C61.5945 123.8 62.4945 123.1 63.4945 122.7C63.5945 122.7 63.5945 122.8 63.5945 122.8C62.8945 123.4 62.1945 124.1 61.6945 125C61.1945 125.9 60.9945 126.9 61.2945 127.9C61.2945 127.9 61.2945 128 61.1945 127.9C60.4945 126.9 60.4945 125.7 61.0945 124.8Z" fill="black"/>
<path opacity="0.1" d="M63.4917 105.3L77.0917 118.2C78.5917 113.3 79.9917 107.9 80.5917 106.3C81.7917 103.2 85.5917 87.9999 84.5917 85.8999C81.9917 80.1999 63.0917 87.4999 62.5917 90.4999C62.3917 91.8999 62.8917 98.5999 63.4917 105.3Z" fill="black"/>
<path d="M135.891 101C136.491 101.5 141.791 96.5002 142.591 94.1002C143.391 91.7002 139.991 85.0002 140.591 83.9002C141.191 82.8002 144.091 81.8002 145.691 83.6002C147.191 85.4002 151.091 94.9002 150.291 99.0002C149.491 103.1 141.191 112.3 140.391 112.2C139.591 112.2 135.891 101 135.891 101Z" fill="#FF9900" fill-opacity="0.94"/>
<path opacity="0.1" d="M135.891 101C135.891 101 139.491 112.2 140.391 112.2C140.991 112.2 145.591 107.3 148.291 103.1L140.791 96.7998C138.991 99.0998 136.291 101.4 135.891 101Z" fill="black"/>
<path d="M105.693 54.7998H61.293C61.293 54.7998 57.993 83.9998 58.393 87.8998C58.793 91.7998 78.293 120.4 84.293 124.1C90.393 127.9 125.093 128 133.593 126.1C140.193 124.7 145.693 116.3 142.893 103.3C141.693 97.5998 126.293 84.1998 124.093 81.5998C121.993 78.9998 105.693 54.7998 105.693 54.7998Z" fill="#C7C7C7"/>
<path d="M58.3939 87.9002C58.7939 91.8002 78.2939 120.4 84.2939 124.1C90.3939 127.9 125.094 128 133.594 126.1C140.194 124.6 145.694 116.3 142.894 103.3C141.694 97.6002 126.294 84.2002 124.094 81.6002C122.794 80.0002 116.194 70.3002 111.194 63.0002C108.094 58.4002 105.594 54.7002 105.594 54.7002H61.2939C61.2939 54.7002 60.4939 62.0002 59.6939 69.8002C58.8939 77.7002 58.1939 85.9002 58.3939 87.9002Z" fill="#FF9900" fill-opacity="0.94"/>
<path opacity="0.1" d="M59.6953 69.9002C83.5953 77.3002 104.795 66.8002 111.295 63.0002C108.195 58.4002 105.695 54.7002 105.695 54.7002H61.2953C61.2953 54.8002 60.4953 62.1002 59.6953 69.9002Z" fill="black"/>
<path d="M134.498 101.901C134.498 101.901 122.298 94.2008 113.698 95.6008C105.098 97.0008 102.098 114.601 106.198 124.501C106.198 124.501 98.3984 126.801 98.3984 130.601C98.3984 132.801 102.898 133.401 109.298 133.301C115.698 133.101 128.598 133.001 128.798 131.401C129.098 129.801 127.998 127.501 127.998 127.501C127.998 127.501 139.598 126.201 141.798 118.501C143.998 110.801 136.398 103.201 134.498 101.901Z" fill="#FF9900" fill-opacity="0.94"/>
<path opacity="0.1" d="M117.802 125.4C121.002 126.8 124.602 127.5 128.102 127.7C128.202 127.7 128.202 127.8 128.102 127.8C124.402 128.2 120.902 127.3 117.802 125.4C117.702 125.5 117.702 125.4 117.802 125.4Z" fill="black"/>
<path opacity="0.1" d="M103.403 133.401C103.703 131.901 104.903 130.801 106.103 130.001C106.803 129.501 107.603 129.101 108.403 128.901C109.303 128.601 110.303 128.401 111.203 128.101C111.303 128.101 111.303 128.201 111.303 128.201C110.503 128.501 109.703 128.901 109.003 129.301C108.303 129.701 107.503 130.101 106.803 130.601C105.603 131.401 104.703 132.501 103.803 133.601C103.603 133.601 103.303 133.501 103.403 133.401Z" fill="black"/>
<path opacity="0.1" d="M105 127.301C105.1 127.301 105.1 127.401 105 127.401C102.6 128.301 100.8 130.401 99.7 132.601C99.7 132.701 99.5 132.701 99.5 132.601C99.8 129.801 102.2 127.701 105 127.301Z" fill="black"/>
<path opacity="0.1" d="M101.201 126.701C101.101 126.801 101.201 126.801 101.201 126.701C101.501 126.701 103.601 125.201 106.101 124.501C106.301 124.801 106.501 125.201 106.701 125.501C106.701 125.601 106.801 125.501 106.801 125.401C105.301 122.301 104.701 118.901 104.701 115.501C104.701 113.701 104.801 111.901 105.001 110.101C105.501 106.901 106.401 103.801 107.901 101.101C108.801 99.4008 110.001 97.7008 111.701 96.8008C113.301 95.8008 115.401 95.7008 117.401 95.8008C119.401 95.9008 121.401 96.3008 123.301 96.9008C125.201 97.4008 127.201 98.1008 129.001 98.9008C125.401 97.0008 121.601 95.5008 117.401 95.0008C115.301 94.8008 113.201 94.9008 111.201 96.0008C109.301 97.1008 108.001 98.9008 107.001 100.601C105.101 104.301 104.101 108.401 103.901 112.501C103.901 113.001 103.901 113.501 103.901 113.901C103.901 114.501 103.901 115.201 103.901 115.801C104.001 118.801 104.601 121.701 106.001 124.301C103.801 124.901 102.501 125.501 101.201 126.701Z" fill="black"/>
<path d="M98.9937 89.6001C99.9937 91.7001 96.1937 106.9 94.9937 110C93.7937 113.1 89.5937 130.5 87.5937 131.3C85.5937 132.1 75.6937 131.8 74.2937 131.3C72.8937 130.8 74.2937 127.8 75.8937 126.8C77.4937 125.8 79.3937 124.2 79.3937 124.2C79.3937 124.2 76.3937 97.2001 76.9937 94.2001C77.4937 91.2001 96.3937 83.9001 98.9937 89.6001Z" fill="#FF9900" fill-opacity="0.94"/>
<path opacity="0.1" d="M92.296 118.4C93.196 115.7 94.396 113 95.296 110.3C95.296 110.2 95.496 110.2 95.496 110.4C94.796 112.6 94.296 114.9 93.596 117.1C93.696 116.9 93.796 116.8 93.896 116.6C94.496 115.7 95.196 114.8 95.496 113.8C95.496 113.7 95.696 113.7 95.696 113.9C95.596 114.4 95.296 114.8 95.096 115.2C94.796 115.7 94.596 116.2 94.296 116.7C93.996 117.3 93.596 118 93.196 118.6V118.7C92.296 121.5 91.396 124.2 90.196 126.8C90.096 126.9 89.896 126.9 89.996 126.7C90.496 123.9 91.396 121.2 92.296 118.4Z" fill="black"/>
<path opacity="0.1" d="M76.5922 98.4998C76.5922 98.3998 76.6922 98.3998 76.6922 98.4998C76.9922 100.5 77.0922 102.6 77.2922 104.6C77.4922 106.7 77.7922 108.9 77.9922 111C78.4922 115.2 79.1922 119.4 79.4922 123.7C79.4922 123.9 79.1922 123.9 79.0922 123.7C77.9922 119.6 77.4922 115.4 76.9922 111.2C76.7922 109.1 76.5922 107 76.4922 105C76.5922 102.8 76.4922 100.7 76.5922 98.4998Z" fill="black"/>
<path opacity="0.1" d="M77.7952 129.9C77.8952 129.4 78.0952 128.8 78.3952 128.4C78.6952 128 79.0952 127.6 79.4952 127.2C79.8952 126.9 80.3952 126.6 80.8952 126.5C80.9952 126.5 80.9952 126.6 80.9952 126.6C80.7952 126.8 80.5952 126.9 80.4952 127.1C80.2952 127.3 80.0952 127.4 79.9952 127.6C79.6952 128 79.3952 128.3 79.1952 128.8C78.9952 129.2 78.6952 129.6 78.4952 130.1C78.2952 130.5 78.1952 131 77.9952 131.5C77.9952 131.6 77.7952 131.6 77.7952 131.5C77.5952 131 77.6952 130.4 77.7952 129.9Z" fill="black"/>
<path opacity="0.1" d="M74.8946 128.3C75.3946 127.3 76.2946 126.6 77.2946 126.2C77.3946 126.2 77.3946 126.3 77.3946 126.3C76.6946 126.9 75.9946 127.6 75.4946 128.5C74.9946 129.4 74.7946 130.4 75.0946 131.4C75.0946 131.4 75.0946 131.5 74.9946 131.4C74.3946 130.5 74.3946 129.3 74.8946 128.3Z" fill="black"/>
<path d="M78.2962 14.1004C78.7962 12.3004 74.3962 6.10043 72.6962 4.10043C71.0962 2.00043 61.8962 -1.19957 58.9962 0.400426C57.7962 1.00043 55.6962 5.40043 52.7962 9.30043C48.2962 15.2004 43.0962 21.5004 44.9962 23.1004C49.5962 27.2004 60.0962 20.8004 63.4962 18.6004C66.8962 16.4004 69.9962 13.8004 70.8962 13.9004C71.9962 14.0004 74.2962 15.8004 75.1962 15.9004C77.3962 16.2004 78.2962 14.1004 78.2962 14.1004Z" fill="#FF9900" fill-opacity="0.94"/>
<path opacity="0.1" d="M78.2962 14.1004C78.7962 12.3004 74.3962 6.10043 72.6962 4.10043C71.0962 2.00043 61.8962 -1.19957 58.9962 0.400426C57.7962 1.00043 55.6962 5.40043 52.7962 9.30043C48.2962 15.2004 43.0962 21.5004 44.9962 23.1004C49.5962 27.2004 60.0962 20.8004 63.4962 18.6004C66.8962 16.4004 69.9962 13.8004 70.8962 13.9004C71.9962 14.0004 74.2962 15.8004 75.1962 15.9004C77.3962 16.2004 78.2962 14.1004 78.2962 14.1004Z" fill="black"/>
<path d="M99.4953 7.90052C110.195 14.3005 114.995 31.4005 115.295 34.1005C115.495 36.3005 120.695 44.2005 119.695 52.7005C119.095 58.1005 109.295 65.4005 101.395 65.3005C99.8953 65.3005 87.4953 69.8005 77.0953 69.1005C66.5953 68.4005 58.6953 61.0005 58.3953 60.3005C58.0953 59.7005 49.5953 58.4005 49.0953 49.7005C48.1953 35.7005 62.4953 11.9005 66.5953 8.70052C73.2953 3.30052 92.1953 3.50052 99.4953 7.90052Z" fill="#FF9900" fill-opacity="0.94"/>
<path d="M94.3958 15.2004C94.1958 13.3004 99.7958 7.60038 101.796 5.70038C103.896 3.80038 113.896 2.10038 116.696 4.20038C117.796 5.00038 119.296 10.0004 121.596 14.4004C125.296 21.3004 129.596 28.6004 127.396 30.1004C121.896 33.6004 112.096 25.2004 108.896 22.3004C105.696 19.5004 102.896 16.3004 101.996 16.2004C100.796 16.1004 98.1958 17.6004 97.1958 17.5004C95.0958 17.6004 94.3958 15.2004 94.3958 15.2004Z" fill="#FF9900" fill-opacity="0.94"/>
<path opacity="0.1" d="M94.3958 15.2004C94.1958 13.3004 99.7958 7.60038 101.796 5.70038C103.896 3.80038 113.896 2.10038 116.696 4.20038C117.796 5.00038 119.296 10.0004 121.596 14.4004C125.296 21.3004 129.596 28.6004 127.396 30.1004C121.896 33.6004 112.096 25.2004 108.896 22.3004C105.696 19.5004 102.896 16.3004 101.996 16.2004C100.796 16.1004 98.1958 17.6004 97.1958 17.5004C95.0958 17.6004 94.3958 15.2004 94.3958 15.2004Z" fill="black"/>
<path opacity="0.1" d="M74.7969 39.2002C81.3969 39.3002 84.3969 46.3002 85.1969 48.1002C85.9969 49.9002 90.0969 54.1002 90.1969 58.5002C90.2969 62.9002 81.9969 67.8002 73.1969 66.2002C64.3969 64.7002 59.7969 59.7002 59.7969 55.3002C59.7969 51.7002 63.1969 48.6002 63.5969 47.7002C63.9969 46.8002 68.7969 39.2002 74.7969 39.2002Z" fill="black"/>
<path opacity="0.1" d="M91 51.6006C91.9 52.6006 92.6 53.7006 93.2 54.9006C93.8 56.1006 94.3 57.4006 94.5 58.7006C94.7 60.0006 94.7 61.5006 94.1 62.8006C93.8 63.4006 93.4 64.0006 92.8 64.4006C92.2 64.8006 91.6 65.1006 91 65.3006C92.1 64.6006 93 63.6006 93.3 62.4006C93.7 61.3006 93.7 60.0006 93.5 58.8006C93.3 57.6006 92.9 56.3006 92.5 55.1006C92.1 54.0006 91.6 52.8006 91 51.6006Z" fill="black"/>
<path opacity="0.1" d="M60.8979 49C60.2979 49.7 59.7979 50.4 59.2979 51.1C58.7979 51.8 58.2979 52.5 57.9979 53.3C57.6979 54.1 57.4979 54.8 57.3979 55.7C57.3979 56.5 57.5979 57.3 57.8979 58.2C57.2979 57.6 56.7979 56.7 56.6979 55.7C56.5979 54.7 56.7979 53.8 57.0979 52.9C57.4979 52 57.9979 51.3 58.6979 50.6C59.2979 49.9 59.9979 49.4 60.8979 49Z" fill="black"/>
<path d="M163.698 143.201C152.898 143.201 140.998 143.001 129.098 142.801C122.898 142.701 118.098 142.601 114.998 142.601C99.4984 142.601 94.9984 122.601 90.6984 103.301C90.0984 100.601 89.4984 97.9007 88.8984 95.3007C87.6984 90.1007 86.5984 84.9007 85.6984 79.9007C82.6984 64.3007 79.9984 50.8007 73.0984 50.1007C63.9984 49.0007 55.8984 62.6007 52.8984 83.8007L50.8984 83.5007C54.0984 61.2007 62.9984 46.9007 73.2984 48.0007C81.5984 48.9007 84.3984 63.0007 87.5984 79.4007C88.5984 84.4007 89.5984 89.6007 90.7984 94.7007C91.3984 97.4007 91.9984 100.101 92.5984 102.801C96.8984 122.201 100.998 140.501 114.998 140.501C118.098 140.501 122.898 140.601 129.098 140.701C142.598 141.001 161.098 141.301 176.798 141.001C202.198 140.501 205.198 138.501 205.498 137.901C205.498 133.701 178.698 128.701 168.598 126.801C158.398 124.901 157.998 124.801 158.098 123.601C158.198 122.501 159.498 122.501 161.298 122.501H203.198C216.398 122.501 220.598 103.601 223.098 92.3007C223.798 89.1007 224.398 86.5007 224.998 85.2007C227.898 79.1007 235.398 80.0007 235.698 80.0007L235.398 82.0007C235.098 82.0007 229.098 81.3007 226.798 86.1007C226.298 87.2007 225.698 89.8007 224.998 92.8007C222.298 104.701 217.898 124.601 203.098 124.601H166.698C167.398 124.701 168.098 124.901 168.798 125.001C193.198 129.601 207.398 133.201 207.398 138.101C207.398 138.501 207.298 139.001 206.798 139.501C203.898 142.301 186.298 143.201 163.698 143.201Z" fill="#1A0D00"/>
<path d="M58.3091 82.3742L46.0312 81.6387L45.5887 89.0254L57.8666 89.7609L58.3091 82.3742Z" fill="#455A64"/>
<path d="M56.1549 79.9331L48.4688 79.4727L48.3312 81.7685L56.0174 82.2289L56.1549 79.9331Z" fill="#37474F"/>
<path d="M49.5615 89.2429L48.1641 89.1592L47.8292 94.7491L49.2267 94.8328L49.5615 89.2429Z" fill="#FF9900" fill-opacity="0.94"/>
<path d="M55.1631 89.5456L53.7656 89.4619L53.4308 95.0518L54.8283 95.1355L55.1631 89.5456Z" fill="#FF9900" fill-opacity="0.94"/>
<path d="M239.617 74.8367V87.1367H245.017V74.8367H239.617Z" fill="#455A64"/>
<path d="M235.266 77.0861V84.7861H239.566V77.0861H235.266Z" fill="#37474F"/>
<path d="M66.5 49.9002C66.5 49.9002 69.1 52.9002 70.1 52.3002C71.1 51.7002 73.6 45.7002 73.6 45.7002C73.6 45.7002 74.2 53.3002 76.2 53.5002C78.2 53.7002 81.5 50.7002 81.5 50.7002L73.6 45.2002L66.5 49.9002Z" fill="#FF9900" fill-opacity="0.94"/>
<path opacity="0.1" d="M66.5 49.9002C66.5 49.9002 69.1 52.9002 70.1 52.3002C71.1 51.7002 73.6 45.7002 73.6 45.7002C73.6 45.7002 74.2 53.3002 76.2 53.5002C78.2 53.7002 81.5 50.7002 81.5 50.7002L73.6 45.2002L66.5 49.9002Z" fill="black"/>
<path opacity="0.1" d="M105.202 40.5007C106.002 38.1007 106.202 35.5007 106.002 33.0007C105.902 31.7007 105.602 30.4007 105.102 29.2007C104.902 28.6007 104.502 28.0007 104.102 27.4007C103.702 26.8007 103.302 26.3007 102.802 25.8007C102.502 25.6007 102.302 25.4007 102.002 25.1007C101.702 24.9007 101.402 24.7007 101.102 24.6007L100.702 24.3007L100.202 24.1007C99.9016 24.0007 99.6016 23.8007 99.2016 23.7007C97.9016 23.3007 96.5016 23.2007 95.2016 23.3007C92.6016 23.5007 90.1016 24.6007 88.1016 26.1007C90.5016 25.3007 92.9016 24.7007 95.2016 24.8007C96.4016 24.9007 97.5016 25.0007 98.6016 25.4007C98.9016 25.5007 99.1016 25.6007 99.4016 25.7007L99.8016 25.9007L100.202 26.1007C100.402 26.3007 100.702 26.4007 100.902 26.5007C101.102 26.7007 101.302 26.8007 101.502 27.0007C102.302 27.7007 103.002 28.7007 103.402 29.7007C103.902 30.7007 104.202 31.9007 104.502 33.0007C105.002 35.5007 105.202 38.0007 105.202 40.5007Z" fill="black"/>
<path opacity="0.1" d="M56.3994 35.4002C56.5994 33.3002 56.8994 31.2002 57.4994 29.2002C58.0994 27.3002 59.0994 25.5002 60.5994 24.4002C60.9994 24.1002 61.3994 23.9002 61.7994 23.7002C62.1994 23.5002 62.5994 23.4002 63.0994 23.3002C63.9994 23.2002 64.9994 23.2002 65.9994 23.4002C67.9994 23.7002 69.9994 24.3002 72.0994 25.0002C71.2994 24.3002 70.3994 23.7002 69.3994 23.2002C68.8994 22.9002 68.3994 22.7002 67.8994 22.5002C67.3994 22.3002 66.8994 22.1002 66.2994 22.0002C65.1994 21.7002 64.0994 21.5002 62.8994 21.6002C62.2994 21.7002 61.6994 21.8002 61.0994 22.0002C60.4994 22.2002 59.9994 22.5002 59.4994 22.9002C58.4994 23.6002 57.7994 24.6002 57.1994 25.6002C56.6994 26.6002 56.2994 27.7002 56.0994 28.8002C55.6994 31.1002 55.7994 33.3002 56.3994 35.4002Z" fill="black"/>
<path d="M88.8968 37.401C88.8968 37.301 89.1968 37.601 89.0968 37.701C88.8968 40.701 89.0968 44.201 92.0968 45.301C92.1968 45.301 92.1968 45.501 92.0968 45.501C88.4968 44.801 88.1968 40.201 88.8968 37.401Z" fill="#263238"/>
<path d="M91.9985 34.3006C97.2985 34.2006 97.2985 43.9006 92.3985 44.0006C87.4985 44.2006 87.4985 34.5006 91.9985 34.3006Z" fill="#263238"/>
<path d="M68.2969 34.9999C68.2969 34.8999 67.9969 35.0999 67.9969 35.1999C67.7969 38.1999 66.9969 41.5999 63.9969 42.2999C63.8969 42.2999 63.8969 42.4999 63.9969 42.4999C67.6969 42.3999 68.5969 37.8999 68.2969 34.9999Z" fill="#263238"/>
<path d="M65.6006 31.5999C60.3006 30.6999 59.0006 40.3999 63.9006 41.1999C68.7006 41.9999 70.1006 32.2999 65.6006 31.5999Z" fill="#263238"/>
<path d="M73.4983 45.4006C74.3983 45.7006 80.9983 43.6006 80.4983 41.6006C79.9983 39.4006 70.6983 38.9006 69.4983 40.3006C68.3983 41.8006 72.4983 45.1006 73.4983 45.4006Z" fill="#263238"/>
<path d="M81.7 50.5998C80.6 51.3998 79.6 52.0998 78.3 52.6998C77.7 52.9998 77 53.1998 76.5 53.1998C76.1 53.2998 75.8 52.7998 75.6 52.2998C75.2 51.2998 75 50.1998 74.8 49.0998C74.6 47.9998 74.5 46.8998 74.4 45.7998L74.1 42.7998L73.2 45.7998C72.9 46.6998 72.6 47.5998 72.3 48.4998C72 49.3998 71.6 50.2998 71.1 51.0998C71 51.2998 70.9 51.4998 70.7 51.6998C70.6 51.8998 70.4 52.0998 70.2 52.1998C70.1 52.2998 69.9 52.2998 69.6 52.2998C69.4 52.1998 69.1 52.0998 68.9 51.9998C68 51.3998 67.2 50.6998 66.5 49.8998C67 50.7998 67.6 51.5998 68.5 52.3998C68.7 52.5998 69 52.6998 69.4 52.8998C69.6 52.8998 69.8 52.9998 70 52.9998C70.2 52.9998 70.5 52.8998 70.6 52.8998C70.9 52.6998 71.1 52.4998 71.3 52.2998C71.5 52.0998 71.7 51.8998 71.8 51.6998C72.4 50.7998 72.8 49.8998 73.2 48.9998C73.6 48.0998 73.9 47.1998 74.2 46.1998L73 46.0998C73.1 47.1998 73.2 48.3998 73.5 49.4998C73.6 50.0998 73.8 50.5998 73.9 51.1998C74.1 51.7998 74.3 52.2998 74.6 52.8998C74.8 53.1998 74.9 53.4998 75.2 53.6998C75.3 53.7998 75.5 53.9998 75.7 54.0998C75.8 54.1998 76 54.1998 76.1 54.1998C76.3 54.1998 76.3 54.1998 76.5 54.1998C77.4 54.0998 78.1 53.7998 78.7 53.3998C79.9 52.3998 80.8 51.4998 81.7 50.5998Z" fill="#263238"/>
<g clip-path="url(#clip1_3125_3972)">
<path d="M31.8984 84.3987C33.8984 84.1987 35.8984 84.2987 37.8984 84.3987C39.8984 84.4987 41.7984 84.6987 43.7984 85.1987C41.7984 85.3987 39.7984 85.2987 37.7984 85.1987C35.7984 85.0987 33.7984 84.8987 31.8984 84.3987Z" fill="#263238"/>
<path d="M60.7031 90.7988C62.6031 91.3988 64.4031 92.2988 66.2031 93.0988C68.0031 93.9988 69.7031 94.9988 71.3031 96.0988C69.4031 95.4988 67.6031 94.5988 65.8031 93.7988C64.0031 92.8988 62.3031 91.8988 60.7031 90.7988Z" fill="#263238"/>
<path d="M38.2031 104.499C39.2031 102.699 40.3031 101.099 41.5031 99.499C42.7031 97.899 43.9031 96.399 45.4031 94.999C44.4031 96.799 43.3031 98.399 42.1031 99.999C40.9031 101.599 39.7031 103.099 38.2031 104.499Z" fill="#263238"/>
<path d="M27 72.5986C28.5 73.0986 30.1 73.6986 31.6 74.1986C33.1 74.7986 34.6 75.3986 36.1 75.9986C37.6 76.5986 39.1 77.2986 40.5 77.9986C42 78.6986 43.4 79.3986 44.8 80.1986C43.3 79.6986 41.7 79.0986 40.2 78.5986C38.7 77.9986 37.2 77.3986 35.7 76.7986C34.2 76.1986 32.7 75.4986 31.3 74.7986C29.9 74.0986 28.4 73.3986 27 72.5986Z" fill="#263238"/>
<path d="M62.1016 81.4988C63.5016 80.7988 65.0016 80.1988 66.4016 79.7988C67.9016 79.3988 69.4016 78.9988 71.0016 78.7988C69.6016 79.4988 68.1016 80.0988 66.7016 80.4988C65.2016 80.8988 63.7016 81.2988 62.1016 81.4988Z" fill="#263238"/>
<path d="M47.7 76.399C46.9 75.099 46.1 73.799 45.4 72.399C44.7 71.099 44 69.699 43.3 68.299C42.6 66.899 42 65.599 41.3 64.199C40.7 62.799 40.1 61.399 39.5 59.999C40.3 61.299 41.1 62.599 41.8 63.999C42.6 65.299 43.3 66.699 44 67.999C44.7 69.399 45.3 70.699 46 72.099C46.6 73.599 47.2 74.999 47.7 76.399Z" fill="#263238"/>
<path d="M67.9969 107.999C67.0969 106.999 66.2969 105.899 65.4969 104.799C64.6969 103.699 63.8969 102.599 63.0969 101.499C62.2969 100.399 61.5969 99.2986 60.8969 98.0986C60.1969 96.9986 59.4969 95.7986 58.7969 94.5986C59.6969 95.5986 60.4969 96.6986 61.2969 97.7986C62.0969 98.8986 62.8969 99.9986 63.6969 101.099C64.4969 102.199 65.1969 103.299 65.8969 104.499C66.5969 105.699 67.3969 106.799 67.9969 107.999Z" fill="#263238"/>
</g>
</g>
<g clip-path="url(#clip2_3125_3972)">
<path d="M283.487 53.2029C283.126 53.2029 282.747 53.0475 282.468 52.754C281.104 51.3211 278.884 51.3211 277.52 52.754C276.961 53.341 276.041 53.341 275.482 52.754C274.923 52.167 274.923 51.2003 275.482 50.6133C277.964 48.0065 282.008 48.0065 284.506 50.6133C285.065 51.2003 285.065 52.167 284.506 52.754C284.227 53.0475 283.865 53.2029 283.487 53.2029Z" fill="#86E3E3"/>
<path d="M286.443 49.4046C286.082 49.4046 285.703 49.2492 285.424 48.9558C282.432 45.8138 277.567 45.8138 274.575 48.9558C274.016 49.5427 273.095 49.5427 272.536 48.9558C271.977 48.3688 271.977 47.402 272.536 46.8151C276.646 42.4991 283.353 42.4991 287.462 46.8151C288.021 47.402 288.021 48.3688 287.462 48.9558C287.183 49.2492 286.805 49.4046 286.443 49.4046Z" fill="#86E3E3"/>
<path d="M290.553 45.8486C290.191 45.8486 289.813 45.6933 289.534 45.3998C286.986 42.7239 283.6 41.2565 280 41.2565C276.4 41.2565 273.013 42.7239 270.465 45.3998C269.906 45.9867 268.986 45.9867 268.427 45.3998C267.868 44.8128 267.868 43.846 268.427 43.2591C271.517 40.0308 275.627 38.2354 280 38.2354C284.372 38.2354 288.482 40.0308 291.572 43.2763C292.131 43.8633 292.131 44.8301 291.572 45.417C291.293 45.7105 290.931 45.8486 290.553 45.8486Z" fill="#86E3E3"/>
</g>
<g clip-path="url(#clip3_3125_3972)">
<path d="M242.174 89.9995C241.216 89.9995 240.438 89.2104 240.438 88.2405C240.438 87.2705 241.216 86.4814 242.174 86.4814C243.132 86.4814 243.911 87.2705 243.911 88.2405C243.911 89.2104 243.132 89.9995 242.174 89.9995Z" fill="#2D1F6A"/>
<path d="M244.073 89.0785H240.292C239.789 89.0785 239.383 88.6676 239.383 88.1579C239.383 87.6483 239.789 87.2373 240.292 87.2373H244.073C244.576 87.2373 244.982 87.6483 244.982 88.1579C244.966 88.6676 244.56 89.0785 244.073 89.0785Z" fill="#C1D3E9"/>
<path d="M282.065 89.9995C281.107 89.9995 280.328 89.2104 280.328 88.2405C280.328 87.2705 281.107 86.4814 282.065 86.4814C283.022 86.4814 283.801 87.2705 283.801 88.2405C283.801 89.2104 283.022 89.9995 282.065 89.9995Z" fill="#2D1F6A"/>
<path d="M283.948 89.0785H280.167C279.664 89.0785 279.258 88.6676 279.258 88.1579C279.258 87.6483 279.664 87.2373 280.167 87.2373H283.948C284.451 87.2373 284.857 87.6483 284.857 88.1579C284.857 88.6676 284.451 89.0785 283.948 89.0785Z" fill="#C1D3E9"/>
<path d="M280.017 81.8788C279.189 81.8788 278.523 81.1884 278.523 80.3664V56.5124C278.523 55.674 279.205 55 280.017 55C280.844 55 281.51 55.6905 281.51 56.5124V80.3664C281.51 81.2048 280.844 81.8788 280.017 81.8788Z" fill="#022B5F"/>
<path d="M280.974 72.9192C280.146 72.9192 279.481 72.2287 279.481 71.4068V55.0986C278.929 55.3288 278.523 55.8713 278.523 56.5124V80.3664C278.523 81.2048 279.205 81.8788 280.017 81.8788C280.828 81.8788 281.51 81.1883 281.51 80.3664V72.8206C281.347 72.8863 281.169 72.9192 280.974 72.9192Z" fill="#02214A"/>
<path d="M286.3 88.3069H238.7C236.655 88.3069 235 86.6301 235 84.5751V76.9143C235 74.8593 236.655 73.166 238.7 73.166H286.3C288.328 73.166 290 74.8429 290 76.9143V84.5751C290 86.6301 288.328 88.3069 286.3 88.3069Z" fill="white"/>
<path d="M238.704 85.8736C238.006 85.8736 237.422 85.2817 237.422 84.5748V76.914C237.422 76.2071 238.006 75.6152 238.704 75.6152H286.304C287.001 75.6152 287.586 76.2071 287.586 76.914V84.5748C287.586 85.2817 287.001 85.8736 286.304 85.8736H238.704Z" fill="#022B5F"/>
<path d="M242.177 82.9638C241.479 82.9638 240.895 82.3719 240.895 81.665V75.6152H238.704C238.006 75.6152 237.422 76.2071 237.422 76.914V84.5748C237.422 85.2817 238.006 85.8736 238.704 85.8736H286.304C287.001 85.8736 287.586 85.2817 287.586 84.5748V82.9638H242.177Z" fill="#02244F"/>
<path d="M246.494 82.1916C247.327 82.1916 248.003 81.5071 248.003 80.6627C248.003 79.8183 247.327 79.1338 246.494 79.1338C245.66 79.1338 244.984 79.8183 244.984 80.6627C244.984 81.5071 245.66 82.1916 246.494 82.1916Z" fill="#E1EE96"/>
<path d="M256.315 80.6623C256.315 81.0897 255.974 81.435 255.552 81.435C255.13 81.435 254.789 81.0897 254.789 80.6623C254.789 80.2349 255.13 79.8896 255.552 79.8896C255.974 79.8896 256.315 80.2349 256.315 80.6623Z" fill="#F08619"/>
<path d="M264.002 80.6623C264.002 81.0897 263.661 81.435 263.239 81.435C262.817 81.435 262.477 81.0897 262.477 80.6623C262.477 80.2349 262.817 79.8896 263.239 79.8896C263.678 79.8896 264.002 80.2349 264.002 80.6623Z" fill="#F08619"/>
<path d="M271.713 80.6623C271.713 81.0897 271.372 81.435 270.95 81.435C270.528 81.435 270.188 81.0897 270.188 80.6623C270.188 80.2349 270.528 79.8896 270.95 79.8896C271.372 79.8896 271.713 80.2349 271.713 80.6623Z" fill="#F08619"/>
<path d="M279.424 80.6623C279.424 81.0897 279.083 81.435 278.661 81.435C278.239 81.435 277.898 81.0897 277.898 80.6623C277.898 80.2349 278.239 79.8896 278.661 79.8896C279.083 79.8896 279.424 80.2349 279.424 80.6623Z" fill="#F08619"/>
<path d="M281.61 77.4405H263.028C262.736 77.4405 262.492 77.1939 262.492 76.898C262.492 76.6021 262.736 76.3555 263.028 76.3555H281.61C281.902 76.3555 282.145 76.6021 282.145 76.898C282.145 77.2103 281.902 77.4405 281.61 77.4405Z" fill="#004FC6"/>
<path d="M285.993 77.4405H283.575C283.282 77.4405 283.039 77.1939 283.039 76.898C283.039 76.6021 283.282 76.3555 283.575 76.3555H285.993C286.285 76.3555 286.528 76.6021 286.528 76.898C286.512 77.2103 286.285 77.4405 285.993 77.4405Z" fill="#004FC6"/>
<g opacity="0.53">
<path d="M242.465 83.8681C240.437 83.8681 238.765 82.1912 238.765 80.1198V73.1494H238.684C236.655 73.1659 235 74.8427 235 76.9141V84.575C235 86.6299 236.655 88.3232 238.7 88.3232H286.3C288.328 88.3232 290 86.6464 290 84.575V83.8845H242.465V83.8681Z" fill="#C1D3E9"/>
</g>
<path d="M280.779 65.3077C280.698 65.3077 280.617 65.242 280.617 65.1434V56.5619C280.617 56.4797 280.682 56.3975 280.779 56.3975C280.861 56.3975 280.942 56.4632 280.942 56.5619V65.1434C280.942 65.242 280.861 65.3077 280.779 65.3077Z" fill="#004FC6"/>
</g>
<defs>
<clipPath id="clip0_3125_3972">
<rect width="246.7" height="149.7" fill="white"/>
</clipPath>
<clipPath id="clip1_3125_3972">
<rect width="44.3" height="48" fill="white" transform="translate(27 59.999)"/>
</clipPath>
<clipPath id="clip2_3125_3972">
<rect width="24" height="14.9676" fill="white" transform="translate(268 38.2354)"/>
</clipPath>
<clipPath id="clip3_3125_3972">
<rect width="55" height="35" fill="white" transform="translate(235 55)"/>
</clipPath>
</defs>
</svg>
