<svg width="11" height="7" viewBox="0 0 11 7" fill="none" xmlns="http://www.w3.org/2000/svg">
<path d="M10.5 1.16685C10.4487 1.08108 10.4024 0.98959 10.3444 0.909539C9.81853 0.177641 9.55351 0.164299 8.96542 0.832346C7.89189 2.05027 6.81752 3.26724 5.74398 4.48516C5.66995 4.56903 5.59002 4.64812 5.47308 4.77201C4.6124 3.78567 3.76266 2.80885 2.91124 1.83489C2.57387 1.44893 2.23565 1.06297 1.89324 0.681774C1.47425 0.216714 1.26813 0.215761 0.85588 0.687491C0.726316 0.835205 0.617786 1.00674 0.499999 1.1678C0.499999 1.28883 0.499999 1.40986 0.499999 1.53089C1.60045 2.79456 2.70091 4.06013 3.80389 5.3238C4.21614 5.79553 4.62586 6.27012 5.04905 6.7285C5.37044 7.0773 5.6161 7.09445 5.91814 6.75424C7.4014 5.0865 8.87372 3.40638 10.3486 1.73006C10.4032 1.66812 10.4495 1.59665 10.5 1.52994C10.5 1.40891 10.5 1.28788 10.5 1.16685Z" fill="#FF9900"/>
</svg>
