<svg width="27" height="28" viewBox="0 0 27 28" fill="none" xmlns="http://www.w3.org/2000/svg">
<path d="M16.9489 18.9387C16.3562 19.4128 15.7097 19.8222 14.9986 20.167C13.3069 20.9751 11.5182 21.3092 9.66494 21.0506C5.74283 20.501 3.02752 18.3352 1.54057 14.6933C-0.086459 10.7281 1.02337 6.09482 4.21278 3.22866C5.65663 1.92488 7.33754 1.08443 9.26627 0.804277C12.8328 0.29785 15.839 1.40768 18.2526 4.07988C19.578 5.54529 20.3753 7.26929 20.6662 9.21957C21.1188 12.1288 20.4615 14.7687 18.7267 17.1392C18.7052 17.1715 18.6836 17.2039 18.6513 17.247C18.8129 17.4086 18.9638 17.5702 19.1254 17.7426C19.147 17.7642 19.1685 17.7857 19.1901 17.8073C19.384 18.0766 19.578 18.1413 19.9228 18.0228C20.5693 17.7965 21.1942 17.9581 21.6899 18.4538C23.2954 20.07 24.8901 21.6863 26.474 23.3133C27.1851 24.046 27.1636 25.1989 26.474 25.9424C26.1615 26.2764 25.849 26.5997 25.515 26.9229C24.7823 27.6341 23.6509 27.6341 22.9398 26.9122C21.3558 25.2959 19.7719 23.6689 18.1988 22.0311C17.6385 21.4385 17.5307 20.7273 17.8216 19.9623C17.8432 19.8976 17.8432 19.7899 17.8109 19.7576C17.5307 19.4774 17.2506 19.2188 16.9489 18.9387ZM10.8179 19.2296C11.7984 19.2296 12.8436 19.0464 13.7056 18.6908C16.8303 17.3547 18.5867 14.9842 18.9207 11.6116C19.147 9.30577 18.5005 7.22619 16.9812 5.46986C14.8693 3.02393 12.1755 2.09728 9.01844 2.77611C5.66741 3.49803 3.09217 6.45039 2.72582 9.88763C2.59652 11.1268 2.70427 12.3443 3.0814 13.5404C4.13735 16.8914 7.31599 19.2403 10.8179 19.2296Z" fill="#FF9900"/>
<path d="M13.7342 15.8077C11.9563 17.1331 9.09012 17.3378 6.96743 15.4952C4.72623 13.5557 4.48918 10.3879 5.80373 8.24365C5.80373 10.3987 6.50411 12.2843 8.05571 13.8036C9.61809 15.3228 11.5145 15.9586 13.7342 15.8077Z" fill="#FF9900"/>
</svg>
