<svg width="52" height="45" viewBox="0 0 52 45" fill="none" xmlns="http://www.w3.org/2000/svg">
<g filter="url(#filter0_d_805_10489)">
<rect x="5" y="4" width="42" height="35" rx="10" fill="white"/>
</g>
<path d="M25.248 14.7611H19.7686C19.3534 14.7611 18.9552 14.926 18.6617 15.2196C18.3681 15.5132 18.2031 15.9114 18.2031 16.3266V27.2853C18.2031 27.7005 18.3681 28.0987 18.6617 28.3923C18.9552 28.6859 19.3534 28.8508 19.7686 28.8508H30.7273C31.1425 28.8508 31.5407 28.6859 31.8343 28.3923C32.1279 28.0987 32.2928 27.7005 32.2928 27.2853V21.806" stroke="#FF9900" stroke-width="1.5" stroke-linecap="round" stroke-linejoin="round"/>
<path d="M31.1174 13.5863C31.4288 13.2749 31.8512 13.1 32.2916 13.1C32.732 13.1 33.1543 13.2749 33.4657 13.5863C33.7771 13.8977 33.9521 14.3201 33.9521 14.7605C33.9521 15.2008 33.7771 15.6232 33.4657 15.9346L26.0295 23.3708L22.8984 24.1536L23.6812 21.0225L31.1174 13.5863Z" stroke="#FF9900" stroke-width="1.5" stroke-linecap="round" stroke-linejoin="round"/>
<defs>
<filter id="filter0_d_805_10489" x="0" y="0" width="52" height="45" filterUnits="userSpaceOnUse" color-interpolation-filters="sRGB">
<feFlood flood-opacity="0" result="BackgroundImageFix"/>
<feColorMatrix in="SourceAlpha" type="matrix" values="0 0 0 0 0 0 0 0 0 0 0 0 0 0 0 0 0 0 127 0" result="hardAlpha"/>
<feOffset dy="1"/>
<feGaussianBlur stdDeviation="2.5"/>
<feComposite in2="hardAlpha" operator="out"/>
<feColorMatrix type="matrix" values="0 0 0 0 0 0 0 0 0 0 0 0 0 0 0 0 0 0 0.05 0"/>
<feBlend mode="normal" in2="BackgroundImageFix" result="effect1_dropShadow_805_10489"/>
<feBlend mode="normal" in="SourceGraphic" in2="effect1_dropShadow_805_10489" result="shape"/>
</filter>
</defs>
</svg>
