<svg width="251" height="163" viewBox="0 0 251 163" fill="none" xmlns="http://www.w3.org/2000/svg">
<g clip-path="url(#clip0_7_1199)">
<path d="M250.153 73.2999C259.384 141.909 191.102 148.99 148.958 153.36C106.814 157.729 25.0332 170.275 8.57473 102.863C-2.02062 59.4635 90.765 27.1032 131.211 15.79C172.814 4.15029 240.686 2.91593 250.153 73.2999Z" fill="#EFEFF4"/>
<path d="M166.689 154.32C158.697 158.25 148.017 154.009 144.199 145.403L139.498 134.804L136.217 127.394L127.148 106.944L126.409 105.278L133.021 102.013L140.445 98.3611L147.986 107.178L155.873 116.406L155.889 116.416L162.694 124.378L169.875 132.772C176.203 140.156 174.681 150.393 166.689 154.32Z" fill="#FF9900"/>
<g style="mix-blend-mode:multiply" opacity="0.2">
<path d="M166.689 154.322C165.86 154.733 164.983 155.061 164.072 155.3C170.084 150.709 170.744 141.761 165.056 135.116L135.642 100.728L140.447 98.3645L169.877 132.772C176.203 140.156 174.681 150.393 166.689 154.322Z" fill="#596291"/>
</g>
<g style="mix-blend-mode:overlay">
<path d="M162.694 124.38C162.694 124.38 155.431 134.691 139.496 134.804L136.215 127.394C136.215 127.394 150.912 126.299 155.875 116.407L155.891 116.419L162.694 124.38Z" fill="#B8BDE0"/>
</g>
<g style="mix-blend-mode:multiply" opacity="0.17">
<path d="M147.33 106.413C134.592 109.965 127.148 106.935 127.148 106.935L133.021 102.013L140.445 98.3611L147.272 106.352L147.33 106.413Z" fill="#596291"/>
</g>
<path d="M112.751 24.7893C86.3917 24.7893 65.0234 43.6141 65.0234 66.8357C65.0234 90.0573 86.3917 108.882 112.751 108.882C139.11 108.882 160.478 90.0573 160.478 66.8357C160.478 43.6141 139.11 24.7893 112.751 24.7893ZM112.751 103.431C89.8096 103.431 71.2147 87.0513 71.2147 66.8357C71.2147 46.6201 89.8135 30.2402 112.755 30.2402C135.696 30.2402 154.291 46.6252 154.291 66.8357C154.291 87.0462 135.692 103.431 112.751 103.431Z" fill="#FF9900"/>
<path d="M112.751 99.3439C133.13 99.3439 149.651 84.7895 149.651 66.8357C149.651 48.8819 133.13 34.3275 112.751 34.3275C92.3713 34.3275 75.8505 48.8819 75.8505 66.8357C75.8505 84.7895 92.3713 99.3439 112.751 99.3439Z" fill="#F2E1B1"/>
<path d="M89.8078 68.3335C89.4438 68.3318 89.0947 68.2061 88.8336 67.9826C88.5725 67.7592 88.4197 67.4554 88.4072 67.1349C88.3947 66.8144 88.5235 66.5021 88.7666 66.2635C89.0097 66.0248 89.3483 65.8783 89.7113 65.8546C90.078 65.8308 98.4558 65.1983 100.197 57.7905C100.273 57.4683 100.492 57.1861 100.805 57.0062C101.118 56.8262 101.499 56.763 101.865 56.8307C102.231 56.8983 102.551 57.0912 102.755 57.3668C102.96 57.6425 103.031 57.9783 102.955 58.3005C100.776 67.5837 90.0143 68.3318 89.9062 68.3318C89.8735 68.3341 89.8406 68.3346 89.8078 68.3335Z" fill="#FF9900"/>
<path d="M131.597 57.7089C124.95 57.7089 120.596 53.2051 120.532 53.1472C120.304 52.8938 120.197 52.5719 120.234 52.25C120.271 51.9282 120.45 51.6318 120.731 51.4241C121.013 51.2164 121.375 51.1137 121.742 51.138C122.108 51.1623 122.449 51.3116 122.692 51.5541C122.922 51.7956 128.428 57.408 136.259 54.2932C136.6 54.1596 136.986 54.1502 137.335 54.267C137.683 54.3839 137.964 54.6175 138.117 54.9168C138.27 55.2161 138.283 55.5566 138.152 55.8638C138.02 56.1711 137.756 56.42 137.417 56.5562C135.593 57.3028 133.608 57.6959 131.597 57.7089Z" fill="#FF9900"/>
<path d="M102.466 75.7754C98.45 75.7754 95.0225 74.2452 94.8314 74.1602C94.3884 73.9595 94.054 73.612 93.9018 73.1942C93.7496 72.7763 93.7921 72.3223 94.0199 71.932C94.2476 71.5418 94.6421 71.2472 95.1164 71.1131C95.5907 70.979 96.106 71.0164 96.549 71.2171C96.5973 71.2375 101.358 73.339 105.267 72.0553C107.183 71.4245 108.586 70.0915 109.557 67.9748C109.639 67.7615 109.77 67.5654 109.942 67.3983C110.113 67.2312 110.322 67.0968 110.554 67.0032C110.787 66.9096 111.039 66.8588 111.294 66.854C111.55 66.8492 111.804 66.8904 112.041 66.9752C112.278 67.06 112.493 67.1865 112.672 67.3469C112.852 67.5074 112.992 67.6985 113.085 67.9084C113.177 68.1184 113.22 68.3428 113.211 68.5679C113.202 68.7931 113.14 69.0141 113.031 69.2176C111.657 72.2032 109.476 74.2027 106.55 75.1582C105.241 75.5757 103.858 75.7847 102.466 75.7754Z" fill="#FF9900"/>
<path d="M126.461 70.2547C122.445 70.2547 119.017 68.7246 118.826 68.6378C118.383 68.437 118.049 68.0893 117.897 67.6712C117.745 67.2532 117.788 66.7991 118.016 66.4089C118.244 66.0186 118.638 65.7241 119.113 65.5902C119.587 65.4563 120.103 65.4939 120.546 65.6948C120.615 65.7254 125.371 67.8149 129.261 66.533C131.178 65.9022 132.581 64.5692 133.552 62.4524C133.757 62.071 134.121 61.7733 134.567 61.6203C135.014 61.4672 135.51 61.4705 135.954 61.6294C136.399 61.7883 136.757 62.0907 136.956 62.4748C137.155 62.8589 137.18 63.2956 137.026 63.6953C135.651 66.6826 133.471 68.6803 130.543 69.6359C129.235 70.0541 127.853 70.2636 126.461 70.2547Z" fill="#FF9900"/>
<path d="M112.346 87.8673C112.031 87.866 111.723 87.7952 111.447 87.6614C111.172 87.5277 110.94 87.3353 110.771 87.1018C110.602 86.8683 110.503 86.6013 110.481 86.3251C110.46 86.0489 110.518 85.7725 110.649 85.521C112.251 82.5184 117.935 77.4331 127.949 79.657C128.188 79.7101 128.413 79.8042 128.611 79.9339C128.809 80.0637 128.976 80.2264 129.102 80.413C129.229 80.5995 129.312 80.8061 129.348 81.0211C129.384 81.2361 129.371 81.4551 129.311 81.6658C129.25 81.8764 129.144 82.0746 128.996 82.2489C128.849 82.4232 128.664 82.5702 128.453 82.6816C128.241 82.793 128.006 82.8665 127.762 82.898C127.518 82.9296 127.27 82.9184 127.03 82.8653C117.574 80.7621 114.183 86.6857 114.042 86.9458C113.885 87.2233 113.642 87.4566 113.343 87.6194C113.043 87.7822 112.698 87.8681 112.346 87.8673Z" fill="#FF9900"/>
<path d="M69.205 132.707L63.6895 135.766L64.4904 136.887L70.0059 133.828L69.205 132.707Z" fill="#FF9900"/>
<path d="M65.5913 132.668L64.3134 133.37L67.7676 138.251L69.0455 137.549L65.5913 132.668Z" fill="#FF9900"/>
<path d="M224.521 46.5771L219.005 49.6359L219.806 50.7567L225.322 47.698L224.521 46.5771Z" fill="#FF9900"/>
<path d="M221.064 45.8846L219.791 46.5902L223.263 51.4493L224.536 50.7437L221.064 45.8846Z" fill="#FF9900"/>
<path d="M204.12 124.98L198.605 128.038L199.406 129.159L204.921 126.1L204.12 124.98Z" fill="#FF9900"/>
<path d="M200.663 124.287L199.391 124.993L202.863 129.852L204.135 129.146L200.663 124.287Z" fill="#FF9900"/>
<path d="M33.22 71.212L31.8845 69.3418L29.7616 70.5183L28.8777 69.2789L31.0006 68.1023L29.6651 66.2321L31.072 65.4585L32.4075 67.3287L34.5305 66.1522L35.4163 67.3916L33.2934 68.5682L34.6289 70.4384L33.22 71.212ZM31.9347 69.1514L33.2683 71.0216L34.407 70.3908L33.0734 68.5206L35.1963 67.344L34.4784 66.3409L32.3554 67.5175L31.0199 65.6472L29.8813 66.278L31.2168 68.1482L29.0938 69.3248L29.8098 70.3279L31.9347 69.1514Z" fill="#FF9900"/>
<path d="M3.6823 62.5784C2.95376 62.5787 2.24148 62.3886 1.63558 62.0322C1.02969 61.6758 0.557421 61.1691 0.278533 60.5762C-0.00035575 59.9832 -0.0733277 59.3307 0.0688506 58.7013C0.211029 58.0718 0.561967 57.4936 1.07726 57.0399C1.59255 56.5862 2.24903 56.2773 2.96364 56.1524C3.67825 56.0275 4.41886 56.0921 5.09176 56.3381C5.76466 56.5841 6.33961 57.0004 6.74385 57.5344C7.14809 58.0683 7.36345 58.6959 7.36269 59.3377C7.36065 60.197 6.97218 61.0204 6.28236 61.6278C5.59254 62.2352 4.65759 62.577 3.6823 62.5784ZM3.6823 56.6497C3.07967 56.6494 2.49045 56.8064 1.98915 57.1011C1.48784 57.3957 1.09695 57.8147 0.865889 58.305C0.634832 58.7953 0.573984 59.335 0.691037 59.8558C0.80809 60.3766 1.09779 60.8551 1.52351 61.2309C1.94923 61.6066 2.49185 61.8628 3.08278 61.9669C3.67371 62.071 4.28641 62.0184 4.84343 61.8158C5.40044 61.6132 5.87676 61.2696 6.21216 60.8285C6.54755 60.3874 6.72698 59.8686 6.72774 59.3377C6.72774 58.6257 6.40707 57.9428 5.8361 57.4388C5.26514 56.9349 4.49053 56.6511 3.6823 56.6497Z" fill="#FF9900"/>
<path d="M46.608 38.85C47.5844 38.85 48.3759 38.1528 48.3759 37.2926C48.3759 36.4325 47.5844 35.7352 46.608 35.7352C45.6317 35.7352 44.8402 36.4325 44.8402 37.2926C44.8402 38.1528 45.6317 38.85 46.608 38.85Z" fill="#FF9900"/>
<path d="M195.391 151.961C196.367 151.961 197.159 151.263 197.159 150.403C197.159 149.543 196.367 148.846 195.391 148.846C194.414 148.846 193.623 149.543 193.623 150.403C193.623 151.263 194.414 151.961 195.391 151.961Z" fill="#DCDFE5"/>
<path d="M15.6479 141.011C14.9196 141.011 14.2077 140.821 13.6021 140.464C12.9966 140.108 12.5246 139.601 12.2459 139.009C11.9672 138.416 11.8942 137.763 12.0363 137.134C12.1784 136.505 12.5291 135.927 13.0441 135.473C13.5591 135.02 14.2152 134.711 14.9295 134.585C15.6438 134.46 16.3842 134.524 17.0571 134.77C17.7299 135.016 18.305 135.431 18.7096 135.965C19.1143 136.498 19.3302 137.125 19.3302 137.767C19.3297 138.627 18.9416 139.452 18.2511 140.06C17.5607 140.669 16.6244 141.011 15.6479 141.011ZM15.6479 135.082C15.0452 135.082 14.456 135.24 13.9549 135.535C13.4537 135.83 13.0631 136.249 12.8325 136.74C12.6018 137.23 12.5415 137.77 12.6591 138.291C12.7767 138.812 13.0669 139.29 13.4931 139.665C13.9193 140.041 14.4623 140.297 15.0534 140.4C15.6445 140.504 16.2572 140.451 16.8141 140.247C17.3709 140.044 17.8468 139.7 18.1817 139.259C18.5165 138.817 18.6953 138.298 18.6953 137.767C18.6937 137.055 18.3722 136.373 17.801 135.87C17.2299 135.367 16.4556 135.084 15.6479 135.082Z" fill="#FF9900"/>
<path d="M192.029 6.48633C191.3 6.48666 190.588 6.29665 189.982 5.94032C189.376 5.58399 188.904 5.07736 188.625 4.48453C188.346 3.89169 188.273 3.23929 188.415 2.60985C188.557 1.98041 188.908 1.40223 189.423 0.948443C189.938 0.494657 190.595 0.185659 191.309 0.0605425C192.023 -0.0645744 192.764 -0.000188789 193.437 0.245554C194.11 0.491297 194.685 0.907354 195.089 1.44109C195.494 1.97483 195.71 2.60226 195.709 3.24401C195.708 4.10351 195.319 4.92742 194.63 5.53518C193.94 6.14294 193.004 6.48498 192.029 6.48633ZM192.029 0.559364C191.426 0.559028 190.837 0.716194 190.335 1.01098C189.834 1.30577 189.443 1.72494 189.212 2.21546C188.981 2.70599 188.921 3.24583 189.038 3.76672C189.155 4.2876 189.445 4.76611 189.871 5.14174C190.298 5.51736 190.841 5.77322 191.432 5.87695C192.023 5.98067 192.636 5.92761 193.193 5.72446C193.75 5.52132 194.226 5.17722 194.561 4.7357C194.896 4.29417 195.074 3.77505 195.074 3.24401C195.074 2.53243 194.753 1.8501 194.182 1.34678C193.611 0.843454 192.837 0.560265 192.029 0.559364Z" fill="#FF9900"/>
<path d="M240.214 127.112C239.485 127.112 238.773 126.922 238.168 126.565C237.562 126.209 237.09 125.702 236.812 125.109C236.533 124.516 236.46 123.864 236.602 123.235C236.744 122.606 237.095 122.028 237.61 121.574C238.125 121.12 238.781 120.811 239.495 120.686C240.209 120.561 240.95 120.625 241.623 120.871C242.296 121.116 242.871 121.532 243.275 122.066C243.68 122.599 243.896 123.226 243.896 123.868C243.895 124.728 243.507 125.553 242.817 126.161C242.126 126.769 241.19 127.111 240.214 127.112ZM240.214 121.183C239.611 121.183 239.022 121.341 238.521 121.636C238.019 121.931 237.629 122.35 237.398 122.84C237.168 123.331 237.107 123.871 237.225 124.392C237.342 124.912 237.633 125.391 238.059 125.766C238.485 126.142 239.028 126.397 239.619 126.501C240.21 126.604 240.823 126.551 241.38 126.348C241.937 126.145 242.413 125.801 242.747 125.359C243.082 124.918 243.261 124.399 243.261 123.868C243.259 123.156 242.938 122.474 242.367 121.971C241.796 121.468 241.021 121.185 240.214 121.183Z" fill="#DCDFE5"/>
<path d="M183.286 50.5441C183.249 50.5055 183.221 50.4605 183.204 50.4119C183.188 50.3633 183.183 50.3123 183.19 50.2619L183.277 49.4968C183.335 48.7702 183.6 48.0684 184.049 47.4565C184.437 46.9394 184.934 46.4918 185.511 46.1372C186.06 45.8107 186.771 45.4389 187.646 45.0218C188.412 44.7078 189.136 44.3201 189.806 43.8657C190.03 43.7045 190.215 43.5053 190.351 43.2798C190.486 43.0544 190.568 42.8072 190.593 42.5531C190.633 42.2906 190.598 42.0235 190.492 41.7757C190.386 41.5279 190.212 41.3072 189.985 41.1334C189.517 40.7594 188.861 40.5355 188.017 40.4618C187.102 40.3814 186.352 40.5038 185.768 40.8291C185.492 40.9726 185.259 41.1726 185.089 41.4124C184.919 41.6521 184.817 41.9244 184.792 42.2063L184.753 42.5565C184.726 42.7894 184.56 42.8965 184.278 42.8693L179.168 42.2284C179.109 42.2241 179.052 42.2081 179.002 42.1816C178.951 42.155 178.908 42.1187 178.876 42.0753C178.804 41.9901 178.77 41.8839 178.782 41.7778V41.6809C178.898 40.4202 179.44 39.2191 180.339 38.2328C181.259 37.2504 182.473 36.5152 183.844 36.111C185.403 35.6482 187.06 35.4966 188.694 35.6672C190.451 35.8202 191.957 36.2198 193.212 36.8659C194.396 37.4482 195.362 38.3205 195.995 39.3771C196.605 40.4428 196.845 41.6434 196.684 42.8285C196.616 43.67 196.323 44.4854 195.831 45.2088C195.418 45.7975 194.883 46.3125 194.254 46.7271C193.543 47.1708 192.797 47.5685 192.021 47.9173C191.304 48.2303 190.626 48.6075 189.997 49.0428C189.776 49.2027 189.594 49.4001 189.461 49.6232C189.328 49.8464 189.248 50.0908 189.225 50.3418L189.175 50.7873C189.162 50.888 189.105 50.9804 189.016 51.0441C188.927 51.1079 188.812 51.1378 188.698 51.1273L183.566 50.6784C183.456 50.6681 183.356 50.6198 183.286 50.5441ZM182.958 57.3314C182.693 57.0439 182.497 56.7115 182.384 56.3547C182.27 55.9978 182.241 55.6243 182.298 55.2571C182.391 54.4286 182.756 53.7853 183.392 53.3274C183.714 53.0992 184.086 52.9311 184.484 52.8335C184.882 52.7358 185.299 52.7107 185.708 52.7595C186.128 52.7823 186.537 52.8799 186.912 53.0461C187.287 53.2124 187.62 53.444 187.891 53.7269C188.424 54.2937 188.644 54.9885 188.551 55.8114C188.521 56.1768 188.407 56.5331 188.217 56.8589C188.026 57.1846 187.763 57.4732 187.443 57.7072C186.784 58.1632 185.95 58.3785 185.116 58.3086C184.281 58.2386 183.508 57.8888 182.958 57.3314Z" fill="#FF9900"/>
<path d="M84.981 155.23C84.944 155.191 84.9165 155.146 84.9002 155.098C84.8839 155.049 84.8792 154.998 84.8864 154.948L84.9713 154.184C85.0284 153.458 85.294 152.756 85.7433 152.144C86.1316 151.627 86.6281 151.179 87.2062 150.825C87.753 150.498 88.4639 150.127 89.3388 149.709C90.1043 149.394 90.8273 149.004 91.4945 148.547C91.7189 148.385 91.9043 148.186 92.0395 147.961C92.1748 147.735 92.2572 147.488 92.2819 147.234C92.3221 146.972 92.2878 146.705 92.182 146.457C92.0763 146.209 91.9024 145.988 91.6759 145.814C91.2063 145.44 90.5501 145.214 89.7074 145.134C88.7913 145.054 88.0412 145.176 87.4571 145.501C87.1809 145.645 86.9481 145.845 86.7781 146.085C86.6082 146.325 86.5061 146.597 86.4805 146.879L86.4419 147.229C86.4149 147.462 86.2586 147.569 85.9691 147.542L80.8644 146.899C80.8055 146.895 80.7484 146.879 80.6975 146.853C80.6467 146.826 80.6034 146.79 80.5711 146.746C80.4983 146.661 80.4645 146.555 80.4765 146.448L80.4881 146.352C80.6035 145.091 81.1454 143.89 82.0436 142.903C82.9633 141.92 84.1784 141.183 85.5503 140.778C87.1091 140.316 88.7649 140.165 90.3983 140.334C92.1584 140.49 93.665 140.889 94.9182 141.533C96.1015 142.115 97.0676 142.988 97.6993 144.044C98.3093 145.11 98.549 146.311 98.3882 147.496C98.3207 148.337 98.0285 149.153 97.5352 149.876C97.1222 150.465 96.5873 150.98 95.9584 151.394C95.2484 151.838 94.5028 152.236 93.7274 152.585C93.0101 152.897 92.3316 153.274 91.7029 153.71C91.4816 153.87 91.2991 154.067 91.1664 154.29C91.0338 154.513 90.9537 154.758 90.931 155.009L90.8808 155.456C90.8686 155.557 90.8116 155.649 90.7222 155.713C90.6329 155.777 90.5185 155.807 90.4041 155.796L85.2724 155.347C85.2174 155.346 85.1634 155.335 85.1134 155.314C85.0633 155.294 85.0183 155.266 84.981 155.23ZM84.6548 162.017C84.3901 161.731 84.1947 161.4 84.0809 161.044C83.967 160.688 83.9371 160.316 83.9928 159.95C84.088 159.121 84.4528 158.478 85.0871 158.02C85.4095 157.789 85.7824 157.618 86.1827 157.518C86.583 157.418 87.0023 157.392 87.4146 157.44C87.8312 157.464 88.2382 157.561 88.6113 157.726C88.9843 157.891 89.3158 158.121 89.5858 158.401C90.1185 158.968 90.3385 159.663 90.2458 160.485C90.2156 160.851 90.1019 161.207 89.9116 161.533C89.7212 161.859 89.4581 162.147 89.138 162.381C88.4785 162.837 87.6456 163.052 86.8113 162.982C85.977 162.912 85.205 162.562 84.6548 162.005V162.017Z" fill="#FF9900"/>
</g>
<defs>
<clipPath id="clip0_7_1199">
<rect width="251" height="163" fill="white"/>
</clipPath>
</defs>
</svg>
