<svg xmlns="http://www.w3.org/2000/svg" viewBox="0 0 832.84 843.94"><defs><style>.cls-1{fill:#1d130a;}.cls-2{fill:#eaa975;}.cls-3{fill:#f90;}.cls-4{fill:#da975e;}.cls-5{fill:#310628;}.cls-6{fill:#393330;}.cls-7{fill:#909090;}.cls-8{fill:#363636;}.cls-9{fill:#4e4e4e;}</style></defs><title>cart  2</title><g id="Layer_2" ><g id="Ñëîé_1"  ><path class="cls-1" d="M97.27,355.11c19-21.55,48.21-31.62,59-23.86,1.92-18.26-4.13,13.57-4.13,13.57,11.28,2.69,20.86,20.24,26.71,20.86,21.6,2.3,10.41,30,19.54,35.5-14.51,86.74-25.93,182.13-54.56,213-17.67,19-51.68,43.77-77.58,94.26C56.17,728,41.89,755,36.7,770.11c-1.45,4.2-2.31,3.41-4.69,1.68a21.81,21.81,0,0,0-3.5-2.16L14.76,763c-3.54-1.71-3.62-2.91-3.47-7,.74-20.33,1.82-51.31,12.9-82.89C40,628.21,65.33,619.68,96,555.3c12.24-25.74,6.71-10.3,8.64-24.65,2.35-17.57-13-80.54-15.62-106.76C86.54,400.06,87.74,365.93,97.27,355.11Z"/><path d="M39.68,762.65c2.33,4.22,9.32,12.12,12,16.45,5.71,9.15,10.09,14.15,16.94,21.22,2.4,2.48,2.66,6.7.6,10.09-.63,1-1.2,2-1.61,2.71C43.56,798.51,1,776.51.33,775.29c-1.79-3.27,3.9-11.33,11-19.59A44.38,44.38,0,0,0,22.57,762C30.68,765.12,34.79,763,39.68,762.65Z"/><path class="cls-1" d="M88.43,382c9.95-29.21,34.8-51.25,48.69-48-5.62-18.91,1.49,15.16,1.5,15.16,12.29-2,29,11.49,35.1,9.7,22.38-6.63,22.69,25.47,34,27.16,21.36,92,49.35,191.4,33.66,233.8-9.69,26.17-33.24,64.73-38.13,125.5-1.9,23.63-4.94,56.29-3.88,73.39.3,4.77-.88,4.34-3.95,3.6a24,24,0,0,0-4.36-.7l-16.4-.95c-4.21-.24-4.79-1.39-6.31-5.47C160.72,794.76,149,763.58,147,727.67c-2.88-51,18.79-70,22.63-146.46,1.53-30.59,2.42-13-1.59-28-4.91-18.41-46-74.58-59.5-99.49C96.31,431.06,83.43,396.7,88.43,382Z"/><path d="M199.11,811.13c4.4,2.73,13.26,6.54,18.07,9.18,10.16,5.58,16.89,8,27,11,3.55,1.06,6,4.88,5.86,9.14,0,1.3-.08,2.49-.08,3.39-30.24-1.05-81.68.68-82.95-.12-3.4-2.12-.37-15.2,2-26.68,3,2.26,6.49,3.33,11.89,2.55C190.13,818.25,194.71,814,199.11,811.13Z"/><path class="cls-2" d="M328.3,352.17c-.49-3.14-3.95-5.34-8.88-6.29a35,35,0,0,0-12.76.13c-11.1,2.06-19.4,8.14-18.55,13.59a5.78,5.78,0,0,0,.39,1c1.89,4.72,10.91,7,21.25,5.1C320.85,363.7,329.16,357.62,328.3,352.17Z"/><path class="cls-3" d="M302.39,342.92C253.58,327,220.82,316.58,200.3,305.3l2.17-12.62c-12.87-10-19.21-29.87-25.91-46.3-8.38,6.2-18,11.92-21.94,20.93a6.93,6.93,0,0,1-3.93,3.85c4.25,18.64,6.61,41.61,13.29,57.73a24.86,24.86,0,0,0,3.9,7,5.58,5.58,0,0,0,2.22,1.86c1.44.9,11.81,5.23,14.34,6.29,6.65,2.81,15.57,5.26,21.29,6.77,39.59,10.44,70.3,10.79,90.22,14.65q4.38-8.52,8.74-17.05A3.88,3.88,0,0,0,302.39,342.92Z"/><polygon class="cls-4" points="164.54 148.32 213.47 166.83 221.21 94.66 179.13 85.88 164.54 148.32"/><path class="cls-5" d="M251.37,30.94a2.22,2.22,0,0,0-.2-1.4c-.46-.71-1.5-.67-2.34-.55-3.94.59-8.35,1.46-10.54,4.79-1.5,2.29-1.55,5.19-1.56,7.92,0,4.73,0,9.59,1.81,13.95,1.5,3.67,2.64,7.08,7.15,7.16C247,52.11,250.46,41.68,251.37,30.94Z"/><path class="cls-2" d="M186.48,69.61c-.83,28.81,12.34,52.74,30.21,53.47s33.33-22,34.52-50.81,2.47-36.75-16.17-40.9C210.73,26,187.72,26.83,186.48,69.61Z"/><path class="cls-2" d="M173.26,78.52a12,12,0,1,0,11-12.86A12,12,0,0,0,173.26,78.52Z"/><path d="M175.52,14c1.61-3.35,4.85-8.69,10.72-11.49,8.16-3.89,15.33-2.57,21.18-.42,10.11,3.71,27.85,10.58,37,10a32.06,32.06,0,0,0,16.25-5.62,22.7,22.7,0,0,1,1.5,17.8,25.79,25.79,0,0,1-12.92,13.78c-8.48,3.93-17.48,2.28-25.69.78C215.69,37.4,212.79,36,206.07,36c-3.52,0-7.19,0-11,1.87C186.19,32.32,179.92,23.5,175.52,14Z"/><path d="M164.68,23.32c3.22-4.76,8.3-8,11.53-9.81.16-.29,1.35.59,1.56.24a56.83,56.83,0,0,0,24,22.3,35,35,0,0,0-4.52,2.3A18.92,18.92,0,0,0,189,52.18c-.88,7.07-.41,13.08,3.35,23.87.89,2.55-8,1.24-8.09,1.34-7.5-6.63-17-14.73-21.12-29.25C161.06,40.65,158.79,32,164.68,23.32Z"/><path class="cls-3" d="M96.35,389.14l114.65-2c.2,0,5.74-105.46,7-127.89.4-7,5.53-66.25,5.45-76.79-.14-19.41-4.46-54.91-6.4-48.74-1.77,5.61-7.14,11.33-17.34,9.94-7.07-1-15.49-14.78-21-24.35l-.86-1.52c-1-1.81-1.83-3.34-2.4-4.42a3.92,3.92,0,0,0-3.42-2.27c-3.09.11-30.7,15.88-40.48,30.17-23.77,33.23-34.4,104.51-34.45,104.85Zm.83-143c-5.49,38.24-18,118.11-9.94,143l9.11.05ZM93.1,289.79q.81-4.56,1.83-9.05Q93.91,285.23,93.1,289.79Z"/><path class="cls-6" d="M212.59,352.72c-21-5.87-51.41-14.6-61.18-19.49-4.87-15.26-9.55-31.9-13.68-49.85-3.72-16.13-6.59-31.5-8.8-45.93-1,20.16,12.78,93.68,15.39,103.6C158,343.65,198.9,350.11,212.59,352.72Z"/><circle cx="438.95" cy="810.21" r="33.65"/><circle class="cls-7" cx="438.95" cy="810.21" r="18.83"/><circle class="cls-8" cx="438.95" cy="810.21" r="10.7"/><path class="cls-9" d="M439.57,816.07a11.45,11.45,0,0,1-11.42-11.42v-36a4.16,4.16,0,0,1,4.16-4.16h31.86a4.16,4.16,0,0,1,3.77,5.93c-5.34,11.27-16.5,34.94-17.62,38A11.45,11.45,0,0,1,439.57,816.07Z"/><circle cx="741.47" cy="810.21" r="33.65" transform="translate(-217.42 1345.69) rotate(-76.72)"/><circle class="cls-7" cx="741.47" cy="810.21" r="18.83"/><circle class="cls-8" cx="741.47" cy="810.21" r="10.09"/><path class="cls-9" d="M742.08,816.07a11.45,11.45,0,0,1-11.42-11.42V769.06a4.54,4.54,0,0,1,4.54-4.54h30.89a4.53,4.53,0,0,1,4.1,6.48c-5.43,11.47-16.25,34.44-17.35,37.49A11.47,11.47,0,0,1,742.08,816.07Z"/><path class="cls-9" d="M452.67,771.08l24.69-146.93-4.76,3.62,66.07-2.92L587,622.71c7.79-.34,23-1.16,30.1,6.7,7.88,8.69,15.84,17.31,23.76,26q32.65,35.65,65.3,71.33l42.61,46.55c4.3,4.7,11.27-2.3,7-7L652.94,653.94l-26.16-28.58c-3.29-3.59-6.78-8.47-10.94-11.1-4.78-3-12.85-2.13-18.22-1.9l-44.22,2-80.8,3.58c-2,.08-4.4,1.45-4.76,3.62l-24.7,146.94c-1,6.21,8.47,8.89,9.53,2.62Z"/><path class="cls-9" d="M304.85,364.5C367.64,373,395.19,377.28,458,385.76l300,40.55,68.61,9.27c6.22.84,8.91-8.68,2.63-9.53L640.9,400.6c-100-13.51-164.79-22.83-264.8-36.35L307.48,355c-6.22-.84-8.91,8.68-2.63,9.52Z"/><path class="cls-9" d="M364.63,448.37l154.29,15.14,244.67,24,56.65,5.56c4,.39,3.93-5.79,0-6.17L666,471.75l-244.67-24-56.66-5.56c-3.95-.39-3.92,5.79,0,6.17Z"/><path class="cls-9" d="M375.26,520.16l147.61,7.48,235.72,11.94,54.72,2.77c4,.2,4-6,0-6.18L665.7,528.7,430,516.76,375.26,514c-4-.2-4,6,0,6.17Z"/><path class="cls-9" d="M384.65,591.93l142.07-.09,228-.16,52.26,0c4,0,4-6.18,0-6.18l-142.07.1-228,.15-52.26,0c-4,0-4,6.17,0,6.17Z"/><path class="cls-9" d="M821.1,434.46q-4.89,36.51-9.77,73c-3.37,25.2-5.42,51-10.16,76-5.14,27-33.8,23.35-54.68,24l-86.64,2.86-203,6.7c-13,.43-26.38,1.9-39.36,1.3-19.89-.92-24.71-17.22-27-33.44L386,552.59,360.14,368.4c-.55-3.91-6.5-2.25-5.95,1.65q12.07,86.15,24.16,172.31,2.68,19.1,5.36,38.2c1.14,8.12,1.23,18.13,4.76,25.42,10.33,21.3,31.78,18.47,51.09,17.84L641,617.17,738.36,614c14.35-.47,33.08,1.75,47-2.88,16.56-5.51,21-20.09,23-35.58q3.27-24.37,6.52-48.74,6.18-46.15,12.35-92.29c.53-3.92-5.65-3.88-6.17,0Z"/><path class="cls-9" d="M395.42,371.07q13.45,108.62,26.93,217.23,1.9,15.42,3.82,30.84c.19,1.56,2.66,1.58,2.47,0q-13.47-108.61-26.93-217.23-1.92-15.42-3.82-30.84c-.2-1.56-2.67-1.58-2.47,0Z"/><path class="cls-9" d="M434.31,371.67q10.21,108.56,20.44,217.13,1.46,15.41,2.9,30.83c.15,1.56,2.62,1.58,2.47,0Q449.91,511.06,439.68,402.5q-1.46-15.42-2.9-30.83c-.15-1.57-2.62-1.59-2.47,0Z"/><path class="cls-9" d="M473.63,379.07Q480.41,484.52,487.2,590q1,15.07,1.93,30.14c.11,1.58,2.58,1.59,2.47,0L478,409.21q-1-15.06-1.94-30.14c-.1-1.58-2.57-1.59-2.47,0Z"/><path class="cls-9" d="M517.54,384.06l9.27,200.5c.44,9.58.89,20.57,1.33,30.15.07,1.58,2.54,1.59,2.47,0-3.09-66.84-6.18-135.07-9.27-201.91q-.68-14.37-1.33-28.74c-.08-1.58-2.54-1.59-2.47,0Z"/><path class="cls-9" d="M558.64,390.28q1.49,98.88,3,197.77l.42,28.24a1.24,1.24,0,0,0,2.47,0q-1.49-98.88-3-197.77l-.42-28.24a1.24,1.24,0,0,0-2.47,0Z"/><path class="cls-9" d="M599.42,395.21q-1.49,96-3,192L596,614.35a1.24,1.24,0,0,0,2.47,0q1.49-96,3-192l.42-27.19a1.24,1.24,0,0,0-2.47,0Z"/><path class="cls-9" d="M637.65,402.59q-3.71,104.91-7.42,209.83c-.06,1.59,2.41,1.59,2.47,0q3.7-104.91,7.42-209.83c.06-1.59-2.41-1.59-2.47,0Z"/><path class="cls-9" d="M675.72,408.09q-5.61,101.18-11.21,202.37c-.08,1.59,2.39,1.58,2.47,0q5.61-101.19,11.2-202.37c.09-1.59-2.38-1.59-2.46,0Z"/><path class="cls-9" d="M713.58,413.65q-7.4,98.06-14.78,196.12c-.11,1.58,2.36,1.58,2.47,0q7.4-98.05,14.78-196.12c.12-1.59-2.35-1.58-2.47,0Z"/><path class="cls-9" d="M753.36,418.57l-20,189.94c-.17,1.57,2.31,1.56,2.47,0l20-189.94c.16-1.58-2.31-1.57-2.47,0Z"/><path class="cls-9" d="M790.7,427,767.81,609.59c-.2,1.57,2.28,1.56,2.47,0L793.17,427c.19-1.57-2.28-1.56-2.47,0Z"/></g></g></svg>