<svg width="217" height="264" viewBox="0 0 217 264" fill="none" xmlns="http://www.w3.org/2000/svg">
<path d="M91.7279 117.161C91.5355 117.162 91.3483 117.108 91.1983 117.009C91.0482 116.91 90.9443 116.771 90.9042 116.616C90.9042 116.472 86.9595 101.776 86.1358 90.9424C85.1961 78.5122 94.0251 68.7784 107.611 67.2198C113.145 66.5888 117.356 67.2963 120.512 69.3808C126.754 73.5114 127.613 82.4994 128.518 92.0229L128.761 94.4133C130.246 109.301 128.761 113.709 128.761 113.891C128.687 114.056 128.541 114.192 128.35 114.272C128.159 114.352 127.939 114.369 127.734 114.321C127.528 114.273 127.352 114.162 127.242 114.011C127.131 113.86 127.093 113.681 127.137 113.508C127.137 113.508 128.564 109.052 127.137 94.5281L126.905 92.1281C126.023 82.9202 125.188 74.219 119.514 70.4612C116.742 68.635 112.948 68.0134 107.913 68.5967C95.1041 70.0501 86.8667 79.2007 87.7601 90.9042C88.5722 101.632 92.4008 116.224 92.4936 116.367C92.5387 116.548 92.4959 116.737 92.3745 116.892C92.2531 117.048 92.0626 117.158 91.8439 117.199L91.7279 117.161Z" fill="url(#paint0_linear_8_1297)"/>
<path d="M48.0468 110.621L167.465 101.107L172.512 104.08L183 106.394L74.035 114.78L48.0468 110.621Z" fill="url(#paint1_linear_8_1297)"/>
<path d="M74.0351 264L43 247.669L48.0468 110.621H63.5701L74.0351 114.78V264Z" fill="url(#paint2_linear_8_1297)"/>
<path d="M43 247.669L60.6813 242.314L74.0351 264L43 247.669Z" fill="url(#paint3_linear_8_1297)"/>
<path d="M60.6813 242.314L63.5701 110.621H48.0468L43 247.669L60.6813 242.314Z" fill="url(#paint4_linear_8_1297)"/>
<path style="mix-blend-mode:multiply" d="M172.512 104.08V109.951L183 106.394L172.512 104.08Z" fill="url(#paint5_linear_8_1297)"/>
<path d="M74.0351 114.78V264L183 247.344V106.394L74.0351 114.78Z" fill="url(#paint6_linear_8_1297)"/>
<path d="M115.813 119.915C115.813 120.259 115.69 120.595 115.458 120.881C115.226 121.168 114.896 121.391 114.51 121.522C114.124 121.654 113.7 121.688 113.29 121.621C112.88 121.554 112.504 121.388 112.209 121.145C111.914 120.902 111.712 120.592 111.631 120.254C111.549 119.916 111.591 119.567 111.751 119.249C111.911 118.931 112.182 118.659 112.529 118.468C112.876 118.276 113.284 118.174 113.702 118.174C114.262 118.174 114.799 118.358 115.195 118.684C115.591 119.01 115.813 119.453 115.813 119.915Z" fill="#3B3B3B"/>
<path d="M152.058 117.142C152.058 117.486 151.934 117.822 151.702 118.108C151.47 118.395 151.14 118.618 150.754 118.749C150.368 118.881 149.944 118.916 149.534 118.848C149.125 118.781 148.748 118.616 148.453 118.372C148.158 118.129 147.957 117.819 147.875 117.481C147.794 117.144 147.836 116.794 147.995 116.476C148.155 116.158 148.426 115.886 148.773 115.695C149.12 115.503 149.529 115.401 149.946 115.401C150.505 115.404 151.041 115.588 151.436 115.914C151.831 116.24 152.055 116.681 152.058 117.142Z" fill="#3B3B3B"/>
<path d="M113.702 120.603C113.51 120.603 113.324 120.548 113.174 120.449C113.025 120.35 112.92 120.212 112.878 120.058C112.878 119.915 108.945 105.218 108.11 94.3848C107.066 80.6064 113.772 71.8574 126.534 70.3945C132.335 69.7347 137.068 70.6048 140.676 72.9761C147.371 77.3936 149.517 86.1139 150.689 97.8366C152.174 112.724 150.689 117.132 150.689 117.314C150.624 117.489 150.479 117.637 150.283 117.724C150.088 117.812 149.858 117.833 149.645 117.782C149.539 117.758 149.439 117.717 149.353 117.661C149.266 117.605 149.194 117.535 149.14 117.456C149.086 117.377 149.052 117.29 149.039 117.2C149.026 117.11 149.034 117.019 149.064 116.931C149.064 116.884 150.491 112.476 149.064 97.9513C148.078 88.1028 146.257 78.3881 139.667 74.047C136.395 71.9052 132.195 71.1498 126.812 71.7809C110.059 73.6933 109.328 88.1697 109.792 94.2988C110.616 105.027 114.433 119.618 114.526 119.762C114.574 119.942 114.534 120.13 114.415 120.286C114.295 120.442 114.106 120.552 113.888 120.593L113.702 120.603Z" fill="url(#paint7_linear_8_1297)"/>
<path d="M115.303 174.091C115.113 173.92 114.881 173.784 114.624 173.69C114.366 173.596 114.088 173.547 113.806 173.546C113.521 173.538 113.238 173.583 112.977 173.677C112.716 173.772 112.484 173.913 112.298 174.091C112.103 174.254 111.95 174.446 111.846 174.658C111.742 174.87 111.691 175.096 111.695 175.325V181.129C111.473 181.966 110.927 182.72 110.14 183.28C109.404 183.822 108.458 184.131 107.472 184.15C106.96 184.142 106.456 184.041 105.997 183.855C105.538 183.668 105.134 183.4 104.815 183.07C104.094 182.409 103.683 181.558 103.655 180.67V180.297C103.62 179.168 103.313 178.056 102.75 177.027C102.188 176.012 101.307 175.141 100.197 174.502C100.093 174.502 100.047 174.416 99.9421 174.378C99.7536 174.641 99.6648 174.944 99.6868 175.248V180.784C99.7186 181.891 100.047 182.979 100.65 183.968C101.233 184.972 102.11 185.839 103.202 186.493C103.307 186.493 103.353 186.579 103.457 186.617C104.446 187.142 105.6 187.415 106.776 187.401C107.716 187.402 108.645 187.231 109.496 186.9C110.346 186.57 111.098 186.088 111.695 185.489V185.737C111.687 185.968 111.736 186.197 111.84 186.41C111.944 186.624 112.1 186.818 112.298 186.98C112.593 187.229 112.972 187.399 113.386 187.468C113.8 187.537 114.229 187.503 114.619 187.369C115.008 187.235 115.34 187.008 115.572 186.717C115.804 186.427 115.924 186.085 115.918 185.737V175.353C115.908 174.885 115.689 174.436 115.303 174.091Z" fill="#FF9900"/>
<path d="M103.806 180.364C103.742 179.663 103.583 178.97 103.33 178.298C102.912 177.084 102.112 175.982 101.009 175.105C100.712 174.865 100.376 174.659 100.012 174.493C99.0133 173.981 97.869 173.694 96.6936 173.661C96.0091 173.657 95.3293 173.754 94.6864 173.948C93.5285 174.279 92.5045 174.868 91.7279 175.65V175.478C91.7264 175.004 91.5115 174.547 91.1247 174.196C90.7351 173.85 90.1964 173.643 89.624 173.62C89.0515 173.596 88.4907 173.759 88.0618 174.072C87.847 174.234 87.6768 174.433 87.5628 174.654C87.4487 174.875 87.3934 175.113 87.4004 175.353V185.623C87.4019 186.097 87.6169 186.553 88.0037 186.904C88.1739 187.077 88.3874 187.218 88.6297 187.317C88.8719 187.416 89.1373 187.471 89.4076 187.478C89.703 187.503 90.0014 187.471 90.2793 187.385C90.5571 187.298 90.8068 187.16 91.0086 186.98C91.2246 186.819 91.3956 186.621 91.5097 186.4C91.6239 186.178 91.6786 185.939 91.6699 185.699V180.784C91.7075 180.103 91.9392 179.437 92.3463 178.843C92.7534 178.249 93.3246 177.741 94.0135 177.363C94.7025 176.984 95.49 176.744 96.3123 176.662C97.1346 176.581 97.9687 176.66 98.7471 176.893C99.1258 177.016 99.4639 177.211 99.734 177.461C100.004 177.712 100.199 178.012 100.302 178.337C100.453 178.796 100.453 179.293 100.603 179.742C100.746 180.214 100.948 180.672 101.207 181.11C101.708 181.949 102.434 182.685 103.33 183.261C103.609 183.453 103.912 183.62 104.235 183.758L104.78 183.969C105.418 184.114 106.081 184.169 106.741 184.131C106.239 184.032 105.774 183.835 105.383 183.557L105.082 183.309C104.856 183.098 104.672 182.859 104.536 182.601C104.15 181.892 103.904 181.137 103.806 180.364Z" fill="#1D130A"/>
<path d="M127.462 184.753C127.79 185.095 127.966 185.521 127.961 185.957C127.966 186.38 127.778 186.789 127.434 187.102C127.09 187.416 126.615 187.611 126.104 187.65C124.693 187.817 123.256 187.57 122.044 186.952C121.112 186.487 120.348 185.827 119.828 185.039C119.293 184.241 119.017 183.341 119.027 182.429V178.537H118.876C118.643 178.541 118.412 178.506 118.196 178.435C117.98 178.363 117.784 178.256 117.619 178.12C117.454 177.985 117.324 177.823 117.237 177.645C117.151 177.467 117.108 177.276 117.113 177.084C117.1 176.891 117.139 176.699 117.227 176.52C117.315 176.342 117.451 176.182 117.623 176.051C117.786 175.915 117.982 175.808 118.197 175.737C118.413 175.666 118.644 175.633 118.876 175.64H119.074V173.365C119.07 173.135 119.121 172.907 119.224 172.693C119.328 172.48 119.482 172.286 119.677 172.122C119.972 171.873 120.351 171.703 120.765 171.634C121.179 171.565 121.608 171.599 121.997 171.733C122.387 171.867 122.719 172.094 122.951 172.384C123.182 172.675 123.303 173.017 123.297 173.365V175.64H124.898C125.132 175.633 125.365 175.666 125.582 175.737C125.8 175.807 125.997 175.915 126.162 176.051C126.328 176.185 126.458 176.347 126.544 176.524C126.63 176.702 126.67 176.893 126.661 177.084C126.675 177.277 126.638 177.471 126.552 177.651C126.465 177.831 126.333 177.993 126.162 178.126C125.997 178.263 125.8 178.37 125.582 178.441C125.365 178.512 125.132 178.545 124.898 178.537H123.297V182.429C123.282 182.897 123.476 183.353 123.842 183.71C124.019 183.872 124.239 183.997 124.484 184.077C124.73 184.157 124.994 184.188 125.257 184.169C125.337 184.188 125.421 184.188 125.501 184.169C125.861 184.118 126.231 184.145 126.575 184.248C126.918 184.35 127.224 184.524 127.462 184.753Z" fill="#1D130A"/>
<path d="M141.024 175.153C141.205 175.298 141.347 175.472 141.443 175.665C141.538 175.857 141.586 176.063 141.581 176.271C141.587 176.702 141.387 177.118 141.024 177.428C140.831 177.58 140.604 177.699 140.355 177.777C140.106 177.856 139.841 177.893 139.574 177.887C139.291 177.886 139.011 177.838 138.751 177.744C138.492 177.65 138.258 177.513 138.066 177.342C137.482 176.991 136.769 176.816 136.047 176.845C135.631 176.834 135.222 176.938 134.887 177.141C134.745 177.22 134.625 177.323 134.537 177.443C134.449 177.564 134.394 177.699 134.376 177.839C134.376 178.384 134.783 178.709 135.537 178.92L137.857 179.455C138.414 179.58 138.913 179.742 139.319 179.866C139.751 180.024 140.17 180.206 140.572 180.411C140.989 180.589 141.351 180.844 141.628 181.157C141.909 181.477 142.142 181.824 142.324 182.19C142.518 182.641 142.605 183.118 142.579 183.596C142.578 184.417 142.22 185.211 141.57 185.833C140.89 186.466 140.028 186.95 139.064 187.239C138.081 187.533 137.046 187.688 136.001 187.698C134.957 187.713 133.919 187.57 132.938 187.277C132.047 187.029 131.226 186.636 130.525 186.12C130.296 185.938 130.116 185.719 129.994 185.478C129.872 185.236 129.812 184.976 129.817 184.714C129.819 184.52 129.87 184.328 129.966 184.15C130.062 183.973 130.2 183.813 130.374 183.682C130.556 183.528 130.775 183.408 131.017 183.329C131.258 183.25 131.518 183.214 131.778 183.223C132.069 183.209 132.36 183.25 132.63 183.343C132.899 183.436 133.139 183.578 133.332 183.758C133.701 184.08 134.148 184.334 134.643 184.504C135.143 184.647 135.669 184.718 136.198 184.714C136.715 184.724 137.223 184.608 137.66 184.38C137.827 184.3 137.965 184.186 138.061 184.048C138.157 183.91 138.206 183.754 138.205 183.596C138.208 183.314 138.103 183.04 137.903 182.811C137.604 182.525 137.194 182.333 136.743 182.266L134.655 181.741C133.34 181.46 132.121 180.933 131.093 180.201C130.699 179.869 130.392 179.473 130.193 179.039C129.993 178.605 129.904 178.141 129.933 177.677C129.922 176.914 130.262 176.176 130.884 175.611C131.475 174.996 132.257 174.523 133.147 174.244C134.024 173.951 134.961 173.795 135.908 173.785C136.942 173.749 137.976 173.849 138.971 174.082C139.721 174.345 140.414 174.707 141.024 175.153Z" fill="#1D130A"/>
<path d="M153.334 173.824C154.646 173.826 155.925 174.16 157 174.78C158.14 175.413 159.057 176.284 159.657 177.304C160.323 178.38 160.67 179.571 160.67 180.78C160.67 181.988 160.323 183.179 159.657 184.255C159.05 185.271 158.135 186.141 157 186.78C155.925 187.4 154.646 187.734 153.334 187.736C152.356 187.747 151.389 187.563 150.515 187.2C149.637 186.824 148.851 186.318 148.194 185.709V185.957C148.194 186.419 147.972 186.862 147.576 187.188C147.18 187.514 146.643 187.698 146.083 187.698C145.523 187.698 144.986 187.514 144.59 187.188C144.194 186.862 143.971 186.419 143.971 185.957V171.137C143.963 170.907 144.013 170.677 144.116 170.464C144.22 170.25 144.376 170.056 144.575 169.894C144.981 169.573 145.521 169.395 146.083 169.395C146.645 169.395 147.185 169.573 147.591 169.894C147.789 170.056 147.945 170.25 148.049 170.464C148.153 170.677 148.202 170.907 148.194 171.137V175.985C148.812 175.342 149.608 174.831 150.515 174.493C151.378 174.091 152.344 173.862 153.334 173.824ZM149.911 183.385C150.237 183.722 150.65 183.993 151.12 184.18C151.589 184.367 152.104 184.465 152.626 184.466C153.154 184.459 153.673 184.36 154.15 184.173C154.626 183.987 155.048 183.718 155.387 183.385C156.137 182.673 156.549 181.761 156.549 180.818C156.549 179.875 156.137 178.963 155.387 178.251C155.062 177.909 154.646 177.632 154.172 177.442C153.697 177.252 153.177 177.153 152.649 177.153C152.122 177.153 151.601 177.252 151.127 177.442C150.653 177.632 150.237 177.909 149.911 178.251C149.198 178.977 148.809 179.883 148.809 180.818C148.809 181.752 149.198 182.659 149.911 183.385Z" fill="#1D130A"/>
<path d="M175.934 173.996C176.193 173.896 176.473 173.84 176.758 173.832C177.043 173.823 177.327 173.863 177.594 173.948C178.13 174.123 178.561 174.464 178.795 174.899C179.03 175.333 179.048 175.826 178.847 176.271L170.957 192.947C170.853 193.163 170.697 193.36 170.497 193.524C170.298 193.688 170.059 193.817 169.797 193.903C169.537 194.003 169.256 194.058 168.97 194.066C168.683 194.074 168.398 194.035 168.13 193.95C167.863 193.865 167.619 193.737 167.413 193.573C167.207 193.409 167.043 193.212 166.931 192.995C166.817 192.779 166.757 192.546 166.757 192.311C166.757 192.076 166.817 191.843 166.931 191.627L168.834 187.611L162.499 176.348C162.388 176.133 162.33 175.902 162.33 175.669C162.33 175.435 162.388 175.204 162.499 174.99C162.6 174.772 162.756 174.574 162.956 174.41C163.156 174.245 163.395 174.117 163.66 174.034C163.916 173.934 164.194 173.878 164.477 173.87C164.761 173.862 165.043 173.901 165.307 173.986C165.571 174.069 165.811 174.197 166.011 174.362C166.211 174.527 166.367 174.724 166.467 174.942L171.108 183.175L174.925 175.066C174.999 174.842 175.126 174.631 175.3 174.448C175.473 174.264 175.689 174.11 175.934 173.996Z" fill="#1D130A"/>
<path d="M89.9413 194.114H89.4076C89.3035 194.122 89.1988 194.105 89.1059 194.066C89.0209 194.07 88.9357 194.07 88.8507 194.066V190.834C88.9551 190.834 89.0015 190.834 89.1059 190.834C89.2053 190.852 89.3082 190.852 89.4076 190.834H89.9529C90.1687 190.813 90.3867 190.813 90.6026 190.834C90.7975 190.863 90.9855 190.918 91.1595 190.996C91.3003 191.073 91.419 191.174 91.5075 191.293C91.6105 191.413 91.6634 191.557 91.6583 191.704C91.664 191.866 91.6115 192.026 91.5075 192.163C91.4119 192.277 91.2731 192.361 91.113 192.402C91.3332 192.441 91.5277 192.547 91.6583 192.698C91.7363 192.771 91.7951 192.856 91.8311 192.948C91.867 193.04 91.8793 193.138 91.8672 193.234C91.8781 193.38 91.8419 193.526 91.7625 193.657C91.6831 193.788 91.5631 193.899 91.4147 193.98C90.9409 194.111 90.4384 194.157 89.9413 194.114ZM89.4424 192.201H90.0457C90.1762 192.22 90.3096 192.22 90.4401 192.201C90.5497 192.202 90.6563 192.172 90.7418 192.115C90.8344 192.085 90.9092 192.027 90.9506 191.953C91.0115 191.879 91.044 191.793 91.044 191.704C91.044 191.615 91.0115 191.529 90.9506 191.455C90.8966 191.389 90.8252 191.334 90.7418 191.293C90.6389 191.236 90.5176 191.206 90.3937 191.207C90.2429 191.207 90.1501 191.207 89.9993 191.207H89.4076L89.4424 192.201ZM89.4424 192.574V193.731H90.0457C90.2112 193.75 90.379 193.75 90.5446 193.731C90.6825 193.712 90.8183 193.683 90.9506 193.645C91.0534 193.599 91.1379 193.529 91.1943 193.444C91.2613 193.355 91.2974 193.253 91.2987 193.148C91.2977 193.046 91.2615 192.946 91.1943 192.861C91.1774 192.824 91.1511 192.79 91.117 192.762C91.083 192.734 91.0421 192.712 90.997 192.698C90.8933 192.643 90.7726 192.613 90.649 192.612C90.4981 192.612 90.3473 192.612 90.1965 192.612H89.4076L89.4424 192.574Z" fill="#1D130A"/>
<path d="M95.7654 194.027C95.6726 194.027 95.4637 194.027 95.2665 194.113C95.0313 194.134 94.794 194.134 94.5588 194.113C94.3568 194.115 94.1562 194.086 93.9671 194.027C93.8023 193.983 93.6596 193.896 93.561 193.779C93.4506 193.674 93.3817 193.544 93.3638 193.406C93.3328 193.257 93.3328 193.105 93.3638 192.956V191.589H93.9207V192.909C93.9 193.136 93.952 193.363 94.0715 193.568C94.1434 193.642 94.236 193.699 94.3413 193.736C94.4465 193.772 94.561 193.787 94.6748 193.779H95.2085V191.666H95.7538L95.7654 194.027Z" fill="#1D130A"/>
<path d="M97.7261 191.13C97.6347 191.128 97.5479 191.097 97.4832 191.043C97.4186 190.99 97.381 190.919 97.3781 190.843C97.3772 190.804 97.3859 190.765 97.4039 190.729C97.4219 190.693 97.4486 190.66 97.4825 190.633C97.5492 190.582 97.6353 190.552 97.7261 190.547C97.8215 190.547 97.913 190.578 97.9804 190.634C98.0479 190.689 98.0858 190.765 98.0858 190.843C98.0801 190.918 98.0432 190.989 97.9814 191.044C97.9482 191.072 97.9084 191.094 97.8645 191.109C97.8206 191.124 97.7735 191.131 97.7261 191.13ZM98.0278 194.113H97.5289V191.589H98.0742L98.0278 194.113Z" fill="#1D130A"/>
<path d="M100.638 194.171C100.391 194.179 100.147 194.122 99.9421 194.008C99.8638 193.934 99.8049 193.847 99.7689 193.754C99.733 193.66 99.7209 193.561 99.7332 193.463V190.442L100.29 190.365V193.549C100.304 193.6 100.341 193.645 100.395 193.674C100.395 193.674 100.487 193.674 100.545 193.76H100.743L100.638 194.171Z" fill="#1D130A"/>
<path d="M104.061 190.423L104.606 190.346V194.027C104.513 194.027 104.304 194.027 104.107 194.114C103.891 194.134 103.673 194.134 103.457 194.114C103.233 194.111 103.01 194.082 102.796 194.027C102.612 193.971 102.443 193.887 102.297 193.779C102.156 193.665 102.052 193.524 101.996 193.368C101.939 193.193 101.908 193.013 101.903 192.832C101.908 192.648 101.939 192.465 101.996 192.287C102.052 192.139 102.138 192 102.251 191.876C102.37 191.751 102.526 191.652 102.703 191.589C102.889 191.511 103.1 191.482 103.307 191.503C103.46 191.494 103.614 191.511 103.759 191.551C103.87 191.572 103.974 191.615 104.061 191.675V190.423ZM104.061 192.125C103.971 192.068 103.868 192.026 103.759 192C103.635 191.944 103.495 191.915 103.353 191.915C103.211 191.915 103.071 191.944 102.947 192C102.844 192.047 102.76 192.116 102.703 192.201C102.64 192.295 102.589 192.394 102.553 192.498C102.53 192.621 102.53 192.747 102.553 192.87C102.531 193.108 102.618 193.343 102.796 193.53C102.984 193.685 103.238 193.774 103.504 193.779H103.852C103.956 193.779 104.049 193.779 104.107 193.779L104.061 192.125Z" fill="#1D130A"/>
<path d="M106.567 191.13C106.475 191.128 106.389 191.097 106.324 191.043C106.259 190.99 106.222 190.919 106.219 190.843C106.218 190.804 106.227 190.765 106.245 190.729C106.262 190.693 106.289 190.66 106.323 190.633C106.39 190.582 106.476 190.552 106.567 190.547C106.661 190.552 106.751 190.582 106.822 190.633C106.882 190.692 106.915 190.766 106.915 190.843C106.913 190.917 106.88 190.988 106.822 191.044C106.753 191.099 106.662 191.13 106.567 191.13ZM106.822 194.113H106.323V191.589H106.81L106.822 194.113Z" fill="#1D130A"/>
<path d="M108.527 191.666C108.692 191.633 108.859 191.608 109.026 191.589C109.259 191.548 109.497 191.532 109.734 191.541C109.939 191.544 110.143 191.573 110.337 191.627C110.502 191.671 110.645 191.759 110.743 191.876C110.845 191.985 110.913 192.113 110.941 192.249C110.966 192.398 110.966 192.549 110.941 192.698V194.114H110.395V192.784C110.408 192.646 110.388 192.506 110.337 192.373C110.337 192.249 110.337 192.163 110.187 192.125C110.131 192.048 110.045 191.991 109.943 191.962C109.83 191.92 109.706 191.904 109.583 191.914H108.934V194.027H108.377V191.666H108.527Z" fill="#1D130A"/>
<path d="M114.56 193.865C114.56 193.865 114.41 193.865 114.305 193.941C114.16 193.982 114.006 193.998 113.853 193.989C113.682 193.983 113.513 193.954 113.354 193.903C113.201 193.86 113.062 193.788 112.948 193.693C112.821 193.585 112.719 193.458 112.646 193.32C112.584 193.146 112.549 192.966 112.542 192.784C112.54 192.608 112.563 192.431 112.611 192.259C112.661 192.1 112.766 191.957 112.913 191.847C113.038 191.736 113.193 191.651 113.365 191.599C113.555 191.529 113.762 191.499 113.969 191.513C114.187 191.503 114.406 191.52 114.618 191.561C114.827 191.561 114.978 191.561 115.117 191.637V193.875C115.139 194.026 115.119 194.179 115.059 194.323C114.998 194.467 114.899 194.598 114.769 194.706C114.431 194.901 114.02 194.99 113.609 194.955C113.425 194.978 113.237 194.978 113.052 194.955C112.901 194.955 112.751 194.955 112.6 194.879L112.704 194.506C112.832 194.553 112.97 194.579 113.11 194.582C113.261 194.582 113.412 194.63 113.609 194.63C113.863 194.649 114.116 194.588 114.317 194.458C114.39 194.391 114.445 194.312 114.479 194.226C114.513 194.141 114.525 194.05 114.514 193.961V193.884L114.56 193.865ZM114.56 191.953C114.56 191.953 114.41 191.953 114.352 191.953H114.004C113.88 191.944 113.755 191.962 113.642 192.004C113.528 192.046 113.429 192.11 113.354 192.192C113.189 192.37 113.099 192.589 113.099 192.813C113.076 192.937 113.076 193.062 113.099 193.186C113.099 193.272 113.203 193.396 113.307 193.435C113.377 193.503 113.459 193.561 113.551 193.607C113.65 193.625 113.753 193.625 113.853 193.607C113.987 193.628 114.125 193.628 114.259 193.607L114.56 193.482V191.991V191.953Z" fill="#1D130A"/>
<path d="M119.932 191.541C120.118 191.548 120.302 191.577 120.477 191.628C120.617 191.672 120.74 191.744 120.837 191.838C120.922 191.923 120.989 192.02 121.034 192.125C121.057 192.248 121.057 192.374 121.034 192.498V194.066C120.964 194.065 120.895 194.082 120.837 194.114C120.733 194.114 120.64 194.114 120.535 194.114C120.42 194.097 120.303 194.097 120.187 194.114H119.828C119.678 194.134 119.525 194.134 119.375 194.114L119.027 193.989C118.932 193.916 118.85 193.833 118.784 193.741C118.711 193.626 118.675 193.497 118.679 193.368C118.686 193.239 118.721 193.113 118.784 192.995C118.856 192.892 118.96 192.806 119.085 192.746C119.194 192.667 119.334 192.623 119.48 192.622C119.645 192.601 119.813 192.601 119.979 192.622H120.28C120.304 192.613 120.33 192.609 120.356 192.609C120.382 192.609 120.407 192.613 120.431 192.622C120.431 192.622 120.431 192.622 120.535 192.622V192.498C120.562 192.429 120.562 192.356 120.535 192.287C120.535 192.211 120.535 192.163 120.431 192.087C120.327 192.01 120.327 192 120.234 191.962C120.115 191.941 119.993 191.941 119.874 191.962C119.725 191.939 119.571 191.939 119.422 191.962C119.329 191.962 119.178 191.962 119.132 192.048L119.074 191.675C119.132 191.628 119.271 191.628 119.422 191.589C119.58 191.524 119.761 191.507 119.932 191.541ZM119.932 193.779H120.28C120.363 193.801 120.452 193.801 120.535 193.779V193.033C120.535 193.033 120.431 192.985 120.327 192.985H119.781C119.677 192.985 119.63 193.033 119.526 193.033C119.448 193.059 119.38 193.102 119.329 193.157C119.296 193.183 119.27 193.214 119.252 193.249C119.234 193.283 119.224 193.321 119.224 193.358C119.224 193.53 119.224 193.655 119.422 193.693C119.576 193.766 119.755 193.796 119.932 193.779Z" fill="#1D130A"/>
<path d="M127.462 190.757H128.019V194.113H127.462V192.574H125.455V194.113H124.898V190.757H125.455V192.163H127.462V190.757Z" fill="#1D130A"/>
<path d="M129.573 192.823C129.576 192.628 129.611 192.435 129.678 192.249C129.764 192.105 129.864 191.967 129.979 191.838C130.104 191.727 130.259 191.641 130.432 191.589C130.591 191.538 130.76 191.509 130.931 191.503C131.109 191.5 131.286 191.528 131.45 191.586C131.614 191.644 131.762 191.729 131.882 191.838C132.125 192.116 132.247 192.452 132.23 192.794V192.957H130.13C130.116 193.17 130.204 193.379 130.374 193.54C130.582 193.689 130.853 193.765 131.128 193.75C131.3 193.761 131.473 193.744 131.638 193.702C131.778 193.702 131.882 193.702 131.928 193.626L132.033 193.999C132.033 193.999 131.836 193.999 131.685 194.075C131.504 194.117 131.316 194.133 131.128 194.123C130.893 194.116 130.659 194.087 130.432 194.037C130.243 193.966 130.07 193.869 129.921 193.75C129.829 193.626 129.724 193.502 129.62 193.329C129.554 193.166 129.538 192.992 129.573 192.823ZM131.685 192.622C131.696 192.532 131.684 192.442 131.65 192.356C131.616 192.271 131.56 192.192 131.488 192.125C131.425 192.062 131.347 192.011 131.259 191.975C131.171 191.939 131.075 191.918 130.977 191.914C130.858 191.907 130.739 191.924 130.629 191.962C130.524 191.99 130.433 192.048 130.374 192.125C130.328 192.194 130.277 192.261 130.223 192.325C130.201 192.407 130.201 192.492 130.223 192.574H131.731L131.685 192.622Z" fill="#1D130A"/>
<path d="M134.748 191.541C134.937 191.548 135.125 191.577 135.305 191.628C135.441 191.672 135.561 191.744 135.653 191.838C135.742 191.921 135.809 192.019 135.85 192.125C135.873 192.248 135.873 192.374 135.85 192.498V194.066C135.78 194.065 135.711 194.082 135.653 194.114C135.553 194.133 135.45 194.133 135.351 194.114C135.236 194.098 135.118 194.098 135.003 194.114H134.655C134.505 194.135 134.352 194.135 134.202 194.114C134.079 194.079 133.959 194.038 133.843 193.989C133.748 193.916 133.666 193.832 133.599 193.741C133.527 193.626 133.491 193.497 133.495 193.368C133.502 193.239 133.537 193.113 133.599 192.995C133.671 192.892 133.776 192.806 133.901 192.746C134.019 192.681 134.154 192.638 134.295 192.622C134.464 192.601 134.637 192.601 134.806 192.622H135.107C135.156 192.606 135.21 192.606 135.258 192.622H135.351V192.498C135.378 192.429 135.378 192.356 135.351 192.287C135.351 192.287 135.351 192.163 135.247 192.086C135.142 192.01 135.154 192 135.049 191.962C134.935 191.941 134.816 191.941 134.701 191.962C134.552 191.938 134.398 191.938 134.249 191.962C134.098 191.962 133.994 191.962 133.947 192.048V191.675C133.947 191.628 134.156 191.628 134.307 191.589C134.446 191.542 134.598 191.526 134.748 191.541ZM134.748 193.779H135.107C135.2 193.779 135.305 193.779 135.351 193.779V193.033C135.351 193.033 135.258 192.985 135.154 192.985H134.655C134.573 192.997 134.491 193.013 134.411 193.033C134.332 193.062 134.26 193.104 134.202 193.157C134.144 193.213 134.111 193.284 134.11 193.358C134.11 193.53 134.11 193.655 134.307 193.693C134.463 193.743 134.627 193.772 134.794 193.779H134.748Z" fill="#1D130A"/>
<path d="M138.518 194.171C138.268 194.177 138.021 194.121 137.811 194.008C137.734 193.933 137.678 193.846 137.644 193.753C137.61 193.659 137.599 193.56 137.613 193.463V190.442L138.136 190.346V193.53C138.136 193.53 138.136 193.616 138.24 193.655C138.344 193.693 138.344 193.655 138.391 193.741H138.588L138.518 194.171Z" fill="#1D130A"/>
<path d="M140.456 191.589H141.616V191.962H140.456V193.119C140.423 193.226 140.423 193.337 140.456 193.444C140.456 193.521 140.489 193.596 140.549 193.654C140.549 193.654 140.653 193.74 140.699 193.74C140.746 193.74 140.85 193.74 140.955 193.74C141.089 193.761 141.227 193.761 141.361 193.74C141.454 193.693 141.512 193.693 141.558 193.654L141.662 194.027C141.565 194.064 141.464 194.093 141.361 194.113C141.211 194.132 141.058 194.132 140.908 194.113C140.732 194.117 140.558 194.088 140.398 194.027C140.271 193.993 140.164 193.922 140.096 193.827C139.999 193.733 139.946 193.615 139.945 193.492C139.92 193.34 139.92 193.185 139.945 193.033V190.805L140.502 190.719V191.551L140.456 191.589Z" fill="#1D130A"/>
<path d="M143.089 194.114V190.423L143.635 190.346V191.627C143.738 191.605 143.838 191.576 143.936 191.541C144.041 191.541 144.192 191.541 144.284 191.541C144.49 191.539 144.695 191.568 144.888 191.627C145.053 191.671 145.195 191.759 145.294 191.876C145.402 191.978 145.471 192.105 145.491 192.239C145.522 192.391 145.522 192.546 145.491 192.698V194.104H144.934V192.784C144.96 192.645 144.96 192.503 144.934 192.364C144.876 192.239 144.876 192.163 144.783 192.125C144.721 192.048 144.632 191.988 144.528 191.953C144.414 191.931 144.295 191.931 144.18 191.953H143.983C143.914 191.938 143.843 191.938 143.774 191.953C143.746 191.951 143.718 191.954 143.692 191.962C143.666 191.971 143.642 191.984 143.623 192H143.53V194.066H143.078L143.089 194.114Z" fill="#1D130A"/>
<path d="M146.698 194.563C146.756 194.563 146.802 194.611 146.849 194.611C146.895 194.611 146.999 194.611 147.057 194.611C147.237 194.621 147.414 194.577 147.556 194.486C147.698 194.38 147.815 194.253 147.904 194.113C147.661 193.74 147.452 193.329 147.208 192.87C146.99 192.44 146.804 192 146.651 191.551H147.255C147.255 191.675 147.359 191.838 147.405 192C147.452 192.163 147.556 192.335 147.603 192.497C147.667 192.682 147.753 192.861 147.858 193.033C147.962 193.205 148.009 193.368 148.113 193.53C148.252 193.205 148.403 192.87 148.508 192.574C148.612 192.278 148.705 191.914 148.809 191.541H149.366L148.914 192.909C148.758 193.332 148.572 193.747 148.357 194.152C148.252 194.276 148.206 194.438 148.113 194.525C148.038 194.626 147.934 194.711 147.811 194.773C147.697 194.835 147.577 194.89 147.452 194.936C147.303 194.962 147.148 194.962 146.999 194.936H146.698H146.605C146.605 194.936 146.605 194.936 146.5 194.936L146.698 194.563Z" fill="#1D130A"/>
<path d="M153.879 194.114V192.784C153.636 192.45 153.38 192.086 153.125 191.752C152.87 191.417 152.673 191.092 152.475 190.796H153.125C153.273 191.067 153.443 191.329 153.636 191.58C153.833 191.876 153.984 192.125 154.181 192.364C154.403 192.121 154.59 191.858 154.738 191.58C154.935 191.293 155.086 191.044 155.237 190.796H155.898C155.689 191.13 155.446 191.455 155.237 191.752L154.483 192.708V194.075L153.879 194.114Z" fill="#1D130A"/>
<path d="M159.506 192.823C159.501 193.007 159.47 193.19 159.413 193.368C159.357 193.524 159.253 193.665 159.112 193.779C158.987 193.89 158.832 193.975 158.659 194.027C158.486 194.097 158.294 194.126 158.102 194.114C157.913 194.107 157.725 194.078 157.545 194.027C157.388 193.954 157.236 193.87 157.093 193.779C156.966 193.656 156.864 193.517 156.791 193.368C156.712 193.194 156.68 193.008 156.699 192.823C156.703 192.642 156.734 192.462 156.791 192.287C156.848 192.131 156.952 191.99 157.093 191.876C157.218 191.765 157.373 191.68 157.545 191.627C157.717 191.555 157.91 191.525 158.102 191.541C158.292 191.548 158.48 191.577 158.659 191.627C158.817 191.701 158.968 191.784 159.112 191.876C159.239 191.999 159.341 192.138 159.413 192.287C159.489 192.458 159.521 192.641 159.506 192.823ZM158.961 192.823C158.97 192.585 158.879 192.352 158.706 192.163C158.631 192.08 158.532 192.014 158.419 191.971C158.305 191.928 158.181 191.908 158.056 191.914C157.931 191.916 157.808 191.94 157.694 191.982C157.58 192.025 157.478 192.087 157.395 192.163C157.225 192.354 157.139 192.586 157.151 192.823C157.139 193.062 157.225 193.298 157.395 193.492C157.471 193.575 157.572 193.642 157.687 193.685C157.803 193.729 157.929 193.748 158.056 193.741C158.179 193.738 158.301 193.715 158.412 193.672C158.524 193.63 158.624 193.568 158.706 193.492C158.816 193.407 158.901 193.303 158.955 193.187C159.01 193.071 159.031 192.947 159.019 192.823H158.961Z" fill="#1D130A"/>
<path d="M163.474 194.027C163.381 194.027 163.172 194.027 162.975 194.113C162.74 194.134 162.503 194.134 162.267 194.113C162.062 194.115 161.857 194.086 161.664 194.027C161.501 193.986 161.361 193.898 161.27 193.779C161.16 193.673 161.087 193.544 161.061 193.406C161.036 193.257 161.036 193.106 161.061 192.956V191.589H161.618V192.909C161.597 193.136 161.649 193.363 161.769 193.568C161.839 193.643 161.931 193.701 162.037 193.738C162.143 193.775 162.258 193.789 162.372 193.779H163.022V191.666H163.578V194.027H163.474Z" fill="#1D130A"/>
<path opacity="0.38" d="M21.5 141L22.7348 145.146H26.7308L23.498 147.708L24.7328 151.854L21.5 149.292L18.2672 151.854L19.502 147.708L16.2692 145.146H20.2652L21.5 141Z" fill="#FF9900"/>
<path d="M5.5 87L6.73483 91.1459H10.7308L7.49799 93.7082L8.73282 97.8541L5.5 95.2918L2.26718 97.8541L3.50201 93.7082L0.269189 91.1459H4.26517L5.5 87Z" fill="#FF9900" fill-opacity="0.38"/>
<path d="M183.5 147L184.735 151.146H188.731L185.498 153.708L186.733 157.854L183.5 155.292L180.267 157.854L181.502 153.708L178.269 151.146H182.265L183.5 147Z" fill="#FF9900" fill-opacity="0.38"/>
<path d="M146.5 29L147.735 33.1459H151.731L148.498 35.7082L149.733 39.8541L146.5 37.2918L143.267 39.8541L144.502 35.7082L141.269 33.1459H145.265L146.5 29Z" fill="#FF9900" fill-opacity="0.38"/>
<path d="M40.5 41L41.7348 45.1459H45.7308L42.498 47.7082L43.7328 51.8541L40.5 49.2918L37.2672 51.8541L38.502 47.7082L35.2692 45.1459H39.2652L40.5 41Z" fill="#FF9900" fill-opacity="0.38"/>
<path d="M208.5 109L209.735 113.146H213.731L210.498 115.708L211.733 119.854L208.5 117.292L205.267 119.854L206.502 115.708L203.269 113.146H207.265L208.5 109Z" fill="#FF9900" fill-opacity="0.38"/>
<circle cx="200.5" cy="77.5" r="2.5" fill="#FF9900" fill-opacity="0.38"/>
<circle cx="58.5" cy="95.5" r="2.5" fill="#FF9900" fill-opacity="0.38"/>
<circle cx="87.5" cy="41.5" r="2.5" fill="#FF9900" fill-opacity="0.38"/>
<circle cx="143.5" cy="87.5" r="2.5" fill="#FF9900" fill-opacity="0.38"/>
<defs>
<linearGradient id="paint0_linear_8_1297" x1="98.457" y1="130.557" x2="115.098" y2="46.1434" gradientUnits="userSpaceOnUse">
<stop stop-color="#595959"/>
<stop offset="0.44" stop-color="#9E9E9E"/>
<stop offset="0.82" stop-color="#D4D4D4"/>
<stop offset="1" stop-color="#E8E8E8"/>
</linearGradient>
<linearGradient id="paint1_linear_8_1297" x1="115.059" y1="104.826" x2="115.803" y2="113.5" gradientUnits="userSpaceOnUse">
<stop stop-color="#F2F2F2"/>
<stop offset="0.17" stop-color="#EDEDED"/>
<stop offset="0.37" stop-color="#DFDFDF"/>
<stop offset="0.58" stop-color="#C8C8C8"/>
<stop offset="0.8" stop-color="#A8A8A8"/>
<stop offset="1" stop-color="#858585"/>
</linearGradient>
<linearGradient id="paint2_linear_8_1297" x1="174.67" y1="65.1451" x2="67.9657" y2="234.045" gradientUnits="userSpaceOnUse">
<stop stop-color="#FBFBFB"/>
<stop offset="0.03" stop-color="#FAFAFA"/>
<stop offset="1" stop-color="#CCCCCC"/>
</linearGradient>
<linearGradient id="paint3_linear_8_1297" x1="103.295" y1="211.21" x2="36.8525" y2="308.694" gradientUnits="userSpaceOnUse">
<stop stop-color="#FBFBFB"/>
<stop offset="0.03" stop-color="#FAFAFA"/>
<stop offset="1" stop-color="#CCCCCC"/>
</linearGradient>
<linearGradient id="paint4_linear_8_1297" x1="57.862" y1="92.482" x2="53.1321" y2="259.875" gradientUnits="userSpaceOnUse">
<stop stop-color="#FBFBFB"/>
<stop offset="0.03" stop-color="#FAFAFA"/>
<stop offset="1" stop-color="#CCCCCC"/>
</linearGradient>
<linearGradient id="paint5_linear_8_1297" x1="181.55" y1="108.23" x2="169.652" y2="105.88" gradientUnits="userSpaceOnUse">
<stop stop-color="#F2F2F2"/>
<stop offset="0.17" stop-color="#EDEDED"/>
<stop offset="0.37" stop-color="#DFDFDF"/>
<stop offset="0.58" stop-color="#C8C8C8"/>
<stop offset="0.8" stop-color="#A8A8A8"/>
<stop offset="1" stop-color="#858585"/>
</linearGradient>
<linearGradient id="paint6_linear_8_1297" x1="182.582" y1="93.0939" x2="7.75022" y2="511.922" gradientUnits="userSpaceOnUse">
<stop stop-color="#FBFBFB"/>
<stop offset="0.03" stop-color="#FAFAFA"/>
<stop offset="1" stop-color="#CCCCCC"/>
</linearGradient>
<linearGradient id="paint7_linear_8_1297" x1="121.116" y1="127.793" x2="136.211" y2="58.924" gradientUnits="userSpaceOnUse">
<stop stop-color="#595959"/>
<stop offset="0.44" stop-color="#9E9E9E"/>
<stop offset="0.82" stop-color="#D4D4D4"/>
<stop offset="1" stop-color="#E8E8E8"/>
</linearGradient>
</defs>
</svg>
