<svg width="32" height="32" viewBox="0 0 32 32" fill="none" xmlns="http://www.w3.org/2000/svg">
    <rect width="32" height="32" rx="16" fill="#FF9900" fill-opacity="0.2" />
    <g clip-path="url(#clip0_1565_297)">
        <path d="M17.9508 16.3169C18.5997 16.5988 19.1706 16.9737 19.6788
17.4567C19.7066 17.4302 19.7309 17.4078 19.7542 17.3848C20.4753
16.665 21.1925 15.941 21.9184 15.226C22.4142 14.7376 23.0119 14.5877 23.6722
14.7974C24.3246 15.0045 24.7174 15.4712 24.8316 16.1456C24.9274 16.7116 24.7718
17.2192 24.3639 17.6283C22.8732 19.1252 21.3767 20.6159 19.8821 22.1093C19.4745
22.5165 19.068 22.9246 18.6575 23.329C18.6147 23.3712 18.5517 23.4051 18.4929
23.4172C17.5286 23.6131 16.5633 23.8049 15.5984 23.9976C15.5897 23.9992 15.5808
23.9986 15.5571 23.9999C15.5737 23.9177 15.5891 23.8404 15.6044 23.763C15.7834
22.8649 15.9615 21.9664 16.1436 21.0689C16.1551 21.0126 16.1865 20.9519 16.2271
20.9113C17.075 20.0601 17.9256 19.2112 18.7768 18.3629C18.8027 18.337
18.8391 18.3219 18.8854 18.2925C17.5471 17.1041 16.0551 16.703 14.3611
17.2013C12.5321 17.7396 11.1366 19.4835 11.1357 21.5563C10.7626 21.5563
10.3896 21.5563 10 21.5563C10.0051 20.4162 10.3206 19.3729 10.9506
18.4261C11.5806 17.4794 12.425 16.7832 13.4699 16.3195C12.3023 15.4539
11.6819 14.3144 11.7206 12.8578C11.7493 11.7698 12.1815 10.8454 12.9697
10.0969C14.5589 8.58724 17.0693 8.63583 18.6042 10.2388C19.1517 10.8106
19.5027 11.4866 19.6474 12.2656C19.7926 13.0471 19.7123 13.8075 19.4042
14.541C19.0974 15.2704 18.6102 15.855 17.9508 16.3169ZM15.7112 15.8509C17.2886
15.8512 18.5719 14.5842 18.5735 13.0247C18.5751 11.4256 17.309 10.1435 15.7272
10.1429C14.1364 10.1422 12.8562 11.4115 12.8556 12.9898C12.8553 14.5778 14.1258
15.8509 15.7112 15.8509ZM17.0022 22.5609C17.3183 22.4944 17.6155 22.4356 17.9106
22.3675C17.9751 22.3525 18.0442 22.3173 18.0908 22.2707C19.6132 20.7543 21.1331
19.2355 22.6533 17.7169C22.9489 17.4215 23.2455 17.1268 23.5399 16.8302C23.7234
16.6455 23.772 16.416 23.6825 16.2015C23.5223 15.8186 23.0157 15.7428 22.7178
16.0423C20.9841 17.7853 19.2447 19.5228 17.4989 21.2542C17.2991 21.4524 17.1601
21.656 17.1275 21.9389C17.1041 22.1431 17.0476 22.3432 17.0022 22.5609Z" fill="#FF9900" />
    </g>
    <defs>
        <clipPath id="clip0_1565_297">
            <rect width="14.859" height="15" fill="white" transform="translate(10 9)" />
        </clipPath>
    </defs>
</svg>
