<svg width="70" height="70" viewBox="0 0 70 70" xmlns="http://www.w3.org/2000/svg">
    <path d="M42,27.6A4,4 0,0 0,40.2 24c-3.6,-2.3 -11.5,1.2 -13,1.9a1.4,1.4 0,0 0,-0.7 2,1.5 1.5,0 0,0 1.9,0.7c3.1,-1.5 8.6,-3.2 10.2,-2.2s0.5,0.3 0.5,1.2 -4.6,9.3 -7.6,14 -5,8 -5.2,9.6a3.9,3.9 0,0 0,1.8 3.6,5.5 5.5,0 0,0 3.2,0.8c3.8,0 8.7,-2.1 9.8,-2.7a1.4,1.4 0,0 0,0.7 -1.9,1.5 1.5,0 0,0 -1.9,-0.7c-3.2,1.5 -8.6,3.2 -10.3,2.1a1.1,1.1 0,0 1,-0.4 -1c0.1,-1 2.7,-5 4.8,-8.2C38.6,35.9 41.9,30.5 42,27.6Z" fill="#fff"/>
    <path d="M36.1,16m-4.1,0a4.1,4.1 0,1 1,8.2 0a4.1,4.1 0,1 1,-8.2 0" fill="#fff"/>
    <path d="M35,0A35,35 0,1 0,70 35,35 35,0 0,0 35,0ZM35,67.1A32.1,32.1 0,1 1,67.1 35,32.1 32.1,0 0,1 35,67.1Z" fill="#fff"/>
</svg>
