<svg xmlns="http://www.w3.org/2000/svg" width="230" height="180" viewBox="0 0 206.84 154">
    <path d="M206.84,153 L86.57,154C38.76,154 0,119.53 0,77H0C0,34.47 38.76,0 86.57,0H206.84Z" fill="#011842" fill-opacity="0.1"/>
    <path d="M138.15,19.22L99.1,19.22a12.26,12.26 0,0 0,-12.27 12v91.49a12.14,12.14 0,0 0,12.15 12l39.11,0a12.08,12.08 0,0 0,12.07 -12l0.05,-91.45A12,12 0,0 0,138.15 19.22ZM113,26.44h11.33a1.81,1.81 0,1 1,0 3.61L113,30.05a1.81,1.81 0,0 1,0 -3.61ZM106.2,27.01a1.88,1.88 0,0 1,2.55 0,1.84 1.84,0 0,1 0.54,1.29 1.83,1.83 0,0 1,-1.81 1.8,1.85 1.85,0 0,1 -1.28,-0.53 1.79,1.79 0,0 1,-0.53 -1.27A1.83,1.83 0,0 1,106.18 27ZM118.3,131.2a5.4,5.4 0,1 1,5.41 -5.4A5.4,5.4 0,0 1,118.28 131.2ZM144.63,116.72L93.15,116.72L93.15,36.37h51.46v80.35Z" fill="#011842"/>
</svg>
