<svg width="18" height="18" viewBox="0 0 18 18" fill="none" xmlns="http://www.w3.org/2000/svg">
<path d="M8.24797 2.76111H2.76865C2.35344 2.76111 1.95525 2.92605 1.66166 3.21964C1.36806 3.51323 1.20313 3.91143 1.20312 4.32663V15.2853C1.20313 15.7005 1.36806 16.0987 1.66166 16.3923C1.95525 16.6859 2.35344 16.8508 2.76865 16.8508H13.7273C14.1425 16.8508 14.5407 16.6859 14.8343 16.3923C15.1279 16.0987 15.2928 15.7005 15.2928 15.2853V9.80595" stroke="#FF9900" stroke-width="1.5" stroke-linecap="round" stroke-linejoin="round"/>
<path d="M14.1174 1.58632C14.4288 1.27492 14.8512 1.09998 15.2916 1.09998C15.732 1.09998 16.1543 1.27492 16.4657 1.58632C16.7771 1.89772 16.9521 2.32007 16.9521 2.76046C16.9521 3.20085 16.7771 3.6232 16.4657 3.9346L9.02948 11.3708L5.89844 12.1536L6.6812 9.02255L14.1174 1.58632Z" stroke="#FF9900" stroke-width="1.5" stroke-linecap="round" stroke-linejoin="round"/>
</svg>
