<svg width="43" height="43" viewBox="0 0 43 43" fill="none" xmlns="http://www.w3.org/2000/svg">
<circle cx="21.5" cy="21.5" r="21.5" fill="#DDFFED"/>
<path d="M17.9856 24.3192C20.133 20.6928 22.1104 17.3416 24.0993 14.0009C24.7026 12.9881 25.5505 12.6877 26.4457 13.1275C27.4864 13.6389 27.7423 14.6435 27.0851 15.7653C25.3132 18.7755 23.5298 21.7752 21.7501 24.7807C21.5472 25.1233 21.3444 25.4659 20.9719 26.0948C22.2952 25.7759 23.3719 25.4483 24.4676 25.2802C25.0309 25.1909 25.7723 25.1961 26.17 25.5003C26.596 25.8285 26.9515 26.5812 26.9 27.111C26.8572 27.5845 26.2869 28.2842 25.8275 28.4134C23.1223 29.1683 20.3926 29.8329 17.6505 30.4286C16.6972 30.6376 15.9853 30.0859 15.7161 29.1276C15.0091 26.598 14.3163 24.0622 13.6488 21.5197C13.3574 20.4074 13.8194 19.5495 14.7744 19.2836C15.6889 19.0263 16.6371 19.5444 16.9472 20.5413C17.3036 21.6995 17.5927 22.8756 17.9856 24.3192Z" fill="#06AA52"/>
</svg>
