<svg width="426" height="924" viewBox="0 0 426 924" fill="none" xmlns="http://www.w3.org/2000/svg">
<g clip-path="url(#clip0_3125_3938)">
<path d="M380.222 150.773L406.703 150.773L406.703 127.347L380.222 127.347L380.222 150.773Z" stroke="#EBEBEB" stroke-width="0.75" stroke-miterlimit="10"/>
<path d="M395.05 121.24H421.531V97.8136H395.05V121.24Z" stroke="#EBEBEB" stroke-width="0.75" stroke-miterlimit="10"/>
<path d="M299.003 248.96H325.484V225.533H299.003V248.96Z" stroke="#EBEBEB" stroke-miterlimit="10"/>
<path d="M313.737 219.427H340.219V196H313.737V219.427Z" stroke="#EBEBEB" stroke-miterlimit="10"/>
<path d="M328.448 248.96H354.93V225.533H328.448V248.96Z" stroke="#EBEBEB" stroke-miterlimit="10"/>
<path d="M4.45615 121.24H30.9375V97.8136H4.45615V121.24Z" stroke="#EBEBEB" stroke-width="0.75" stroke-miterlimit="10"/>
<path d="M19.1827 671.602H45.6641V648.175H19.1827V671.602Z" stroke="#EBEBEB" stroke-width="0.75" stroke-miterlimit="10"/>
<path d="M4.45615 642.067H30.9375V618.641H4.45615V642.067Z" stroke="#EBEBEB" stroke-width="0.75" stroke-miterlimit="10"/>
<path d="M380.222 671.601L406.703 671.602L406.703 648.175L380.222 648.175L380.222 671.601Z" stroke="#EBEBEB" stroke-width="0.75" stroke-miterlimit="10"/>
<g clip-path="url(#clip1_3125_3938)">
<path d="M313.719 1195V863.818L394.688 767.652V587.701" stroke="#EBEBEB" stroke-miterlimit="10"/>
<path d="M387.438 581.642C387.438 585.067 390.761 587.965 394.688 587.965C398.616 587.965 401.939 585.067 401.939 581.642C401.939 578.217 398.616 575.318 394.688 575.318C390.761 575.318 387.438 578.217 387.438 581.642Z" stroke="#EBEBEB" stroke-miterlimit="10"/>
<path d="M334.57 1195V875.411L415.539 779.507V653.568" stroke="#EBEBEB" stroke-miterlimit="10"/>
<path d="M408.289 647.509C408.289 650.934 411.612 653.832 415.54 653.832C419.468 653.832 422.791 650.934 422.791 647.509C422.791 644.084 419.468 641.186 415.54 641.186C411.31 641.186 408.289 644.084 408.289 647.509Z" stroke="#EBEBEB" stroke-miterlimit="10"/>
<path d="M293.781 1195V756.586" stroke="#EBEBEB" stroke-miterlimit="10"/>
<path d="M286.531 750.263C286.531 753.688 289.855 756.586 293.782 756.586C297.71 756.586 301.033 753.688 301.033 750.263C301.033 746.838 297.71 743.939 293.782 743.939C289.855 743.939 286.531 746.838 286.531 750.263Z" stroke="#EBEBEB" stroke-miterlimit="10"/>
<path d="M274.442 1195V972.104L219.758 881.997V720.227" stroke="#EBEBEB" stroke-miterlimit="10"/>
<path d="M212.508 713.903C212.508 717.328 215.831 720.227 219.759 720.227C223.686 720.227 227.01 717.328 227.01 713.903C227.01 710.478 223.686 707.58 219.759 707.58C215.831 707.844 212.508 710.478 212.508 713.903Z" stroke="#EBEBEB" stroke-miterlimit="10"/>
<path d="M255.412 1195V981.853L190.758 881.998V775.556" stroke="#EBEBEB" stroke-miterlimit="10"/>
<path d="M183.508 769.232C183.508 772.658 186.831 775.556 190.759 775.556C194.686 775.556 198.01 772.658 198.01 769.232C198.01 765.807 194.686 762.909 190.759 762.909C186.831 763.173 183.508 765.807 183.508 769.232Z" stroke="#EBEBEB" stroke-miterlimit="10"/>
</g>
<path d="M73.9062 38.5168V0.998047" stroke="#C7C7C7" stroke-miterlimit="10"/>
<path d="M97.1031 60.7691L95.2031 64.8602H52.5031L50.7031 60.7691L68.8031 48.1963H78.9031L97.1031 60.7691Z" fill="#EBEBEB"/>
<path d="M80.2016 36.1221L78.9016 48.1959H68.8016L67.6016 36.1221H80.2016Z" fill="#DBDBDB"/>
<path d="M97.1031 60.7686L95.2031 64.8597H52.5031L50.7031 60.7686H97.1031Z" fill="#DBDBDB"/>
<path d="M166.703 38.5168V0.998047" stroke="#C7C7C7" stroke-miterlimit="10"/>
<path d="M189.9 60.7691L188.1 64.8602H145.4L143.5 60.7691L161.7 48.1963H171.8L189.9 60.7691Z" fill="#EBEBEB"/>
<path d="M172.998 36.1221L171.798 48.1959H161.698L160.398 36.1221H172.998Z" fill="#DBDBDB"/>
<path d="M189.9 60.7686L188.1 64.8597H145.4L143.5 60.7686H189.9Z" fill="#DBDBDB"/>
<path d="M259.609 38.5168V0.998047" stroke="#C7C7C7" stroke-miterlimit="10"/>
<path d="M282.806 60.7691L280.906 64.8602H238.206L236.406 60.7691L254.506 48.1963H264.606L282.806 60.7691Z" fill="#EBEBEB"/>
<path d="M265.905 36.1221L264.605 48.1959H254.505L253.305 36.1221H265.905Z" fill="#DBDBDB"/>
<path d="M282.806 60.7686L280.906 64.8597H238.206L236.406 60.7686H282.806Z" fill="#DBDBDB"/>
<path d="M352.406 38.5168V0.998047" stroke="#C7C7C7" stroke-miterlimit="10"/>
<path d="M375.603 60.7691L373.803 64.8602H331.103L329.203 60.7691L347.403 48.1963H357.503L375.603 60.7691Z" fill="#EBEBEB"/>
<path d="M358.702 36.1221L357.502 48.1959H347.402L346.102 36.1221H358.702Z" fill="#DBDBDB"/>
<path d="M375.603 60.7686L373.803 64.8597H331.103L329.203 60.7686H375.603Z" fill="#DBDBDB"/>
</g>
<defs>
<clipPath id="clip0_3125_3938">
<rect width="426" height="963" fill="white"/>
</clipPath>
<clipPath id="clip1_3125_3938">
<rect width="242" height="621" fill="white" transform="translate(182 574.001)"/>
</clipPath>
</defs>
</svg>
