<svg width="21" height="26" viewBox="0 0 21 26" fill="none" xmlns="http://www.w3.org/2000/svg">
<g clip-path="url(#clip0_3125_3009)">
<path d="M6.90156 18.7258C6.90156 18.7258 6.75156 18.7258 6.75156 18.5758C5.85156 17.6758 5.10156 16.9258 4.20156 16.0258C2.70156 14.5258 1.80156 12.7258 1.50156 10.7758C0.901563 5.82583 4.20156 1.47583 8.85156 0.57583C12.1516 -0.17417 15.1516 0.72583 17.5516 3.12583C18.9016 4.47583 19.8016 6.27583 20.1016 8.22583C20.5516 11.2258 19.6516 13.9258 17.4016 16.1758C16.5016 17.0758 15.7516 17.8258 14.8516 18.7258C14.8516 18.7258 14.7016 18.7258 14.7016 18.8758C15.0016 19.0258 15.1516 19.0258 15.3016 19.1758C16.9516 19.7758 18.6016 20.3758 20.4016 20.8258C20.8516 20.9758 21.0016 21.2758 21.0016 21.5758C21.0016 22.0258 20.8516 22.1758 20.4016 22.3258C18.1516 23.0758 15.7516 23.9758 13.5016 24.7258C12.7516 25.0258 12.0016 25.1758 11.2516 25.4758C10.9516 25.6258 10.8016 25.6258 10.5016 25.4758C7.50156 24.4258 4.35156 23.3758 1.35156 22.3258C0.751562 22.1758 0.601562 21.8758 0.601562 21.5758C0.601562 21.1258 0.901562 20.9758 1.20156 20.8258C3.00156 20.2258 4.95156 19.6258 6.75156 18.8758C6.75156 18.8758 6.90156 18.8758 6.90156 18.7258ZM10.8016 20.2258C12.6016 18.4258 14.4016 16.6258 16.2016 14.8258C18.0016 13.0258 18.6016 10.9258 18.4516 8.52583C18.3016 6.72583 17.5516 5.22583 16.2016 4.02583C14.2516 2.37583 12.0016 1.62583 9.45156 2.07583C6.00156 2.67583 3.45156 5.52583 3.15156 8.97583C3.15156 11.3758 3.75156 13.3258 5.40156 14.9758C7.20156 16.6258 9.00156 18.4258 10.8016 20.2258C10.8016 20.2258 10.6516 20.2258 10.8016 20.2258ZM17.5516 21.5758C17.4016 21.5758 17.4016 21.5758 17.4016 21.5758C16.0516 21.1258 14.8516 20.6758 13.5016 20.2258C13.3516 20.2258 13.3516 20.2258 13.2016 20.2258C12.6016 20.8258 12.0016 21.4258 11.4016 22.0258C10.9516 22.4758 10.5016 22.3258 10.2016 22.0258C9.60156 21.4258 9.00156 20.8258 8.40156 20.2258C8.40156 20.2258 8.25156 20.0758 8.10156 20.2258C6.90156 20.6758 5.70156 20.9758 4.50156 21.4258C4.35156 21.4258 4.20156 21.5758 4.05156 21.5758H4.20156C6.30156 22.3258 8.55156 23.0758 10.6516 23.8258C10.8016 23.8258 10.9516 23.8258 11.1016 23.8258C12.6016 23.3758 14.1016 22.7758 15.6016 22.3258C16.2016 22.0258 16.8016 21.7258 17.5516 21.5758Z" fill="black"/>
<path d="M17.5547 21.5754C16.8047 21.8754 16.2047 22.0254 15.6047 22.1754C14.1047 22.6254 12.6047 23.2254 11.1047 23.6754C10.9547 23.6754 10.8047 23.6754 10.6547 23.6754C8.55469 22.9254 6.30469 22.1754 4.20469 21.4254C4.20469 21.4254 4.20469 21.4254 4.05469 21.4254C4.20469 21.4254 4.35469 21.2754 4.50469 21.2754C5.70469 20.8254 6.90469 20.5254 8.10469 20.0754C8.25469 20.0754 8.25469 20.0754 8.40469 20.0754C9.00469 20.6754 9.60469 21.2754 10.2047 21.8754C10.6547 22.3254 11.1047 22.3254 11.4047 21.8754C12.0047 21.2754 12.6047 20.6754 13.2047 20.0754C13.3547 19.9254 13.3547 19.9254 13.5047 20.0754C14.8547 20.5254 16.0547 20.9754 17.4047 21.4254C17.4047 21.4254 17.4047 21.5754 17.5547 21.5754Z" fill="white"/>
<path d="M7.20312 9.57559C7.20312 7.47559 8.85313 5.97559 10.8031 5.97559C12.7531 5.97559 14.4031 7.47559 14.4031 9.42559C14.4031 11.3756 12.9031 13.0256 10.8031 13.1756C8.85313 13.1756 7.20312 11.5256 7.20312 9.57559ZM8.85312 9.57559C8.85312 10.6256 9.75313 11.5256 10.8031 11.5256C11.8531 11.5256 12.7531 10.6256 12.7531 9.57559C12.7531 8.52559 11.8531 7.62559 10.8031 7.62559C9.75313 7.62559 8.85312 8.52559 8.85312 9.57559Z" fill="#FF9900"/>
<path d="M8.85156 9.57598C8.85156 8.52598 9.75156 7.62598 10.8016 7.62598C11.8516 7.62598 12.7516 8.52598 12.7516 9.57598C12.7516 10.626 11.8516 11.526 10.8016 11.526C9.75156 11.526 8.85156 10.626 8.85156 9.57598Z" fill="#FF9900"/>
</g>
<defs>
<clipPath id="clip0_3125_3009">
<rect width="20.4" height="25.35" fill="white" transform="translate(0.601562 0.275391)"/>
</clipPath>
</defs>
</svg>
