<svg width="72" height="101" viewBox="0 0 72 101" fill="none" xmlns="http://www.w3.org/2000/svg">
<ellipse cx="34.5455" cy="92.8185" rx="29.5455" ry="8.18182" fill="#D9D9D9" fill-opacity="0.3"/>
<g filter="url(#filter0_i_3125_2337)">
<path d="M35.2321 91.9091C29.8368 86.0068 24.5024 80.1653 18.9246 74.0601C26.8552 75.0134 34.3396 74.2629 41.6212 71.5856C41.2764 71.5856 40.9316 71.5856 40.5868 71.5856C34.076 71.7276 27.6868 70.9771 21.6222 68.5026C7.76899 62.8639 -0.080509 50.6536 0.000622753 35.5225C0.102037 15.2396 16.5921 3.29291 29.9585 1.36603C48.2537 -1.27075 65.5754 10.5948 69.5306 28.6872C71.3966 37.2466 70.0782 45.4611 66.5693 53.3918C63.8311 59.5578 59.673 64.7502 55.2311 69.7195C49.0448 76.6563 42.7571 83.4917 36.5302 90.3879C36.1043 90.8544 35.6986 91.3615 35.2321 91.9091ZM50.282 36.4961C50.3226 28.2409 43.5278 21.3447 35.3538 21.3244C27.0378 21.2839 20.1619 28.0381 20.1213 36.273C20.0807 44.4876 26.7741 51.2621 34.7859 51.4852C43.3453 51.7286 50.2212 44.6701 50.282 36.4961Z" fill="#FF9900"/>
</g>
<g filter="url(#filter1_d_3125_2337)">
<circle cx="58.4876" cy="10.3958" r="9.39384" fill="#D9D9D9"/>
</g>
<path d="M51.56 8.89H56.9V3.01H60.14V8.89H65.48V11.95H60.14V17.83H56.9V11.95H51.56V8.89Z" fill="black"/>
<defs>
<filter id="filter0_i_3125_2337" x="0" y="1" width="70.375" height="94.9092" filterUnits="userSpaceOnUse" color-interpolation-filters="sRGB">
<feFlood flood-opacity="0" result="BackgroundImageFix"/>
<feBlend mode="normal" in="SourceGraphic" in2="BackgroundImageFix" result="shape"/>
<feColorMatrix in="SourceAlpha" type="matrix" values="0 0 0 0 0 0 0 0 0 0 0 0 0 0 0 0 0 0 127 0" result="hardAlpha"/>
<feOffset dy="4"/>
<feGaussianBlur stdDeviation="2"/>
<feComposite in2="hardAlpha" operator="arithmetic" k2="-1" k3="1"/>
<feColorMatrix type="matrix" values="0 0 0 0 0 0 0 0 0 0 0 0 0 0 0 0 0 0 0.25 0"/>
<feBlend mode="normal" in2="shape" result="effect1_innerShadow_3125_2337"/>
</filter>
<filter id="filter1_d_3125_2337" x="45.0938" y="1.00195" width="26.7891" height="26.7881" filterUnits="userSpaceOnUse" color-interpolation-filters="sRGB">
<feFlood flood-opacity="0" result="BackgroundImageFix"/>
<feColorMatrix in="SourceAlpha" type="matrix" values="0 0 0 0 0 0 0 0 0 0 0 0 0 0 0 0 0 0 127 0" result="hardAlpha"/>
<feOffset dy="4"/>
<feGaussianBlur stdDeviation="2"/>
<feComposite in2="hardAlpha" operator="out"/>
<feColorMatrix type="matrix" values="0 0 0 0 0 0 0 0 0 0 0 0 0 0 0 0 0 0 0.25 0"/>
<feBlend mode="normal" in2="BackgroundImageFix" result="effect1_dropShadow_3125_2337"/>
<feBlend mode="normal" in="SourceGraphic" in2="effect1_dropShadow_3125_2337" result="shape"/>
</filter>
</defs>
</svg>
