<svg width="32" height="32" viewBox="0 0 32 32"  xmlns="http://www.w3.org/2000/svg">
	<rect width="32" height="32" rx="16" fill="#FF9900" fill-opacity="0.2"/>
	<g>
		<path  d="M16,0L16,0c8.8,0,16,7.2,16,16l0,0c0,8.8-7.2,16-16,16l0,0C7.2,32,0,24.8,0,16l0,0C0,7.2,7.2,0,16,0z" fill="#FF9900" fill-opacity="0"/>
		<path  d="M18.9,19.1c1.7-2.7,1.5-2.4,1.6-2.5c0.6-0.9,1-1.9,1-3c0-2.9-2.4-5.3-5.3-5.3c-2.9,0-5.3,2.4-5.3,5.3
			c0,1.1,0.3,2.2,1,3.1l1.5,2.4c-1.6,0.3-4.5,1-4.5,2.7c0,0.6,0.4,1.5,2.3,2.1c1.3,0.5,3.1,0.7,4.9,0.7c3.4,0,7.2-1,7.2-2.9
			C23.3,20.1,20.5,19.3,18.9,19.1z M12.7,16.1C12.7,16.1,12.6,16.1,12.7,16.1c-0.6-0.8-0.8-1.7-0.8-2.6c0-2.4,1.9-4.3,4.3-4.3
			c2.4,0,4.3,1.9,4.3,4.3c0,0.9-0.3,1.7-0.8,2.5c0,0.1,0.2-0.3-3.5,5.5L12.7,16.1z M16.1,23.7c-3.8,0-6.2-1.1-6.2-1.9
			c0-0.5,1.3-1.4,4.1-1.8l1.8,2.8c0.1,0.1,0.2,0.2,0.4,0.2c0.2,0,0.3-0.1,0.4-0.2l1.8-2.8c2.8,0.3,4.1,1.2,4.1,1.8
			C22.4,22.6,19.9,23.7,16.1,23.7z" fill="#FF9900" />

		<path  d="M16.1,11.2c-1.3,0-2.4,1.1-2.4,2.4s1.1,2.4,2.4,2.4c1.3,0,2.4-1.1,2.4-2.4S17.4,11.2,16.1,11.2z M16.1,15
			c-0.8,0-1.4-0.6-1.4-1.4c0-0.8,0.6-1.4,1.4-1.4c0.8,0,1.4,0.6,1.4,1.4C17.6,14.4,16.9,15,16.1,15z" fill="#FF9900"  />
	</g>


</svg>
