<svg width="21" height="26" viewBox="0 0 21 26" fill="none" xmlns="http://www.w3.org/2000/svg">
<g clip-path="url(#clip0_789_7795)">
<path d="M6.90156 18.7254C6.90156 18.7254 6.75156 18.7254 6.75156 18.5754C5.85156 17.6754 5.10156 16.9254 4.20156 16.0254C2.70156 14.5254 1.80156 12.7254 1.50156 10.7754C0.901563 5.8254 4.20156 1.4754 8.85156 0.575403C12.1516 -0.174597 15.1516 0.725403 17.5516 3.1254C18.9016 4.4754 19.8016 6.2754 20.1016 8.2254C20.5516 11.2254 19.6516 13.9254 17.4016 16.1754C16.5016 17.0754 15.7516 17.8254 14.8516 18.7254C14.8516 18.7254 14.7016 18.7254 14.7016 18.8754C15.0016 19.0254 15.1516 19.0254 15.3016 19.1754C16.9516 19.7754 18.6016 20.3754 20.4016 20.8254C20.8516 20.9754 21.0016 21.2754 21.0016 21.5754C21.0016 22.0254 20.8516 22.1754 20.4016 22.3254C18.1516 23.0754 15.7516 23.9754 13.5016 24.7254C12.7516 25.0254 12.0016 25.1754 11.2516 25.4754C10.9516 25.6254 10.8016 25.6254 10.5016 25.4754C7.50156 24.4254 4.35156 23.3754 1.35156 22.3254C0.751562 22.1754 0.601562 21.8754 0.601562 21.5754C0.601562 21.1254 0.901562 20.9754 1.20156 20.8254C3.00156 20.2254 4.95156 19.6254 6.75156 18.8754C6.75156 18.8754 6.90156 18.8754 6.90156 18.7254ZM10.8016 20.2254C12.6016 18.4254 14.4016 16.6254 16.2016 14.8254C18.0016 13.0254 18.6016 10.9254 18.4516 8.5254C18.3016 6.7254 17.5516 5.2254 16.2016 4.0254C14.2516 2.3754 12.0016 1.6254 9.45156 2.0754C6.00156 2.6754 3.45156 5.5254 3.15156 8.9754C3.15156 11.3754 3.75156 13.3254 5.40156 14.9754C7.20156 16.6254 9.00156 18.4254 10.8016 20.2254C10.6516 20.2254 10.8016 20.2254 10.8016 20.2254ZM17.5516 21.5754C17.4016 21.5754 17.4016 21.5754 17.4016 21.5754C16.0516 21.1254 14.8516 20.6754 13.5016 20.2254C13.3516 20.2254 13.3516 20.2254 13.2016 20.2254C12.6016 20.8254 12.0016 21.4254 11.4016 22.0254C10.9516 22.4754 10.5016 22.3254 10.2016 22.0254C9.60156 21.4254 9.00156 20.8254 8.40156 20.2254C8.40156 20.2254 8.25156 20.0754 8.10156 20.2254C6.90156 20.6754 5.70156 20.9754 4.50156 21.4254C4.35156 21.4254 4.20156 21.5754 4.05156 21.5754H4.20156C6.30156 22.3254 8.55156 23.0754 10.6516 23.8254C10.8016 23.8254 10.9516 23.8254 11.1016 23.8254C12.6016 23.3754 14.1016 22.7754 15.6016 22.3254C16.2016 22.0254 16.8016 21.7254 17.5516 21.5754Z" fill="black"/>
<path d="M17.5547 21.5754C16.8047 21.8754 16.2047 22.0254 15.6047 22.1754C14.1047 22.6254 12.6047 23.2254 11.1047 23.6754C10.9547 23.6754 10.8047 23.6754 10.6547 23.6754C8.55469 22.9254 6.30469 22.1754 4.20469 21.4254C4.20469 21.4254 4.20469 21.4254 4.05469 21.4254C4.20469 21.4254 4.35469 21.2754 4.50469 21.2754C5.70469 20.8254 6.90469 20.5254 8.10469 20.0754C8.25469 20.0754 8.25469 20.0754 8.40469 20.0754C9.00469 20.6754 9.60469 21.2754 10.2047 21.8754C10.6547 22.3254 11.1047 22.3254 11.4047 21.8754C12.0047 21.2754 12.6047 20.6754 13.2047 20.0754C13.3547 19.9254 13.3547 19.9254 13.5047 20.0754C14.8547 20.5254 16.0547 20.9754 17.4047 21.4254C17.4047 21.4254 17.4047 21.5754 17.5547 21.5754Z" fill="white"/>
<path d="M7.20312 9.5754C7.20312 7.4754 8.85313 5.9754 10.8031 5.9754C12.7531 5.9754 14.4031 7.4754 14.4031 9.4254C14.4031 11.3754 12.9031 13.0254 10.8031 13.1754C8.85313 13.1754 7.20312 11.5254 7.20312 9.5754ZM8.85312 9.5754C8.85312 10.6254 9.75313 11.5254 10.8031 11.5254C11.8531 11.5254 12.7531 10.6254 12.7531 9.5754C12.7531 8.5254 11.8531 7.6254 10.8031 7.6254C9.75313 7.6254 8.85312 8.5254 8.85312 9.5754Z" fill="#FF9900"/>
<path d="M8.85156 9.5754C8.85156 8.5254 9.75156 7.6254 10.8016 7.6254C11.8516 7.6254 12.7516 8.5254 12.7516 9.5754C12.7516 10.6254 11.8516 11.5254 10.8016 11.5254C9.75156 11.5254 8.85156 10.6254 8.85156 9.5754Z" fill="#FF9900"/>
</g>
<defs>
<clipPath id="clip0_789_7795">
<rect width="20.4" height="25.35" fill="white" transform="translate(0.601562 0.275391)"/>
</clipPath>
</defs>
</svg>
