<svg width="414" height="222" viewBox="0 0 414 222" fill="none" xmlns="http://www.w3.org/2000/svg">
<path d="M20.4682 166.3C19.4671 164.698 18.4532 163.122 17.4778 161.533C16.2713 159.567 15.0392 157.613 13.9097 155.608C11.3556 151.062 14.3718 145.085 19.4928 144.486C24.2545 143.913 28.1819 147.52 27.9894 152.391C27.9509 153.394 27.707 154.514 27.2193 155.36C25.1016 158.994 22.8555 162.549 20.6608 166.131C20.6223 166.183 20.5709 166.222 20.4682 166.3ZM20.5067 148.653C18.6842 148.653 17.2082 150.151 17.2082 152C17.2082 153.849 18.6842 155.36 20.4939 155.373C22.3293 155.386 23.8438 153.849 23.8309 151.974C23.8053 150.138 22.3293 148.653 20.5067 148.653Z" stroke="black" stroke-miterlimit="10"/>
<g clip-path="url(#clip0_3485_30)">
<path d="M69.0575 18.5757C70.7005 18.8749 72.319 18.9034 73.6833 19.4874C75.1356 20.1095 76.6563 21.0212 77.6147 22.2083C80.221 25.4563 79.0181 29.54 75.0525 30.9598C73.2334 31.6103 71.1895 31.9474 69.2482 31.9569C49.019 32.0234 28.7849 32.0092 8.55574 31.9712C6.92254 31.9664 5.23066 31.8002 3.66103 31.3824C0.394624 30.5039 -0.852281 27.6691 0.599997 24.687C1.76866 22.2843 3.88596 21.0022 6.45312 20.3801C7.37729 20.157 7.88094 19.7818 8.2379 18.8274C9.50437 15.4322 12.3111 13.7798 15.7927 13.0485C16.6973 12.8585 17.6264 12.7636 18.5994 12.6211C18.7901 11.7237 18.9368 10.8309 19.1715 9.96198C21.7143 0.635964 33.8312 -3.14857 41.4985 3.00071C42.2368 3.59427 42.8579 3.86018 43.8505 3.60851C50.2562 1.96079 54.9651 4.68167 57.0726 9.06451C57.2437 9.4159 57.8696 9.68182 58.3244 9.75779C59.185 9.90025 60.0945 9.80053 60.9551 9.94298C65.6787 10.7312 67.8986 13.1245 69.0575 18.5757Z" fill="#F6F6F6"/>
</g>
<g clip-path="url(#clip1_3485_30)">
<path d="M373.161 64.6098C374.188 64.7968 375.199 64.8146 376.052 65.1796C376.96 65.5684 377.91 66.1382 378.509 66.8802C380.138 68.9102 379.386 71.4625 376.908 72.3498C375.771 72.7564 374.493 72.9671 373.28 72.9731C360.637 73.0146 347.991 73.0057 335.347 72.982C334.327 72.979 333.269 72.8751 332.288 72.614C330.247 72.0649 329.467 70.2932 330.375 68.4294C331.105 66.9277 332.429 66.1264 334.033 65.7376C334.611 65.5981 334.926 65.3636 335.149 64.7671C335.94 62.6451 337.694 61.6123 339.87 61.1553C340.436 61.0366 341.016 60.9772 341.625 60.8882C341.744 60.3273 341.836 59.7693 341.982 59.2262C343.571 53.3975 351.145 51.0321 355.937 54.8754C356.398 55.2464 356.786 55.4126 357.407 55.2553C361.41 54.2255 364.353 55.926 365.67 58.6653C365.777 58.8849 366.169 59.0511 366.453 59.0986C366.991 59.1877 367.559 59.1253 368.097 59.2144C371.049 59.707 372.437 61.2028 373.161 64.6098Z" fill="#F2F2F2"/>
</g>
<g clip-path="url(#clip2_3485_30)">
<path d="M348.161 73.6098C349.188 73.7968 350.199 73.8146 351.052 74.1796C351.96 74.5684 352.91 75.1382 353.509 75.8802C355.138 77.9102 354.386 80.4625 351.908 81.3498C350.771 81.7564 349.493 81.9671 348.28 81.9731C335.637 82.0146 322.991 82.0057 310.347 81.982C309.327 81.979 308.269 81.8751 307.288 81.614C305.247 81.0649 304.467 79.2932 305.375 77.4294C306.105 75.9277 307.429 75.1264 309.033 74.7376C309.611 74.5981 309.926 74.3636 310.149 73.7671C310.94 71.6451 312.694 70.6123 314.87 70.1553C315.436 70.0366 316.016 69.9772 316.625 69.8882C316.744 69.3273 316.836 68.7693 316.982 68.2262C318.571 62.3975 326.145 60.0321 330.937 63.8754C331.398 64.2464 331.786 64.4126 332.407 64.2553C336.41 63.2255 339.353 64.926 340.67 67.6653C340.777 67.8849 341.169 68.0511 341.453 68.0986C341.991 68.1877 342.559 68.1253 343.097 68.2144C346.049 68.707 347.437 70.2028 348.161 73.6098Z" fill="#F6F6F6"/>
</g>
<path d="M412.519 221.087C417.777 221.087 422.038 216.814 422.038 211.543C422.038 206.273 417.777 202 412.519 202C407.262 202 403 206.273 403 211.543C403 216.814 407.262 221.087 412.519 221.087Z" fill="#FEBC2F"/>
<ellipse cx="199.545" cy="132.819" rx="29.5455" ry="8.18182" fill="#D9D9D9" fill-opacity="0.3"/>
<g filter="url(#filter0_i_3485_30)">
<path d="M200.232 131.909C194.837 126.007 189.502 120.165 183.925 114.06C191.855 115.013 199.34 114.263 206.621 111.586C206.276 111.586 205.932 111.586 205.587 111.586C199.076 111.728 192.687 110.977 186.622 108.503C172.769 102.864 164.919 90.6536 165.001 75.5225C165.102 55.2396 181.592 43.2929 194.959 41.366C213.254 38.7293 230.575 50.5948 234.531 68.6872C236.397 77.2466 235.078 85.4611 231.569 93.3918C228.831 99.5578 224.673 104.75 220.231 109.72C214.045 116.656 207.757 123.492 201.53 130.388C201.104 130.854 200.699 131.361 200.232 131.909ZM215.282 76.4961C215.323 68.2409 208.528 61.3447 200.354 61.3244C192.038 61.2839 185.162 68.0381 185.121 76.273C185.081 84.4876 191.774 91.2621 199.786 91.4852C208.345 91.7286 215.221 84.6701 215.282 76.4961Z" fill="#FF9900"/>
</g>
<g filter="url(#filter1_d_3485_30)">
<circle cx="223.488" cy="50.3958" r="9.39384" fill="#D9D9D9"/>
</g>
<path d="M216.56 48.89H221.9V43.01H225.14V48.89H230.48V51.95H225.14V57.83H221.9V51.95H216.56V48.89Z" fill="black"/>
<defs>
<filter id="filter0_i_3485_30" x="165" y="41" width="70.375" height="94.9092" filterUnits="userSpaceOnUse" color-interpolation-filters="sRGB">
<feFlood flood-opacity="0" result="BackgroundImageFix"/>
<feBlend mode="normal" in="SourceGraphic" in2="BackgroundImageFix" result="shape"/>
<feColorMatrix in="SourceAlpha" type="matrix" values="0 0 0 0 0 0 0 0 0 0 0 0 0 0 0 0 0 0 127 0" result="hardAlpha"/>
<feOffset dy="4"/>
<feGaussianBlur stdDeviation="2"/>
<feComposite in2="hardAlpha" operator="arithmetic" k2="-1" k3="1"/>
<feColorMatrix type="matrix" values="0 0 0 0 0 0 0 0 0 0 0 0 0 0 0 0 0 0 0.25 0"/>
<feBlend mode="normal" in2="shape" result="effect1_innerShadow_3485_30"/>
</filter>
<filter id="filter1_d_3485_30" x="210.094" y="41.002" width="26.7891" height="26.7881" filterUnits="userSpaceOnUse" color-interpolation-filters="sRGB">
<feFlood flood-opacity="0" result="BackgroundImageFix"/>
<feColorMatrix in="SourceAlpha" type="matrix" values="0 0 0 0 0 0 0 0 0 0 0 0 0 0 0 0 0 0 127 0" result="hardAlpha"/>
<feOffset dy="4"/>
<feGaussianBlur stdDeviation="2"/>
<feComposite in2="hardAlpha" operator="out"/>
<feColorMatrix type="matrix" values="0 0 0 0 0 0 0 0 0 0 0 0 0 0 0 0 0 0 0.25 0"/>
<feBlend mode="normal" in2="BackgroundImageFix" result="effect1_dropShadow_3485_30"/>
<feBlend mode="normal" in="SourceGraphic" in2="effect1_dropShadow_3485_30" result="shape"/>
</filter>
<clipPath id="clip0_3485_30">
<rect width="79" height="32" fill="white"/>
</clipPath>
<clipPath id="clip1_3485_30">
<rect width="49.375" height="20" fill="white" transform="translate(330 53)"/>
</clipPath>
<clipPath id="clip2_3485_30">
<rect width="49.375" height="20" fill="white" transform="translate(305 62)"/>
</clipPath>
</defs>
</svg>
