<svg width="32" height="32" viewBox="0 0 32 32" fill="none" xmlns="http://www.w3.org/2000/svg">
<rect width="32" height="32" rx="16" fill="#FF9900" fill-opacity="0.2"/>
<path d="M11 16.4962C11 14.5784 11 12.6682 11 10.7504C11 9.68493 11.6697 9.00761 12.7275 9.00761C14.4094 9 16.0989 9.00761 17.7884 9C18.0852 9 18.3288 9.0761 18.4429 9.35008C18.6027 9.72298 18.3212 10.0654 17.8721 10.0654C16.86 10.0731 15.8402 10.0654 14.828 10.0654C14.1279 10.0654 13.4353 10.0654 12.7352 10.0654C12.2633 10.0654 12.0654 10.2633 12.0654 10.7352C12.0654 14.5784 12.0654 18.4216 12.0654 22.2648C12.0654 22.7291 12.2633 22.9269 12.7428 22.9269C14.417 22.9269 16.0913 22.9269 17.7656 22.9269C18.2603 22.9269 18.4734 23.0944 18.4658 23.4673C18.4581 23.8097 18.2222 23.9924 17.7808 23.9924C16.0913 23.9924 14.4094 23.9924 12.7199 23.9924C11.6849 23.9924 11 23.3075 11 22.2801C11 20.3546 11 18.4216 11 16.4962Z" fill="#FF9900"/>
<path d="M19.7908 17.0137C19.6538 17.0137 19.5244 17.0137 19.3875 17.0137C17.8654 17.0137 16.3433 17.0137 14.8289 17.0137C14.5625 17.0137 14.3266 16.9528 14.2657 16.6788C14.2276 16.519 14.2581 16.2831 14.3646 16.169C14.4712 16.0548 14.6919 15.9939 14.8669 15.9939C16.3738 15.9787 17.8806 15.9863 19.3875 15.9863C19.5244 15.9863 19.6538 15.9863 19.9126 15.9863C19.456 15.5297 19.0602 15.1872 18.7254 14.7839C18.596 14.6317 18.5199 14.3425 18.5579 14.1446C18.6264 13.8174 19.1059 13.726 19.3722 13.9772C20.1104 14.6925 20.8334 15.4155 21.5488 16.1537C21.7619 16.3744 21.7391 16.6484 21.526 16.8691C20.8258 17.5845 20.1181 18.2922 19.4027 18.9924C19.1744 19.2207 18.8623 19.2131 18.6569 19.0076C18.4438 18.8021 18.4514 18.4749 18.6873 18.2314C19.0602 17.8432 19.4483 17.4779 19.8365 17.0974C19.8213 17.0746 19.806 17.0441 19.7908 17.0137Z" fill="#FF9900"/>
</svg>
