<svg width="19" height="18" viewBox="0 0 19 18" fill="none" xmlns="http://www.w3.org/2000/svg">
<path d="M2.41558 8.64935C2.96104 4.98701 5.06494 2.96104 8.64935 2.41558C8.64935 1.79221 8.64935 1.16883 8.64935 0.545455C8.64935 0.311688 8.88312 0.155844 9.03896 0C9.19481 0.155844 9.42857 0.38961 9.42857 0.545455C9.50649 1.16883 9.42857 1.79221 9.42857 2.41558C13.013 2.96104 15.1169 4.98701 15.6623 8.64935C16.2857 8.64935 16.9091 8.64935 17.5325 8.64935C17.6883 8.64935 17.9221 8.88312 18.0779 9.03896C17.9221 9.11688 17.7662 9.35065 17.5325 9.35065C16.9091 9.42857 16.2857 9.35065 15.6623 9.35065C15.1169 12.9351 13.0909 15.039 9.42857 15.5844C9.42857 15.974 9.50649 16.3636 9.42857 16.7532C9.35065 17.2208 9.8961 18 9.03896 18C8.25974 18 8.80519 17.1429 8.64935 16.7532C8.57143 16.4416 8.64935 16.0519 8.64935 15.6623C5.06494 15.1169 2.96104 13.0909 2.41558 9.42857C1.79221 9.42857 1.16883 9.42857 0.545455 9.42857C0.311688 9.42857 0.155844 9.19481 0 9.03896C0.155844 8.88312 0.38961 8.72727 0.545455 8.64935C1.16883 8.64935 1.79221 8.64935 2.41558 8.64935ZM9.11688 3.27273C5.92208 3.27273 3.19481 5.84416 3.19481 9.11688C3.19481 12.3117 5.76623 14.961 8.96104 14.961C12.0779 15.039 14.8052 12.3896 14.8831 9.19481C14.961 5.92208 12.3117 3.27273 9.11688 3.27273Z" fill="#FEA319"/>
<path d="M9.04058 6.62402C10.4432 6.62402 11.5341 7.71493 11.5341 9.11753C11.5341 10.5201 10.4432 11.611 9.04058 11.611C7.71591 11.611 6.625 10.5201 6.625 9.19545C6.625 7.71493 7.71591 6.62402 9.04058 6.62402Z" fill="#FEA319"/>
</svg>
