<svg width="38" height="38" viewBox="0 0 38 38" fill="none" xmlns="http://www.w3.org/2000/svg">
<path d="M38 19C38 29.4934 29.4934 38 19 38C8.50659 38 0 29.4934 0 19C0 8.50659 8.50659 0 19 0C29.4934 0 38 8.50659 38 19Z" fill="#FF9900" fill-opacity="0.2"/>
<path d="M26.5982 14.6875C26.8192 14.6875 27 14.5293 27 14.3359V13.1641C27 12.9707 26.8192 12.8125 26.5982 12.8125H25.9286V11.4062C25.9286 10.6299 25.2087 10 24.3214 10H13.6071C12.7199 10 12 10.6299 12 11.4062V23.5938C12 24.3701 12.7199 25 13.6071 25H24.3214C25.2087 25 25.9286 24.3701 25.9286 23.5938V22.1875H26.5982C26.8192 22.1875 27 22.0293 27 21.8359V20.6641C27 20.4707 26.8192 20.3125 26.5982 20.3125H25.9286V18.4375H26.5982C26.8192 18.4375 27 18.2793 27 18.0859V16.9141C27 16.7207 26.8192 16.5625 26.5982 16.5625H25.9286V14.6875H26.5982ZM18.9643 13.75C20.1462 13.75 21.1071 14.5908 21.1071 15.625C21.1071 16.6592 20.1462 17.5 18.9643 17.5C17.7824 17.5 16.8214 16.6592 16.8214 15.625C16.8214 14.5908 17.7824 13.75 18.9643 13.75ZM22.7143 20.6875C22.7143 20.998 22.3795 21.25 21.9643 21.25H15.9643C15.5491 21.25 15.2143 20.998 15.2143 20.6875V20.125C15.2143 19.1934 16.2221 18.4375 17.4643 18.4375H17.6317C18.0435 18.5869 18.4922 18.6719 18.9643 18.6719C19.4364 18.6719 19.8884 18.5869 20.2969 18.4375H20.4643C21.7065 18.4375 22.7143 19.1934 22.7143 20.125V20.6875Z" fill="#FF9900"/>
</svg>
