<svg width="32" height="32" viewBox="0 0 32 32" fill="none" xmlns="http://www.w3.org/2000/svg">
<rect width="32" height="32" rx="16" fill="#FF9900" fill-opacity="0.2"/>
<g clip-path="url(#clip0_1565_253)">
<path d="M20.5106 15.8898L20.5108 15.8895C21.146 14.9114 21.5391 13.8499 21.5394 12.8391C21.5751 10.1751 20.0288 7.9974 17.6413 7.15243L17.6409 7.15229C15.3602 6.35165 12.7286 7.10622 11.2343 8.98755L11.2341 8.98788C9.67977 10.955 9.53314 13.6444 10.8737 15.7061C11.7083 16.9899 12.5343 18.2738 13.3692 19.5754C13.5955 19.9284 13.8221 20.2841 14.0492 20.6407C14.4561 21.2795 14.8648 21.9211 15.2767 22.5548C15.3421 22.6569 15.41 22.7438 15.4838 22.8063C15.559 22.87 15.6502 22.9165 15.7565 22.9154C15.8618 22.9144 15.9521 22.8669 16.0267 22.8045C16.1006 22.7428 16.1699 22.6576 16.2374 22.558L16.2375 22.5581L16.2399 22.5544C16.2715 22.5049 16.303 22.4536 16.3334 22.4039L16.3339 22.4031C16.3648 22.3525 16.3947 22.3037 16.4244 22.2573C16.879 21.549 17.3314 20.84 17.7836 20.1312C18.6876 18.7145 19.5911 17.2986 20.5106 15.8898ZM19.7775 15.3596L19.7774 15.3597C18.9133 16.6767 18.0674 18.006 17.2214 19.3355C16.7762 20.035 16.331 20.7346 15.8831 21.4325C15.8414 21.497 15.8013 21.5542 15.7547 21.62C15.4277 21.1151 15.1092 20.6197 14.7941 20.1295C14.4773 19.6367 14.1639 19.1492 13.8488 18.6629C13.6109 18.2941 13.3752 17.9245 13.1396 17.555C12.6463 16.7814 12.1534 16.0084 11.6412 15.2447C9.77432 12.4612 11.3949 8.5384 14.728 7.84522C16.7449 7.43081 18.7081 8.24147 19.8576 9.95103C20.9422 11.5683 20.887 13.6715 19.7775 15.3596Z" fill="#FF9900" stroke="#FF9900" stroke-width="0.33"/>
<path d="M20.4064 23.7808L20.407 23.7807C20.7529 23.6962 21.0899 23.5777 21.4085 23.4337L21.4096 23.4332C21.5212 23.3838 21.5971 23.3332 21.6437 23.2877C21.6902 23.2423 21.6996 23.2107 21.7008 23.1954C21.7025 23.1742 21.6858 23.0851 21.4551 22.9765C20.9506 22.7445 20.3799 22.6092 19.7975 22.4711L19.7726 22.4652L19.7715 22.465C19.6071 22.4248 19.436 22.4082 19.2519 22.3918C19.2431 22.391 19.2343 22.3902 19.2254 22.3894C19.0528 22.3741 18.8683 22.3577 18.6871 22.3179C18.57 22.2928 18.4845 22.2089 18.4301 22.1498C18.4057 22.1232 18.3815 22.0944 18.3602 22.0691C18.3558 22.0639 18.3515 22.0589 18.3474 22.054C18.3217 22.0235 18.3 21.9987 18.2793 21.9783L18.1306 21.8317L18.3076 21.7209C18.3294 21.7073 18.3545 21.688 18.386 21.6622C18.3937 21.6559 18.4021 21.6489 18.4109 21.6416C18.4346 21.6219 18.4615 21.5997 18.4871 21.5799C18.523 21.5523 18.566 21.522 18.6134 21.4992C18.6605 21.4765 18.7212 21.4567 18.7902 21.4611C18.7907 21.4611 18.7912 21.4612 18.7918 21.4612L20.4064 23.7808ZM20.4064 23.7808C18.8877 24.1583 17.319 24.2369 15.7219 24.3152C15.3514 24.2808 14.9821 24.2492 14.6136 24.2177C13.6778 24.1377 12.748 24.0582 11.8211 23.9341L11.8211 23.9341L11.8197 23.9339C11.2191 23.8587 10.6335 23.6418 10.0454 23.4239L10.0366 23.4207L10.0366 23.4207L10.0349 23.42C9.81441 23.3412 9.78214 23.2607 9.78003 23.2387C9.77757 23.2131 9.7983 23.1252 9.99175 23.0003L9.99176 23.0004L9.99405 22.9988C10.2344 22.8379 10.5419 22.7145 10.8427 22.6486L10.8427 22.6486L10.8438 22.6484C11.1256 22.5847 11.4109 22.542 11.7026 22.4995C11.7181 22.4973 11.7337 22.495 11.7492 22.4927C12.0242 22.4527 12.3051 22.4119 12.5843 22.353L12.5843 22.3531L12.5904 22.3516C12.7118 22.3211 12.8139 22.2507 12.8948 22.1888C12.9257 22.1652 12.953 22.1433 12.9786 22.1229C13.0283 22.0831 13.0714 22.0486 13.1205 22.0173L13.3653 21.8611L13.1058 21.7308C13.0674 21.7115 13.0285 21.6893 12.986 21.6646C12.9806 21.6614 12.9751 21.6582 12.9695 21.655C12.9328 21.6336 12.8931 21.6105 12.8531 21.5891C12.762 21.5404 12.6526 21.4912 12.5288 21.4791M20.4064 23.7808L22.3996 22.5786M22.3996 22.5786L22.3996 22.5786C22.5929 22.7983 22.6889 23.0606 22.6599 23.3196C22.6308 23.5806 22.4772 23.8138 22.2193 23.9761C21.7948 24.2437 21.307 24.4785 20.8044 24.6057L20.8033 24.606C18.656 25.1329 16.4621 25.2641 14.2616 25.0977C13.1337 25.0141 12.0068 24.8271 10.9051 24.6443C10.8507 24.6353 10.7963 24.6262 10.7419 24.6172L10.7415 24.6172C10.3004 24.543 9.87693 24.3499 9.5053 24.1466L9.50429 24.1461C9.09888 23.9206 8.85271 23.6011 8.8359 23.2393C8.81911 22.8778 9.03417 22.5365 9.41344 22.2735L9.41427 22.273L9.41427 22.273C10.1196 21.7903 10.9606 21.6636 11.7571 21.5436L11.7746 21.541L11.7756 21.5408L11.7756 21.5408C11.815 21.5351 11.856 21.5286 11.8982 21.5219C12.0943 21.4907 12.3163 21.4554 12.5288 21.4791M22.3996 22.5786L22.398 22.5769M22.3996 22.5786L22.398 22.5769M12.5288 21.4791C12.5293 21.4792 12.5298 21.4792 12.5303 21.4793L12.5118 21.6432L12.5274 21.479C12.5279 21.479 12.5283 21.4791 12.5288 21.4791ZM22.398 22.5769C22.2126 22.372 21.9641 22.1745 21.6901 22.0504L22.398 22.5769Z" fill="#FF9900" stroke="#FF9900" stroke-width="0.33"/>
<path d="M16.1679 14.7668C16.1718 14.571 16.1662 14.3881 16.1325 14.2131C16.1278 14.1888 16.0913 14.1263 16.0056 14.0555C15.9256 13.9892 15.8378 13.945 15.7789 13.9331C15.6663 13.9148 15.623 13.9482 15.5989 13.9793C15.5638 14.0245 15.5397 14.1071 15.5397 14.2184L16.1679 14.7668ZM16.1679 14.7668C16.1664 14.8409 16.1634 14.9206 16.1603 15.0024C16.1576 15.0719 16.1549 15.143 16.1531 15.2137M16.1679 14.7668L16.1531 15.2137M16.1531 15.2137C15.9438 15.2135 15.7478 15.2127 15.5397 15.2085V15.2085V15.2062V15.2039V15.2016V15.1993V15.1969V15.1946V15.1923V15.19V15.1877V15.1854V15.1831V15.1808V15.1785V15.1762V15.1738V15.1715V15.1692V15.1669V15.1646V15.1623V15.16V15.1577V15.1554V15.1531V15.1508V15.1485V15.1462V15.1439V15.1416V15.1393V15.137V15.1347V15.1324V15.1301V15.1278V15.1255V15.1232V15.1209V15.1186V15.1163V15.114V15.1117V15.1094V15.1072V15.1049V15.1026V15.1003V15.098V15.0957V15.0934V15.0911V15.0888V15.0865V15.0843V15.082V15.0797V15.0774V15.0751V15.0728V15.0705V15.0683V15.066V15.0637V15.0614V15.0591V15.0568V15.0546V15.0523V15.05V15.0477V15.0454V15.0432V15.0409V15.0386V15.0363V15.034V15.0318V15.0295V15.0272V15.0249V15.0227V15.0204V15.0181V15.0158V15.0136V15.0113V15.009V15.0067V15.0045V15.0022V14.9999V14.9977V14.9954V14.9931V14.9908V14.9886V14.9863V14.984V14.9818V14.9795V14.9772V14.975V14.9727V14.9704V14.9682V14.9659V14.9637V14.9614V14.9591V14.9569V14.9546V14.9523V14.9501V14.9478V14.9456V14.9433V14.941V14.9388V14.9365V14.9343V14.932V14.9297V14.9275V14.9252V14.923V14.9207V14.9185V14.9162V14.9139V14.9117V14.9094V14.9072V14.9049V14.9027V14.9004V14.8982V14.8959V14.8937V14.8914V14.8892L16.1531 15.2137ZM11.8773 13.2821L11.8781 13.2822C12.0482 13.3242 12.2221 13.3282 12.3952 13.3235C12.4642 13.3217 12.531 13.3186 12.5982 13.3155C12.6573 13.3128 12.7167 13.31 12.7784 13.3081C12.779 13.4939 12.7803 13.6757 12.7817 13.8545C12.786 14.4171 12.79 14.9506 12.7677 15.4907L12.7677 15.4907L12.7676 15.493C12.7618 15.7045 12.8037 15.8948 12.9577 16.0205C13.1006 16.1371 13.3033 16.165 13.5246 16.165L13.5267 16.165C14.9851 16.1467 16.4526 16.1376 17.909 16.165L17.9091 16.165C18.1679 16.1697 18.395 16.1382 18.5504 16.0056C18.7153 15.8649 18.7542 15.6523 18.7429 15.4169C18.7206 14.8959 18.7247 14.377 18.729 13.8338C18.7303 13.6643 18.7317 13.4925 18.7323 13.3175C18.7877 13.3193 18.8419 13.3219 18.8961 13.3244C18.9634 13.3276 19.0308 13.3308 19.1009 13.3327C19.2721 13.3373 19.4467 13.3335 19.6124 13.2911C19.7549 13.2552 19.9154 13.1896 20.0523 13.1068C20.1821 13.0285 20.3223 12.916 20.3803 12.7729C20.4387 12.6286 20.4156 12.4486 20.3682 12.3051C20.32 12.1595 20.2309 12.0027 20.1025 11.9106C19.0387 11.1203 17.9503 10.3656 16.8615 9.61058C16.7144 9.5086 16.5674 9.40662 16.4203 9.30454L16.4203 9.30453L16.4196 9.30403C16.0065 9.02056 15.5305 9.0078 15.1122 9.29489L15.1122 9.29489L15.1113 9.29549L15.1105 9.29605C13.8635 10.1636 12.6148 11.0325 11.3869 11.929L11.3869 11.9289L11.3846 11.9306C11.2646 12.0214 11.1782 12.1713 11.131 12.3108C11.0855 12.445 11.0595 12.6203 11.122 12.7598C11.1839 12.8998 11.3143 13.0128 11.4434 13.0947C11.5771 13.1794 11.7334 13.2458 11.8773 13.2821ZM15.553 10.1424L15.553 10.1424L15.5546 10.1413C15.583 10.1212 15.652 10.0949 15.7339 10.083C15.7724 10.0775 15.8065 10.0763 15.8321 10.0784C15.8476 10.0797 15.8555 10.0819 15.8582 10.0826C16.8549 10.7568 17.8373 11.4493 18.8186 12.1412C18.9417 12.2279 19.0647 12.3146 19.1878 12.4013C19.1694 12.4015 19.151 12.4016 19.1326 12.4018C18.8899 12.4038 18.6473 12.4058 18.4025 12.3998C18.2038 12.3949 18.0252 12.4267 17.8993 12.5428C17.7707 12.6615 17.7365 12.8313 17.7365 13.0033L17.7365 13.0056C17.7435 13.5116 17.7412 14.0204 17.7389 14.548C17.7379 14.768 17.737 14.9912 17.7366 15.2189C17.5475 15.225 17.3595 15.2318 17.1472 15.2418C17.1477 15.1585 17.1484 15.0757 17.1491 14.9933C17.1514 14.7177 17.1537 14.4468 17.1467 14.1782C17.1339 13.4827 16.5629 12.9866 15.8552 12.9663L15.8552 12.9663C15.1335 12.9458 14.5051 13.46 14.4804 14.167L14.4803 14.167L14.4803 14.1683C14.4732 14.4311 14.4755 14.6962 14.4779 14.966C14.4786 15.0482 14.4793 15.1307 14.4798 15.2137H14.4788H14.4769H14.475H14.473H14.4711H14.4692H14.4672H14.4653H14.4633H14.4614H14.4595H14.4575H14.4556H14.4537H14.4517H14.4498H14.4479H14.4459H14.444H14.442H14.4401H14.4382H14.4362H14.4343H14.4324H14.4304H14.4285H14.4266H14.4246H14.4227H14.4208H14.4188H14.4169H14.415H14.413H14.4111H14.4092H14.4072H14.4053H14.4034H14.4014H14.3995H14.3976H14.3956H14.3937H14.3918H14.3899H14.3879H14.386H14.3841H14.3821H14.3802H14.3783H14.3763H14.3744H14.3725H14.3705H14.3686H14.3667H14.3647H14.3628H14.3609H14.3589H14.357H14.3551H14.3532H14.3512H14.3493H14.3474H14.3454H14.3435H14.3416H14.3396H14.3377H14.3358H14.3338H14.3319H14.33H14.328H14.3261H14.3242H14.3222H14.3203H14.3184H14.3164H14.3145H14.3126H14.3106H14.3087H14.3068H14.3048H14.3029H14.301H14.299H14.2971H14.2951H14.2932H14.2913H14.2893H14.2874H14.2855H14.2835H14.2816H14.2797H14.2777H14.2758H14.2738H14.2719H14.27H14.268H14.2661H14.2641H14.2622H14.2603H14.2583H14.2564H14.2544H14.2525H14.2506H14.2486H14.2467H14.2447H14.2428H14.2408H14.2389H14.237H14.235H14.2331H14.2311H14.2292H14.2272H14.2253H14.2233H14.2214H14.2194H14.2175H14.2155H14.2136H14.2116H14.2097H14.2077H14.2058H14.2038H14.2019H14.1999H14.198H14.196H14.1941H14.1921H14.1902H14.1882H14.1863H14.1843H14.1823H14.1804H14.1784H14.1765H14.1745H14.1726H14.1706H14.1686H14.1667H14.1647H14.1628H14.1608H14.1588H14.1569H14.1549H14.1529H14.151H14.149H14.147H14.1451H14.1431H14.1411H14.1392H14.1372H14.1352H14.1333H14.1313H14.1293H14.1273H14.1254H14.1234H14.1214H14.1194H14.1175H14.1155H14.1135H14.1115H14.1096H14.1076H14.1056H14.1036H14.1016H14.0996H14.0977H14.0957H14.0937H14.0917H14.0897H14.0877H14.0858H14.0838H14.0818H14.0798H14.0778H14.0758H14.0738H14.0718H14.0698H14.0678H14.0658H14.0638H14.0618H14.0598H14.0578H14.0558H14.0538H14.0518H14.0498H14.0478H14.0458H14.0438H14.0418H14.0398H14.0378H14.0358H14.0338H14.0318H14.0298H14.0278H14.0257H14.0237H14.0217H14.0197H14.0177H14.0157H14.0136H14.0116H14.0096H14.0076H14.0056H14.0035H14.0015H13.9995H13.9975H13.9954H13.9934H13.9914H13.9893H13.9873H13.9853H13.9832H13.9812H13.9792H13.9771H13.9751H13.9731H13.971H13.969H13.9669H13.9649H13.9629H13.9608H13.9588H13.9567H13.9547H13.9526H13.9506H13.9485H13.9465H13.9444H13.9424H13.9403H13.9382H13.9362H13.9341H13.9321H13.93H13.9279H13.9259H13.9238H13.9217H13.9197H13.9176H13.9155H13.9135H13.9114H13.9093H13.9072H13.9052H13.9031H13.901H13.8989H13.8969H13.8948H13.8927H13.8906H13.8885H13.8864H13.8843H13.8822H13.8802H13.8781H13.876H13.8739H13.8718H13.8697H13.8676H13.8655H13.8634H13.8613H13.8592H13.8571H13.855H13.8529H13.8507H13.8486H13.8465H13.8444H13.8423H13.8402H13.8381H13.8359H13.8338H13.8317H13.8296H13.8274H13.8253H13.8232H13.8211H13.8189H13.8168H13.8147H13.8125H13.8104H13.8083H13.8061H13.804H13.8018H13.7997H13.7975H13.7954H13.7932H13.7911H13.7889H13.7868H13.7846H13.7825H13.7803H13.7782H13.776H13.7742V15.2099V15.2057V15.2015V15.1973V15.1931V15.1888V15.1846V15.1804V15.1762V15.172V15.1678V15.1636V15.1594V15.1552V15.151V15.1467V15.1425V15.1383V15.1341V15.1299V15.1257V15.1215V15.1173V15.1131V15.1089V15.1047V15.1005V15.0963V15.0921V15.0879V15.0837V15.0795V15.0753V15.0711V15.0669V15.0627V15.0585V15.0543V15.0501V15.0459V15.0417V15.0375V15.0333V15.0291V15.0249V15.0207V15.0165V15.0123V15.0081V15.0039V14.9997V14.9955V14.9913V14.9871V14.9829V14.9787V14.9745V14.9703V14.9661V14.9619V14.9577V14.9535V14.9493V14.9451V14.9409V14.9368V14.9326V14.9284V14.9242V14.92V14.9158V14.9116V14.9074V14.9032V14.899V14.8949V14.8907V14.8865V14.8823V14.8781V14.8739V14.8697V14.8655V14.8613V14.8572V14.853V14.8488V14.8446V14.8404V14.8362V14.832V14.8279V14.8237V14.8195V14.8153V14.8111V14.8069V14.8028V14.7986V14.7944V14.7902V14.786V14.7818V14.7777V14.7735V14.7693V14.7651V14.7609V14.7568V14.7526V14.7484V14.7442V14.74V14.7359V14.7317V14.7275V14.7233V14.7191V14.715V14.7108V14.7066V14.7024V14.6982V14.6941V14.6899V14.6857V14.6815V14.6774V14.6732V14.669V14.6648V14.6607V14.6565V14.6523V14.6481V14.644V14.6398V14.6356V14.6314V14.6273V14.6231V14.6189V14.6147V14.6106V14.6064V14.6022V14.598V14.5939V14.5897V14.5855V14.5814V14.5772V14.573V14.5688V14.5647V14.5605V14.5563V14.5522V14.548V14.5438V14.5396V14.5355V14.5313V14.5271V14.523V14.5188V14.5146V14.5105V14.5063V14.5021V14.498V14.4938V14.4896V14.4855V14.4813V14.4771V14.4729V14.4688V14.4646V14.4604V14.4563V14.4521V14.4479V14.4438V14.4396V14.4354V14.4313V14.4271V14.423V14.4188V14.4146V14.4105V14.4063V14.4021V14.398V14.3938V14.3896V14.3855V14.3813V14.3771V14.373V14.3688V14.3646V14.3605V14.3563V14.3522V14.348V14.3438V14.3397V14.3355V14.3313V14.3272V14.323V14.3188V14.3147V14.3105V14.3064V14.3022V14.298V14.2939V14.2897V14.2856V14.2814V14.2772V14.2731V14.2689V14.2647V14.2606V14.2564V14.2523V14.2481V14.2439V14.2398V14.2356V14.2315V14.2273V14.2231V14.219V14.2148V14.2107V14.2065V14.2023V14.1982V14.194V14.1899V14.1857V14.1815V14.1774V14.1732V14.1691V14.1649V14.1607V14.1566V14.1524V14.1483V14.1441V14.1399V14.1358V14.1316V14.1275V14.1233V14.1191V14.115V14.1108V14.1067V14.1025V14.0984V14.0942V14.09V14.0859V14.0817V14.0776V14.0734V14.0692V14.0651V14.0609V14.0568V14.0526V14.0485V14.0443V14.0401V14.036V14.0318V14.0277V14.0235V14.0193V14.0152V14.011V14.0069V14.0027V13.9986V13.9944V13.9902V13.9861V13.9819V13.9778V13.9736V13.9695V13.9653V13.9611V13.957V13.9528V13.9487V13.9445V13.9403V13.9362V13.932V13.9279V13.9237V13.9196V13.9154V13.9112V13.9071V13.9029V13.8988V13.8946V13.8905V13.8863V13.8821V13.878V13.8738V13.8697V13.8655V13.8613V13.8572V13.853V13.8489V13.8447V13.8406V13.8364V13.8322V13.8281V13.8239V13.8198V13.8156V13.8115V13.8073V13.8031V13.799V13.7948V13.7907V13.7865V13.7823V13.7782V13.774V13.7699V13.7657V13.7615V13.7574V13.7532V13.7491V13.7449V13.7407V13.7366V13.7324V13.7283V13.7241V13.72V13.7158V13.7116V13.7075V13.7033V13.6992V13.695V13.6908V13.6867V13.6825V13.6784V13.6742V13.67V13.6659V13.6617V13.6575V13.6534V13.6492V13.6451V13.6409V13.6367V13.6326V13.6284V13.6243V13.6201V13.6159V13.6118V13.6076V13.6034V13.5993V13.5951V13.591V13.5868V13.5826V13.5785V13.5743V13.5701V13.566V13.5618V13.5577V13.5535V13.5493V13.5452V13.541V13.5368V13.5327V13.5285V13.5243V13.5202V13.516V13.5119V13.5077V13.5035V13.4994V13.4952V13.491V13.4869V13.4827V13.4785V13.4744V13.4702V13.466V13.4619V13.4577V13.4535V13.4494V13.4452V13.441V13.4369V13.4327V13.4285V13.4244V13.4202V13.416V13.4119V13.4077V13.4035V13.3994V13.3952V13.391V13.3869V13.3827V13.3785V13.3743V13.3702V13.366V13.3618V13.3577V13.3535V13.3493V13.3452V13.341V13.3368V13.3326V13.3285V13.3243V13.3201V13.316V13.3118V13.3076V13.3034V13.2993V13.2951V13.2909V13.2867V13.2826V13.2784V13.2742V13.2701V13.2659V13.2617V13.2575V13.2534V13.2492V13.245V13.2408L13.7742 13.2296C13.7742 13.0702 13.7742 12.9344 13.7604 12.8286C13.7461 12.7187 13.7131 12.6055 13.6171 12.5237C13.5267 12.4466 13.4082 12.4222 13.2902 12.411C13.1709 12.3997 13.0158 12.3997 12.8251 12.3997H12.8163H12.8147H12.8132H12.8116H12.8101H12.8085H12.807H12.8054H12.8039H12.8023H12.8008H12.7992H12.7977H12.7961H12.7946H12.793H12.7915H12.7899H12.7884H12.7868H12.7853H12.7837H12.7822H12.7806H12.7791H12.7775H12.776H12.7744H12.7729H12.7713H12.7698H12.7682H12.7667H12.7651H12.7636H12.762H12.7605H12.7589H12.7574H12.7558H12.7543H12.7527H12.7512H12.7496H12.7481H12.7465H12.745H12.7434H12.7419H12.7403H12.7387H12.7372H12.7356H12.7341H12.7325H12.731H12.7294H12.7279H12.7263H12.7248H12.7232H12.7217H12.7201H12.7185H12.717H12.7154H12.7139H12.7123H12.7108H12.7092H12.7076H12.7061H12.7045H12.703H12.7014H12.6998H12.6983H12.6967H12.6952H12.6936H12.692H12.6905H12.6889H12.6874H12.6858H12.6842H12.6827H12.6811H12.6795H12.678H12.6764H12.6749H12.6733H12.6717H12.6702H12.6686H12.667H12.6655H12.6639H12.6623H12.6608H12.6592H12.6576H12.6561H12.6545H12.6529H12.6514H12.6498H12.6482H12.6466H12.6451H12.6435H12.6419H12.6404H12.6388H12.6372H12.6356H12.6341H12.6325H12.6309H12.6293H12.6278H12.6262H12.6246H12.623H12.6214H12.6199H12.6183H12.6167H12.6151H12.6136H12.612H12.6104H12.6088H12.6072H12.6056H12.6041H12.6025H12.6009H12.5993H12.5977H12.5961H12.5945H12.593H12.5914H12.5898H12.5882H12.5866H12.585H12.5834H12.5818H12.5802H12.5787H12.5771H12.5755H12.5739H12.5723H12.5707H12.5691H12.5675H12.5659H12.5643H12.5627H12.5611H12.5595H12.5579H12.5563H12.5547H12.5531H12.5515H12.5499H12.5483H12.5467H12.5451H12.5435H12.5419H12.5403H12.5387H12.537H12.5354H12.5338H12.5322H12.5306H12.529H12.5274H12.5258H12.5242H12.5225H12.5209H12.5193H12.5177H12.5161H12.5145H12.5128H12.5112H12.5096H12.508H12.5064H12.5047H12.5031H12.5015H12.4999H12.4982H12.4966H12.495H12.4934H12.4917H12.4901H12.4885H12.4868H12.4852H12.4836H12.4819H12.4803H12.4787H12.477H12.4754H12.4738H12.4721H12.4705H12.4688H12.4672H12.4656H12.4639H12.4623H12.4606H12.459H12.4573H12.4557H12.4541H12.4524H12.4508H12.4491H12.4475H12.4458H12.4441H12.4425H12.4408H12.4392H12.4375H12.4359H12.4342H12.4326H12.4309H12.4292H12.4276H12.4259H12.4242H12.4226H12.4209H12.4192H12.4176H12.4159H12.4142H12.4126H12.4109H12.4092H12.4076H12.4059H12.4042H12.4025H12.4009H12.3992H12.3975H12.3958H12.3941H12.3925H12.3908H12.3891H12.3874H12.3857H12.384H12.3823H12.3807H12.379H12.3773H12.3756H12.3739H12.3722H12.3705H12.3688H12.3671H12.3654H12.3637H12.362H12.3603H12.3586H12.3569H12.3552H12.3535H12.3518H12.3501H12.3484H12.3467H12.3449H12.3432H12.3415H12.3398H12.3381H12.3364H12.3346H12.3329H12.3312H12.3295H12.3278H12.3265C13.399 11.6438 14.4709 10.8886 15.553 10.1424Z" fill="#FF9900" stroke="#FF9900" stroke-width="0.33"/>
</g>
<defs>
<clipPath id="clip0_1565_253">
<rect width="13.5" height="18" fill="white" transform="translate(9 7)"/>
</clipPath>
</defs>
</svg>
