<svg width="18" height="18" viewBox="0 0 18 18" fill="none" xmlns="http://www.w3.org/2000/svg">
<path d="M0.66709 7.29911C0.652174 7.7569 0.92254 8.25741 1.3933 8.47416L6.95438 11.0337L9.47023 16.5971C9.68371 17.0693 10.183 17.3428 10.6407 17.3303C11.0984 17.3177 11.5813 17.017 11.7686 16.5338L17.2503 2.39514C17.4379 1.91107 17.2894 1.36511 16.9648 1.03942C16.6061 0.649012 16.0414 0.59551 15.6091 0.749402L1.4681 6.17355C0.893265 6.41951 0.684165 6.80216 0.66709 7.29911ZM2.98958 7.37502L15.3732 2.62646L10.5774 14.9997L8.34466 10.0647C8.26191 9.88198 8.11603 9.73527 7.93382 9.65145L2.98958 7.37502Z" fill="white"/>
</svg>
