<svg width="34" height="23" viewBox="0 0 34 23" fill="none" xmlns="http://www.w3.org/2000/svg">
<g clip-path="url(#clip0_882_2669)">
<path d="M16.8803 0C12.2197 0 7.54229 0 2.88165 0C1.89252 0 1.40634 0.49628 1.40634 1.50595C1.40634 6.96503 1.40634 12.4241 1.40634 17.8832C1.40634 18.8929 1.89252 19.4063 2.88165 19.4063C12.2197 19.4063 21.541 19.4063 30.879 19.4063C31.8849 19.4063 32.3711 18.91 32.3711 17.8661C32.3711 12.3899 32.3711 6.9308 32.3711 1.45461C32.3711 0.49628 31.8681 0 30.9461 0C26.2519 0 21.5745 0 16.8803 0ZM30.9293 17.9174C21.5745 17.9174 12.2197 17.9174 2.86488 17.9174C2.86488 12.4241 2.86488 6.94792 2.86488 1.48884C12.2365 1.48884 21.5745 1.48884 30.9293 1.48884C30.9293 6.96503 30.9293 12.4241 30.9293 17.9174Z" fill="black"/>
<path d="M20.4017 20.0898C20.385 20.3294 20.385 20.5519 20.3682 20.7915C18.0379 20.7915 15.7411 20.7915 13.4108 20.7915C13.394 20.569 13.394 20.3637 13.3772 20.107C13.2264 20.107 13.109 20.107 12.9749 20.107C8.81719 20.107 4.64273 20.107 0.485039 20.107C0.0323868 20.107 0.015625 20.1241 0.015625 20.5861C0.015625 21.2535 0.0323906 21.9381 0.015625 22.6055C0.015625 22.9135 0.13298 23.0333 0.41798 22.9991C0.451511 22.9991 0.501804 22.9991 0.535336 22.9991C11.4493 22.9991 22.3465 22.9991 33.2604 22.9991C33.3275 22.9991 33.4113 22.9991 33.4783 22.9991C33.6963 22.9991 33.7969 22.8964 33.7969 22.6739C33.7969 21.9209 33.7969 21.1851 33.7969 20.4321C33.7969 20.1412 33.6292 20.107 33.3945 20.107C31.5169 20.107 29.6392 20.107 27.7783 20.107C25.448 20.107 23.1344 20.107 20.8041 20.107C20.67 20.0898 20.5526 20.0898 20.4017 20.0898Z" fill="black"/>
</g>
<defs>
<clipPath id="clip0_882_2669">
<rect width="33.7812" height="23" fill="white" transform="matrix(-1 0 0 1 33.7812 0)"/>
</clipPath>
</defs>
</svg>
