<svg width="32" height="32" viewBox="0 0 32 32" fill="none" xmlns="http://www.w3.org/2000/svg">
<rect width="32" height="32" rx="16" fill="#FF9900" fill-opacity="0.2"/>
<g clip-path="url(#clip0_1565_314)">
<path d="M10.1389 20.5481C11.7774 20.5481 13.3887 20.5385 15.0001 20.5577C15.2264 20.5577 15.4436 20.7308 15.6609 20.8269C15.9144 20.9423 16.1588 21.0769 16.4394 21.2212C16.367 21.5 16.2221 21.6827 15.8872 21.6827C15.3169 21.6731 14.7466 21.6827 14.1763 21.6827C14.2125 22.7308 15.0634 23.125 16.023 22.5865C16.2402 22.8462 16.4575 23.1154 16.6838 23.3942C16.0592 23.9519 15.3622 24.1731 14.5836 23.8654C13.6603 23.5096 13.1714 22.7596 13.0447 21.6827C12.0127 21.6827 10.9807 21.6827 9.9397 21.6827C9.14308 21.6827 9.0254 21.5577 9.0254 20.7115C9.0254 20.6923 9.0254 20.6827 9.0254 20.6635C8.87151 19.6346 9.14308 18.7788 9.96686 18.1538C10.2475 17.9423 10.3109 17.6346 10.3109 17.2692C10.329 16.2981 10.3018 15.3077 10.4557 14.3558C10.7273 12.7115 11.6687 11.5385 13.0447 10.7404C13.2439 10.625 13.434 10.4135 13.5426 10.2019C13.9138 9.44231 14.466 9 15.2626 9C16.0592 9 16.6114 9.44231 16.9826 10.1923C17.0912 10.4038 17.2722 10.625 17.4714 10.7308C18.7297 11.4423 19.5806 12.5096 19.997 13.9615C20.0332 14.0769 20.0423 14.2019 20.0695 14.3462C19.7436 14.4135 19.4358 14.4712 19.0918 14.5481C19.0556 14.4519 19.0013 14.3269 18.9651 14.2019C18.5396 12.8462 17.6886 11.9327 16.4122 11.5096C16.1407 11.4231 16.0683 11.2981 16.0683 11.0096C16.0592 10.4808 15.7424 10.1346 15.2988 10.125C14.8371 10.1058 14.466 10.4519 14.4569 10.9904C14.4479 11.3269 14.3392 11.4423 14.0495 11.5385C12.4654 12.0673 11.3972 13.6154 11.3609 15.4038C11.3428 16.2212 11.3791 17.0385 11.3428 17.8558C11.3338 18.0865 11.2161 18.3269 11.0894 18.5192C10.9355 18.75 10.7363 18.9615 10.5281 19.1346C10.0845 19.5 10.0031 19.9519 10.1389 20.5481Z" fill="#FF9900"/>
<path d="M23.998 19.6539C23.998 20.3077 23.998 20.2789 23.3643 20.3462C23.138 20.375 22.8573 20.4615 22.7125 20.6346C22.4771 20.9135 22.6944 21.2019 22.8845 21.4423C22.9026 21.4712 22.9207 21.4904 22.9388 21.5192C23.4186 22.1442 23.3733 22.4519 22.7034 22.8846C22.6129 22.9423 22.4228 22.9135 22.3051 22.8558C22.1331 22.7692 21.9974 22.6058 21.8344 22.4904C21.2279 22.0577 20.8567 22.2596 20.7753 23.0385C20.7572 23.2596 20.7119 23.6442 20.6123 23.6731C20.2864 23.7596 19.9334 23.7308 19.5894 23.6923C19.526 23.6827 19.4626 23.4712 19.4264 23.3365C19.3812 23.125 19.3721 22.8942 19.3269 22.6731C19.2454 22.2885 18.9738 22.2308 18.666 22.3269C18.5302 22.375 18.4035 22.4712 18.2768 22.5673C17.5707 23.0865 17.5707 23.0962 17.0185 22.3654C16.937 22.2596 16.9461 22.0192 17.0004 21.8846C17.109 21.6635 17.2991 21.4904 17.4439 21.2789C17.7427 20.8365 17.5707 20.4327 17.0637 20.3558C17.0185 20.3462 16.9732 20.3462 16.9279 20.3462C16.2219 20.2885 16.249 20.2885 16.2128 19.5577C16.1947 19.0962 16.3033 18.8558 16.7741 18.8942C16.9189 18.9039 17.0728 18.8558 17.2176 18.8077C17.5345 18.7115 17.6884 18.3173 17.5254 18.0096C17.4711 17.8942 17.3896 17.7981 17.3172 17.7019C16.8012 17.0289 16.8374 16.7981 17.5345 16.3077C17.625 16.25 17.7698 16.2789 17.8966 16.2885C17.9328 16.2885 17.9599 16.3462 17.9961 16.375C19.0643 17.2404 19.2544 17.1635 19.4355 15.7692C19.4808 15.4519 19.5894 15.2981 19.8972 15.3365C20.033 15.3558 20.1687 15.3462 20.3045 15.3365C20.6214 15.3077 20.7843 15.4327 20.7662 15.7981C20.7572 16 20.7934 16.2115 20.8205 16.4135C20.8929 16.8654 21.255 17.0577 21.6443 16.8365C21.8254 16.7308 22.0155 16.6154 22.1603 16.4519C22.6401 15.9231 22.8121 16.5096 23.0837 16.7212C23.3914 16.9615 23.3462 17.2115 23.1018 17.4808C22.966 17.625 22.8483 17.7981 22.7397 17.9712C22.4952 18.3654 22.6491 18.7212 23.0655 18.8077C23.1561 18.8269 23.2375 18.8558 23.3281 18.8654C23.998 18.9808 23.998 18.9808 23.998 19.6539ZM21.8616 19.5962C21.8525 18.5962 21.0649 17.7596 20.1235 17.7596C19.173 17.75 18.3582 18.6058 18.3582 19.625C18.3492 20.625 19.173 21.5 20.1235 21.4904C21.074 21.4808 21.8706 20.6058 21.8616 19.5962Z" fill="#FF9900"/>
</g>
<defs>
<clipPath id="clip0_1565_314">
<rect width="15" height="15" fill="white" transform="translate(9 9)"/>
</clipPath>
</defs>
</svg>
