<svg width="38" height="38" viewBox="0 0 38 38" fill="none" xmlns="http://www.w3.org/2000/svg">
<path d="M38 19C38 29.4934 29.4934 38 19 38C8.50659 38 0 29.4934 0 19C0 8.50659 8.50659 0 19 0C29.4934 0 38 8.50659 38 19Z" fill="#06590E" fill-opacity="0.2"/>
<path d="M28 23V15C27.9996 14.6493 27.9071 14.3048 27.7315 14.0012C27.556 13.6975 27.3037 13.4454 27 13.27L20 9.27002C19.696 9.09449 19.3511 9.00208 19 9.00208C18.6489 9.00208 18.304 9.09449 18 9.27002L11 13.27C10.6963 13.4454 10.444 13.6975 10.2685 14.0012C10.0929 14.3048 10.0004 14.6493 10 15V23C10.0004 23.3508 10.0929 23.6952 10.2685 23.9989C10.444 24.3025 10.6963 24.5547 11 24.73L18 28.73C18.304 28.9056 18.6489 28.998 19 28.998C19.3511 28.998 19.696 28.9056 20 28.73L27 24.73C27.3037 24.5547 27.556 24.3025 27.7315 23.9989C27.9071 23.6952 27.9996 23.3508 28 23Z" stroke="#06590E" stroke-width="2" stroke-linecap="round" stroke-linejoin="round"/>
<path d="M10.2734 13.96L19.0034 19.01L27.7334 13.96" stroke="#06590E" stroke-width="2" stroke-linecap="round" stroke-linejoin="round"/>
<path d="M19 29.08V19" stroke="#06590E" stroke-width="2" stroke-linecap="round" stroke-linejoin="round"/>
<line x1="14.416" y1="10.376" x2="23.416" y2="16.376" stroke="#06590E" stroke-width="1.5"/>
</svg>
