<svg width="43" height="43" viewBox="0 0 43 43" fill="none" xmlns="http://www.w3.org/2000/svg">
<circle cx="21.5" cy="21.5" r="21.5" fill="#F9DDDD"/>
<path d="M24.9796 19.0546C22.8723 22.7045 20.932 26.0773 18.9801 29.4398C18.3881 30.4592 17.5436 30.7689 16.6435 30.339C15.5972 29.8391 15.3303 28.8374 15.975 27.7084C17.7136 24.6788 19.4638 21.6596 21.2102 18.6346C21.4093 18.2898 21.6084 17.9451 21.9738 17.3121C20.6542 17.6456 19.5812 17.985 18.4874 18.1652C17.9251 18.2607 17.1837 18.2637 16.7827 17.9639C16.353 17.6405 15.9893 16.8917 16.0349 16.3613C16.0725 15.8874 16.6351 15.1815 17.093 15.0472C19.7897 14.2624 22.5118 13.5678 25.2472 12.9419C26.1981 12.7223 26.9162 13.2662 27.1959 14.2214C27.9308 16.7431 28.6515 19.2711 29.347 21.806C29.6506 22.9151 29.1982 23.778 28.2462 24.0544C27.3345 24.3218 26.3807 23.8142 26.0596 22.8208C25.6905 21.6666 25.3884 20.4938 24.9796 19.0546Z" fill="#FF0000"/>
</svg>
