<svg width="174" height="201" viewBox="0 0 174 201" fill="none" xmlns="http://www.w3.org/2000/svg">
<path opacity="0.3" d="M34.1802 200.011C50.214 200.011 63.212 198.29 63.212 196.166C63.212 194.043 50.214 192.321 34.1802 192.321C18.1464 192.321 5.14844 194.043 5.14844 196.166C5.14844 198.29 18.1464 200.011 34.1802 200.011Z" fill="#CACACA"/>
<path d="M31.407 180.508L46.6059 177.582C46.6059 177.582 51.2596 169.956 49.5091 160.835C47.2463 149.087 60.0118 141.632 56.8524 125.227C53.5864 108.202 37.8537 98.1416 23.0603 100.961H23.039H23.0176C8.2029 103.845 -2.68401 119.032 0.582062 136.057C3.7414 152.462 19.1325 154.021 21.3739 165.77C23.1457 174.869 31.407 180.508 31.407 180.508Z" fill="#FF9900"/>
<path d="M28.0563 196.358C22.5915 195.311 25.516 169.379 25.516 169.379C25.7295 166.517 28.2484 164.36 31.1089 164.595C33.9694 164.808 36.1254 167.329 35.8906 170.191C35.8693 170.191 33.5211 197.405 28.0563 196.358Z" fill="#FF9900"/>
<path d="M39.3234 196.615C32.834 196.102 39.1099 168.931 39.1099 168.931C39.6223 166.112 42.3333 164.232 45.1725 164.744C47.9903 165.257 49.9542 166.047 49.5272 169.358C49.5059 169.38 45.2792 197.106 39.3234 196.615Z" fill="#FF9900"/>
<path d="M21.8006 102.777C21.8006 102.777 18.4705 102.756 16.8055 100.919C15.1191 99.0177 19.3244 98.441 21.0321 99.8721C21.7793 100.492 22.1422 101.068 22.1422 101.068C22.1422 101.068 22.2276 98.206 23.5511 97.5438C24.8746 96.8816 25.8992 98.1419 25.3442 99.2527C24.7678 100.363 24.7678 100.363 24.7678 100.363C24.7678 100.363 25.7711 98.9536 27.5216 98.3983C28.9518 97.9497 30.2113 97.9497 29.6776 99.1672C29.3361 99.9789 26.1981 102.136 26.1981 102.136L21.8006 102.777Z" fill="#FF9900"/>
<path d="M11.2369 181.042C30.0222 173.865 28.8054 160.75 28.9762 160.194C29.5952 158.272 28.5492 156.2 26.628 155.581C24.7068 154.961 22.6575 156.008 22.0171 157.93C21.9531 158.101 19.3274 169.187 8.76068 175.019C7.88546 175.489 5.77212 178.009 6.9035 179.868C8.03489 181.726 10.9381 181.149 11.2369 181.042Z" fill="#FF9900"/>
<path d="M66.7152 147.015C66.6511 146.994 66.5657 146.973 66.5017 146.951L66.9713 144.473C67.1421 143.534 66.523 142.615 65.5838 142.423C64.6445 142.252 63.7266 142.871 63.5345 143.811L62.7233 148.019C62.1683 147.571 61.3998 147.485 60.7594 147.87C59.9268 148.361 59.6493 149.429 60.119 150.262L61.0796 151.95C57.0237 156.051 47.9512 155.859 44.1942 155.602C41.9528 155.453 40.0102 157.14 39.8608 159.383C39.7113 161.626 41.3977 163.57 43.6392 163.719C43.8526 163.741 48.6343 164.04 53.9497 163.057C54.0351 163.036 54.1205 163.036 54.1845 163.015C63.1075 160.494 66.2669 157.247 67.5477 153.338C68.2735 151.223 68.8498 147.72 66.7152 147.015Z" fill="#FF9900"/>
<path d="M39.4568 160.772H39.4995L40.6735 160.451L41.0791 157.397L39.2433 156.222L38.3254 156.478H38.304L37.3861 156.734L36.3828 158.657L38.2827 161.092L39.4568 160.772Z" fill="#231F20"/>
<path d="M43.2973 174.891L45.5814 170.833L40.7997 161.156L39.6897 161.477H39.6684H39.647L38.5156 161.776L39.2628 172.541L43.2546 174.891L43.276 174.913H43.2973V174.891Z" fill="#231F20"/>
<path d="M51.8181 113.479C51.1777 113.927 50.4946 114.355 49.8328 114.76C49.1497 115.166 48.4666 115.529 47.7622 115.871C47.2499 116.128 46.6948 116.384 46.1825 116.597C45.7983 115.914 45.3927 115.23 44.9871 114.568L44.9657 114.525C44.7309 114.184 44.2613 114.12 43.9411 114.355L43.8984 114.376C43.194 114.867 42.4895 115.337 41.7851 115.786C41.0593 116.234 40.3548 116.683 39.6077 117.11C38.8819 117.537 38.1347 117.943 37.3876 118.306C37.2168 118.392 37.0247 118.477 36.8326 118.584L37.0887 117.025C37.1314 116.726 37.0461 116.405 36.8326 116.149C36.4483 115.722 35.7866 115.7 35.381 116.085L35.3597 116.106C33.78 117.559 31.9868 118.862 30.087 119.994C28.2084 121.147 26.2232 122.173 24.2166 123.134C23.2133 123.625 22.1886 124.074 21.164 124.522C20.1393 124.971 19.0933 125.419 18.0687 125.825C15.9767 126.68 13.8847 127.47 11.75 128.26C13.9914 127.94 16.2115 127.406 18.4102 126.808C19.4989 126.487 20.5876 126.167 21.6763 125.804C22.765 125.441 23.8323 125.035 24.8997 124.629C27.0344 123.796 29.105 122.813 31.133 121.681C32.3284 120.976 33.5238 120.229 34.6552 119.374L34.5485 120.101V120.122C34.5271 120.293 34.5485 120.506 34.6339 120.677C34.8473 121.19 35.445 121.404 35.9574 121.19C36.8112 120.805 37.5797 120.421 38.3482 119.994C39.1167 119.567 39.8638 119.118 40.611 118.648C41.3581 118.178 42.0839 117.687 42.7884 117.174C43.2793 116.811 43.7703 116.448 44.24 116.063C44.6242 116.619 45.0084 117.174 45.414 117.73L45.4567 117.794C45.6275 118.029 45.9477 118.114 46.2039 117.986C46.9724 117.601 47.6555 117.217 48.3386 116.768C49.0217 116.32 49.6834 115.85 50.3025 115.359C50.9429 114.867 51.5406 114.333 52.117 113.778C52.6933 113.222 53.227 112.624 53.7393 112.005C53.0989 112.56 52.4585 113.03 51.8181 113.479Z" fill="#231F20"/>
<path d="M28.4463 148.083C23.4297 149.899 17.8582 147.271 16.0437 142.252C14.2292 137.232 16.8549 131.657 21.8714 129.862C26.8879 128.047 32.4595 130.674 34.2526 135.694C36.0884 140.714 33.4841 146.267 28.4463 148.083ZM22.5972 131.806C18.648 133.237 16.5987 137.595 18.029 141.547C19.4592 145.498 23.814 147.549 27.7632 146.118C31.7123 144.687 33.7616 140.329 32.3314 136.377C30.9011 132.447 26.5464 130.396 22.5972 131.806Z" fill="#231F20"/>
<path d="M53.5322 139.048C48.5157 140.864 42.9441 138.236 41.1297 133.216C39.3152 128.197 41.9408 122.622 46.9574 120.827C51.9739 119.012 57.5454 121.639 59.3599 126.659C61.1744 131.657 58.5487 137.232 53.5322 139.048ZM47.6618 122.771C43.7126 124.202 41.6633 128.56 43.0936 132.512C44.5238 136.463 48.8786 138.514 52.8277 137.083C56.7769 135.652 58.8262 131.294 57.396 127.342C55.9871 123.391 51.611 121.34 47.6618 122.771Z" fill="#231F20"/>
<path d="M33.7583 135.139L32.0078 134.007C33.0752 132.362 34.6335 131.145 36.4693 130.482C38.3051 129.82 40.2691 129.778 42.1262 130.333L41.5072 132.319C40.0769 131.892 38.5827 131.914 37.1738 132.426C35.7649 132.939 34.5694 133.879 33.7583 135.139Z" fill="#231F20"/>
<path d="M48.3224 128.389C47.3618 129.692 47.6607 131.529 48.9628 132.469C50.265 133.43 52.1008 133.131 53.0401 131.828C54.0007 130.525 53.7018 128.688 52.3997 127.748C51.0975 126.808 49.2617 127.086 48.3224 128.389Z" fill="#231F20"/>
<path d="M54.5112 127.449C54.2978 126.808 53.8708 126.274 53.3372 125.825C52.8035 125.398 52.1417 125.078 51.4373 124.971C50.7328 124.864 50.007 124.971 49.3666 125.227C48.7262 125.505 48.1712 125.911 47.7656 126.445C48.406 126.274 49.0037 126.103 49.5801 126.017C50.1565 125.932 50.7328 125.911 51.2665 125.996C52.3766 126.146 53.4226 126.701 54.5112 127.449Z" fill="#231F20"/>
<path d="M25.7169 136.869C27.2966 137.233 28.2785 138.792 27.9156 140.373C27.5527 141.953 25.9944 142.936 24.4147 142.573C22.8351 142.21 21.8531 140.65 22.216 139.07C22.5789 137.489 24.1372 136.506 25.7169 136.869Z" fill="#231F20"/>
<path d="M20.0775 140.03C20.5684 138.813 21.1235 137.766 21.9346 137.019C22.3402 136.634 22.8099 136.335 23.3435 136.079C23.8772 135.822 24.4749 135.63 25.094 135.417C24.4536 135.203 23.7705 135.182 23.0874 135.31C22.4043 135.438 21.7425 135.758 21.2302 136.25C20.6965 136.741 20.3336 137.36 20.1202 138.023C19.9494 138.685 19.9067 139.39 20.0775 140.03Z" fill="#231F20"/>
<path d="M34.8438 141.803L39.5614 140.137L39.6468 140.115L44.3645 138.449C44.3645 138.449 45.3251 141.119 45.9868 144.366C46.5632 147.271 45.4745 149.792 43.3612 150.582H43.3398H43.3185H43.2971H43.2758C41.1411 151.287 38.7075 150.027 37.32 147.399C35.7617 144.494 34.8438 141.803 34.8438 141.803Z" fill="#231F20"/>
<path d="M37.3211 147.421C37.0222 146.866 36.7661 146.332 36.5312 145.819C37.3851 145.093 40.3096 143.341 46.1373 145.84C46.1373 148.083 45.0913 149.899 43.3623 150.561H43.3409H43.3196H43.2982H43.2769C41.1422 151.33 38.6873 150.048 37.3211 147.421Z" fill="#E23D3A"/>
<path d="M149.479 55.2928C148.22 46.3427 144.377 38.2683 138.358 31.9669C132.252 25.5801 124.141 21.2225 115.495 19.7059C113.424 19.3428 111.29 19.1719 109.155 19.1719C104.694 19.1719 100.125 19.9622 95.5571 21.5002C85.4173 24.9179 75.8539 31.497 68.596 39.9772C61.3808 48.436 57.7304 57.5143 58.0506 66.2081C58.4989 78.5332 65.2872 88.9145 70.8801 95.4295C72.5238 97.352 74.2529 99.1676 76.0461 100.855C77.519 102.244 79.12 103.504 80.657 104.743C81.148 105.127 81.639 105.533 82.1299 105.918C84.2219 107.605 85.5454 110.361 85.46 112.796C85.396 114.526 84.6062 115.936 83.1973 116.897C83.0478 117.004 83.0051 117.175 83.1119 117.324C83.1973 117.474 83.3894 117.516 83.5388 117.431C85.2893 116.47 86.3566 114.91 86.5914 112.903C86.933 110.104 85.5668 106.644 83.2827 104.529C79.2908 100.834 75.1281 96.7325 71.6913 91.8623C66.44 84.4287 60.6336 73.0649 62.7043 61.2097C64.4761 51.042 72.0542 42.7754 78.1167 37.6275C86.6128 30.429 96.1121 25.8791 104.843 24.8111C106.188 24.6402 107.554 24.5761 108.92 24.5761C115.388 24.5761 121.728 26.3491 127.236 29.7241C130.523 31.732 133.426 34.1671 135.881 36.9226C139.788 41.3443 142.606 46.364 143.758 51.1274C146.021 59.4154 145.829 68.1733 143.225 75.799C141.645 80.4129 139.19 84.7705 136.116 88.4018C132.935 92.1613 129.242 95.1091 125.336 98.2277L125.059 98.4627C121.536 101.304 118.42 104.743 115.773 108.673C113.531 111.984 111.781 115.53 110.009 119.14C109.945 119.289 109.988 119.482 110.137 119.567C110.18 119.588 110.244 119.61 110.286 119.61C110.393 119.61 110.5 119.546 110.564 119.46C112.378 116.47 114.364 113.287 116.584 110.297C119.53 106.345 123.223 103.141 126.147 100.812C127.3 99.8725 128.581 99.0181 129.819 98.185C130.438 97.7792 131.078 97.3306 131.676 96.9034C133.17 95.8567 134.537 94.6391 135.817 93.4643C139.425 90.1534 142.435 86.3512 144.74 82.1218C149.052 74.3038 150.781 64.5206 149.479 55.2928Z" fill="#FF9900"/>
<path d="M85.9091 120.486C84.8204 120.422 83.0273 120.016 82.1093 120.806C80.7005 122.024 85.3114 122.301 85.781 122.301C89.6021 122.43 93.5299 122.195 97.3083 121.767C99.1015 121.554 100.873 121.148 102.645 120.849C104.438 120.55 107.107 119.952 108.729 121.105C109.604 121.746 109.882 122.964 109.049 123.754C107.683 124.971 105.377 125.185 103.648 125.42C99.5498 125.997 95.3871 126.125 91.2672 126.146C89.7302 126.146 88.1719 126.061 86.6349 126.061C86.4214 126.04 85.3114 126.018 85.2473 126.339C85.3541 127.129 86.6989 127.278 87.2539 127.343C91.3099 127.748 95.4298 127.513 99.4857 127.812C101.065 127.941 107.96 128.304 106.53 131.401C105.847 132.875 103.456 133.024 102.069 133.174C99.8913 133.388 97.7139 133.43 95.5365 133.516C93.4018 133.601 91.2458 133.665 89.1538 134.007C88.7482 134.071 84.9698 135.054 85.9091 135.737C86.5922 136.079 87.4888 136.079 88.2572 136.122C89.8156 136.229 91.3739 136.271 92.9536 136.357C94.3625 136.442 95.75 136.506 97.1589 136.72C98.0555 136.848 99.2509 136.955 99.934 137.638C99.0588 136.869 97.4364 136.933 96.3477 136.869C94.4478 136.763 92.548 136.805 90.6481 136.805C90.029 136.805 82.8992 137.147 85.4608 134.541C86.6349 133.345 88.7696 133.089 90.3492 132.832C92.4199 132.512 94.5332 132.405 96.6252 132.277C98.5678 132.149 100.532 132.063 102.474 131.764C102.773 131.721 105.698 131.273 105.292 130.632C104.673 129.479 101.471 129.479 100.404 129.393C98.2689 129.222 96.1342 129.18 94.0209 129.137C92.057 129.094 90.0717 129.115 88.1292 128.987C87.0405 128.923 85.9091 128.88 84.9698 128.261C83.689 127.428 83.1553 125.527 84.8204 124.779C86.1226 124.181 87.9584 124.544 89.3459 124.566C93.5513 124.63 97.7993 124.566 102.005 124.181C102.56 124.138 108.579 123.156 108.323 122.707C108.131 120.87 102.816 122.024 101.748 122.195C98.5891 122.686 95.5152 122.921 92.3132 122.985C89.3246 123.049 86.0585 123.22 83.134 122.451C82.6857 122.323 81.8105 122.109 81.7251 121.511C81.6184 120.849 82.1307 120.464 82.7284 120.336C83.7317 120.123 84.8417 120.358 85.9091 120.486Z" fill="#FF9900"/>
<path d="M89.4738 100.791C89.8367 100.791 88.0863 92.2258 87.9369 91.4995C87.1043 87.6546 86.2505 83.831 85.8022 79.922C85.3752 76.3334 84.9056 71.7622 86.9336 68.5581C88.3425 66.3366 90.9681 65.6958 93.2736 66.8279C94.8746 67.6183 96.1127 68.9853 97.6497 69.8825C99.1013 70.7369 100.169 70.6515 101.684 70.0534C103.179 69.498 104.972 70.0747 105.633 71.5913C106.103 72.6807 106.317 73.642 107.555 73.8769C110.052 74.3682 111.248 70.6301 113.916 71.805C115.282 72.3603 115.474 74.0478 116.712 74.6459C118.271 75.3935 119.786 75.1372 121.451 75.1159C122.903 75.0945 124.718 74.4964 126.084 75.1159C127.92 75.9489 127.279 78.2986 126.831 79.7725C126.062 82.3785 124.611 84.6214 122.775 86.6293C120.021 89.5984 116.67 91.9267 113.831 94.789C111.205 97.4378 109.07 100.62 107.277 103.889C105.505 107.093 103.819 110.745 103.67 114.462C103.648 115.082 103.67 115.701 103.776 116.299C103.776 116.257 103.883 117.624 103.627 117.09C102.944 115.573 102.73 113.928 102.816 112.283C103.029 108.332 104.502 104.444 106.274 100.941C108.003 97.5232 110.116 94.3191 112.849 91.6063C115.88 88.5731 119.616 86.1166 122.22 82.6562C123.266 81.2891 124.611 78.9821 124.611 77.1878C124.589 77.4014 124.888 77.4442 124.995 77.5723C124.739 77.7859 123.052 77.5937 122.668 77.6151C121.836 77.6364 121.025 77.5723 120.213 77.551C118.548 77.5083 117.097 77.3587 115.666 76.4189C113.937 75.4149 113.703 71.8477 111.312 73.6633C109.924 74.71 108.515 75.4363 106.786 74.7741C105.655 74.3041 105.271 73.3429 104.886 72.2535C104.203 70.267 102.474 70.8437 101.001 71.3777C99.4855 71.9118 97.9485 71.4418 96.5823 70.7156C94.7252 69.7116 92.2916 67.3833 90.0715 68.5795C88.5986 69.3698 88.3211 71.4418 88.1717 72.9371C87.9582 75.1372 88.0863 77.3587 88.2784 79.5375C88.5986 83.4679 89.2177 87.3769 89.6446 91.2859C89.73 92.0762 90.4771 101.069 89.6233 100.898C89.5592 100.813 89.5165 100.813 89.4738 100.791Z" fill="#FF9900"/>
<path d="M45.7743 56.6807C45.0912 56.6807 44.4294 56.8088 43.8317 57.0652C43.4688 57.2147 43.2127 57.5565 43.17 57.9623C43.1273 58.3682 43.3194 58.7527 43.6396 58.9663C43.9598 59.1799 44.2587 59.3935 44.5789 59.6071C45.4968 60.2265 46.4574 60.8887 47.4393 61.4655C48.7202 62.2772 50.4066 63.217 52.1997 63.4093C52.2424 63.4093 52.2851 63.4093 52.3064 63.4093C52.9041 63.4093 53.3951 62.918 53.3951 62.3199C53.3951 62.1063 53.3311 61.914 53.2243 61.7431C51.9222 59.2226 48.8055 56.6807 45.7743 56.6807Z" fill="#FF9900"/>
<path d="M59.1812 31.048L59.0958 30.9625C58.2206 30.1081 57.1959 29.2964 55.8724 28.4206C55.8724 28.4206 55.8511 28.4206 55.8511 28.3992C53.5456 26.9254 51.0907 25.5583 48.5504 25.4728C48.0808 25.4515 47.6752 25.7292 47.5044 26.1777C47.3337 26.6049 47.4617 27.0962 47.8246 27.3953C50.002 29.2109 51.8379 30.6208 53.631 31.8169C53.631 31.8169 53.6523 31.817 53.6523 31.8383C55.0612 32.7355 56.2353 33.4617 57.3667 34.0812C57.6229 34.2093 57.879 34.3589 58.1352 34.4657C58.6902 34.7434 59.2666 35.0211 59.6295 35.3628C59.8429 35.5551 60.0991 35.6619 60.3766 35.6619C60.9743 35.6619 61.444 35.1706 61.444 34.5725C61.444 34.4657 61.4226 34.3802 61.4013 34.2734C61.1238 32.9277 59.9924 31.8383 59.1812 31.048Z" fill="#FF9900"/>
<path d="M82.7505 10.6485C82.046 9.15329 81.2989 7.89301 80.4877 6.84634C79.6978 5.82103 78.7799 4.79572 77.5632 4.32578C77.1362 4.1549 76.6452 4.28306 76.3464 4.64619C76.0475 5.00932 76.0262 5.52198 76.261 5.90647C76.6666 6.54729 76.9654 7.31628 77.2643 8.10662C77.371 8.36295 77.4778 8.64064 77.5845 8.89697C78.0755 10.0718 78.5878 11.3107 79.1428 12.571C79.7405 13.8954 80.4236 15.177 81.064 16.4159C81.555 17.3344 82.046 18.2957 82.5156 19.2355C82.7078 19.62 83.0707 19.8336 83.4762 19.8336C83.5189 19.8336 83.5616 19.8336 83.6257 19.8336C84.0953 19.7695 84.4582 19.4278 84.5436 18.9578C84.7997 17.6335 84.5436 16.2237 84.2447 14.9207C83.9032 13.5109 83.4122 12.0583 82.7505 10.6485Z" fill="#FF9900"/>
<path d="M123.414 0.0753625C122.987 -0.0955229 122.496 0.0326411 122.197 0.374412C120.404 2.48912 119.422 5.03104 118.76 6.99622C117.906 9.58086 117.629 12.4859 118.013 14.9638C118.077 15.4123 118.44 15.7755 118.888 15.8609C118.953 15.8823 119.017 15.8823 119.081 15.8823C119.465 15.8823 119.828 15.69 120.02 15.3482C121.258 13.2122 121.984 10.7343 122.603 8.38467C123.329 6.05635 124.033 3.55715 124.097 1.12204C124.118 0.673461 123.841 0.246248 123.414 0.0753625Z" fill="#FF9900"/>
<path d="M162.094 27.1605C162.393 26.7974 162.415 26.2847 162.158 25.9002C161.902 25.5157 161.433 25.3235 160.984 25.4517C158.529 26.0925 155.968 27.1819 153.534 28.6344C151.698 29.7238 149.094 31.4754 147.749 34.2095C147.536 34.6367 147.621 35.128 147.963 35.4484C148.176 35.6621 148.454 35.7689 148.731 35.7689C148.902 35.7689 149.051 35.7261 149.222 35.6621C151.549 34.4872 153.854 33.1842 155.989 31.9453C158.188 30.6209 160.472 29.2111 162.094 27.1605Z" fill="#FF9900"/>
<path d="M173.772 55.3141C173.537 54.9296 173.089 54.7373 172.662 54.8228C171.893 54.9723 171.125 55.0791 170.356 55.2073C168.905 55.4422 167.389 55.6772 165.895 56.0617C163.675 56.6384 161.583 57.3433 159.704 58.1764C159.299 58.3686 159.042 58.7745 159.064 59.2231C159.085 59.6716 159.384 60.0561 159.811 60.1843C160.665 60.462 161.604 60.5902 162.65 60.5902C164.038 60.5902 165.575 60.3552 167.346 59.8853C169.673 59.2658 172.235 58.39 173.686 56.5316C173.985 56.1899 174.007 55.6986 173.772 55.3141Z" fill="#FF9900"/>
<path d="M157.548 84.5137C156.758 84.5137 155.99 84.6205 155.264 84.8127C154.858 84.9195 154.56 85.2613 154.474 85.6885C154.41 86.1157 154.581 86.5216 154.944 86.7565C156.481 87.7819 158.317 88.4868 159.939 89.1062L160.131 89.1703C161.775 89.8111 163.632 90.5587 165.51 90.7723C165.553 90.7723 165.596 90.7723 165.639 90.7723C166.236 90.7723 166.706 90.281 166.706 89.683C166.706 89.4266 166.621 89.1917 166.45 88.9994C164.571 86.308 161.006 84.5137 157.548 84.5137Z" fill="#FF9900"/>
</svg>
