<svg width="38" height="38" viewBox="0 0 38 38" fill="none" xmlns="http://www.w3.org/2000/svg">
<path d="M38 19C38 29.4934 29.4934 38 19 38C8.50659 38 0 29.4934 0 19C0 8.50659 8.50659 0 19 0C29.4934 0 38 8.50659 38 19Z" fill="#FF9900" fill-opacity="0.2"/>
<path d="M19.5 28C23.6421 28 27 24.6421 27 20.5C27 16.3579 23.6421 13 19.5 13C15.3579 13 12 16.3579 12 20.5C12 24.6421 15.3579 28 19.5 28Z" stroke="#FF9900"  stroke-linecap="round" stroke-linejoin="round"/>
<path d="M19.5 16.75L20.6588 19.0975L23.25 19.4763L21.375 21.3025L21.8175 23.8825L19.5 22.6638L17.1825 23.8825L17.625 21.3025L15.75 19.4763L18.3412 19.0975L19.5 16.75Z" stroke="#FF9900"  stroke-linecap="round" stroke-linejoin="round"/>
</svg>
