<?xml version="1.0" encoding="utf-8"?>
<!-- Generator: Adobe Illustrator 24.0.1, SVG Export Plug-In . SVG Version: 6.00 Build 0)  -->
<svg version="1.1" id="Layer_1" xmlns="http://www.w3.org/2000/svg" xmlns:xlink="http://www.w3.org/1999/xlink" x="0px" y="0px"
	 viewBox="0 0 32 32" style="enable-background:new 0 0 32 32;" xml:space="preserve">
<style type="text/css">
	.st0{opacity:0.2;fill:#FF9900;}
	.st1{fill:#FF9900;}
</style>
<circle class="st0" cx="16" cy="16" r="16"/>
<path class="st1" d="M13.7,14.4c-0.7-0.04-1.42-0.01-2.11-0.01v0.5c0.72,0,1.41-0.03,2.08,0.01L13.7,14.4z M14.19,14.04
	c-0.05,0.17-0.11,0.25-0.16,0.29c-0.05,0.04-0.13,0.07-0.33,0.06l-0.03,0.5c0.26,0.02,0.48-0.02,0.66-0.16
	c0.18-0.14,0.27-0.33,0.33-0.54L14.19,14.04z M15.51,10.1c-0.46,1.31-0.9,2.62-1.32,3.94l0.48,0.15c0.42-1.31,0.86-2.62,1.32-3.93
	L15.51,10.1z M15.95,9.54c-0.03,0.03-0.06,0.06-0.1,0.1c-0.04,0.03-0.08,0.08-0.12,0.12c-0.08,0.08-0.18,0.2-0.23,0.35l0.48,0.14
	c0.01-0.03,0.04-0.07,0.11-0.14c0.03-0.03,0.07-0.07,0.11-0.11c0.04-0.04,0.09-0.08,0.13-0.13L15.95,9.54z M16.77,10.11
	c-0.05-0.14-0.14-0.26-0.22-0.34c-0.04-0.04-0.08-0.09-0.12-0.12c-0.04-0.04-0.07-0.07-0.1-0.1l-0.38,0.33
	c0.04,0.05,0.08,0.09,0.12,0.13c0.04,0.04,0.08,0.07,0.11,0.11c0.07,0.07,0.1,0.12,0.12,0.16L16.77,10.11z M18.13,14.13
	c-0.43-1.35-0.89-2.68-1.36-4.02l-0.47,0.17c0.47,1.33,0.92,2.67,1.35,4.01L18.13,14.13z M18.51,14.39c-0.15,0-0.22-0.02-0.26-0.05
	c-0.04-0.02-0.08-0.07-0.13-0.21l-0.47,0.16c0.06,0.19,0.16,0.36,0.32,0.47c0.16,0.11,0.35,0.14,0.54,0.14V14.39z M22.86,14.39
	c-1.45-0.02-2.91-0.02-4.36,0l0.01,0.5c1.45-0.02,2.9-0.02,4.34,0L22.86,14.39z M23.58,14.63c-0.1-0.04-0.17-0.08-0.3-0.14
	c-0.11-0.05-0.25-0.1-0.41-0.11l-0.02,0.5c0.06,0,0.13,0.02,0.23,0.07c0.08,0.04,0.22,0.1,0.33,0.15L23.58,14.63z M23.24,15.6
	c0.13-0.09,0.21-0.21,0.28-0.31c0.08-0.12,0.11-0.19,0.17-0.27l-0.4-0.29c-0.07,0.09-0.14,0.23-0.19,0.3
	c-0.06,0.09-0.1,0.14-0.15,0.18L23.24,15.6z M19.83,17.99c1.16-0.77,2.29-1.58,3.41-2.39l-0.29-0.41c-1.13,0.81-2.25,1.61-3.4,2.38
	L19.83,17.99z M19.62,18.62c-0.07-0.18-0.07-0.29-0.05-0.35c0.02-0.07,0.08-0.15,0.25-0.27l-0.28-0.41
	c-0.22,0.15-0.38,0.32-0.45,0.54c-0.07,0.22-0.02,0.45,0.06,0.67L19.62,18.62z M20.94,22.52c-0.42-1.3-0.85-2.6-1.31-3.89
	l-0.47,0.17c0.46,1.29,0.89,2.58,1.31,3.88L20.94,22.52z M20.91,23.22c0-0.04,0.01-0.08,0.02-0.13c0.01-0.05,0.02-0.11,0.03-0.16
	c0.02-0.11,0.03-0.25-0.02-0.4l-0.48,0.14c0.01,0.04,0.01,0.1,0,0.19c-0.01,0.05-0.01,0.09-0.02,0.15
	c-0.01,0.05-0.02,0.11-0.02,0.17L20.91,23.22z M19.93,23.23c0.12,0.08,0.26,0.12,0.37,0.14c0.13,0.03,0.21,0.04,0.3,0.06l0.13-0.48
	c-0.1-0.03-0.25-0.05-0.33-0.07c-0.1-0.02-0.16-0.04-0.19-0.07L19.93,23.23z M16.37,20.75c1.17,0.84,2.37,1.67,3.56,2.49l0.28-0.41
	c-1.19-0.81-2.38-1.64-3.55-2.48L16.37,20.75z M15.89,20.75c0.12-0.09,0.19-0.11,0.24-0.11c0.05,0,0.12,0.02,0.24,0.1l0.29-0.41
	c-0.17-0.12-0.34-0.2-0.54-0.19c-0.2,0-0.37,0.09-0.53,0.21L15.89,20.75z M12.29,23.27c1.21-0.82,2.41-1.66,3.6-2.51l-0.29-0.41
	c-1.18,0.85-2.38,1.69-3.59,2.51L12.29,23.27z M11.64,23.43c0.04-0.01,0.08-0.01,0.13-0.02c0.05-0.01,0.1-0.01,0.16-0.02
	c0.1-0.02,0.25-0.04,0.37-0.13l-0.29-0.41c-0.02,0.01-0.06,0.03-0.15,0.04c-0.04,0.01-0.09,0.01-0.14,0.02
	c-0.05,0.01-0.11,0.01-0.17,0.02L11.64,23.43z M11.32,22.54c-0.05,0.14-0.03,0.28-0.02,0.39c0.01,0.05,0.02,0.11,0.03,0.15
	c0.01,0.05,0.01,0.09,0.02,0.13l0.5-0.05c-0.01-0.06-0.02-0.12-0.02-0.17c-0.01-0.05-0.02-0.1-0.02-0.14
	c-0.01-0.09-0.01-0.13,0-0.16L11.32,22.54z M12.67,18.52c-0.47,1.34-0.92,2.67-1.35,4.02l0.48,0.15c0.43-1.34,0.88-2.67,1.34-4.01
	L12.67,18.52z M12.5,18.04c0.13,0.09,0.18,0.16,0.2,0.21c0.02,0.05,0.02,0.13-0.03,0.28l0.47,0.16c0.07-0.2,0.1-0.41,0.03-0.6
	c-0.07-0.2-0.21-0.34-0.39-0.46L12.5,18.04z M8.95,15.54c1.17,0.85,2.36,1.68,3.55,2.5l0.28-0.41c-1.19-0.81-2.37-1.64-3.54-2.49
	L8.95,15.54z M8.58,14.99c0.04,0.07,0.07,0.13,0.13,0.24c0.05,0.09,0.12,0.21,0.23,0.3l0.31-0.4c-0.02-0.02-0.05-0.06-0.1-0.14
	C9.12,14.94,9.06,14.82,9,14.73L8.58,14.99z M9.33,14.4c-0.14,0.01-0.27,0.06-0.37,0.11c-0.11,0.05-0.18,0.09-0.26,0.12l0.18,0.47
	c0.1-0.04,0.22-0.1,0.29-0.14c0.09-0.04,0.14-0.06,0.18-0.06L9.33,14.4z M11.59,14.39c-0.74,0-1.5-0.02-2.25,0.01l0.02,0.5
	c0.75-0.03,1.48-0.01,2.24-0.01V14.39z M19.92,23.4c-1.2-0.85-2.41-1.7-3.64-2.55l-0.29,0.41c1.23,0.86,2.44,1.71,3.63,2.55
	L19.92,23.4z M20.89,23.5c-0.23,0.17-0.57,0.18-0.97-0.1l-0.29,0.41c0.51,0.36,1.09,0.43,1.55,0.09L20.89,23.5z M21.09,22.58
	c0.08,0.24,0.09,0.42,0.06,0.56c-0.03,0.13-0.11,0.25-0.26,0.35l0.29,0.41c0.23-0.16,0.39-0.37,0.45-0.64
	c0.06-0.26,0.03-0.54-0.07-0.84L21.09,22.58z M20.06,19.48c0.35,1.03,0.7,2.07,1.03,3.1l0.48-0.16c-0.34-1.04-0.69-2.07-1.04-3.1
	L20.06,19.48z M20.73,17.52c-0.22,0.16-0.41,0.29-0.54,0.4c-0.14,0.12-0.25,0.24-0.31,0.41c-0.06,0.17-0.05,0.34-0.01,0.51
	c0.04,0.17,0.11,0.38,0.19,0.64l0.47-0.16c-0.09-0.27-0.15-0.45-0.18-0.59c-0.03-0.14-0.02-0.2-0.01-0.24
	c0.02-0.04,0.05-0.1,0.16-0.2c0.11-0.1,0.27-0.21,0.51-0.37L20.73,17.52z M23.5,15.57c-0.92,0.66-1.84,1.29-2.77,1.95l0.29,0.41
	c0.92-0.65,1.86-1.29,2.78-1.95L23.5,15.57z M23.57,14.42c0.23,0.13,0.33,0.32,0.32,0.51c0,0.2-0.12,0.44-0.39,0.64l0.29,0.4
	c0.37-0.27,0.59-0.65,0.59-1.03c0.01-0.39-0.2-0.75-0.59-0.96L23.57,14.42z M22.94,14.29c0.23,0,0.46,0.04,0.62,0.13l0.24-0.44
	c-0.26-0.14-0.59-0.19-0.86-0.19V14.29z M19.01,14.3c1.3-0.04,2.62-0.02,3.93-0.01l0-0.5c-1.31-0.01-2.63-0.03-3.95,0.01L19.01,14.3
	z M18.08,13.63c0.06,0.2,0.15,0.38,0.32,0.51c0.17,0.13,0.38,0.16,0.61,0.16L19,13.8c-0.18,0-0.26-0.03-0.3-0.06
	c-0.04-0.03-0.09-0.1-0.15-0.27L18.08,13.63z M16.86,9.99c0.41,1.21,0.83,2.42,1.22,3.64l0.48-0.15c-0.39-1.22-0.81-2.44-1.22-3.65
	L16.86,9.99z M16.14,9.38c0.21,0,0.34,0.04,0.44,0.12c0.1,0.08,0.2,0.22,0.29,0.49l0.47-0.16c-0.1-0.3-0.24-0.55-0.45-0.72
	c-0.21-0.17-0.47-0.23-0.75-0.23V9.38z M15.41,10c0.09-0.27,0.19-0.41,0.29-0.49c0.1-0.08,0.23-0.12,0.44-0.12v-0.5
	c-0.28,0-0.54,0.06-0.75,0.23c-0.21,0.17-0.34,0.42-0.45,0.72L15.41,10z M14.16,13.72c0.4-1.24,0.82-2.48,1.25-3.72l-0.47-0.16
	c-0.43,1.24-0.85,2.48-1.26,3.73L14.16,13.72z M13.35,14.3c0.19,0.01,0.38-0.02,0.53-0.14c0.15-0.11,0.23-0.28,0.28-0.44l-0.47-0.16
	c-0.05,0.14-0.08,0.18-0.11,0.2c-0.02,0.02-0.07,0.04-0.22,0.04L13.35,14.3z M9.32,14.29c1.35,0,2.68-0.01,4.03,0.01l0.01-0.5
	c-1.35-0.02-2.69-0.01-4.03-0.01V14.29z M8.43,14.79c0.06-0.2,0.15-0.31,0.27-0.38c0.13-0.08,0.32-0.12,0.63-0.12v-0.5
	c-0.35,0-0.64,0.05-0.88,0.19c-0.25,0.15-0.4,0.38-0.49,0.66L8.43,14.79z M8.88,15.65c-0.25-0.17-0.38-0.32-0.44-0.45
	c-0.06-0.12-0.06-0.24-0.01-0.41l-0.48-0.15c-0.08,0.27-0.08,0.52,0.04,0.78c0.12,0.24,0.33,0.45,0.61,0.64L8.88,15.65z M12.11,17.9
	c-1.09-0.73-2.16-1.49-3.23-2.24l-0.29,0.41c1.07,0.75,2.14,1.51,3.24,2.25L12.11,17.9z M12.44,18.86c0.07-0.19,0.1-0.38,0.03-0.56
	c-0.07-0.18-0.21-0.3-0.36-0.4l-0.28,0.41c0.13,0.09,0.16,0.13,0.17,0.16c0.01,0.02,0.02,0.07-0.03,0.22L12.44,18.86z M11.16,22.62
	c0.42-1.26,0.82-2.52,1.27-3.76l-0.47-0.17c-0.45,1.25-0.86,2.52-1.27,3.77L11.16,22.62z M11.28,23.4
	c-0.11-0.12-0.16-0.23-0.17-0.35c-0.02-0.12,0-0.27,0.06-0.43l-0.48-0.15c-0.07,0.21-0.11,0.43-0.08,0.65
	c0.03,0.23,0.13,0.44,0.31,0.63L11.28,23.4z M12,23.58c-0.28,0.08-0.52,0.03-0.71-0.18l-0.36,0.34c0.34,0.36,0.78,0.43,1.21,0.32
	L12,23.58z M12.47,23.31c-0.19,0.13-0.33,0.23-0.48,0.27l0.13,0.48c0.24-0.07,0.47-0.23,0.62-0.33L12.47,23.31z M15.99,20.84
	c-1.19,0.83-2.36,1.65-3.53,2.47l0.29,0.41c1.17-0.82,2.34-1.64,3.53-2.47L15.99,20.84z M13.68,14.65l0.01-0.25l0,0L13.68,14.65z
	 M14.43,14.12l-0.24-0.08l0,0L14.43,14.12z M15.74,10.18l0.24,0.08l0-0.01L15.74,10.18z M16.14,9.71l0.19-0.16l-0.19-0.22
	l-0.19,0.22L16.14,9.71z M16.53,10.19l-0.24,0.08l0,0L16.53,10.19z M17.89,14.21l-0.24,0.08l0,0L17.89,14.21z M18.51,14.64v0.25l0,0
	L18.51,14.64z M22.86,14.64l0.01-0.25l-0.01,0L22.86,14.64z M23.49,14.87l0.2,0.15l0.19-0.27l-0.31-0.12L23.49,14.87z M23.1,15.4
	l-0.14-0.2l0,0L23.1,15.4z M19.69,17.78l-0.14-0.21l0,0L19.69,17.78z M19.39,18.7l0.24-0.08l0,0L19.39,18.7z M20.7,22.59l0.24-0.07
	l0-0.01L20.7,22.59z M20.66,23.19l-0.06,0.24l0.29,0.08l0.03-0.29L20.66,23.19z M20.07,23.03l-0.14,0.21l0,0L20.07,23.03z
	 M16.51,20.54l0.15-0.2l0,0L16.51,20.54z M15.74,20.55l0.15,0.2l0,0L15.74,20.55z M12.15,23.06l-0.14-0.21l0,0L12.15,23.06z
	 M11.6,23.18l-0.25,0.02l0.03,0.27l0.27-0.05L11.6,23.18z M11.56,22.62l0.24,0.08l0,0L11.56,22.62z M12.9,18.61l0.24,0.08l0,0
	L12.9,18.61z M12.64,17.83l-0.14,0.21l0,0L12.64,17.83z M9.09,15.34l-0.15,0.2l0.01,0L9.09,15.34z M8.79,14.86L8.7,14.63l-0.28,0.11
	l0.16,0.26L8.79,14.86z M9.34,14.65L9.33,14.4l0,0L9.34,14.65z M19.77,23.6l-0.14,0.2l0,0L19.77,23.6z M21.04,23.7l-0.14-0.2l0,0
	L21.04,23.7z M21.33,22.5l-0.24,0.08l0,0L21.33,22.5z M20.3,19.4l-0.24,0.08l0,0L20.3,19.4z M20.87,17.72l0.14,0.2l0,0L20.87,17.72z
	 M23.65,15.77l0.15,0.2l0,0L23.65,15.77z M23.68,14.2l-0.12,0.22l0,0L23.68,14.2z M22.94,14.04l0,0.25h0V14.04z M19,14.05l0.01,0.25
	l0,0L19,14.05z M18.32,13.55l-0.24,0.08l0,0L18.32,13.55z M17.1,9.91l-0.24,0.08l0,0L17.1,9.91z M15.18,9.92L15.41,10l0,0
	L15.18,9.92z M13.92,13.64l0.24,0.08l0,0L13.92,13.64z M13.35,14.05l0.01-0.25l0,0L13.35,14.05z M8.19,14.72l-0.24-0.08l0,0
	L8.19,14.72z M8.74,15.86l0.14-0.2l0,0L8.74,15.86z M11.97,18.1l0.14-0.21l0,0L11.97,18.1z M12.2,18.77l0.24,0.08l0,0L12.2,18.77z
	 M10.93,22.54l-0.24-0.08l0,0L10.93,22.54z M11.1,23.57l0.18-0.17l0,0L11.1,23.57z M12.06,23.82l0.07,0.24l0,0L12.06,23.82z
	 M12.61,23.52l0.14,0.21l0.01,0L12.61,23.52z M16.14,21.05l0.14-0.2l-0.14-0.1l-0.14,0.1L16.14,21.05z"/>
<path class="st1" d="M11.59,14.64c-0.75,0-1.49-0.02-2.24,0.01c-0.18,0.01-0.37,0.14-0.55,0.21c0.1,0.16,0.16,0.37,0.3,0.48
	c1.17,0.85,2.35,1.68,3.54,2.49c0.31,0.21,0.38,0.42,0.27,0.78c-0.47,1.33-0.92,2.67-1.35,4.01c-0.05,0.17,0.02,0.37,0.04,0.57
	c0.19-0.04,0.42-0.03,0.56-0.12c1.21-0.82,2.41-1.66,3.59-2.51c0.27-0.2,0.49-0.21,0.77-0.01c1.17,0.84,2.36,1.67,3.55,2.48
	c0.16,0.11,0.39,0.11,0.6,0.17c0.02-0.2,0.09-0.42,0.04-0.6c-0.42-1.3-0.85-2.6-1.31-3.89c-0.15-0.41-0.09-0.65,0.3-0.92
	c1.15-0.77,2.28-1.57,3.41-2.39c0.17-0.12,0.27-0.35,0.39-0.53c-0.21-0.08-0.42-0.22-0.63-0.23c-1.45-0.02-2.9-0.02-4.35,0
	c-0.35,0-0.51-0.11-0.62-0.43c-0.43-1.34-0.89-2.68-1.36-4.01c-0.06-0.19-0.26-0.33-0.39-0.49C16,9.87,15.8,10,15.74,10.18
	c-0.46,1.31-0.9,2.62-1.32,3.93c-0.12,0.38-0.29,0.56-0.74,0.53C13,14.61,12.29,14.64,11.59,14.64z M16.14,21.05
	c-1.19,0.83-2.35,1.65-3.53,2.47c-0.17,0.11-0.36,0.25-0.55,0.3c-0.36,0.1-0.7,0.04-0.96-0.25c-0.29-0.31-0.29-0.66-0.17-1.03
	c0.42-1.25,0.82-2.52,1.27-3.76c0.12-0.34,0.05-0.49-0.23-0.67c-1.09-0.73-2.16-1.49-3.23-2.24c-0.53-0.37-0.69-0.71-0.55-1.14
	c0.16-0.49,0.49-0.68,1.14-0.68c1.35,0,2.68-0.01,4.03,0.01c0.34,0.01,0.47-0.11,0.57-0.41c0.4-1.25,0.82-2.48,1.25-3.72
	c0.19-0.57,0.47-0.79,0.96-0.79c0.49,0,0.77,0.21,0.96,0.78c0.41,1.21,0.83,2.42,1.22,3.64c0.12,0.36,0.27,0.5,0.69,0.49
	c1.31-0.04,2.63-0.02,3.94-0.01c0.25,0,0.53,0.04,0.74,0.16c0.62,0.34,0.6,1.1-0.04,1.57c-0.92,0.66-1.85,1.3-2.78,1.95
	c-0.92,0.65-0.93,0.64-0.58,1.68c0.35,1.03,0.7,2.07,1.03,3.1c0.18,0.54,0.08,0.93-0.29,1.19c-0.35,0.26-0.81,0.22-1.26-0.1
	C18.57,22.75,17.37,21.9,16.14,21.05z"/>
</svg>
