<svg width="32" height="32" viewBox="0 0 32 32" fill="none" xmlns="http://www.w3.org/2000/svg">
<rect width="32" height="32" rx="16" fill="#FF9900" fill-opacity="0.2"/>
<path d="M19.5534 11.1688C19.3883 11.1688 19.2233 11.1688 19.1133 11.1688C16.4175 11.1688 13.7767 11.1688 11.0809 11.1688C9.32039 11.1688 8 12.4342 8 14.1397C8 17.6607 8 21.1818 8 24.7028C8 24.8128 8 24.9229 8.11003 24.9779C8.22006 25.0329 8.3301 24.9779 8.38511 24.8679C9.15534 24.0976 9.92557 23.3274 10.6958 22.5572C10.8058 22.4471 10.9159 22.3921 11.0809 22.3921C12.8414 22.3921 14.6019 22.3921 16.3074 22.4471C16.9676 22.4471 17.6278 22.3921 18.288 22.1721C20.4337 21.4569 21.9191 19.5313 22.0291 17.2206C22.0841 16.1753 22.0841 15.13 22.0841 14.1397C22.0841 14.0847 22.0841 14.0297 22.0841 13.9747C22.0291 13.9747 22.0291 14.0297 22.0291 14.0297C21.8091 14.5248 21.589 15.02 21.3689 15.4601C21.2589 15.6802 21.1489 15.8452 21.0388 16.0653C20.9838 16.1203 20.9838 16.2303 20.9838 16.2853C20.9288 16.6154 20.9288 17.0005 20.9288 17.3306C20.8738 18.1559 20.5987 18.9261 20.1036 19.5863C19.3333 20.5766 18.288 21.1818 17.0227 21.2918C16.5825 21.3468 16.1424 21.2918 15.7573 21.2918C14.1618 21.2918 12.6214 21.2918 11.0259 21.2918C10.6408 21.2918 10.2557 21.4569 9.98058 21.7319C9.7055 22.007 9.48544 22.2271 9.21036 22.5022C9.21036 22.5022 9.15534 22.5572 9.10032 22.5572C9.10032 22.5022 9.10032 22.4471 9.10032 22.4471C9.10032 19.6963 9.10032 16.8905 9.10032 14.1397C9.10032 14.0297 9.10032 13.9196 9.15534 13.8096C9.32039 12.9293 10.0906 12.3242 10.9709 12.3242C12.7314 12.3242 14.5469 12.3242 16.3074 12.3242C17.1877 12.3242 18.0129 12.3242 18.8932 12.3242C18.9482 12.3242 19.0032 12.3242 19.0583 12.2691C19.2233 11.884 19.3333 11.5539 19.5534 11.1688ZM21.3139 9.35329C21.3139 9.40831 21.2589 9.40831 21.2589 9.40831C20.4887 11.1688 19.6634 12.9293 18.8932 14.6899C18.8382 14.7449 18.8382 14.8549 18.8382 14.9099C18.7832 15.6251 18.7282 16.2853 18.6731 17.0005C18.6731 17.0556 18.7282 17.1656 18.7282 17.2206C18.7832 17.1656 18.8932 17.1656 18.9482 17.1106C19.3883 16.6154 19.8285 16.1753 20.2686 15.6802C20.3786 15.5701 20.4887 15.4051 20.5437 15.24C21.3139 13.5345 22.0841 11.829 22.7994 10.1785C22.7994 10.1235 22.8544 10.0685 22.8544 10.0135C22.3592 9.79342 21.8641 9.57336 21.3139 9.35329ZM17.6828 16.8355C17.6828 16.6154 17.7379 16.4504 17.7379 16.2853C15.5372 16.2853 13.3916 16.2853 11.1909 16.2853C11.1909 16.4504 11.1909 16.6704 11.1909 16.8355C13.3916 16.8355 15.5372 16.8355 17.6828 16.8355ZM13.5016 14.7449C14.9871 14.7449 16.4175 14.7449 17.8479 14.7449C17.9029 14.5248 17.9579 14.3598 18.0129 14.1947C16.4725 14.1947 14.9871 14.1947 13.4466 14.1947C13.5016 14.4148 13.5016 14.5798 13.5016 14.7449ZM11.1909 18.9261C12.6214 18.9261 13.9968 18.9261 15.4272 18.9261C15.4272 18.706 15.4272 18.541 15.4272 18.3759C13.9968 18.3759 12.6214 18.3759 11.1909 18.3759C11.1909 18.596 11.1909 18.7611 11.1909 18.9261ZM23.0744 9.57336C23.1845 9.35329 23.2945 9.07821 23.4045 8.85815C23.4595 8.63808 23.4045 8.47303 23.1845 8.41802C22.9094 8.30798 22.6343 8.14294 22.3042 8.0329C22.1392 7.97789 21.9741 7.97789 21.8641 8.14294C21.699 8.363 21.644 8.63808 21.479 8.91316C22.0841 9.13323 22.5793 9.35329 23.0744 9.57336ZM16.0874 18.9261C17.0777 18.9261 18.0129 18.9261 18.9482 18.9261C18.9482 18.706 18.9482 18.541 18.9482 18.3759C17.9579 18.3759 17.0227 18.3759 16.0874 18.3759C16.0874 18.596 16.0874 18.7611 16.0874 18.9261ZM12.8414 14.7449C12.8414 14.5248 12.8414 14.3598 12.8414 14.1947C12.2913 14.1947 11.7411 14.1947 11.1909 14.1947C11.1909 14.4148 11.1909 14.5798 11.1909 14.7449C11.7411 14.7449 12.2913 14.7449 12.8414 14.7449Z" fill="#FF9900"/>
</svg>
