<svg width="12" height="10" viewBox="0 -3 23 35" fill="none" xmlns="http://www.w3.org/2000/svg">
<path d="M20.3681 6.23722C20.3392 6.02902 20.2392 5.83864 20.0865 5.70094C19.9339 5.56325 19.7387
5.48746 19.5367 5.48745H16.3125V5.01304C16.3125 3.6835 15.8055 2.40841 14.903
1.46829C14.0004 0.528158 12.7764 0 11.5 0C10.2236 0 8.99957 0.528158 8.09705
1.46829C7.19453 2.40841 6.6875 3.6835 6.6875 5.01304V5.48745H3.46328C3.26133 5.48746 3.06614
5.56325 2.91347 5.70094C2.76079 5.83864 2.66085 6.02902 2.63194 6.23722L0.0258551
25.0099C-0.0256915 25.3812 3.18624e-05 25.7597 0.10128 26.1197C0.202528 26.4797 0.376932 26.8128
0.612658 27.0964C0.848385 27.38 1.13992 27.6075 1.46748 27.7634C1.79504 27.9193 2.15096 28 2.51109
 28H20.4889C20.849 28 21.205 27.9193 21.5325 27.7634C21.8601 27.6075 22.1516 27.38 22.3873
 27.0964C22.6231 26.8128 22.7975 26.4797 22.8987 26.1197C23 25.7597 23.0257 25.3812 22.9741
 25.0099L20.3681 6.23722ZM8.36749 5.01304C8.36749 4.58453 8.44852 4.16022 8.60594 3.76433C8.76336
  3.36844 8.9941 3.00872 9.28498 2.70572C9.57586 2.40272 9.92119 2.16237 10.3012 1.99838C10.6813
  1.8344 11.0886 1.75 11.5 1.75C11.9114 1.75 12.3187 1.8344 12.6988 1.99838C13.0788 2.16237 13.4241
  2.40272 13.715 2.70572C14.0059 3.00872 14.2366 3.36844 14.3941 3.76433C14.5515 4.16022 14.6325 4.58453 14.6325
  5.01304V5.48745H8.36749V5.01304ZM21.1172 25.9509C21.0416 26.0478 20.9456 26.1251 20.8366 26.177C20.7277 26.2289
   20.6087 26.2538 20.4889 26.25H2.51109C2.39188 26.25 2.27406 26.2233 2.16563 26.1717C2.05721 26.1201 1.96071 26.0448
    1.88269 25.9509C1.80467 25.857 1.74695 25.7467 1.71346 25.6275C1.67997 25.5083 1.67148 25.3831 1.68858 25.2602L4.19056
    7.23723H6.6875V10.2224C6.6875 10.4545 6.776 10.677 6.93353 10.8411C7.09106 11.0052 7.30472 11.0974 7.5275 11.0974C7.75028 11.0974 7.96394 11.0052 8.12147 10.8411C8.279 10.677 8.36749 10.4545 8.36749 10.2224V7.23745H14.6325V10.2226C14.6325 10.4547 14.721 10.6772 14.8785
  10.8413C15.0361 11.0054 15.2497 11.0976 15.4725 11.0976C15.6953 11.0976 15.9089 11.0054 16.0665 10.8413C16.224
   10.6772 16.3125 10.4547 16.3125 10.2226V7.23745H18.8094L21.3114 25.2602C21.3322 25.3831 21.3256 25.5094 21.2919 25.6292C21.2582
25.749 21.1984 25.8591 21.1172 25.9509Z" fill="white"/>
</svg>
