<svg width="18" height="17" viewBox="0 0 18 17" fill="none" xmlns="http://www.w3.org/2000/svg">
<g clip-path="url(#clip0_3125_2460)">
<path d="M5.08179 10.7331C4.76325 11.6175 4.46747 12.5116 4.17248 13.4034C4.05133 13.7696 3.93032 14.1354 3.80792 14.5L3.80791 14.5L3.80739 14.5016C3.74465 14.6972 3.71003 14.8977 3.73484 15.0955C3.75998 15.2959 3.84524 15.4861 4.00951 15.6595C4.31214 15.9816 4.70137 16.0489 5.09494 15.9418L5.09534 15.9417C5.28591 15.8891 5.46671 15.768 5.61963 15.6656C5.64046 15.6517 5.66077 15.6381 5.68052 15.625L5.68055 15.6251L5.1995 10.7751M5.08179 10.7331C5.08183 10.733 5.08186 10.7329 5.0819 10.7328L5.1995 10.7751M5.08179 10.7331C5.08176 10.7332 5.08172 10.7333 5.08169 10.7334L5.1995 10.7751M5.08179 10.7331C5.13765 10.5754 5.13816 10.4881 5.11539 10.4261C5.0918 10.362 5.03316 10.2967 4.90074 10.2072M5.1995 10.7751C5.31857 10.4393 5.2453 10.2891 4.97053 10.1035M4.90074 10.2072L4.97053 10.1035M4.90074 10.2072C4.90068 10.2072 4.90063 10.2071 4.90057 10.2071L4.97053 10.1035M4.90074 10.2072C4.00947 9.60742 3.13031 8.98982 2.25459 8.37463C2.0582 8.23667 1.86199 8.09883 1.66585 7.96135C1.3926 7.77042 1.20078 7.57861 1.09917 7.36598C0.994893 7.14776 0.992325 6.92201 1.06876 6.68108L1.06887 6.68075C1.15357 6.41635 1.29077 6.21768 1.50622 6.08906C1.71728 5.96305 1.98848 5.91342 2.32361 5.91342C2.66004 5.91342 2.99606 5.91287 3.33191 5.91232C4.33905 5.91066 5.34468 5.909 6.35516 5.92227L6.35678 5.92229C6.51387 5.9264 6.59733 5.90075 6.65181 5.85995C6.7078 5.818 6.75479 5.74416 6.80264 5.60166M6.80264 5.60166C6.80257 5.60187 6.80251 5.60208 6.80244 5.60228L6.92137 5.64075L6.80286 5.60101C6.80279 5.60123 6.80271 5.60144 6.80264 5.60166Z" fill="#FF9900" stroke="#FF9900" stroke-width="0.25"/>
</g>
<defs>
<clipPath id="clip0_3125_2460">
<rect width="18" height="17" fill="white"/>
</clipPath>
</defs>
</svg>
