<svg width="16" height="19" viewBox="0 0 16 19" fill="none" xmlns="http://www.w3.org/2000/svg">
<g clip-path="url(#clip0_2027_1414)">
<path d="M4.16083e-07 15.8903C4.35501e-07 16.1124 4.54754e-07 16.3326 4.74172e-07 16.5548C0.155103 17.0484 0.534694 17.3635 0.981633 17.6236C1.18163 17.7413 1.39184 17.8495 1.60612 17.9407C3.02245 18.5368 4.53061 18.776 6.06327 18.9089C6.44898 18.943 6.83469 18.9582 7.22245 18.981C7.22245 18.9829 7.22245 18.9848 7.22245 18.9848C7.66735 19.0019 8.19592 19.0076 8.7898 18.9848C9.00612 18.9772 9.55714 18.9374 10.298 18.8709C11.1571 18.795 12.0061 18.6564 12.8408 18.4494C13.5633 18.2691 14.2694 18.0432 14.9122 17.6787C15.4163 17.392 15.8653 17.0579 16 16.4788C16 16.3459 16 16.213 16 16.0801C15.9939 16.0498 15.9837 16.0194 15.9816 15.989C15.951 15.5353 15.8653 15.091 15.698 14.6658C14.9367 12.7407 13.4755 11.5637 11.3163 11.1384C11.2429 11.1232 11.1918 11.1346 11.1306 11.1764C10.2918 11.7402 9.35714 12.0421 8.32041 12.0573C7.84082 12.0649 7.36327 12.0724 6.88776 11.9889C6.13469 11.8579 5.45102 11.5807 4.83265 11.1631C4.80204 11.1422 4.74898 11.1251 4.71429 11.1327C4.45102 11.1897 4.17959 11.2333 3.92653 11.3168C2.24286 11.8769 1.63061 12.6059 1.37143 12.8812C0.248981 14.081 0.0469393 15.41 4.16083e-07 15.8903Z" fill="white"/>
<path d="M7.61352 6.5121e-07C7.4523 0.0189855 7.29107 0.0341733 7.12985 0.0550567C6.00536 0.193646 4.98903 0.582835 4.08903 1.22452C2.8523 2.10732 2.04413 3.2559 1.69311 4.67027C1.61148 4.9987 1.58699 5.33663 1.53189 5.67077C1.52577 5.70684 1.49719 5.7524 1.46454 5.76949C1.10536 5.97642 0.921684 6.27448 0.921684 6.66747C0.919643 7.31675 0.919643 7.96413 0.921684 8.61341C0.921684 9.09373 1.25638 9.48671 1.75638 9.59493C2.02985 9.65378 2.2972 9.6253 2.54617 9.5C2.5972 9.47532 2.62985 9.46963 2.68087 9.5038C3.3176 9.91957 4.03189 10.1569 4.79107 10.2879C5.02168 10.3277 5.25434 10.3467 5.48699 10.3809C5.52373 10.3866 5.56862 10.4113 5.59107 10.4379C5.72985 10.6144 5.91148 10.7055 6.14617 10.7055C6.4176 10.7055 6.69107 10.7055 6.9625 10.7055C7.32985 10.7036 7.61352 10.4435 7.61352 10.1094C7.61352 9.77528 7.32985 9.51329 6.9625 9.51329C6.68699 9.51139 6.41148 9.51329 6.13597 9.51329C5.93393 9.51329 5.76862 9.58733 5.63189 9.72402C5.60332 9.7525 5.54617 9.77908 5.50536 9.77528C4.65434 9.69555 3.84617 9.48861 3.11964 9.05006C3.0523 9.01019 3.04413 8.97602 3.0625 8.90578C3.08903 8.80895 3.10536 8.70644 3.10536 8.60772C3.10944 7.95654 3.1074 7.30346 3.1074 6.65228C3.1074 6.27258 2.92985 5.98401 2.58495 5.78657C2.52985 5.7543 2.51964 5.72392 2.52373 5.66507C2.67474 3.48751 4.35434 1.59662 6.65434 1.07834C8.5074 0.660672 10.1788 1.04417 11.6217 2.20604C12.5972 2.99201 13.1768 3.9963 13.4013 5.17526C13.4319 5.34043 13.4441 5.50749 13.4666 5.67456C13.4727 5.72392 13.4564 5.7524 13.4074 5.78088C13.0543 5.98211 12.8747 6.27448 12.8747 6.66177C12.8747 7.31105 12.8747 7.95843 12.8747 8.60771C12.8747 9.15827 13.289 9.57404 13.8829 9.6215C14.4564 9.66707 14.9564 9.30825 15.0523 8.77668C15.0625 8.71783 15.0625 8.65707 15.0625 8.59632C15.0625 7.95464 15.0625 7.31105 15.0625 6.66936C15.0625 6.27068 14.8788 5.97262 14.5135 5.76759C14.4829 5.7505 14.4523 5.70683 14.4503 5.67456C14.3401 4.08173 13.6625 2.73381 12.4217 1.63649C11.4952 0.816347 10.3931 0.303757 9.13393 0.0949246C8.90944 0.056955 8.68291 0.0417671 8.45638 0.0151884C8.43393 0.0132899 8.41148 0.00379754 8.38903 5.83413e-07C8.12985 6.06072e-07 7.8727 6.28552e-07 7.61352 6.5121e-07Z" fill="white"/>
<path d="M7.5616 11.0662C7.75343 11.0719 7.94731 11.089 8.13915 11.0795C8.97996 11.0415 9.71466 10.7454 10.3575 10.2499C11.3779 9.46011 11.9963 8.44632 12.2187 7.23319C12.5963 5.17144 11.2289 3.2179 9.05343 2.68823C6.74119 2.12438 4.32894 3.49508 3.81466 5.66695C3.55139 6.77946 3.78813 7.81792 4.35752 8.80513C4.54731 9.13547 4.55139 9.13357 4.94323 9.20571C4.96976 9.21141 4.99629 9.21521 5.02282 9.2209C5.21874 9.26267 5.40241 9.29304 5.58609 9.15446C5.72282 9.05004 5.91058 9.02726 6.09017 9.02536C6.43303 9.02346 6.77792 9.01776 7.11874 9.03675C7.6167 9.06523 8.06364 9.49428 8.1269 9.95561C8.17997 10.3581 7.99833 10.7815 7.5616 11.0662Z" fill="white"/>
</g>
<defs>
<clipPath id="clip0_2027_1414">
<rect width="16" height="19" fill="white" transform="matrix(-1 8.74228e-08 8.74228e-08 1 16 0)"/>
</clipPath>
</defs>
</svg>
