<svg width="32" height="32" viewBox="0 0 32 32" fill="none" xmlns="http://www.w3.org/2000/svg">
<rect width="32" height="32" rx="16" fill="#FF9900" fill-opacity="0.2"/>
<path d="M12.1562 21.3796C12.4425 21.3635 12.7005 21.3473 12.9585 21.3393C12.9988 21.3393 13.0592 21.3876 13.0834 21.4279C13.3092 21.8754 13.6639 22.077 14.1718 22.077C16.4777 22.0689 18.7795 22.0729 21.0853 22.0729C21.7908 22.0729 22.2382 21.6456 22.2382 20.9361C22.2422 18.0055 22.2382 15.0788 22.2342 12.1482C22.2342 11.8499 22.2019 11.5596 21.9963 11.3137C21.8109 11.092 21.5811 10.959 21.2869 10.9388C21.1659 10.9308 21.045 10.9187 20.912 10.9106C20.912 10.6083 20.912 10.318 20.912 9.99957C21.3312 9.97135 21.7343 10.0197 22.1052 10.2455C22.7905 10.6607 23.117 11.2815 23.117 12.0756C23.121 13.9017 23.121 15.7319 23.117 17.558C23.117 18.7271 23.121 19.8961 23.109 21.0651C23.1009 22.0205 22.4277 22.8026 21.4924 22.98C21.3876 23.0001 21.2788 23.0001 21.17 23.0001C18.7916 23.0001 16.4132 23.0041 14.0348 23.0001C13.164 23.0001 12.3739 22.3672 12.1724 21.5247C12.1643 21.4723 12.1603 21.4199 12.1562 21.3796Z" fill="#FF9900"/>
<path d="M9.00179 14.8854C9.00179 14.7443 8.99776 14.6032 9.00179 14.4621C9.00985 13.8735 9.34847 13.4986 9.93299 13.4583C10.7876 13.3978 11.5696 13.1399 12.2832 12.6601C12.6621 12.4062 13.0572 12.4425 13.4321 12.7005C13.94 13.0552 14.4963 13.2971 15.109 13.3938C15.359 13.4341 15.6169 13.4422 15.8669 13.4906C16.2902 13.5631 16.6207 13.9259 16.6207 14.3452C16.6207 16.6228 15.9314 18.6021 14.0488 20.0251C13.7344 20.2629 13.3716 20.4645 13.0047 20.6056C12.8274 20.6741 12.5573 20.6217 12.3678 20.5371C10.4611 19.6421 9.39282 18.1224 9.08645 16.0504C9.0542 15.8367 9.03001 15.6231 9.01792 15.4094C9.00582 15.2361 9.01389 15.0587 9.01389 14.8854C9.00985 14.8854 9.00582 14.8854 9.00179 14.8854ZM9.80803 14.8974C9.81206 15.5102 9.88462 16.1149 10.0499 16.7074C10.4409 18.1184 11.3157 19.1221 12.6178 19.7711C12.7629 19.8437 12.8878 19.8356 13.0289 19.7469C13.69 19.3438 14.2625 18.844 14.714 18.2151C15.488 17.1388 15.7621 15.9093 15.8145 14.6153C15.8266 14.2928 15.8104 14.2726 15.492 14.2525C14.585 14.196 13.7586 13.9098 13.0168 13.3938C12.8758 13.2971 12.775 13.3213 12.6339 13.3938C12.1985 13.6155 11.7712 13.8574 11.3117 14.0186C10.9166 14.1557 10.4893 14.192 10.0741 14.2565C9.90881 14.2847 9.78787 14.3129 9.80803 14.5185C9.82012 14.6435 9.80803 14.7725 9.80803 14.8974Z" fill="#FF9900"/>
<path d="M16.3521 9.50373C16.5576 8.45563 17.0454 7.99204 17.896 8.0001C18.6821 8.0122 19.1819 8.51609 19.3553 9.50373C19.4762 9.50373 19.6012 9.50373 19.7261 9.50373C20.1535 9.50776 20.4477 9.80204 20.4518 10.2253C20.4518 10.447 20.4558 10.6687 20.4518 10.8905C20.4437 11.2815 20.1535 11.5838 19.7665 11.5878C18.4926 11.5919 17.2147 11.5919 15.9368 11.5878C15.5458 11.5878 15.2636 11.2815 15.2596 10.8864C15.2556 10.6647 15.2596 10.443 15.2596 10.2213C15.2636 9.80607 15.5498 9.51179 15.9651 9.50373C16.09 9.4997 16.215 9.50373 16.3521 9.50373ZM18.6458 9.49567C18.6377 9.17317 18.5168 8.92727 18.2467 8.78215C17.9444 8.61687 17.638 8.63703 17.3598 8.84665C17.1502 9.00387 17.0535 9.21752 17.0696 9.49164C17.5977 9.49567 18.1096 9.49567 18.6458 9.49567Z" fill="#FF9900"/>
<path d="M14.6562 20.2952C14.878 20.0735 15.0795 19.8598 15.2932 19.6583C15.3335 19.618 15.4141 19.6059 15.4746 19.6059C17.1596 19.6018 18.8446 19.6018 20.5297 19.6059C20.7796 19.6059 20.9328 19.7389 20.9368 19.9485C20.9449 20.1622 20.7917 20.3234 20.5539 20.3234C18.6068 20.3274 16.6597 20.3234 14.7127 20.3234C14.7046 20.3234 14.6925 20.3154 14.6562 20.2952Z" fill="#FF9900"/>
<path d="M16.25 18.2917C16.3467 18.07 16.4193 17.8684 16.5241 17.683C16.5564 17.6225 16.6733 17.5822 16.7499 17.5782C17.9632 17.5701 19.1766 17.5741 20.394 17.5741C20.4868 17.5741 20.5835 17.5741 20.6722 17.5943C20.8536 17.6346 20.9423 17.7636 20.9383 17.945C20.9383 18.1304 20.8375 18.2433 20.6561 18.2836C20.6037 18.2957 20.5513 18.2997 20.4989 18.2997C19.1323 18.2997 17.7617 18.2997 16.3951 18.2997C16.3548 18.3078 16.3145 18.2997 16.25 18.2917Z" fill="#FF9900"/>
<path d="M16.9453 16.2721C16.9776 16.0383 17.0017 15.8327 17.0461 15.6311C17.0542 15.5948 17.1307 15.5545 17.1791 15.5545C18.3119 15.5505 19.4446 15.5465 20.5814 15.5505C20.7911 15.5505 20.9402 15.7158 20.9442 15.9052C20.9483 16.1028 20.8233 16.264 20.6177 16.268C19.4043 16.2761 18.1909 16.2721 16.9453 16.2721Z" fill="#FF9900"/>
<path d="M17.1332 14.2122C17.0405 13.9662 16.9559 13.7365 16.8672 13.4906C16.9922 13.4906 17.1091 13.4906 17.23 13.4906C18.3224 13.4906 19.4189 13.4906 20.5114 13.4906C20.8298 13.4906 21.0314 13.7324 20.9064 13.9783C20.854 14.0791 20.7129 14.2001 20.6121 14.2001C19.4471 14.2202 18.2902 14.2122 17.1332 14.2122Z" fill="#FF9900"/>
<path d="M14.3215 10.0157C14.3215 10.31 14.3215 10.6002 14.3215 10.9187C13.6886 10.9026 13.1847 11.1001 13.0114 11.7934C12.7211 11.7934 12.4309 11.7934 12.1406 11.7934C12.1688 10.7453 13.2492 9.84639 14.3215 10.0157Z" fill="#FF9900"/>
<path d="M12.0923 18.0055C11.9592 17.9249 11.8101 17.8886 11.7536 17.7959C11.4997 17.3887 11.2618 16.9654 11.0401 16.5422C10.9998 16.4656 11.0442 16.3446 11.0522 16.2439C11.153 16.2559 11.2739 16.2318 11.3465 16.2842C11.5642 16.4253 11.7738 16.5865 11.9673 16.7598C12.0761 16.8526 12.1406 16.8526 12.2575 16.7639C12.8058 16.3325 13.3621 15.9093 13.9224 15.4941C14.0675 15.3852 14.2288 15.2965 14.39 15.2199C14.4465 15.1917 14.5271 15.2159 14.5956 15.2199C14.5916 15.2885 14.6117 15.3772 14.5795 15.4255C14.4545 15.6069 14.3215 15.7843 14.1724 15.9496C13.616 16.5583 13.0557 17.163 12.4833 17.7636C12.3825 17.8604 12.2334 17.9168 12.0923 18.0055Z" fill="#FF9900"/>
</svg>
