<svg xmlns="http://www.w3.org/2000/svg" viewBox="0 0 97.88 82.33"><title>Work</title><g id="Layer_2" ><g id="Layer_1-2"><path d="M85.69,20H12.19C7.11,20,3,23.76,3,28.44V70.85c0,4.68,4.11,8.48,9.19,8.48h73.5c5.08,0,9.19-3.8,9.19-8.48V28.44C94.88,23.76,90.77,20,85.69,20Z" fill="none" stroke="#f8991d" stroke-linecap="round" stroke-linejoin="round" stroke-width="6"/><path d="M67.35,79.33V11.48a8.18,8.18,0,0,0-2.69-6A9.6,9.6,0,0,0,58.16,3H39.78a9.62,9.62,0,0,0-6.5,2.48,8.18,8.18,0,0,0-2.69,6V79.33" fill="none" stroke="#f8991d" stroke-linecap="round" stroke-linejoin="round" stroke-width="6"/></g></g></svg>