<svg width="32" height="32" viewBox="0 0 32 32" fill="none" xmlns="http://www.w3.org/2000/svg">
<rect width="32" height="32" rx="16" fill="#FF9900" fill-opacity="0.2"/>
<path d="M15.9797 12.2625C16.2495 11.8875 16.4798 11.5256 16.7495 11.1967C17.6246 10.1373 19.0721 9.7294 20.4473 10.1834C21.8553 10.6505 22.7238 11.6375 22.9475 13.1113C23.1449 14.447 22.7172 15.6642 22.1185 16.8288C21.2763 18.4605 20.0985 19.8488 18.855 21.1779C18.0128 22.0793 17.1246 22.9478 16.2692 23.8427C16.0916 24.0269 15.9468 24.0664 15.7494 23.869C14.2229 22.3228 12.6702 20.8095 11.3411 19.0856C10.387 17.8486 9.55142 16.5459 9.1698 14.9997C8.88688 13.8351 8.91319 12.71 9.59089 11.6506C10.8673 9.65044 14.2558 9.22934 15.7165 11.8217C15.7955 11.9599 15.881 12.0981 15.9797 12.2625Z" stroke="#FF9900"/>
</svg>
