<svg width="32" height="32" viewBox="0 0 32 32" fill="none" xmlns="http://www.w3.org/2000/svg">
<rect width="32" height="32" rx="16" fill="#FF9900" fill-opacity="0.2"/>
<path d="M12.9598 11.0752H12.9618C12.8913 11.3204 12.8258 11.5449 12.7323 11.7761L12.7321 11.7765C12.4789 12.4054 12.7157 13.1048 13.3249 13.4849C13.8802 13.8332 14.6196 13.8332 15.1749 13.4849C15.7841 13.1048 16.0209 12.4054 15.7676 11.7765L15.7675 11.7761C15.6764 11.5507 15.6132 11.3334 15.5408 11.0837H15.541H15.5463H15.5516H15.5569H15.5622H15.5675H15.5728H15.5781H15.5834H15.5887H15.594H15.5993H15.6046H15.6099H15.6152H15.6205H15.6257H15.631H15.6363H15.6416H15.6469H15.6521H15.6574H15.6627H15.6679H15.6732H15.6785H15.6837H15.689H15.6943H15.6995H15.7048H15.71H15.7153H15.7206H15.7258H15.7311H15.7363H15.7416H15.7468H15.7521H15.7573H15.7625H15.7678H15.773H15.7783H15.7835H15.7887H15.794H15.7992H15.8044H15.8097H15.8149H15.8201H15.8253H15.8306H15.8358H15.841H15.8462H15.8515H15.8567H15.8619H15.8671H15.8723H15.8775H15.8828H15.888H15.8932H15.8984H15.9036H15.9088H15.914H15.9192H15.9244H15.9296H15.9348H15.94H15.9452H15.9504H15.9556H15.9608H15.966H15.9712H15.9764H15.9816H15.9868H15.992H15.9972H16.0024H16.0076H16.0128H16.018H16.0232H16.0283H16.0335H16.0387H16.0439H16.0491H16.0543H16.0595H16.0646H16.0698H16.075H16.0802H16.0854H16.0905H16.0957H16.1009H16.1061H16.1113H16.1164H16.1216H16.1268H16.132H16.1371H16.1423H16.1475H16.1527H16.1578H16.163H16.1682H16.1734H16.1785H16.1837H16.1889H16.1941H16.1992H16.2044H16.2096H16.2147H16.2199H16.2251H16.2302H16.2354H16.2406H16.2458H16.2509H16.2561H16.2613H16.2664H16.2716H16.2768H16.2819H16.2871H16.2923H16.2974H16.3026H16.3078H16.313H16.3181H16.3233H16.3285H16.3336H16.3388H16.344H16.3491H16.3543H16.3595H16.3646H16.3698H16.375H16.3802H16.3853H16.3905H16.3957H16.4008H16.406H16.4112H16.4164H16.4215H16.4267H16.4319H16.437H16.4422H16.4474H16.4526H16.4577H16.4629H16.4681H16.4733H16.4784H16.4836H16.4888H16.494H16.4992H16.5043H16.5095H16.5147H16.5199H16.5251H16.5302H16.5354H16.5406H16.5458H16.551H16.5562H16.5613H16.5665H16.5717H16.5769H16.5821H16.5873H16.5925H16.5977H16.6028H16.608H16.6132H16.6184H16.6236H16.6288H16.634H16.6392H16.6444H16.6496H16.6548H16.66H16.6652H16.6704H16.6756H16.6808H16.686H16.6912H16.6964H16.7016H16.7069H16.7121H16.7173H16.7225H16.7277H16.7329H16.7381H16.7433H16.7486H16.7538H16.759H16.7642H16.7695H16.7747H16.7799H16.7851H16.7904H16.7956H16.8008H16.806H16.8113H16.8165H16.8217H16.827H16.8322H16.8375H16.8427H16.8479H16.8532H16.8584H16.8637H16.8689H16.8742H16.8794H16.8847H16.8899H16.8952H16.9005H16.9057H16.911H16.9162H16.9215H16.9268H16.932H16.9373H16.9426H16.9478H16.9531H16.9584H16.9637H16.969H16.9742H16.9795H16.9848H16.9901H16.9954H17.0007H17.006H17.0112H17.0165H17.0218H17.0271H17.0324H17.0377H17.043H17.0483H17.0537H17.059H17.0643H17.0696H17.0749H17.0802H17.0855H17.0909H17.0962H17.1015H17.1068H17.1122H17.1175H17.1228H17.1282H17.1335H17.1389H17.1442H17.1495H17.1549H17.1602H17.1656H17.171H17.1763H17.1817H17.187H17.1924H17.1978H17.2031H17.2085H17.2139H17.2192H17.2246H17.23H17.2354H17.2408H17.2462H17.2515H17.2569H17.2623H17.2677H17.2731H17.2785H17.2839H17.2893H17.2947H17.3002H17.3013C17.2931 11.1261 17.2853 11.1659 17.2778 11.202C17.2411 11.3778 17.2003 11.5276 17.138 11.6631C16.8513 12.2599 16.9483 12.9998 17.559 13.4446L17.559 13.4446L17.5622 13.4469C18.1374 13.8566 18.8933 13.8884 19.505 13.5229C20.1567 13.1336 20.3508 12.4142 20.0943 11.7766L20.0941 11.7761C20.0299 11.6172 19.9847 11.4471 19.9392 11.2489C19.9272 11.1966 19.9149 11.1414 19.9022 11.084C19.9006 11.0767 19.899 11.0695 19.8974 11.0622C19.9515 11.0613 20.0044 11.0604 20.0563 11.0594C20.5023 11.0514 20.8737 11.0446 21.25 11.0878C21.2538 11.0895 21.2604 11.0928 21.2699 11.0985C21.2944 11.1133 21.3247 11.1365 21.3552 11.1663C21.3857 11.196 21.4098 11.2259 21.4252 11.25C21.4307 11.2585 21.434 11.2646 21.4359 11.2683C21.5803 12.2031 21.6813 13.1437 21.7834 14.0953C21.8003 14.2527 21.8172 14.4104 21.8344 14.5684L21.8344 14.5684L21.8347 14.571C21.9304 15.3993 22.0261 16.2298 22.1218 17.0604L22.1221 17.0631C22.2179 17.8943 22.3137 18.7255 22.4095 19.5547C22.4342 19.7783 22.4599 19.9985 22.4854 20.217C22.5335 20.6295 22.581 21.0363 22.6203 21.4503C22.6244 21.504 22.618 21.5329 22.6139 21.5452C22.6107 21.5547 22.6079 21.5578 22.6037 21.5616C22.589 21.5744 22.52 21.6176 22.3226 21.6213C21.8421 21.6269 21.3685 21.625 20.89 21.6231C20.6484 21.6222 20.4055 21.6212 20.1599 21.6212H20.1417H20.1236H20.1055H20.0873H20.0692H20.051H20.0329H20.0148H19.9966H19.9785H19.9603H19.9422H19.9241H19.9059H19.8878H19.8697H19.8515H19.8334H19.8152H19.7971H19.779H19.7608H19.7427H19.7246H19.7064H19.6883H19.6701H19.652H19.6339H19.6157H19.5976H19.5795H19.5613H19.5432H19.5251H19.5069H19.4888H19.4707H19.4525H19.4344H19.4163H19.3981H19.38H19.3619H19.3437H19.3256H19.3075H19.2893H19.2712H19.2531H19.2349H19.2168H19.1987H19.1805H19.1624H19.1443H19.1262H19.108H19.0899H19.0718H19.0536H19.0355H19.0174H18.9992H18.9811H18.963H18.9449H18.9267H18.9086H18.8905H18.8724H18.8542H18.8361H18.818H18.7998H18.7817H18.7636H18.7455H18.7273H18.7092H18.6911H18.673H18.6548H18.6367H18.6186H18.6005H18.5823H18.5642H18.5461H18.528H18.5098H18.4917H18.4736H18.4555H18.4373H18.4192H18.4011H18.383H18.3648H18.3467H18.3286H18.3105H18.2923H18.2742H18.2561H18.238H18.2199H18.2017H18.1836H18.1655H18.1474H18.1292H18.1111H18.093H18.0749H18.0568H18.0386H18.0205H18.0024H17.9843H17.9662H17.948H17.9299H17.9118H17.8937H17.8756H17.8574H17.8393H17.8212H17.8031H17.785H17.7668H17.7487H17.7306H17.7125H17.6944H17.6762H17.6581H17.64H17.6219H17.6038H17.5857H17.5675H17.5494H17.5313H17.5132H17.4951H17.4769H17.4588H17.4407H17.4226H17.4045H17.3864H17.3682H17.3501H17.332H17.3139H17.2958H17.2777H17.2595H17.2414H17.2233H17.2052H17.1871H17.169H17.1508H17.1327H17.1146H17.0965H17.0784H17.0603H17.0422H17.024H17.0059H16.9878H16.9697H16.9516H16.9335H16.9153H16.8972H16.8791H16.861H16.8429H16.8248H16.8067H16.7885H16.7704H16.7523H16.7342H16.7161H16.698H16.6799H16.6617H16.6436H16.6255H16.6074H16.5893H16.5712H16.5531H16.5349H16.5168H16.4987H16.4806H16.4625H16.4444H16.4263H16.4082H16.39H16.3719H16.3538H16.3357H16.3176H16.2995H16.2814H16.2632H16.2451H16.227H16.2089H16.1908H16.1727H16.1546H16.1365H16.1183H16.1002H16.0821H16.064H16.0459H16.0278H16.0097H15.9916H15.9734H15.9553H15.9372H15.9191H15.901H15.8829H15.8648H15.8467H15.8285H15.8104H15.7923H15.7742H15.7561H15.738H15.7199H15.7018H15.6836H15.6655H15.6474H15.6293H15.6112H15.5931H15.575H15.5569H15.5387H15.5206H15.5025H15.4844H15.4663H15.4482H15.4301H15.412H15.3938H15.3757H15.3576H15.3395H15.3214H15.3033H15.2852H15.2671H15.249H15.2308H15.2127H15.1946H15.1765H15.1584H15.1403H15.1222H15.1041H15.0859H15.0678H15.0497H15.0316H15.0135H14.9954H14.9773H14.9592H14.941H14.9229H14.9048H14.8867H14.8686H14.8505H14.8324H14.8142H14.7961H14.778H14.7599H14.7418H14.7237H14.7056H14.6875H14.6693H14.6512H14.6331H14.615H14.5969H14.5788H14.5607H14.5426H14.5244H14.5063H14.4882H14.4701H14.452H14.4339H14.4158H14.3976H14.3795H14.3614H14.3433H14.3252H14.3071H14.289H14.2708H14.2527H14.2346H14.2165H14.1984H14.1803H14.1622H14.144H14.1259H14.1078H14.0897H14.0716H14.0535H14.0353H14.0172H13.9991H13.981H13.9629H13.9448H13.9267H13.9085H13.8904H13.8723H13.8542H13.8361H13.818H13.7998H13.7817H13.7636H13.7455H13.7274H13.7093H13.6911H13.673H13.6549H13.6368H13.6187H13.6006H13.5824H13.5643H13.5462H13.5281H13.51H13.4919H13.4737H13.4556H13.4375H13.4194H13.4013H13.3831H13.365H13.3469H13.3288H13.3107H13.2926H13.2744H13.2563H13.2382H13.2201H13.202H13.1838H13.1657H13.1476H13.1295H13.1114H13.0932H13.0751H13.057H13.0389H13.0208H13.0026H12.9845H12.9664H12.9483H12.9301H12.912H12.8939H12.8758H12.8577H12.8395H12.8214H12.8033H12.7852H12.767H12.7489H12.7308H12.7127H12.6946H12.6764H12.6583H12.6402H12.6221H12.6039H12.5858H12.5677H12.5496H12.5314H12.5133H12.4952H12.4771H12.4589H12.4408H12.4227H12.4046H12.3864H12.3683H12.3502H12.3321H12.3139H12.2958H12.2777H12.2596H12.2414H12.2233H12.2052H12.187H12.1689H12.1508H12.1327H12.1145H12.0964H12.0783H12.0602H12.042H12.0239H12.0058H11.9876H11.9695H11.9514H11.9332H11.9151H11.897H11.8789H11.8607H11.8426H11.8245H11.8063H11.7882H11.7701H11.7519H11.7338H11.7157H11.6975H11.6794H11.6613H11.6431H11.625H11.6069H11.5887H11.5706H11.5525H11.5343H11.5162H11.4981H11.4799H11.4618H11.4437H11.4255H11.4074H11.3893H11.3711H11.353H11.3349H11.3167H11.2986H11.2804H11.2623H11.2442H11.226H11.2079H11.1898H11.1716H11.1535H11.1353H11.1172H11.0991H11.0809H11.0628H11.0446H11.0265H11.0084H10.9902H10.9721H10.9539H10.9358H10.9177H10.8995H10.8814C10.7017 21.6212 10.5775 21.6113 10.4915 21.5938C10.4258 21.5804 10.3989 21.5659 10.391 21.5608C10.3837 21.5453 10.3617 21.4752 10.3866 21.2562C10.5479 19.8489 10.7118 18.4415 10.8757 17.0338L10.8757 17.0336C11.0396 15.6259 11.2035 14.2179 11.3649 12.8099L11.365 12.8089C11.3992 12.503 11.4247 12.1925 11.4496 11.8886C11.4618 11.7398 11.4739 11.5925 11.4869 11.4482L11.4869 11.4473C11.511 11.1708 11.5586 11.1369 11.561 11.1351C11.561 11.1351 11.561 11.1351 11.5611 11.1351C11.5662 11.131 11.5909 11.1136 11.6678 11.0988C11.7466 11.0836 11.8584 11.0752 12.021 11.0752H12.0233H12.0255H12.0278H12.03H12.0323H12.0345H12.0367H12.039H12.0412H12.0435H12.0457H12.048H12.0502H12.0525H12.0547H12.057H12.0592H12.0615H12.0637H12.066H12.0682H12.0705H12.0727H12.075H12.0772H12.0795H12.0817H12.084H12.0862H12.0885H12.0907H12.093H12.0952H12.0975H12.0998H12.102H12.1043H12.1065H12.1088H12.111H12.1133H12.1155H12.1178H12.12H12.1223H12.1245H12.1268H12.1291H12.1313H12.1336H12.1358H12.1381H12.1403H12.1426H12.1449H12.1471H12.1494H12.1516H12.1539H12.1561H12.1584H12.1607H12.1629H12.1652H12.1674H12.1697H12.1719H12.1742H12.1765H12.1787H12.181H12.1832H12.1855H12.1878H12.19H12.1923H12.1945H12.1968H12.1991H12.2013H12.2036H12.2059H12.2081H12.2104H12.2126H12.2149H12.2172H12.2194H12.2217H12.2239H12.2262H12.2285H12.2307H12.233H12.2353H12.2375H12.2398H12.2421H12.2443H12.2466H12.2488H12.2511H12.2534H12.2556H12.2579H12.2602H12.2624H12.2647H12.267H12.2692H12.2715H12.2738H12.276H12.2783H12.2806H12.2828H12.2851H12.2874H12.2896H12.2919H12.2942H12.2964H12.2987H12.301H12.3032H12.3055H12.3078H12.31H12.3123H12.3146H12.3168H12.3191H12.3214H12.3236H12.3259H12.3282H12.3304H12.3327H12.335H12.3373H12.3395H12.3418H12.3441H12.3463H12.3486H12.3509H12.3531H12.3554H12.3577H12.3599H12.3622H12.3645H12.3668H12.369H12.3713H12.3736H12.3758H12.3781H12.3804H12.3827H12.3849H12.3872H12.3895H12.3917H12.394H12.3963H12.3986H12.4008H12.4031H12.4054H12.4076H12.4099H12.4122H12.4145H12.4167H12.419H12.4213H12.4235H12.4258H12.4281H12.4304H12.4326H12.4349H12.4372H12.4395H12.4417H12.444H12.4463H12.4485H12.4508H12.4531H12.4554H12.4576H12.4599H12.4622H12.4645H12.4667H12.469H12.4713H12.4736H12.4758H12.4781H12.4804H12.4826H12.4849H12.4872H12.4895H12.4917H12.494H12.4963H12.4986H12.5008H12.5031H12.5054H12.5077H12.5099H12.5122H12.5145H12.5168H12.519H12.5213H12.5236H12.5259H12.5281H12.5304H12.5327H12.535H12.5372H12.5395H12.5418H12.5441H12.5463H12.5486H12.5509H12.5532H12.5554H12.5577H12.56H12.5623H12.5645H12.5668H12.5691H12.5714H12.5736H12.5759H12.5782H12.5805H12.5827H12.585H12.5873H12.5896H12.5918H12.5941H12.5964H12.5987H12.6009H12.6032H12.6055H12.6078H12.61H12.6123H12.6146H12.6169H12.6191H12.6214H12.6237H12.626H12.6282H12.6305H12.6328H12.6351H12.6373H12.6396H12.6419H12.6442H12.6464H12.6487H12.651H12.6533H12.6555H12.6578H12.6601H12.6624H12.6646H12.6669H12.6692H12.6715H12.6737H12.676H12.6783H12.6806H12.6828H12.6851H12.6874H12.6897H12.6919H12.6942H12.6965H12.6987H12.701H12.7033H12.7056H12.7078H12.7101H12.7124H12.7147H12.7169H12.7192H12.7215H12.7238H12.726H12.7283H12.7306H12.7329H12.7351H12.7374H12.7397H12.742H12.7442H12.7465H12.7488H12.751H12.7533H12.7556H12.7579H12.7601H12.7624H12.7647H12.767H12.7692H12.7715H12.7738H12.776H12.7783H12.7806H12.7829H12.7851H12.7874H12.7897H12.792H12.7942H12.7965H12.7988H12.801H12.8033H12.8056H12.8079H12.8101H12.8124H12.8147H12.8169H12.8192H12.8215H12.8238H12.826H12.8283H12.8306H12.8328H12.8351H12.8374H12.8396H12.8419H12.8442H12.8465H12.8487H12.851H12.8533H12.8555H12.8578H12.8601H12.8623H12.8646H12.8669H12.8691H12.8714H12.8737H12.876H12.8782H12.8805H12.8828H12.885H12.8873H12.8896H12.8918H12.8941H12.8964H12.8986H12.9009H12.9032H12.9054H12.9077H12.91H12.9122H12.9145H12.9168H12.919H12.9213H12.9236H12.9258H12.9281H12.9304H12.9326H12.9349H12.9372H12.9394H12.9417H12.944H12.9462H12.9485H12.9507H12.953H12.9553H12.9575H12.9598ZM15.4198 11.9166C15.3218 11.6741 15.2492 11.4245 15.1718 11.1585C15.1646 11.1337 15.1573 11.1088 15.15 11.0837L15.4198 11.9166ZM10.3931 21.5644C10.393 21.5645 10.3926 21.5639 10.3918 21.5626C10.3928 21.5637 10.3931 21.5644 10.3931 21.5644Z" stroke="#FF9900" stroke-width="0.75"/>
<path d="M14.4179 11.5464L14.4179 11.5464L14.418 11.5486C14.4293 11.7392 14.5001 11.9343 14.5538 12.0824C14.5606 12.1012 14.5671 12.1192 14.5732 12.1364L14.5731 12.1365L14.5763 12.1445C14.6279 12.2752 14.6452 12.3695 14.6368 12.4296C14.6334 12.4543 14.6261 12.4693 14.6167 12.4811C14.6067 12.4935 14.5843 12.5146 14.5326 12.5357L14.5326 12.5357L14.5301 12.5368C14.4601 12.5663 14.3451 12.5872 14.2168 12.5863C14.0884 12.5853 13.9812 12.5629 13.9205 12.5342C13.8218 12.4843 13.8032 12.4342 13.7984 12.3988C13.7915 12.3477 13.8072 12.2612 13.8796 12.1451C14.0024 11.9575 14.0797 11.7258 14.0805 11.5032C14.0919 11.0574 14.0903 10.6039 14.0887 10.1543C14.0876 9.82052 14.0864 9.4889 14.0906 9.16426C14.1082 8.10981 15.0504 7.25798 16.3936 7.25005C17.7404 7.24211 18.7095 8.08197 18.7443 9.12601C18.7534 9.42656 18.7499 9.72932 18.7463 10.0384C18.7461 10.0638 18.7458 10.0892 18.7455 10.1147C18.7417 10.4483 18.739 10.7887 18.7545 11.1284L18.7545 11.1284L18.7547 11.1318C18.7654 11.3127 18.8081 11.4915 18.8449 11.6455C18.8481 11.6589 18.8512 11.672 18.8543 11.685C18.8951 11.8572 18.9257 12.0006 18.9257 12.1377C18.9257 12.2187 18.9083 12.325 18.8735 12.4179C18.8358 12.5186 18.7953 12.5582 18.7809 12.5662C18.7606 12.5776 18.6804 12.5959 18.5428 12.5813C18.4162 12.5678 18.2949 12.5321 18.2232 12.4949C18.1528 12.4573 18.1403 12.4209 18.1369 12.3916C18.1318 12.3475 18.1454 12.2704 18.2085 12.1669C18.3208 11.9866 18.4263 11.746 18.4273 11.4949C18.4424 10.9301 18.4405 10.3593 18.4386 9.79529C18.438 9.60833 18.4374 9.42213 18.4374 9.23714L18.4373 9.23437C18.4254 8.16003 17.529 7.42203 16.4123 7.42203C15.8457 7.42203 15.3474 7.60056 14.9862 7.92381C14.6233 8.2486 14.4133 8.70728 14.4075 9.2344L14.4075 9.2344V9.23714V9.23928V9.24143V9.24357V9.24572V9.24786V9.25V9.25215V9.25429V9.25644V9.25858V9.26073V9.26287V9.26502V9.26716V9.26931V9.27146V9.2736V9.27575V9.27789V9.28004V9.28219V9.28434V9.28648V9.28863V9.29078V9.29293V9.29507V9.29722V9.29937V9.30152V9.30367V9.30582V9.30797V9.31011V9.31226V9.31441V9.31656V9.31871V9.32086V9.32301V9.32516V9.32731V9.32947V9.33162V9.33377V9.33592V9.33807V9.34022V9.34237V9.34452V9.34668V9.34883V9.35098V9.35313V9.35529V9.35744V9.35959V9.36174V9.3639V9.36605V9.3682V9.37036V9.37251V9.37467V9.37682V9.37897V9.38113V9.38328V9.38544V9.38759V9.38975V9.3919V9.39406V9.39621V9.39837V9.40052V9.40268V9.40484V9.40699V9.40915V9.4113V9.41346V9.41562V9.41777V9.41993V9.42209V9.42425V9.4264V9.42856V9.43072V9.43288V9.43503V9.43719V9.43935V9.44151V9.44367V9.44582V9.44798V9.45014V9.4523V9.45446V9.45662V9.45878V9.46094V9.46309V9.46525V9.46741V9.46957V9.47173V9.47389V9.47605V9.47821V9.48037V9.48253V9.48469V9.48685V9.48902V9.49118V9.49334V9.4955V9.49766V9.49982V9.50198V9.50414V9.5063V9.50847V9.51063V9.51279V9.51495V9.51711V9.51927V9.52144V9.5236V9.52576V9.52792V9.53009V9.53225V9.53441V9.53657V9.53874V9.5409V9.54306V9.54523V9.54739V9.54955V9.55172V9.55388V9.55604V9.55821V9.56037V9.56254V9.5647V9.56686V9.56903V9.57119V9.57336V9.57552V9.57768V9.57985V9.58201V9.58418V9.58634V9.58851V9.59067V9.59284V9.595V9.59717V9.59933V9.6015V9.60366V9.60583V9.60799V9.61016V9.61232V9.61449V9.61665V9.61882V9.62099V9.62315V9.62532V9.62748V9.62965V9.63181V9.63398V9.63615V9.63831V9.64048V9.64265V9.64481V9.64698V9.64914V9.65131V9.65348V9.65564V9.65781V9.65998V9.66214V9.66431V9.66648V9.66864V9.67081V9.67298V9.67515V9.67731V9.67948V9.68165V9.68381V9.68598V9.68815V9.69031V9.69248V9.69465V9.69682V9.69898V9.70115V9.70332V9.70549V9.70765V9.70982V9.71199V9.71416V9.71632V9.71849V9.72066V9.72283V9.72499V9.72716V9.72933V9.7315V9.73367V9.73583V9.738V9.74017V9.74234V9.7445V9.74667V9.74884V9.75101V9.75318V9.75534V9.75751V9.75968V9.76185V9.76402V9.76618V9.76835V9.77052V9.77269V9.77486V9.77702V9.77919V9.78136V9.78353V9.7857V9.78786V9.79003V9.7922V9.79437V9.79654V9.7987V9.80087V9.80304V9.80521V9.80738V9.80954V9.81171V9.81388V9.81605V9.81822V9.82038V9.82255V9.82472V9.82689V9.82906V9.83122V9.83339V9.83556V9.83773V9.8399V9.84206V9.84423V9.8464V9.84857V9.85073V9.8529V9.85507V9.85724V9.85941V9.86157V9.86374V9.86591V9.86808V9.87024V9.87241V9.87458V9.87675V9.87891V9.88108V9.88325V9.88542V9.88758V9.88975V9.89192V9.89408V9.89625V9.89842V9.90059V9.90275V9.90492V9.90709V9.90925V9.91142V9.91359V9.91575V9.91792V9.92009V9.92225V9.92442V9.92659V9.92875V9.93092V9.93309V9.93525V9.93742V9.93958V9.94175V9.94392V9.94608V9.94825V9.95042V9.95258V9.95475V9.95691V9.95908V9.96124V9.96341V9.96558V9.96774V9.96991V9.97207V9.97424V9.9764V9.97857V9.98073V9.9829V9.98506V9.98723V9.98939V9.99156V9.99372V9.99589V9.99805V10.0002V10.0024V10.0045V10.0067V10.0089V10.011V10.0132V10.0154V10.0175V10.0197V10.0219V10.024V10.0262V10.0283V10.0305V10.0327V10.0348V10.037V10.0392V10.0413V10.0435V10.0457V10.0478V10.05V10.0521V10.0543V10.0565V10.0586V10.0608V10.063V10.0651V10.0673V10.0694V10.0716V10.0738V10.0759V10.0781V10.0802V10.0824V10.0846V10.0867V10.0889V10.091V10.0932V10.0954V10.0975V10.0997V10.1019V10.104V10.1062V10.1083V10.1105V10.1127V10.1148V10.117V10.1191V10.1213V10.1234V10.1256V10.1278V10.1299V10.1321V10.1342V10.1364V10.1386V10.1407V10.1429V10.145V10.1472V10.1493V10.1515V10.1537V10.1558V10.158V10.1601V10.1623V10.1644V10.1666V10.1688V10.1709V10.1731V10.1752V10.1774V10.1795V10.1817V10.1839V10.186V10.1882V10.1903V10.1925V10.1946V10.1968V10.1989V10.2011V10.2032V10.2054V10.2076V10.2097V10.2119V10.214V10.2162V10.2183V10.2205V10.2226V10.2248V10.2269V10.2291V10.2312V10.2334V10.2355V10.2377V10.2398V10.242V10.2441V10.2463V10.2484V10.2506V10.2527V10.2549V10.2571V10.2592V10.2614V10.2635V10.2657V10.2678V10.2699V10.2721V10.2742V10.2764V10.2785V10.2807V10.2828V10.285V10.2871V10.2893V10.2914V10.2936V10.2957V10.2979V10.3V10.3022V10.3043V10.3065V10.3086V10.3108V10.3129V10.315V10.3172V10.3193V10.3215V10.3236V10.3258V10.3279V10.3301V10.3322V10.3343V10.3365V10.3386V10.3408V10.3429C14.4075 10.4396 14.4069 10.5371 14.4062 10.6352C14.4043 10.9341 14.4024 11.239 14.4179 11.5464Z" stroke="#FF9900" stroke-width="0.5"/>
</svg>
