<svg width="242" height="350" viewBox="0 0 242 350" fill="none" xmlns="http://www.w3.org/2000/svg">
<g clip-path="url(#clip0_3125_3951)">
<path d="M131.719 621.001V289.818L212.688 193.652V13.7012" stroke="#EBEBEB" stroke-miterlimit="10"/>
<path d="M205.438 7.64165C205.438 11.0668 208.761 13.9649 212.688 13.9649C216.616 13.9649 219.939 11.0668 219.939 7.64165C219.939 4.21654 216.616 1.31836 212.688 1.31836C208.761 1.31836 205.438 4.21654 205.438 7.64165Z" stroke="#EBEBEB" stroke-miterlimit="10"/>
<path d="M152.57 621V301.411L233.539 205.507V79.5684" stroke="#EBEBEB" stroke-miterlimit="10"/>
<path d="M226.289 73.5088C226.289 76.934 229.612 79.8321 233.54 79.8321C237.468 79.8321 240.791 76.934 240.791 73.5088C240.791 70.0837 237.468 67.1855 233.54 67.1855C229.31 67.1855 226.289 70.0837 226.289 73.5088Z" stroke="#EBEBEB" stroke-miterlimit="10"/>
<path d="M111.781 621.001V182.586" stroke="#EBEBEB" stroke-miterlimit="10"/>
<path d="M104.531 176.263C104.531 179.688 107.855 182.586 111.782 182.586C115.71 182.586 119.033 179.688 119.033 176.263C119.033 172.838 115.71 169.939 111.782 169.939C107.855 169.939 104.531 172.838 104.531 176.263Z" stroke="#EBEBEB" stroke-miterlimit="10"/>
<path d="M92.442 621V398.104L37.7578 307.997V146.227" stroke="#EBEBEB" stroke-miterlimit="10"/>
<path d="M30.5078 139.903C30.5078 143.328 33.8312 146.227 37.7587 146.227C41.6863 146.227 45.0097 143.328 45.0097 139.903C45.0097 136.478 41.6863 133.58 37.7587 133.58C33.8312 133.844 30.5078 136.478 30.5078 139.903Z" stroke="#EBEBEB" stroke-miterlimit="10"/>
<path d="M73.412 621.001V407.853L8.75781 307.998V201.556" stroke="#EBEBEB" stroke-miterlimit="10"/>
<path d="M1.50781 195.232C1.50781 198.658 4.83116 201.556 8.75875 201.556C12.6863 201.556 16.0097 198.658 16.0097 195.232C16.0097 191.807 12.6863 188.909 8.75875 188.909C4.83116 189.173 1.50781 191.807 1.50781 195.232Z" stroke="#EBEBEB" stroke-miterlimit="10"/>
</g>
<defs>
<clipPath id="clip0_3125_3951">
<rect width="242" height="621" fill="white" transform="translate(0 0.000976562)"/>
</clipPath>
</defs>
</svg>
