<svg
    width="86.5"
    height="85.8"
    xmlns="http://www.w3.org/2000/svg"
    xmlns:xlink="http://www.w3.org/1999/xlink"
    viewBox="0 0 86.5 85.8">
    <path
        d="M46.9,6.1 L7.3,0.1A6.3,6.3 0,0 0,2.2 1.5,6.4 6.4,0 0,0 0,6.3L0,82.2a3.6,3.6 0,0 0,3.6 3.6L15.3,85.8L15.3,66.9a6.3,6.3 0,0 1,6.3 -6.3h9a6.3,6.3 0,0 1,6.3 6.3L36.9,85.8L52.2,85.8L52.2,12.3A6.2,6.2 0,0 0,46.9 6.1ZM19.8,52.5L14.4,52.5a2.7,2.7 0,0 1,0 -5.4h5.4a2.7,2.7 0,0 1,0 5.4ZM19.8,41.7L14.4,41.7a2.7,2.7 0,1 1,0 -5.4h5.4a2.7,2.7 0,0 1,0 5.4ZM19.8,30.9L14.4,30.9a2.7,2.7 0,0 1,0 -5.4h5.4a2.7,2.7 0,0 1,0 5.4ZM19.8,20.1L14.4,20.1a2.7,2.7 0,1 1,0 -5.4h5.4a2.7,2.7 0,0 1,0 5.4ZM37.8,52.5L32.4,52.5a2.7,2.7 0,0 1,0 -5.4h5.4a2.7,2.7 0,1 1,0 5.4ZM37.8,41.7L32.4,41.7a2.7,2.7 0,1 1,0 -5.4h5.4a2.7,2.7 0,0 1,0 5.4ZM37.8,30.9L32.4,30.9a2.7,2.7 0,1 1,0 -5.4h5.4a2.7,2.7 0,1 1,0 5.4ZM37.8,20.1L32.4,20.1a2.7,2.7 0,1 1,0 -5.4h5.4a2.7,2.7 0,1 1,0 5.4Z"
      fill="#011842"/>
    <path
        d="M81.5,38.4 L55.8,33L55.8,85.8L80.2,85.8a6.3,6.3 0,0 0,6.3 -6.3L86.5,44.6A6.4,6.4 0,0 0,81.5 38.4ZM73,75L67.6,75a2.7,2.7 0,1 1,0 -5.4L73,69.6A2.7,2.7 0,0 1,73 75ZM73,64.2L67.6,64.2a2.7,2.7 0,1 1,0 -5.4L73,58.8a2.7,2.7 0,0 1,0 5.4ZM73,53.4L67.6,53.4a2.7,2.7 0,1 1,0 -5.4L73,48a2.7,2.7 0,0 1,0 5.4Z"
      fill="#011842"/>

</svg>