<svg xmlns="http://www.w3.org/2000/svg" width="126" height="126" viewBox="0 0 126 126">
  <path
      d="M63,63m-63,0a63,63 0,1 1,126 0a63,63 0,1 1,-126 0"
      fill="#e4eff9"/>
  <path
      d="M81.8,95.2H74.3a12.8,12.8 0,0 1,-11.5 -7.3L62,86.2l3.4,-1.6 0.8,1.7a9,9 0,0 0,8.1 5.1h7.5a5.6,5.6 0,0 0,5.7 -5.7V84.6h3.8v1.1A9.6,9.6 0,0 1,81.8 95.2Z"
      fill="#323c3c"/>
  <path
      d="M86.7,66.6a1.6,1.6 0,0 1,-1.3 -0.6,1.7 1.7,0 0,1 0,-2.6 20.8,20.8 0,0 0,0 -29.4,1.8 1.8,0 0,1 0,-2.7 1.9,1.9 0,0 1,2.6 0A24.5,24.5 0,0 1,88 66a1.6,1.6 0,0 1,-1.3 0.6Z"
      fill="#bceaf9"/>
  <path
      d="M91.4,48.7a21,21 0,0 1,-6 14.7,1.7 1.7,0 0,0 0,2.6A1.7,1.7 0,0 0,88 66a24.1,24.1 0,0 0,7.2 -17.3Z"
      fill="#acceff"/>
  <path
      d="M81.4,61.3a2,2 0,0 1,-1.4 -0.6A2,2 0,0 1,80 58a13,13 0,0 0,0 -18.6,2 2,0 0,1 0,-2.7 1.8,1.8 0,0 1,2.7 0,17 17,0 0,1 0,24 1.9,1.9 0,0 1,-1.3 0.6Z"
      fill="#bceaf9"/>
  <path
      d="M83.9,48.7A12.9,12.9 0,0 1,80 58a2,2 0,0 0,0 2.7,2 2,0 0,0 1.4,0.6 1.9,1.9 0,0 0,1.3 -0.6,17.1 17.1,0 0,0 5,-12Z"
      fill="#acceff"/>
  <path
      d="M76,55.9a2.1,2.1 0,0 1,-1.3 -0.5,2 2,0 0,1 0,-2.7 5.7,5.7 0,0 0,0 -8A1.9,1.9 0,0 1,77.4 42a9.7,9.7 0,0 1,0 13.4,2.4 2.4,0 0,1 -1.4,0.5Z"
      fill="#bceaf9"/>
  <path
      d="M76.3,48.7a5.7,5.7 0,0 1,-1.6 4,2 2,0 0,0 0,2.7 2.1,2.1 0,0 0,1.3 0.5,2.4 2.4,0 0,0 1.4,-0.5 9.7,9.7 0,0 0,2.7 -6.7Z"
      fill="#acceff"/>
  <path
      d="M70.7,48.7m-1.9,0a1.9,1.9 0,1 1,3.8 0a1.9,1.9 0,1 1,-3.8 0"
      fill="#bceaf9"/>
  <path
      d="M68.8,48.7a1.9,1.9 0,0 0,1.9 1.9,2 2,0 0,0 1.9,-1.9Z"
      fill="#acceff"/>
  <path
      d="M95.2,87.5H81.8a5.7,5.7 0,0 1,-5.7 -5.7,5.8 5.8,0 0,1 5.7,-5.7 9.4,9.4 0,0 1,9.3 7.7h4.1ZM81.8,79.9a1.8,1.8 0,0 0,-1.9 1.9,1.9 1.9,0 0,0 1.9,2h5.4A5.6,5.6 0,0 0,81.8 79.9Z"
      fill="#323c3c"/>
  <path
      d="M65.7,70.7a4.7,4.7 0,0 0,-5.6 -2.5l-4.8,1.4a50.8,50.8 0,0 1,-8.8 -19l4.1,-2.7A4.6,4.6 0,0 0,52.3 42l-3.9,-8.5a4.6,4.6 0,0 0,-2.7 -2.4,4.5 4.5,0 0,0 -3.6,0.1l-4.2,2a12.4,12.4 0,0 0,-6.7 14.4A108.4,108.4 0,0 0,47.8 83.2,12.4 12.4,0 0,0 58,88.5a11.4,11.4 0,0 0,5.1 -1.1l4.3,-2a4.8,4.8 0,0 0,2.3 -6.3Z"
      fill="#e7343f"/>
  <path
      d="M60.1,68.2l-4.8,1.4a54.9,54.9 0,0 1,-5.4 -9l-12,5.6a117.3,117.3 0,0 0,9.9 17A12.4,12.4 0,0 0,58 88.5a11.4,11.4 0,0 0,5.1 -1.1l4.3,-2a4.8,4.8 0,0 0,2.3 -6.3l-4,-8.4a4.7,4.7 0,0 0,-5.6 -2.5Z"
      fill="#e20059"/>
</svg>
