<svg xmlns="http://www.w3.org/2000/svg" width="50" height="50" viewBox="0 0 119.62 128">

<path
      d="M64.69,110.46A12.18,12.18 0,0 0,58.21 102L44,95.94v-0.37a25.28,25.28 0,0 1,-21.44 0v0.37L8.35,102a12.17,12.17 0,0 0,-6.68 9.87v15.45H64.89V111.88A11.28,11.28 0,0 0,64.69 110.46Z"
      fill="#50a6ea"/>
  <path
      d="M16.72,102l11,-4.69a24.46,24.46 0,0 1,-5.13 -1.75v0.37L8.35,102a12.17,12.17 0,0 0,-6.68 9.87v15.45H10V111.88A12.15,12.15 0,0 1,16.72 102Z"
      fill="#72bcef"/>
  <path
      d="M135.49,12.38v92.51a5.57,5.57 0,0 1,-5.58 5.57H64.69A12.18,12.18 0,0 0,58.21 102l-9.13,-3.9V81.72h0a22.58,22.58 0,0 0,6.18 -15.53V63.33A5.81,5.81 0,0 0,60 56.6c0,-0.13 0,-0.25 -0.07,-0.38A4.39,4.39 0,0 0,56 52.89h-0.55V44.07a23,23 0,0 0,-6.34 -15.9V12.38a5.57,5.57 0,0 1,5.57 -5.57H68.43v4.45h50.49V6.81h11A5.57,5.57 0,0 1,135.49 12.38Z"
      fill="#e5f5fd"/>
  <path
      d="M77.46,41.06m-16.73,0a16.73,16.73 0,1 1,33.46 0a16.73,16.73 0,1 1,-33.46 0"
      fill="#49c160"/>
  <path
      d="M66.31,41.06A16.74,16.74 0,0 1,80.25 24.57a16.73,16.73 0,1 0,-5.59 33,16.92 16.92,0 0,0 5.59,0A16.72,16.72 0,0 1,66.31 41.06Z"
      fill="#5ae070"/>
  <path
      d="M55.42,52.89v0.26s-19.74,3.48 -33,-8.32a69.55,69.55 0,0 1,-8.17 0.21l-0.62,10.11a0.46,0.46 0,0 1,-0.5 0.43,0.41 0.41,0 0,1 -0.18,0l-2.73,-1.4a1.91,1.91 0,0 1,-1 -1.55V44.07a23.1,23.1 0,0 1,46.2 0Z"
      fill="#4a5160"/>
  <path
      d="M21.56,27.74a23,23 0,0 1,13.57 -6.6A24,24 0,0 0,32.32 21a23.1,23.1 0,0 0,-23.1 23.1v8.51a1.91,1.91 0,0 0,1 1.55L13,55.53a0.46,0.46 0,0 0,0.63 -0.2,0.41 0.41,0 0,0 0.05,-0.18S12.45,36.84 21.56,27.74Z"
      fill="#58606d"/>
  <path
      d="M44,85.76v9.81a25.28,25.28 0,0 1,-21.44 0V86.49A22.7,22.7 0,0 0,44 85.76Z"
      fill="#efc597"/>
  <path
      d="M28.14,95.57V88.39a23,23 0,0 1,-5.58 -1.9v9.08A25.35,25.35 0,0 0,36.07 97.8,25.42 25.42,0 0,1 28.14,95.57Z"
      fill="#d8ad82"/>
  <path
      d="M44,85.76A22.63,22.63 0,0 1,10 66.19V63.33a5.82,5.82 0,0 1,-4.71 -6.76c0,-0.11 0,-0.23 0.07,-0.35a4.39,4.39 0,0 1,3.91 -3.33h0a1.9,1.9 0,0 0,1 1.24L13,55.53a0.46,0.46 0,0 0,0.63 -0.2,0.41 0.41,0 0,0 0.05,-0.18L14.27,45a69.55,69.55 0,0 0,8.17 -0.21c13.24,11.8 33,8.32 33,8.32v-0.26H56a4.39,4.39 0,0 1,3.91 3.33,5.82 5.82,0 0,1 -4.26,7l-0.37,0.08v2.86a22.58,22.58 0,0 1,-6.18 15.53c-0.14,0.16 -0.3,0.32 -0.46,0.48A23.08,23.08 0,0 1,44 85.76Z"
      fill="#ffd8b7"/>
  <path
      d="M28.14,86.49a22.65,22.65 0,0 1,-12.6 -20.3V63.33a5.84,5.84 0,0 1,-4.71 -6.76c0,-0.11 0.05,-0.23 0.08,-0.35a4.46,4.46 0,0 1,0.63 -1.43l-1.3,-0.66a1.9,1.9 0,0 1,-1 -1.24h0a4.39,4.39 0,0 0,-3.91 3.33,5.82 5.82,0 0,0 4.26,7l0.38,0.08v2.86A22.62,22.62 0,0 0,32.58 88.83h0a23.44,23.44 0,0 0,2.78 -0.17,22.76 22.76,0 0,1 -7.25,-2.17Z"
      fill="#e8bc9e"/>
  <path
      d="M68.43,1.67h50.49v9.59H68.43Z"
      fill="#475673"/>
  <path
      d="M129.91,5.13h-9.32L120.59,1.67A1.67,1.67 0,0 0,118.92 0L68.43,0a1.68,1.68 0,0 0,-1.68 1.67L66.75,5.13L54.65,5.13a7.27,7.27 0,0 0,-7.25 7.25v12A24.75,24.75 0,0 0,7.55 44.07v7.5a6,6 0,0 0,-3.84 4.25,7.49 7.49,0 0,0 4.58,8.77v1.6a24.34,24.34 0,0 0,12.6 21.3v7.35L7.7,100.47l-0.09,0A13.9,13.9 0,0 0,0 111.74a0.61,0.61 0,0 0,0 0.14v15.45A1.67,1.67 0,0 0,1.67 129L64.89,129a1.67,1.67 0,0 0,1.67 -1.67L66.56,112.14h63.35a7.27,7.27 0,0 0,7.25 -7.25L137.16,12.38a7.27,7.27 0,0 0,-7.25 -7.25ZM70.1,3.35h47.15L117.25,9.59L70.1,9.59ZM10.9,44.07a21.43,21.43 0,1 1,42.85 0h0v7.62c-4.15,0.44 -16.8,1.12 -27,-5.62 7,-0.93 15.49,-3.07 21.8,-7.91a1.67,1.67 0,1 0,-2 -2.7l0,0c-11.49,8.81 -32,7.88 -32.2,7.87a1.67,1.67 0,0 0,-1.76 1.57l-0.5,8.26L11,52.64a0.19,0.19 0,0 1,-0.11 -0.15ZM11.64,66.19L11.64,63.33a1.67,1.67 0,0 0,-1.39 -1.65,4.14 4.14,0 0,1 -3.35,-4.8L7,56.62a2.57,2.57 0,0 1,1.49 -1.81,3.69 3.69,0 0,0 1,0.81L12.21,57a2.14,2.14 0,0 0,2.88 -0.93,2 2,0 0,0 0.23,-0.8v0l0.52,-8.49c1.37,0 3.48,0 6.05,-0.19 13.66,11.62 33,8.37 33.82,8.23a1.58,1.58 0,0 0,0.5 -0.18,2.64 2.64,0 0,1 2,2 4.12,4.12 0,0 1,-3 5l-0.26,0.06a1.67,1.67 0,0 0,-1.39 1.65v2.86a21,21 0,0 1,-41.93 0ZM47.4,85.47L47.4,95.58l-1.73,-0.74L45.67,86.69C46.27,86.3 46.84,85.9 47.4,85.47ZM42.33,88.47v6a23.81,23.81 0,0 1,-18.09 0L24.24,89a24.29,24.29 0,0 0,18.09 -0.55ZM63.22,125.66L3.35,125.66L3.35,112a10.53,10.53 0,0 1,5.71 -8.42l13.93,-6a27.09,27.09 0,0 0,20.59 0l13.93,6A10.56,10.56 0,0 1,63.22 112ZM133.81,104.89a3.91,3.91 0,0 1,-3.9 3.9L66,108.79a13.94,13.94 0,0 0,-7 -8.28l-0.09,0L50.75,97L50.75,82.36a24.23,24.23 0,0 0,6.17 -16.17v-1.6a7.49,7.49 0,0 0,4.58 -8.77,6 6,0 0,0 -4.41,-4.43L57.09,44.07a24.65,24.65 0,0 0,-6.34 -16.54L50.75,12.38a3.91,3.91 0,0 1,3.9 -3.9h12.1v2.78a1.68,1.68 0,0 0,1.68 1.67h50.49a1.67,1.67 0,0 0,1.67 -1.67L120.59,8.48h9.32a3.91,3.91 0,0 1,3.9 3.9Z"
      fill="#284268"/>
  <path
      d="M121.71,54.93H109.48a1.68,1.68 0,0 0,0 3.35h12.23a1.68,1.68 0,0 0,0 -3.35Z"
      fill="#284268"/>
  <path
      d="M98.17,58.28h4.11a1.68,1.68 0,0 0,0 -3.35H98.17a1.68,1.68 0,0 0,0 3.35Z"
      fill="#284268"/>
  <path
      d="M121.71,73h-4.15a1.67,1.67 0,1 0,0 3.34h4.15a1.67,1.67 0,0 0,0 -3.34Z"
      fill="#284268"/>
  <path
      d="M111.77,76.37a1.67,1.67 0,0 0,0 -3.34H89.62a1.67,1.67 0,1 0,0 3.34Z"
      fill="#284268"/>
  <path
      d="M83.76,73h-1.5a1.67,1.67 0,0 0,0 3.34h1.5a1.67,1.67 0,0 0,0 -3.34Z"
      fill="#284268"/>
  <path
      d="M65.57,73a1.67,1.67 0,1 0,0 3.34h9.49a1.67,1.67 0,1 0,0 -3.34Z"
      fill="#284268"/>
  <path
      d="M121.71,89.75h-9.57a1.67,1.67 0,0 0,0 3.34h9.57a1.67,1.67 0,0 0,0 -3.34Z"
      fill="#284268"/>
  <path
      d="M106.13,89.75h-1.2a1.67,1.67 0,1 0,0 3.34h1.2a1.67,1.67 0,1 0,0 -3.34Z"
      fill="#284268"/>
  <path
      d="M100.22,89.75H91.13a1.67,1.67 0,1 0,0 3.34h9.09a1.67,1.67 0,1 0,0 -3.34Z"
      fill="#284268"/>
  <path
      d="M83.76,89.75H65.57a1.67,1.67 0,1 0,0 3.34H83.76a1.67,1.67 0,0 0,0 -3.34Z"
      fill="#284268"/>
  <path
      d="M121.71,40.69h-1.08a1.68,1.68 0,0 0,0 3.35h1.08a1.68,1.68 0,0 0,0 -3.35Z"
      fill="#284268"/>
  <path
      d="M101.57,44h11.86a1.68,1.68 0,0 0,0 -3.35H101.57a1.68,1.68 0,0 0,0 3.35Z"
      fill="#284268"/>
  <path
      d="M121.71,26.75H109.76a1.68,1.68 0,0 0,0 3.35h11.95a1.68,1.68 0,0 0,0 -3.35Z"
      fill="#284268"/>
  <path
      d="M101.57,30.1h1a1.68,1.68 0,1 0,0 -3.35h-1a1.68,1.68 0,0 0,0 3.35Z"
      fill="#284268"/>
  <path
      d="M77.47,59.46a18.4,18.4 0,1 0,-18.4 -18.4A18.39,18.39 0,0 0,77.47 59.46ZM77.47,26.01A15.05,15.05 0,1 1,62.41 41.06,15.05 15.05,0 0,1 77.47,26Z"
      fill="#284268"/>
  <path
      d="M72.56,48.35a1.65,1.65 0,0 0,2.36 0L87.14,36.13a1.67,1.67 0,0 0,-2.36 -2.36l-11,11 -3.59,-3.58a1.67,1.67 0,0 0,-2.39 2.33l0,0Z"
      fill="#284268"/>
</svg>
