<svg
    width="126"
    height="126"
    viewBox="0 0 126 126"
    xmlns="http://www.w3.org/2000/svg"
    xmlns:android="http://schemas.android.com/apk/res/android">

    <path
        d="M63,63m-63,0a63,63 0,1 1,126 0a63,63 0,1 1,-126 0"
        fill="#e4eff9"/>
    <path
        d="M77.4,86.5a2.9,2.9 0,0 0,2.4 -1.4H82V41.4l-5.5,-2.9L72.7,31H44.6a2.7,2.7 0,0 0,-2.8 2.8V83.7a2.8,2.8 0,0 0,2.8 2.8Z"
        fill="#eaf6ff"/>
    <path
        d="M80.2,42.5V83.7a2.8,2.8 0,0 1,-2.8 2.8h4a2.8,2.8 0,0 0,2.8 -2.8V42.5l-4,-2.1Z"
        fill="#d8ecfe"/>
    <path
        d="M75.5,42.5h8.7L72.7,31v8.7A2.7,2.7 0,0 0,75.5 42.5Z"
        fill="#b3dafe"/>
    <path
        d="M66.7,78.4V63.9h2.1l-5.5,-8.6H61.2l-5,7.4a1,1 0,0 0,0.8 1.6h2V77.9a0.9,0.9 0,0 0,1 1h2.8Z"
        fill="#0055a3"/>
    <path
        d="M69.8,62.7l-6,-8.9a1,1 0,0 0,-1.6 0l-1,1.5 5,7.4a1,1 0,0 1,-0.9 1.6H63.4V77.9a1,1 0,0 1,-1 1H66a0.9,0.9 0,0 0,1 -1V64.3h2a1,1 0,0 0,0.8 -1.6Z"
        fill="#004281"/>
    <path
        d="M71.7,83.1h0l-0.8,-0.2H51.4a1.6,1.6 0,0 0,-1.5 1.6v9A1.5,1.5 0,0 0,51.4 95H70.9a1.2,1.2 0,0 0,0.8 -0.2h0l2.1,-0.7v-10Z"
        fill="#fec165"/>
    <path
        d="M74.6,82.9H70.9a1.5,1.5 0,0 1,1.5 1.6v9A1.5,1.5 0,0 1,70.9 95h3.7a1.5,1.5 0,0 0,1.5 -1.5v-9A1.6,1.6 0,0 0,74.6 82.9Z"
        fill="#fdb441"/>
    <path
        fill="#FF000000"
        d="M48.5,50.3h29a0.9,0.9 0,0 0,1 -0.9,0.9 0.9,0 0,0 -1,-1h-29a0.9,0.9 0,0 0,-1 1A0.9,0.9 0,0 0,48.5 50.3Z"/>
    <path
        fill="#FF000000"
        d="M48.5,70.8a0.9,0.9 0,0 0,-1 0.9,0.9 0.9,0 0,0 1,1H58v5.2a2,2 0,0 0,2 2h6a2,2 0,0 0,2 -2V72.7h9.5a0.9,0.9 0,0 0,1 -1,0.9 0.9,0 0,0 -1,-0.9H68V65.2h9.5a0.9,0.9 0,0 0,1 -0.9,0.9 0.9,0 0,0 -1,-1H71a1.9,1.9 0,0 0,-0.4 -1.2l-2.9,-4.3h9.8a0.9,0.9 0,0 0,1 -1,0.9 0.9,0 0,0 -1,-0.9H66.4l-1.8,-2.6a1.9,1.9 0,0 0,-3.2 0l-1.8,2.6H48.5a0.9,0.9 0,0 0,-1 0.9,0.9 0.9,0 0,0 1,1h9.8l-2.9,4.3a1.9,1.9 0,0 0,-0.4 1.2H48.5a0.9,0.9 0,0 0,-1 1,0.9 0.9,0 0,0 1,0.9H58v5.6ZM57,63.3c-0.1,0 -0.1,-0.1 0,-0.1l3.9,-5.8h0l2.1,-3h0l2.1,3h0L69,63.2c0.1,0.1 0,0.1 0,0.1H67a0.9,0.9 0,0 0,-0.9 1h0V77.9H59.9V64.3h0a0.9,0.9 0,0 0,-0.9 -1Z"/>
    <path
        fill="#FF000000"
        d="M84.9,41.8 L73.3,30.3a0.7,0.7 0,0 0,-0.6 -0.3L44.6,30a3.8,3.8 0,0 0,-3.8 3.8L40.8,63.1a0.9,0.9 0,0 0,1 1,0.9 0.9,0 0,0 0.9,-1L42.7,33.8a2,2 0,0 1,1.9 -1.9L71.7,31.9v7.8a3.8,3.8 0,0 0,3.8 3.8h7.8L83.3,83.7a1.9,1.9 0,0 1,-1.9 1.8L77.1,85.5v-1a2.6,2.6 0,0 0,-2.5 -2.6L51.4,81.9a2.6,2.6 0,0 0,-2.5 2.6v1L44.6,85.5a1.9,1.9 0,0 1,-1.9 -1.8v-16a0.9,0.9 0,0 0,-0.9 -1,0.9 0.9,0 0,0 -1,1v16a3.8,3.8 0,0 0,3.8 3.8h4.3v6A2.5,2.5 0,0 0,51.4 96L66.3,96a1,1 0,0 0,1 -1,1 1,0 0,0 -1,-0.9L51.4,94.1a0.6,0.6 0,0 1,-0.5 -0.6v-9c0,-0.4 0.2,-0.6 0.5,-0.6L74.6,83.9c0.3,0 0.5,0.2 0.5,0.6v9a0.6,0.6 0,0 1,-0.5 0.6L70.8,94.1a0.9,0.9 0,0 0,-0.9 0.9,0.9 0.9,0 0,0 0.9,1h3.8a2.5,2.5 0,0 0,2.5 -2.5v-6h4.3a3.8,3.8 0,0 0,3.8 -3.8L85.2,42.5A1.1,1.1 0,0 0,84.9 41.8ZM75.5,41.6a2,2 0,0 1,-1.9 -1.9L73.6,33.3l8.3,8.3Z"/>

</svg>
