<svg
    width="65.8"
    height="60.9"
    viewBox="0 0 65.8 60.9"
    xmlns="http://www.w3.org/2000/svg"
    xmlns:xlink="http://www.w3.org/1999/xlink">

    <path
        d="M35.3,27.4L52.9,27.4a4.2,4.2 0,1 0,0 -8.4L35.3,19a4.2,4.2 0,1 0,0 8.4ZM35.3,21.6L52.9,21.6a1.6,1.6 0,1 1,0 3.2L35.3,24.8a1.6,1.6 0,0 1,0 -3.2Z"
        fill="#0697c4"/>
    <path
        d="M63.3,15.4a2.6,2.6 0,0 0,2.5 -2.6L65.8,8.3a2.5,2.5 0,0 0,-2.5 -2.5L57.6,5.8L57.6,4.2A4.2,4.2 0,0 0,53.4 0L43.3,0a4.2,4.2 0,0 0,-4.2 4.2L39.1,5.8L26.7,5.8L26.7,4.2A4.2,4.2 0,0 0,22.5 0L12.4,0A4.2,4.2 0,0 0,8.2 4.2L8.2,5.8L2.5,5.8A2.5,2.5 0,0 0,0 8.3v4.5a2.6,2.6 0,0 0,2.5 2.6h0.1L2.6,47.8a6,6 0,0 0,4.6 5.9v3.4a3.9,3.9 0,0 0,3.9 3.8h5.6a3.8,3.8 0,0 0,3.9 -3.8L20.6,53.8L48.8,53.8a8.4,8.4 0,0 0,16.7 -1.3,8.7 8.7,0 0,0 -2.2,-5.6L63.3,15.4ZM41.7,4.2a1.6,1.6 0,0 1,1.6 -1.6L53.4,2.6A1.6,1.6 0,0 1,55 4.2L55,5.8L41.7,5.8ZM10.8,4.2a1.6,1.6 0,0 1,1.6 -1.6L22.5,2.6a1.6,1.6 0,0 1,1.6 1.6L24.1,5.8L10.8,5.8ZM18,57.1a1.3,1.3 0,0 1,-1.3 1.3L11.1,58.4a1.3,1.3 0,0 1,-1.3 -1.3L9.8,53.8L18,53.8ZM48.8,51.3L28.3,51.3L28.3,34.7a1.5,1.5 0,0 1,1.5 -1.5L60.7,33.2L60.7,45a7.4,7.4 0,0 0,-3.6 -0.9,8.4 8.4,0 0,0 -8.3,7.2ZM57.1,58.4a5.9,5.9 0,1 1,5.8 -5.9,5.8 5.8,0 0,1 -5.8,5.9ZM63.3,12.8L38.7,12.8a1.3,1.3 0,0 0,0 2.6h22L60.7,30.6L29.8,30.6a4.1,4.1 0,0 0,-4.1 4.1L25.7,51.3L8.5,51.3a3.5,3.5 0,0 1,-3.4 -3.5L5.1,15.4h22a1.3,1.3 0,0 0,0 -2.6L2.6,12.8L2.6,8.3L63.3,8.3Z"
        fill="#00adef"/>
    <path
        d="M20,39.5a1.3,1.3 0,0 0,-1.3 -1.1H14.9l2.7,-5.5a1.3,1.3 0,0 0,-0.6 -1.8,1.3 1.3,0 0,0 -1.7,0.6l-3.6,7.4a1.3,1.3 0,0 0,1.1 1.8h3.8l-2.7,5.5a1.2,1.2 0,0 0,0.6 1.7l0.5,0.2a1.4,1.4 0,0 0,1.2 -0.7l3.6,-7.4a0.8,0.8 0,0 0,0.2 -0.7Z"
        fill="#0697c4"/>
    <path
        d="M24,19a4.2,4.2 0,1 0,4.2 4.2A4.2,4.2 0,0 0,24 19ZM24,24.8a1.6,1.6 0,1 1,1.6 -1.6A1.6,1.6 0,0 1,24 24.8Z"
        fill="#0697c4"/>
    <path
        d="M17.1,23.2a4.2,4.2 0,1 0,-4.2 4.2A4.2,4.2 0,0 0,17.1 23.2ZM11.3,23.2a1.6,1.6 0,1 1,1.6 1.6A1.6,1.6 0,0 1,11.3 23.2Z"
        fill="#0697c4"/>
    <path
        d="M32.4,36.3a1.2,1.2 0,0 0,-1.3 1.2h0a1.3,1.3 0,0 0,2.6 0,1.2 1.2,0 0,0 -1.3,-1.2Z"
        fill="#0697c4"/>
    <path
        d="M32.4,41.9a1.3,1.3 0,0 0,-1.3 1.3h0a1.3,1.3 0,1 0,1.3 -1.3Z"
        fill="#0697c4"/>
    <path
        d="M37.6,36.3a1.2,1.2 0,0 0,-1.3 1.2h0a1.3,1.3 0,1 0,2.6 0,1.2 1.2,0 0,0 -1.3,-1.2Z"
        fill="#0697c4"/>
    <path
        d="M37.6,41.9a1.3,1.3 0,0 0,-1.3 1.3h0a1.3,1.3 0,1 0,1.3 -1.3Z"
        fill="#0697c4"/>
    <path
        d="M42.7,36.3a1.2,1.2 0,0 0,-1.3 1.2h0a1.3,1.3 0,1 0,2.6 0,1.2 1.2,0 0,0 -1.3,-1.2Z"
        fill="#0697c4"/>
    <path
        d="M42.7,41.9a1.3,1.3 0,0 0,-1.3 1.3h0a1.3,1.3 0,1 0,1.3 -1.3Z"
        fill="#0697c4"/>
    <path
        d="M58.1,37.5a1.2,1.2 0,0 0,-1.3 -1.2H48.5a1.2,1.2 0,0 0,-1.3 1.2,1.3 1.3,0 0,0 1.3,1.3h8.3A1.3,1.3 0,0 0,58.1 37.5Z"
        fill="#0697c4"/>
    <path
        d="M57.1,51.3a1.2,1.2 0,0 0,-1.3 1.2h0a1.2,1.2 0,0 0,1.3 1.3,1.2 1.2,0 0,0 1.2,-1.3A1.2,1.2 0,0 0,57.1 51.3Z"
        fill="#0697c4"/>
    <path
        d="M32.9,15.4h0a1.3,1.3 0,1 0,-1.3 -1.3,1.3 1.3,0 0,0 1.3,1.3Z"
        fill="#0697c4"/>
</svg>