<svg xmlns="http://www.w3.org/2000/svg" width="50" height="50" viewBox="0 0 119.62 140">

<path
      d="M115.8,95v38.32H90V97.59Z"
      fill="#8d9fad"/>
  <path
      d="M108.22,127.59a14.73,14.73 0,0 1,0 -15.79l-41,-7.63H12.53v29.12H85.44Z"
      fill="#f1f4f6"/>
  <path
      d="M115.8,7.77v98.32l-94.43,2.35 -5.57,0.16L2.07,119.69V21.37a19.32,19.32 0,0 1,19.3 -19.3H110.1A5.7,5.7 0,0 1,115.8 7.77Z"
      fill="#bbcfd4"/>
  <path
      d="M21.37,2.07V108.44l-5.57,0.16L2.07,119.69V21.37a19.32,19.32 0,0 1,19.3 -19.3Z"
      fill="#a3b8bf"/>
  <path
      d="M110.1,139H21.37a19.3,19.3 0,0 1,0 -38.6H110.1a5.7,5.7 0,0 1,0 11.4H44.72l-9.88,3.95L25,111.79H21.37a7.9,7.9 0,0 0,0 15.8H110.1a5.7,5.7 0,1 1,0 11.4Z"
      fill="#a3b8bf"/>
  <path
      d="M44.72,111.79v18.68a2.84,2.84 0,0 1,-4.59 2.23l-3.54,-2.78a2.82,2.82 0,0 0,-3.5 0l-3.54,2.78A2.84,2.84 0,0 1,25 130.47V111.79Z"
      fill="#dd636e"/>
  <path
      d="M25,111.79H44.72v7.9H25Z"
      fill="#da4a54"/>
  <path
      d="M32.39,79.17V23.29a10.19,10.19 0,0 1,10.2 -10.2h52a10.19,10.19 0,0 1,10.2 10.2V79.17a10.2,10.2 0,0 1,-10.2 10.2h-52a10.2,10.2 0,0 1,-10.2 -10.2Z"
      fill="#4e5959"/>
  <path
      d="M48.87,89.37H42.59a10.2,10.2 0,0 1,-10.2 -10.2V23.29a10.2,10.2 0,0 1,10.2 -10.2h6.28a10.2,10.2 0,0 0,-10.2 10.2V79.17A10.2,10.2 0,0 0,48.87 89.37Z"
      fill="#454b4b"/>
  <path
      d="M90.88,51.23a22.09,22.09 0,0 0,-0.27 -3.48,2.41 2.41,0 0,1 1.18,-2.49L95,43.42a2.43,2.43 0,0 0,0.89 -3.32l-4,-6.93a2.43,2.43 0,0 0,-3.32 -0.89l-3.19,1.84a2.43,2.43 0,0 1,-2.75 -0.22,22.38 22.38,0 0,0 -6.07,-3.51A2.36,2.36 0,0 1,75 28.2L75,24.47A2.43,2.43 0,0 0,72.58 22h-8a2.43,2.43 0,0 0,-2.43 2.43L62.15,28.2a2.34,2.34 0,0 1,-1.51 2.19,22.38 22.38,0 0,0 -6.07,3.51 2.43,2.43 0,0 1,-2.75 0.22l-3.19,-1.84a2.43,2.43 0,0 0,-3.32 0.89l-4,6.93a2.43,2.43 0,0 0,0.89 3.32l3.18,1.84a2.41,2.41 0,0 1,1.18 2.49,22.56 22.56,0 0,0 0,7 2.42,2.42 0,0 1,-1.18 2.49L42.2,59a2.43,2.43 0,0 0,-0.89 3.32l4,6.92a2.42,2.42 0,0 0,3.32 0.89l3.19,-1.83a2.42,2.42 0,0 1,2.75 0.22,22.09 22.09,0 0,0 6.07,3.5 2.35,2.35 0,0 1,1.51 2.2L62.15,78a2.43,2.43 0,0 0,2.44 2.43h8A2.43,2.43 0,0 0,75 78L75,74.26a2.36,2.36 0,0 1,1.52 -2.2,22.14 22.14,0 0,0 6.08,-3.5 2.43,2.43 0,0 1,2.75 -0.23l3.18,1.84a2.42,2.42 0,0 0,3.32 -0.89l4,-6.92A2.43,2.43 0,0 0,95 59L91.79,57.2a2.43,2.43 0,0 1,-1.18 -2.5,22.06 22.06,0 0,0 0.27,-3.47ZM68.58,62.23a11,11 0,1 1,11 -11,11 11,0 0,1 -11,11Z"
      fill="#f1f4f6"/>
  <path
      fill="#FF000000"
      d="M117.87,7.77A7.78,7.78 0,0 0,110.1 0L21.37,0A21.4,21.4 0,0 0,0 21.37v98.38a21.39,21.39 0,0 0,21.37 21.31L110.1,141.06a7.78,7.78 0,0 0,7.77 -7.77L117.87,7.77ZM42.65,130.47a0.76,0.76 0,0 1,-1.24 0.6l-3.54,-2.78a4.93,4.93 0,0 0,-6.06 0l-3.54,2.78a0.76,0.76 0,0 1,-1.24 -0.6v-2.88h0L27.03,113.86L42.65,113.86ZM22.89,113.86v11.66L21.37,125.52a5.83,5.83 0,0 1,0 -11.66ZM46.79,113.86h58.12a16.94,16.94 0,0 0,0 11.66L46.79,125.52ZM110.1,125.52h-0.68a12.76,12.76 0,0 1,0 -11.66h0.68a7.84,7.84 0,0 0,3.64 -0.9v13.47a7.73,7.73 0,0 0,-3.64 -0.91ZM4.13,101A17.25,17.25 0,0 1,19.3 83.92L19.3,98.43a21.37,21.37 0,0 0,-15.17 8.65ZM19.3,22.5A21.36,21.36 0,0 0,4.47 30.71,17.28 17.28,0 0,1 19.3,17ZM4.13,21.37A17.26,17.26 0,0 1,19.3 4.26v8.59A21.37,21.37 0,0 0,4.13 21.5ZM4.13,43.77A17.25,17.25 0,0 1,19.3 26.66v53.1A21.37,21.37 0,0 0,4.13 88.41ZM110.13,136.93L21.37,136.93a17.24,17.24 0,1 1,0 -34.47h11a2.07,2.07 0,0 0,0 -4.13h-9L23.37,4.13L110.1,4.13a3.64,3.64 0,0 1,3.64 3.64L113.74,99.23a7.73,7.73 0,0 0,-3.64 -0.91L40.65,98.32a2.07,2.07 0,0 0,0 4.14L110.1,102.46a3.64,3.64 0,0 1,3.64 3.6v0.06a3.65,3.65 0,0 1,-3.64 3.61L21.37,109.73a10,10 0,1 0,0 19.93h1.52v0.81a4.88,4.88 0,0 0,2.76 4.41,5 5,0 0,0 2.15,0.5 4.88,4.88 0,0 0,3 -1l3.54,-2.78a0.78,0.78 0,0 1,1 0l3.54,2.77a4.9,4.9 0,0 0,7.93 -3.85v-0.81L110.1,129.71a3.64,3.64 0,0 1,3.64 3.6v0h0a3.65,3.65 0,0 1,-3.64 3.63Z"/>
  <path
      fill="#FF000000"
      d="M94.58,91.44a12.28,12.28 0,0 0,12.27 -12.27V23.29A12.28,12.28 0,0 0,94.58 11h-52A12.28,12.28 0,0 0,30.32 23.29V79.17A12.28,12.28 0,0 0,42.59 91.44ZM34.45,79.17V23.29a8.15,8.15 0,0 1,8.14 -8.14h52a8.15,8.15 0,0 1,8.14 8.14V79.17a8.14,8.14 0,0 1,-8.14 8.13h-52a8.15,8.15 0,0 1,-8.14 -8.13Z"/>
  <path
      fill="#FF000000"
      d="M68.58,64.31A13.1,13.1 0,0 0,81.66 51.23a13.23,13.23 0,0 0,-0.29 -2.75,2.07 2.07,0 1,0 -4,0.87 8.94,8.94 0,1 1,-8.75 -7.07,8.88 8.88,0 0,1 5.12,1.61 2.06,2.06 0,1 0,2.37 -3.38,13.08 13.08,0 1,0 -7.49,23.8Z"/>
  <path
      fill="#FF000000"
      d="M46.25,72.41A4.38,4.38 0,0 0,49.66 72l3.19,-1.83a0.35,0.35 0,0 1,0.41 0A24.14,24.14 0,0 0,59.91 74a0.29,0.29 0,0 1,0.18 0.27L60.09,78a4.5,4.5 0,0 0,4.49 4.5h8a4.51,4.51 0,0 0,4.5 -4.5L77.08,74.26a0.29,0.29 0,0 1,0.18 -0.27,24.14 24.14,0 0,0 6.65,-3.83 0.36,0.36 0,0 1,0.41 0L87.51,72a4.5,4.5 0,0 0,6.14 -1.64l4,-6.93A4.49,4.49 0,0 0,96 57.25l-3.18,-1.84a0.36,0.36 0,0 1,-0.17 -0.38,24.22 24.22,0 0,0 0,-7.6 0.35,0.35 0,0 1,0.17 -0.38L96,45.21a4.49,4.49 0,0 0,1.65 -6.14l-4,-6.93a4.49,4.49 0,0 0,-6.14 -1.65l-3.19,1.84a0.35,0.35 0,0 1,-0.41 0,24.65 24.65,0 0,0 -6.65,-3.83 0.27,0.27 0,0 1,-0.18 -0.26L77.08,24.47A4.5,4.5 0,0 0,72.58 20h-8a4.49,4.49 0,0 0,-4.49 4.49L60.09,28.2a0.27,0.27 0,0 1,-0.18 0.26,24.65 24.65,0 0,0 -6.65,3.83 0.35,0.35 0,0 1,-0.41 0l-3.19,-1.84a4.49,4.49 0,0 0,-6.14 1.65l-4,6.93a4.5,4.5 0,0 0,1.65 6.14l3.18,1.84a0.35,0.35 0,0 1,0.17 0.38,24.22 24.22,0 0,0 0,7.6 0.36,0.36 0,0 1,-0.17 0.38l-3.18,1.84a4.5,4.5 0,0 0,-1.65 6.14l4,6.93a4.46,4.46 0,0 0,2.73 2.09ZM43.25,60.83L46.42,59a4.57,4.57 0,0 0,2.19 -4.61,19.58 19.58,0 0,1 -0.25,-3.15 19.8,19.8 0,0 1,0.25 -3.16,4.55 4.55,0 0,0 -2.19,-4.6l-3.19,-1.84a0.37,0.37 0,0 1,-0.13 -0.5l4,-6.93a0.38,0.38 0,0 1,0.22 -0.17,0.42 0.42,0 0,1 0.28,0l3.18,1.84a4.54,4.54 0,0 0,5.09 -0.41,20.08 20.08,0 0,1 5.51,-3.18 4.43,4.43 0,0 0,2.84 -4.12L64.22,24.47a0.36,0.36 0,0 1,0.36 -0.36h8a0.37,0.37 0,0 1,0.37 0.36L72.95,28.2a4.42,4.42 0,0 0,2.84 4.12A20.08,20.08 0,0 1,81.3 35.5a4.54,4.54 0,0 0,5.09 0.41l3.18,-1.84a0.42,0.42 0,0 1,0.28 0,0.38 0.38,0 0,1 0.22,0.17l4,6.93a0.36,0.36 0,0 1,-0.13 0.5l-3.19,1.84a4.52,4.52 0,0 0,-2.19 4.6,19.8 19.8,0 0,1 0.25,3.16 19.58,19.58 0,0 1,-0.25 3.15A4.54,4.54 0,0 0,90.75 59l3.19,1.84a0.34,0.34 0,0 1,0.17 0.22,0.35 0.35,0 0,1 0,0.27l-4,6.93a0.34,0.34 0,0 1,-0.22 0.17,0.36 0.36,0 0,1 -0.28,0l-3.18,-1.84a4.54,4.54 0,0 0,-5.09 0.4,20.08 20.08,0 0,1 -5.51,3.18A4.44,4.44 0,0 0,73 74.26L73,78a0.38,0.38 0,0 1,-0.37 0.37h-8a0.37,0.37 0,0 1,-0.37 -0.37L64.26,74.26a4.44,4.44 0,0 0,-2.84 -4.13A20.08,20.08 0,0 1,55.87 67,4.54 4.54,0 0,0 53,66a4.48,4.48 0,0 0,-2.24 0.6L47.6,68.39a0.36,0.36 0,0 1,-0.28 0,0.34 0.34,0 0,1 -0.22,-0.17l-4,-6.92a0.37,0.37 0,0 1,0.13 -0.5Z"/>
</svg>
