<svg width="50" height="50" viewBox="0 0 84.5 78.2" xmlns="http://www.w3.org/2000/svg">
  <path
      d="M1.7,16.5a1.6,1.6 0,0 0,1.5 1.6H81.3a1.6,1.6 0,0 0,1.6 -1.6V10.6a1.6,1.6 0,0 0,-1.6 -1.5H3.2a1.5,1.5 0,0 0,-1.5 1.5h0v5.9Z"
      fill="#bfdbff"
       fill-rule="evenOdd"/>
  <path
      d="M12.2,5.4V9.1H32.6V5.4a3.6,3.6 0,0 0,-3.7 -3.7h-13a3.7,3.7 0,0 0,-3.7 3.7Z"
      fill="#4f83d1"
       fill-rule="evenOdd"/>
  <path
      d="M51.9,5.4V9.1H72.3V5.4a3.7,3.7 0,0 0,-3.7 -3.7h-13a3.6,3.6 0,0 0,-3.7 3.7Z"
      fill="#7cb8eb"
       fill-rule="evenOdd"/>
  <path
      d="M4.9,18.1L4.9,61.4a6,6 0,0 0,6.1 6L34.7,67.4L34.7,44.6a3.7,3.7 0,0 1,3.6 -3.7L79.6,40.9L79.6,18.1ZM16.6,26.1a3.8,3.8 0,0 1,3.7 3.7,3.7 3.7,0 0,1 -3.7,3.7 3.6,3.6 0,0 1,-3.7 -3.7,3.7 3.7,0 0,1 3.7,-3.7ZM30.8,26.1a3.8,3.8 0,0 1,3.8 3.7,3.8 3.8,0 0,1 -7.5,0 3.8,3.8 0,0 1,3.7 -3.7ZM45.3,26.1L67.9,26.1a3.7,3.7 0,0 1,3.7 3.7,3.6 3.6,0 0,1 -3.7,3.7L45.3,33.5a3.7,3.7 0,0 1,-3.7 -3.7,3.8 3.8,0 0,1 3.7,-3.7Z"
      fill="#fff"
       fill-rule="evenOdd"/>
  <path
      d="M41.6,29.8a3.7,3.7 0,0 0,3.7 3.7H67.9a3.6,3.6 0,0 0,3.7 -3.7,3.7 3.7,0 0,0 -3.7,-3.7H45.3a3.8,3.8 0,0 0,-3.7 3.7Z"
      fill="#ffda8f"
       fill-rule="evenOdd"/>
  <path
      d="M30.8,26.1a3.8,3.8 0,0 0,-3.7 3.7,3.8 3.8,0 0,0 7.5,0 3.8,3.8 0,0 0,-3.8 -3.7Z"
      fill="#ffda8f"
       fill-rule="evenOdd"/>
  <path
      d="M16.6,26.1a3.7,3.7 0,0 0,-3.7 3.7,3.6 3.6,0 0,0 3.7,3.7 3.7,3.7 0,0 0,3.7 -3.7,3.8 3.8,0 0,0 -3.7,-3.7Z"
      fill="#ffda8f"
       fill-rule="evenOdd"/>
  <path
      d="M34.7,44.6V67.4H64.1a9.1,9.1 0,0 1,9.1 -9.1,9.3 9.3,0 0,1 6.4,2.6v-20H38.3a3.7,3.7 0,0 0,-3.6 3.7Z"
      fill="#7cb8eb"
       fill-rule="evenOdd"/>
  <path
      d="M73.2,58.3a9.1,9.1 0,0 0,-9.1 9.1h0a9.2,9.2 0,1 0,15.5 -6.6A9.3,9.3 0,0 0,73.2 58.3Z"
      fill="#7cb8eb"
       fill-rule="evenOdd"/>
  <path
      d="M11,67.4v5.9a3.2,3.2 0,0 0,3.2 3.3h7.3a3.3,3.3 0,0 0,3.3 -3.3V67.4Z"
      fill="#7cb8eb"
       fill-rule="evenOdd"/>
  <path
      fill="#FF000000"
      d="M45.3,35.2L67.9,35.2a5.4,5.4 0,0 0,0 -10.8L45.3,24.4a5.4,5.4 0,0 0,0 10.8ZM45.3,27.7L67.9,27.7A2.1,2.1 0,0 1,70 29.8a2.1,2.1 0,0 1,-2.1 2.1L45.3,31.9a2,2 0,0 1,-2 -2.1,2.1 2.1,0 0,1 2,-2.1Z"/>
  <path
      fill="#FF000000"
      d="M81.3,19.7a3.2,3.2 0,0 0,3.2 -3.2L84.5,10.6a3.2,3.2 0,0 0,-3.2 -3.2L73.9,7.4v-2A5.4,5.4 0,0 0,68.6 0h-13a5.4,5.4 0,0 0,-5.4 5.4v2L34.3,7.4v-2A5.4,5.4 0,0 0,28.9 0h-13a5.4,5.4 0,0 0,-5.3 5.4v2L3.2,7.4A3.2,3.2 0,0 0,0 10.6v5.9a3.2,3.2 0,0 0,3.2 3.2h0.1L3.3,61.4a7.6,7.6 0,0 0,6 7.5v4.4a4.9,4.9 0,0 0,4.9 4.9h7.3a4.9,4.9 0,0 0,4.9 -4.9L26.4,69.1L62.6,69.1A10.8,10.8 0,0 0,84 67.5a10.5,10.5 0,0 0,-2.8 -7.3L81.2,19.7ZM53.5,5.4a2.1,2.1 0,0 1,2.1 -2.1h13a2,2 0,0 1,2 2.1v2L53.5,7.4ZM13.9,5.4a2,2 0,0 1,2 -2.1h13A2.1,2.1 0,0 1,31 5.4v2L13.9,7.4ZM23.1,73.3a1.6,1.6 0,0 1,-1.6 1.6L14.2,74.9a1.6,1.6 0,0 1,-1.6 -1.6L12.6,69.1L23.1,69.1ZM62.6,65.8L36.4,65.8L36.4,44.6a1.9,1.9 0,0 1,1.9 -2L77.9,42.6L77.9,57.7a12,12 0,0 0,-4.7 -1,10.7 10.7,0 0,0 -10.6,9.1ZM73.2,74.9a7.5,7.5 0,1 1,7.5 -7.4,7.4 7.4,0 0,1 -7.5,7.4ZM81.2,16.4L49.7,16.4A1.7,1.7 0,0 0,48 18.1a1.7,1.7 0,0 0,1.7 1.6L77.9,19.7L77.9,39.3L38.3,39.3A5.3,5.3 0,0 0,33 44.6L33,65.8L11,65.8a4.4,4.4 0,0 1,-4.4 -4.4L6.6,19.7L34.8,19.7a1.7,1.7 0,0 0,1.7 -1.6,1.7 1.7,0 0,0 -1.7,-1.7L3.3,16.4L3.3,10.7L81.2,10.7Z"/>
  <path
      fill="#FF000000"
      d="M25.6,50.8A1.6,1.6 0,0 0,24 49.2H19.1l3.5,-7a1.6,1.6 0,1 0,-2.9 -1.5L15,50.2a1.6,1.6 0,0 0,1.5 2.3h4.8l-3.5,7.1a1.7,1.7 0,0 0,0.8 2.2l0.7,0.2a1.8,1.8 0,0 0,1.5 -1l4.7,-9.4a1.1,1.1 0,0 0,0.1 -0.8Z"/>
  <path
      fill="#FF000000"
      d="M30.8,24.4a5.4,5.4 0,1 0,5.4 5.4A5.4,5.4 0,0 0,30.8 24.4ZM30.8,31.9a2,2 0,0 1,-2 -2.1,2.1 2.1,0 1,1 4.1,0A2.1,2.1 0,0 1,30.8 31.9Z"/>
  <path
      fill="#FF000000"
      d="M22,29.8a5.4,5.4 0,0 0,-5.4 -5.4,5.4 5.4,0 1,0 0,10.8A5.4,5.4 0,0 0,22 29.8ZM14.5,29.8a2.1,2.1 0,0 1,2.1 -2.1,2.2 2.2,0 0,1 2.1,2.1 2.1,2.1 0,0 1,-2.1 2.1A2.1,2.1 0,0 1,14.5 29.8Z"/>
  <path
      fill="#FF000000"
      d="M41.6,46.5A1.7,1.7 0,0 0,40 48.2h0a1.6,1.6 0,0 0,1.6 1.6,1.7 1.7,0 0,0 1.7,-1.6 1.8,1.8 0,0 0,-1.7 -1.7Z"/>
  <path
      fill="#FF000000"
      d="M41.6,53.8A1.6,1.6 0,0 0,40 55.4h0a1.6,1.6 0,0 0,1.6 1.6,1.7 1.7,0 0,0 1.7,-1.7 1.7,1.7 0,0 0,-1.7 -1.6Z"/>
  <path
      fill="#FF000000"
      d="M48.2,46.5a1.7,1.7 0,0 0,-1.6 1.7h0a1.6,1.6 0,0 0,1.6 1.6,1.7 1.7,0 0,0 1.7,-1.6 1.8,1.8 0,0 0,-1.7 -1.7Z"/>
  <path
      fill="#FF000000"
      d="M48.2,53.8a1.6,1.6 0,0 0,-1.6 1.6h0a1.6,1.6 0,0 0,1.6 1.6,1.7 1.7,0 0,0 1.7,-1.7A1.7,1.7 0,0 0,48.2 53.8Z"/>
  <path
      fill="#FF000000"
      d="M54.8,46.5a1.7,1.7 0,0 0,-1.6 1.7h0a1.6,1.6 0,0 0,1.6 1.6,1.7 1.7,0 0,0 1.7,-1.6 1.8,1.8 0,0 0,-1.7 -1.7Z"/>
  <path
      fill="#FF000000"
      d="M54.8,53.8a1.6,1.6 0,0 0,-1.6 1.6h0a1.6,1.6 0,0 0,1.6 1.6,1.7 1.7,0 0,0 1.7,-1.7A1.7,1.7 0,0 0,54.8 53.8Z"/>
  <path
      fill="#FF000000"
      d="M74.6,48.2A1.6,1.6 0,0 0,73 46.6H62.3a1.6,1.6 0,0 0,-1.7 1.6,1.7 1.7,0 0,0 1.7,1.7H73A1.7,1.7 0,0 0,74.6 48.2Z"/>
  <path
      fill="#FF000000"
      d="M73.2,65.8a1.6,1.6 0,0 0,-1.6 1.6h0a1.6,1.6 0,0 0,1.6 1.6,1.6 1.6,0 0,0 1.7,-1.7A1.6,1.6 0,0 0,73.2 65.8Z"/>
  <path
      fill="#FF000000"
      d="M42.2,19.7h0.1a1.6,1.6 0,0 0,1.6 -1.6,1.6 1.6,0 0,0 -1.7,-1.7 1.6,1.6 0,0 0,-1.6 1.7,1.6 1.6,0 0,0 1.6,1.6Z"/>
</svg>
