<svg xmlns="http://www.w3.org/2000/svg" width="50" height="50" viewBox="0 0 119.62 128">
<path
      d="M115.76,84.65H79.1v39.22A2,2 0,0 0,81 125.94h34.73a2,2 0,0 0,1.93 -2.07V86.71A2,2 0,0 0,115.76 84.65Z"
      fill="#d3a06c"/>
  <path d
      ="M111.9,2.06H77.17a2,2 0,0 0,-1.93 2.07V43.35H111.9a2,2 0,0 0,1.93 -2.06V4.13A2,2 0,0 0,111.9 2.06Z"
      fill="#d3a06c"/>
  <path
      d="M69.46,43.35a2,2 0,0 0,-1.93 2.07v21l0,0a19.19,19.19 0,0 1,3.88 11.67v6.59h34.72V43.35Z"
      fill="#d3a06c"/>
  <path
      d="M86.82,2.06h15.43V14.45H86.82Z"
      fill="#b27946"/>
  <path
      d="M79.1,43.35H94.54V55.74H79.1Z"
      fill="#b27946"/>
  <path
      d="M90.68,84.65h15.43V97H90.68Z"
      fill="#b27946"/>
  <path
      d="M44.37,18.58H28.94a8,8 0,0 0,-7.72 8.26H19.29a5.6,5.6 0,0 0,-4 1.69l-1,-3.1a18.82,18.82 0,0 1,-0.84 -5.61A18.3,18.3 0,0 1,18.37 7.27,16 16,0 0,1 30.1,2.06H43.22c9.16,0 16.59,8 16.59,17.76A18.83,18.83 0,0 1,59 25.43l-1,3.1a5.65,5.65 0,0 0,-4 -1.69H52.09V24.77H46.3a7.31,7.31 0,0 1,-1.93 -5Z"
      fill="#656d78"/>
  <path
      d="M52.09,113.55v12.39H21.22V113.55h3.86a4,4 0,0 0,3.86 -4.13h5.79a5.57,5.57 0,0 0,4.09 -1.82,6.39 6.39,0 0,0 1.7,-4.37A6,6 0,0 0,34.73 97H21.22V82.58a2,2 0,0 1,1.93 -2.06h5.79v6.19a2,2 0,0 0,1.93 2.06H42.45a2,2 0,0 0,1.92 -2.06V80.52h5.79a2,2 0,0 1,1.93 2.06v31Z"
      fill="#e6e9ed"/>
  <path
      d="M52.09,113.55h7.72v12.39H52.09Z"
      fill="#fcd770"/>
  <path
      d="M13.51,113.55h7.71v12.39H13.51Z"
      fill="#fcd770"/>
  <path
      d="M1.93,101.16V78.06c0,-9.25 6.35,-17.09 14.91,-18.4l6.58,-1L27,70.19l9.65,-4.13 9.64,4.13 3.59,-11.54 6.58,1a17,17 0,0 1,11 6.73,19.19 19.19,0 0,1 3.88,11.67v23.1c0,6.83 -5.19,12.39 -11.58,12.39H52.09v-31a2,2 0,0 0,-1.93 -2.06h-27a2,2 0,0 0,-1.93 2.06V97h7.72v12.39a4,4 0,0 1,-3.86 4.13H13.51C7.12,113.55 1.93,108 1.93,101.16Z"
      fill="#fcd770"/>
  <path
      d="M49.89,58.65 L46.3,70.19l-9.64,-4.13 7.71,-8.25Z"
      fill="#ffc729"/>
  <path
      d="M36.66,66.06 L27,70.19 23.42,58.65l5.52,-0.84Z"
      fill="#ffc729"/>
  <path
      d="M44.37,80.52v6.19a2,2 0,0 1,-1.92 2.06H30.87a2,2 0,0 1,-1.93 -2.06V80.52Z"
      fill="#b4dd7f"/>
  <path
      d="M34.73,97a6,6 0,0 1,5.79 6.2,6.39 6.39,0 0,1 -1.7,4.37 5.57,5.57 0,0 1,-4.09 1.82H28.94V97Z"
      fill="#f0d0b4"/>
  <path
      d="M42.62,50.33l1.75,7.48 -7.71,8.25 -7.72,-8.25 1.76,-7.48a14.52,14.52 0,0 0,11.92 0Z"
      fill="#f0d0b4"/>
  <path
      d="M58,28.53a6.5,6.5 0,0 1,0.11 8.88A5.61,5.61 0,0 1,54 39.23H51.61a18.16,18.16 0,0 0,0.48 -4.13V26.84H54a5.65,5.65 0,0 1,4 1.69Z"
      fill="#f0d0b4"/>
  <path
      d="M21.71,39.23H19.29a5.63,5.63 0,0 1,-4.09 -1.82,6.51 6.51,0 0,1 0.12,-8.88 5.6,5.6 0,0 1,4 -1.69h1.93V35.1A18.16,18.16 0,0 0,21.71 39.23Z"
      fill="#f0d0b4"/>
  <path
      d="M46.3,24.77h5.79V35.1a18.16,18.16 0,0 1,-0.48 4.13,16.26 16.26,0 0,1 -9,11.1 14.52,14.52 0,0 1,-11.92 0,15 15,0 0,1 -5,-3.55 17,17 0,0 1,-4 -7.55,18.16 18.16,0 0,1 -0.49,-4.13V26.84a8,8 0,0 1,7.72 -8.26H44.37V19.8a7.31,7.31 0,0 0,1.93 5Z"
      fill="#f0d0b4"/>
  <path
      fill="#FF000000"
      d="M27.01,30.97a1.93,2.06 0,1 0,3.86 0a1.93,2.06 0,1 0,-3.86 0z"/>
  <path
      fill="#FF000000"
      d="M42.44,30.97a1.93,2.06 0,1 0,3.86 0a1.93,2.06 0,1 0,-3.86 0z"/>
  <path
      fill="#FF000000"
      d="M44,40.58l0.2,-0.43L40.72,38.3l-0.2,0.44a4.2,4.2 0,0 1,-7.72 0l-0.2,-0.44 -3.46,1.85 0.21,0.44a7.94,7.94 0,0 0,14.62 0Z"/>
  <path
      fill="#FF000000"
      d="M40,23.31a5.12,5.12 0,0 1,-1.36 -3.52V16.52H34.73v3.27a9.37,9.37 0,0 0,2.49 6.44Z"/>
  <path
      fill="#FF000000"
      d="M47.67,23.31a5.13,5.13 0,0 1,-1.37 -3.52V16.52H42.45v3.27a9.37,9.37 0,0 0,2.49 6.44Z"/>
  <path
      fill="#FF000000"
      d="M115.76,82.58L108,82.58L108,45.42h3.86a4,4 0,0 0,3.86 -4.13L115.72,4.13A4,4 0,0 0,111.9 0L77.17,0a4,4 0,0 0,-3.86 4.13L73.31,41.29L69.46,41.29a4,4 0,0 0,-3.86 4.13L65.6,61.59a18.52,18.52 0,0 0,-8.85 -4L45.93,56l-1,-4.5A18.44,18.44 0,0 0,53 41.29h1A8,8 0,0 0,61.74 33a8.57,8.57 0,0 0,-1.57 -4.94l0.62,-2a21.14,21.14 0,0 0,1 -6.27C61.74,8.9 53.43,0 43.21,0L30.1,0C19.89,0 11.58,8.9 11.58,19.83a21.14,21.14 0,0 0,0.95 6.27l0.62,2A8.5,8.5 0,0 0,11.58 33a8,8 0,0 0,7.71 8.26h1a18.4,18.4 0,0 0,8.13 10.17L27.39,56 16.57,57.61C7.12,59.06 0,67.84 0,78.05v23.11c0,7.27 5,13.28 11.58,14.29L11.58,128L61.74,128L61.74,115.45c6.53,-1 11.57,-7 11.57,-14.29L73.31,86.71h3.86v37.16A4,4 0,0 0,81 128h34.73a4,4 0,0 0,3.86 -4.13L119.59,86.71A4,4 0,0 0,115.76 82.58ZM88.76,4.13h3.86v8.26L88.75,12.39ZM96.48,4.13h3.86v8.26L96.47,12.39ZM77.18,4.13h7.72L84.9,16.52h19.29L104.19,4.13h7.72L111.91,41.29L77.17,41.29ZM81,45.42h3.86v8.26L81,53.68ZM88.72,45.42h3.86v8.26L88.75,53.68ZM47.34,60.35l-2.22,7.11 -5,-2.15 5,-5.31ZM54,37.16h-0.11A20.15,20.15 0,0 0,54 35.1L54,28.9a4.14,4.14 0,0 1,0 8.26ZM19.27,37.16a4.14,4.14 0,0 1,0 -8.26v6.2a20.16,20.16 0,0 0,0.12 2.06ZM23.13,35.1L23.13,26.84a6,6 0,0 1,5.79 -6.19h1.93L30.85,16.52L28.94,16.52a9.85,9.85 0,0 0,-9.45 8.25h-0.2a7.14,7.14 0,0 0,-2.91 0.63l-0.19,-0.61a16.67,16.67 0,0 1,-0.76 -5c0,-8.66 6.59,-15.7 14.68,-15.7h13.1c8.09,0 14.67,7 14.67,15.7a16.61,16.61 0,0 1,-0.75 5l-0.19,0.61A7.19,7.19 0,0 0,54 24.77L54,22.71L50.16,22.71L50.16,35.1c0,8 -6.06,14.45 -13.5,14.45S23.15,43.06 23.15,35.1ZM36.66,53.68a16,16 0,0 0,4.6 -0.69l1,4.18 -5.58,6 -5.58,-6 1,-4.18a16,16 0,0 0,4.61 0.69ZM28.26,60l5,5.32 -5,2.15L26,60.34ZM15.43,115.61h3.86v8.26L15.43,123.87ZM34.73,99.1a4.13,4.13 0,0 1,0 8.25L30.87,107.35L30.87,99.1ZM30.51,111.48h4.22a8.27,8.27 0,0 0,0 -16.51L23.15,94.97L23.15,82.58L27,82.58v4.13a4,4 0,0 0,3.86 4.13L42.45,90.84a4,4 0,0 0,3.85 -4.13L46.3,82.58h3.86v41.29h-27v-8.26h1.93A5.81,5.81 0,0 0,30.51 111.48ZM30.87,82.58L42.45,82.58v4.13L30.87,86.71ZM54,123.87v-8.26h3.86v8.26ZM69.44,101.16c0,5.69 -4.33,10.32 -9.65,10.32L54,111.48L54,99.1L65.6,99.1L65.6,95L61.74,95L61.74,78.45L57.88,78.45L57.88,95L54,95L54,82.58a4,4 0,0 0,-3.86 -4.13h-27a4,4 0,0 0,-3.86 4.13L19.28,95L15.43,95L15.43,78.45L11.58,78.45L11.58,95L7.72,95L7.72,99.1L27,99.1v10.32a2,2 0,0 1,-1.93 2.06L13.51,111.48c-5.32,0 -9.65,-4.63 -9.65,-10.32L3.86,78.05c0,-8.17 5.7,-15.19 13.25,-16.35l5,-0.76 3.74,12 10.83,-4.63 10.83,4.63 3.73,-12 5,0.76c7.56,1.15 13.26,8.18 13.26,16.35ZM73.29,82.58L73.29,78.05a21.54,21.54 0,0 0,-3.85 -12.32L69.44,45.42h7.71L77.15,57.81h19.3L96.45,45.42h7.71L104.16,82.58ZM92.59,86.71h3.86L96.45,95L92.61,95ZM100.31,86.71h3.85L104.16,95h-3.85ZM115.74,123.87L81,123.87L81,86.71h7.72L88.72,99.1L108,99.1L108,86.71h7.72Z"/>
</svg>
