<svg
    xmlns="http://www.w3.org/2000/svg"
    width="50"
    height="50"
    viewBox="0 0 512 512"
>
    <path
        d="M256.21,0C167.32,0.12,94.89,72.34,94.89,161.23c0,59.09,31.82,110.75,79.26,138.78c8.42,4.98,13.52,14.1,13.52,23.89v39.24c1.56-0.65,3.27-1.01,5.07-1.01h126.53c1.8,0,3.51,0.36,5.07,1.01v-39.24c0-9.9,5.29-19,13.8-24.05c47.28-28.07,78.98-79.64,78.98-138.62C417.19,72.01,345.18,0.03,256.21,0z"
        fill="#ffe181"
    />
    <path
        d="M230.25,323.78c0-9.78-5.1-18.91-13.52-23.89c-47.44-28.04-79.26-79.69-79.26-138.78c0-81.62,61.06-149.26,139.86-159.71c-6.91-0.91-13.96-1.4-21.12-1.41c-88.89-0.12-161.32,72.22-161.32,161.11c0,59.09,31.82,110.75,79.26,138.78c8.42,4.98,13.52,14.1,13.52,23.89v39.24c1.56-0.65,3.27-1.01,5.07-1.01h37.51z"
        fill="#fec458"
    />
    <path
        d="m276.18,369.73c-4.27,0 -7.73,-3.46 -7.73,-7.73v-69.15c0,-6.95 2.34,-13.8 6.59,-19.3l11.06,-14.31c2.17,-2.81 3.36,-6.31 3.36,-9.86v-72.16c0,-4.27 3.46,-7.73 7.73,-7.73s7.73,3.46 7.73,7.73v72.16c0,6.95 -2.34,13.8 -6.59,19.3l-11.06,14.31c-2.17,2.81 -3.36,6.31 -3.36,9.86v69.15c0,4.27 -3.46,7.73 -7.73,7.73z"
        fill="#ffb640"/>
    <path
        d="m235.82,369.73c-4.27,0 -7.73,-3.46 -7.73,-7.73v-69.15c0,-3.55 -1.2,-7.05 -3.36,-9.86l-11.06,-14.31c-4.25,-5.5 -6.59,-12.35 -6.59,-19.3v-72.16c0,-4.27 3.46,-7.73 7.73,-7.73s7.73,3.46 7.73,7.73v72.16c0,3.55 1.2,7.05 3.36,9.86l11.06,14.31c4.25,5.5 6.59,12.36 6.59,19.3v69.15c0,4.27 -3.46,7.73 -7.73,7.73z"
        fill="#ffb640"/>
    <path
        d="m368.39,129.56c-8.36,-31.16 -29.84,-57.21 -58.93,-71.47 -3.83,-1.88 -5.41,-6.51 -3.54,-10.34 1.88,-3.83 6.51,-5.41 10.34,-3.54 33.1,16.23 57.54,45.88 67.06,81.34 1.11,4.12 -1.34,8.36 -5.46,9.47 -4.12,1.11 -8.36,-1.34 -9.46,-5.46z"
        fill="#ffeac8"/>
    <path
        d="m224.8,475.14v5.66c0,17.16 14.04,31.2 31.2,31.2 17.16,0 31.2,-14.04 31.2,-31.2v-5.66z"
        fill="#8479c2"/>
    <path
        d="m252.73,480.8v-5.66h-27.93v5.66c0,17.16 14.04,31.2 31.2,31.2 5.01,0 9.76,-1.21 13.97,-3.33 -10.2,-5.15 -17.24,-15.72 -17.24,-27.87z"
        fill="#6e60b8"/>
    <path
        d="m304.91,193.52h-97.82c-4.27,0 -7.73,-3.46 -7.73,-7.73s3.46,-7.73 7.73,-7.73h97.82c4.27,0 7.73,3.46 7.73,7.73s-3.46,7.73 -7.73,7.73z"
        fill="#fec458"/>
    <path
        d="m57.42,164.71h-26.58c-4.27,0 -7.73,-3.46 -7.73,-7.73s3.46,-7.73 7.73,-7.73h26.58c4.27,0 7.73,3.46 7.73,7.73 0,4.27 -3.46,7.73 -7.73,7.73z"
        fill="#fec458"/>
    <path
        d="m65,115.68 l-24.85,-9.43c-3.99,-1.51 -6,-5.98 -4.48,-9.97 1.51,-3.99 5.97,-5.99 9.97,-4.48l24.85,9.43c3.99,1.51 6,5.98 4.48,9.97 -1.51,3.99 -5.97,5.99 -9.97,4.48z"
        fill="#fec458"/>
    <path
        d="m35.67,217.68c-1.51,-3.99 0.49,-8.45 4.48,-9.97l24.85,-9.43c3.99,-1.51 8.45,0.49 9.97,4.48 1.51,3.99 -0.49,8.45 -4.48,9.97l-24.85,9.43c-3.99,1.51 -8.45,-0.49 -9.97,-4.48z"
        fill="#fec458"/>
    <path
        d="m481.16,164.71h-26.58c-4.27,0 -7.73,-3.46 -7.73,-7.73s3.46,-7.73 7.73,-7.73h26.58c4.27,0 7.73,3.46 7.73,7.73 0,4.27 -3.46,7.73 -7.73,7.73z"
        fill="#fec458"/>
    <path
        d="m437.03,111.2c-1.51,-3.99 0.49,-8.45 4.48,-9.97l24.85,-9.43c3.99,-1.51 8.45,0.49 9.97,4.48 1.51,3.99 -0.49,8.45 -4.48,9.97l-24.85,9.43c-3.99,1.51 -8.45,-0.49 -9.97,-4.48z"
        fill="#fec458"/>
    <path
        d="m466.37,222.17 l-24.85,-9.43c-3.99,-1.51 -6,-5.98 -4.48,-9.97 1.51,-3.99 5.97,-6 9.97,-4.48l24.85,9.43c3.99,1.51 6,5.98 4.48,9.97 -1.51,3.99 -5.97,5.99 -9.97,4.48z"
        fill="#fec458"/>
    <path
        d="m308.97,437.17h-105.94c-7.39,0 -13.41,6.01 -13.41,13.41v11.41c0,7.39 6.01,13.41 13.41,13.41h105.94c7.39,0 13.41,-6.01 13.41,-13.41v-11.41c0,-7.39 -6.01,-13.41 -13.41,-13.41z"
        fill="#efecef"/>
    <path
        d="m308.97,456.28h-105.94c-6.05,0 -11.18,-4.04 -12.84,-9.56 -0.37,1.22 -0.57,2.51 -0.57,3.85v11.41c0,7.39 6.01,13.41 13.41,13.41h105.94c7.39,0 13.41,-6.01 13.41,-13.41v-11.41c0,-1.34 -0.2,-2.63 -0.57,-3.85 -1.66,5.52 -6.78,9.56 -12.84,9.56z"
        fill="#e2dfe2"/>
    <path
        d="m319.26,399.46h-126.53c-7.39,0 -13.41,6.01 -13.41,13.41v11.41c0,7.39 6.01,13.41 13.41,13.41h126.53c7.39,0 13.41,-6.01 13.41,-13.41v-11.41c0,-7.39 -6.01,-13.41 -13.41,-13.41z"
        fill="#efecef"/>
    <path
        d="m319.26,418.57h-126.53c-6.05,0 -11.18,-4.04 -12.84,-9.56 -0.37,1.22 -0.57,2.51 -0.57,3.85v11.41c0,7.39 6.01,13.41 13.41,13.41h126.53c7.39,0 13.41,-6.01 13.41,-13.41v-11.41c0,-1.34 -0.2,-2.63 -0.57,-3.85 -1.66,5.52 -6.78,9.56 -12.84,9.56z"
        fill="#e2dfe2"/>
    <path
        d="m319.26,361.75h-126.53c-7.39,0 -13.41,6.01 -13.41,13.41v11.41c0,7.39 6.01,13.41 13.41,13.41h126.53c7.39,0 13.41,-6.01 13.41,-13.41v-11.41c0,-7.39 -6.01,-13.41 -13.41,-13.41z"
        fill="#efecef"/>
    <path
        d="m319.26,380.86h-126.53c-6.05,0 -11.18,-4.04 -12.84,-9.56 -0.37,1.22 -0.57,2.51 -0.57,3.85v11.41c0,7.39 6.01,13.41 13.41,13.41h126.53c7.39,0 13.41,-6.01 13.41,-13.41v-11.41c0,-1.34 -0.2,-2.63 -0.57,-3.85 -1.66,5.52 -6.78,9.56 -12.84,9.56z"
        fill="#e2dfe2"/>
</svg>