<svg xmlns="http://www.w3.org/2000/svg" width="50" height="50" viewBox="-15 0 115.62 100">
  <path
      d="M74.9,58.1H53a157.1,157.1 0,0 1,-9.7 13.4,157.1 157.1,0 0,1 -9.7,-13.4H11.7L1.3,85.3h84Z"
      fill="#dfeef4"/>
  <path
      d="M43.3,1.3A22.4,22.4 0,0 0,20.9 23.7C20.8,45 43.3,71.5 43.3,71.5S65.8,45 65.7,23.7A22.4,22.4 0,0 0,43.3 1.3ZM43.3,33.1a9.5,9.5 0,1 1,9.5 -9.4h0a9.4,9.4 0,0 1,-9.5 9.4Z"
      fill="#f45858"/>
  <path
      d="M77.4,64.4l-42,14.9L19.1,58.1H33.6a157.1,157.1 0,0 0,9.7 13.4A157.1,157.1 0,0 0,53 58.1H74.9Z"
      fill="#f2da30"/>
  <path
      d="M18.5,85.3 L60,70.6 71.4,85.3Z"
      fill="#3ea2e5"/>
  <path
      fill="#FF000000"
      d="M61.3,12.7a1.3,1.3 0,1 0,2.2 -1.4,22.6 22.6,0 0,0 -2.3,-3.1 1.4,1.4 0,0 0,-1.8 -0.1,1.4 1.4,0 0,0 -0.1,1.8A17.9,17.9 0,0 1,61.3 12.7Z"/>
  <path
      fill="#FF000000"
      d="M32.5,23.7A10.8,10.8 0,1 0,43.3 12.9,10.8 10.8,0 0,0 32.5,23.7ZM51.5,23.7a8.2,8.2 0,1 1,-8.2 -8.3A8.2,8.2 0,0 1,51.5 23.7Z"/>
  <path
      fill="#FF000000"
      d="M4.8,76.1a1.2,1.2 0,0 0,1.6 -0.7h0l1.2,-3.1a1.3,1.3 0,0 0,-0.8 -1.6,1.4 1.4,0 0,0 -1.6,0.7L4.1,74.5a1.1,1.1 0,0 0,0.7 1.6Z"/>
  <path
      fill="#FF000000"
      d="M86.5,84.9 L76.1,57.6a1.2,1.2 0,0 0,-1.2 -0.8H55.3l0.3,-0.6C63.2,43.7 67,32.7 67,23.7a26.8,26.8 0,0 0,-1 -6.9,1.4 1.4,0 0,0 -1.6,-0.8 1.3,1.3 0,0 0,-0.9 1.6h0a20.5,20.5 0,0 1,0.9 6.1c0.1,18.1 -16.8,40.4 -21.1,45.8C39,64.1 22.1,41.8 22.2,23.7A21.1,21.1 0,0 1,43.3 2.6,20.7 20.7,0 0,1 55.4,6.4a1.4,1.4 0,0 0,1.8 -0.3,1.3 1.3,0 0,0 -0.3,-1.8A23.6,23.6 0,0 0,19.7 23.6c-0.1,9.1 3.7,20.1 11.3,32.6l0.3,0.6H11.7a1.2,1.2 0,0 0,-1.2 0.8l-3,7.9a1.2,1.2 0,0 0,0.7 1.6,1.3 1.3,0 0,0 1.7,-0.7l2.6,-7h5.9L33.3,78.7l-15,5.4H3.1L4.3,81a1.4,1.4 0,0 0,-0.8 -1.7,1.3 1.3,0 0,0 -1.6,0.8L0.1,84.9a1.2,1.2 0,0 0,0.7 1.6H85.3a1.3,1.3 0,0 0,1.3 -1.3,0.6 0.6,0 0,0 -0.1,-0.4ZM21.7,59.4H32.9a132.9,132.9 0,0 0,9.4 12.9,1.3 1.3,0 0,0 1.8,0.1h0.2a132.9,132.9 0,0 0,9.4 -12.9H74.1l1.6,4.2L35.9,77.8ZM35.8,80.5h0l23.8,-8.4 9.2,12H25.9ZM72,84.1 L62.1,71.2 76.6,66l6.9,18.1Z"/>
</svg>
