<svg
    width="126"
    height="126"
    viewBox="0 0 126 126"
    xmlns="http://www.w3.org/2000/svg"
    xmlns:android="http://schemas.android.com/apk/res/android">

    <path
        d="M63,63m-63,0a63,63 0,1 1,126 0a63,63 0,1 1,-126 0"
       fill="#e4eff9"/>

    <path
        d="M62.9,45.9a7.7,7.7 0,1 0,7.7 7.7A7.6,7.6 0,0 0,62.9 45.9Z"
       fill="#ff0000"/>

    <path
        d="M62.9,30.5a23,23 0,0 0,-23 23.1,23.5 23.5,0 0,0 3.4,12.1L61.6,95.2a2,2 0,0 0,3.3 0L82.7,65.4A22.6,22.6 0,0 0,86 53.6,23 23,0 0,0 62.9,30.5ZM62.9,65.1A11.6,11.6 0,1 1,74.5 53.6,11.5 11.5,0 0,1 62.9,65.1Z"
       fill="#011842"/>
</svg>