<svg
    width="20"
    height="25"
    viewBox="0 0 46.12 65.59"
    xmlns="http://www.w3.org/2000/svg"
    xmlns:android="http://schemas.android.com/apk/res/android">
    <path
       d="M23.06,15.37a7.69,7.69 0,1 0,7.69 7.69A7.7,7.7 0,0 0,23.06 15.37Z"
        fill="#00adef"/>
    <path
       d="M23.06,0A23.06,23.06 0,0 0,3.44 35.18l18.31,29.5a1.92,1.92 0,0 0,3.28 0L42.87,34.87A23.06,23.06 0,0 0,23.06 0ZM23.06,34.61A11.56,11.56 0,1 1,34.61 23.06,11.56 11.56,0 0,1 23.06,34.61Z"
        fill="#011842"/>
</svg>
