<svg xmlns="http://www.w3.org/2000/svg" width="50" height="50" viewBox="0 0 151.3 151.3">
    <path
        d="M75.6,75.6m-75.6,0a75.6,75.6 0,1 1,151.2 0a75.6,75.6 0,1 1,-151.2 0"
        fill="#e4eff9"/>
    <path
        d="M53.6,113H44.8a2.2,2.2 0,0 1,-2.2 -2.2V84.3a2.2,2.2 0,0 1,2.2 -2.2h8.8a2.2,2.2 0,0 1,2.2 2.2v26.5A2.2,2.2 0,0 1,53.6 113Z"
        fill="#ffdd6c"/>
    <path
        d="M71.2,113H62.4a2.2,2.2 0,0 1,-2.2 -2.2V75.5a2.2,2.2 0,0 1,2.2 -2.2h8.8a2.2,2.2 0,0 1,2.2 2.2v35.3A2.2,2.2 0,0 1,71.2 113Z"
        fill="#f77600"/>
    <path
        d="M88.9,113H80.1a2.2,2.2 0,0 1,-2.2 -2.2V66.7a2.2,2.2 0,0 1,2.2 -2.2h8.8a2.2,2.2 0,0 1,2.2 2.2v44.1A2.2,2.2 0,0 1,88.9 113Z"
        fill="#1fb4ff"/>
    <path
        d="M106.5,113H97.7a2.2,2.2 0,0 1,-2.2 -2.2v-53a2.2,2.2 0,0 1,2.2 -2.2h8.8a2.2,2.2 0,0 1,2.2 2.2v53A2.2,2.2 0,0 1,106.5 113Z"
        fill="#ff4c5b"/>
    <path
        d="M53.6,82.1H49.2V113h4.4a2.2,2.2 0,0 0,2.2 -2.2V84.3A2.2,2.2 0,0 0,53.6 82.1Z"
        fill="#fec300"/>
    <path
        d="M71.2,73.3H66.8V113h4.4a2.2,2.2 0,0 0,2.2 -2.2V75.5A2.2,2.2 0,0 0,71.2 73.3Z"
        fill="#ff4c5b"/>
    <path
        d="M88.9,64.5H84.5V113h4.4a2.2,2.2 0,0 0,2.2 -2.2V66.7A2.2,2.2 0,0 0,88.9 64.5Z"
        fill="#2982ff"/>
    <path
        d="M106.5,55.6h-4.4V113h4.4a2.2,2.2 0,0 0,2.2 -2.2v-53A2.2,2.2 0,0 0,106.5 55.6Z"
        fill="#d90048"/>
    <path
        d="M110.9,113.1H40.3a2.2,2.2 0,0 1,-2.2 -2.2,2.2 2.2,0 0,1 2.2,-2.2h70.6a2.2,2.2 0,0 1,2.2 2.2,2.1 2.1,0 0,1 -2.2,2.2Z"
        fill="#384949"/>
    <path
        d="M106.5,38.1H97.7a2.2,2.2 0,0 0,-2.2 2.2,2.2 2.2,0 0,0 2.2,2.2h3.4A66.6,66.6 0,0 1,90.3 50c-9.4,5.3 -25.7,12.2 -50.2,14.6a2.2,2.2 0,0 0,0.2 4.4h0.3a147.3,147.3 0,0 0,31.2 -6.3,102 102,0 0,0 20.9,-9 75.6,75.6 0,0 0,11.6 -8.1v3.6a2.2,2.2 0,0 0,4.4 0V40.3a2.2,2.2 0,0 0,-2.2 -2.2Z"
        fill="#d9e9fa"/>
    <path
        d="M110.9,108.7H75.6v4.4h35.3a2.1,2.1 0,0 0,2.2 -2.2,2.2 2.2,0 0,0 -2.2,-2.2Z"
        fill="#151f1f"/>
    <path
        d="M106.5,38.1H97.7a2.2,2.2 0,0 0,-2.2 2.2,2.2 2.2,0 0,0 2.2,2.2h3.4A66.6,66.6 0,0 1,90.3 50a99.1,99.1 0,0 1,-14.7 6.8v4.7a99.6,99.6 0,0 0,17.1 -7.8,75.6 75.6,0 0,0 11.6,-8.1v3.6a2.2,2.2 0,0 0,4.4 0V40.3a2.2,2.2 0,0 0,-2.2 -2.2Z"
        fill="#bfd9f5"/>

</svg>