<svg xmlns="http://www.w3.org/2000/svg" width="54.3" height="66.1" viewBox="0 0 54.3 66.1">
    <defs>
        <linearGradient id="grad1" x1="0%" y1="0%" x2="100%" y2="0%">
            <stop offset="0%" style="stop-color:#FFAB2C37" />
            <stop offset="100%" style="stop-color:#FFFF7A85" />
        </linearGradient>
        <linearGradient id="grad2" x1="14.94%" y1="41.78%" x2="39.33%" y2="41.78%">
            <stop offset="0%" style="stop-color:#FFFF4757" />
            <stop offset="100%" style="stop-color:#FFFF7A85" />
        </linearGradient>
    </defs>

    <path fill="url(#grad1)" d="M9.8 18.2l2.5 4c-1.9 3-4 5.6-5.2 8.6-3.3 8.2-2 15.9 3.8 22.5s13.7 8.9 22.3 6.4 13.6-8.3 15.3-16.9-0.7-13.7-5.9-19.1c-0.8-0.8-1-1.3-0.2-2.3a23.2 23.2 0 0 0 1.9-3.1c6.4 4.3 11.5 14.6 9.5 25.6S41.5 65 28.8 66 5.6 59.5 1.5 47.7a26.7 26.7 0 0 1 8.3-29.5z" />
    <path fill="#fff" d="M26.9 38.3c-1.5-3.2-3-6.8-4.8-10.2s-3.9-7-5.8-10.6A11.9 11.9 0 0 1 23.2.6a12.4 12.4 0 0 1 13.3 12.7c0.5 4.1-0.3 8.1-2.6 11.8a12 12 0 0 1-7 5.2z" />
    <path fill="url(#grad2)" d="M36.2 31.7a12.1 12.1 0 0 1-0.9 17.1 12.3 12.3 0 0 1-16.9-0.5c-4.5-4.7-4.6-12.3-0.2-16.7l1.4 2.2c-2.7 4.7-2.6 8.6 0.2 12a9.4 9.4 0 0 0 12.4 1.9 9.2 9.2 0 0 0 3.5-12c-0.9-2.1-1-3.2-2.5-4.4z" />
    <path fill="#011842" d="M27.1 13.2a6 6 0 1 1 12 0 6 6 0 1 1-12 0z" />
</svg>
