<svg xmlns="http://www.w3.org/2000/svg" width="50" height="50" viewBox="0 0 151.3 151.3">

    <path
        d="M75.6,75.6m-75.6,0a75.6,75.6 0,1 1,151.2 0a75.6,75.6 0,1 1,-151.2 0"
        fill="#e4eff9"/>
    <path
        d="M118,112l-6.6,-36.7a1.1,1.1 0,0 0,-0.7 -0.8L94,65.1h-0.7l3,39.3h-0.1l20.1,9h0.5a1.3,1.3 0,0 0,0.8 -0.3A1.3,1.3 0,0 0,118 112Z"
        fill="#44c868"/>
    <path
        d="M75.6,74 L58.5,65.1H58l-3,39.3 20.1,9.1h0.5Z"
        fill="#44c868"/>
    <path
        d="M58,65h-0.7L40.5,74.5c-0.3,0.1 -0.5,0.5 -0.6,0.8L33.3,112a1.3,1.3 0,0 0,0.4 1.2,1.1 1.1,0 0,0 0.8,0.3H35l20,-9Z"
        fill="#4ce166"/>
    <path
        d="M93.3,65h-0.5L75.6,74v39.5h0.6l20.1,-9.1Z"
        fill="#4ce166"/>
    <path
        d="M37.9,86.4l-1.4,7.5l20.1,-10.6l0.5,-6l0,-1l-19.2,10.1z"
        fill="#ffdb56"/>
    <path
        d="M56.8,81l-0.2,2.3 -20,10.6L33.3,112a1.3,1.3 0,0 0,0.4 1.2,1.1 1.1,0 0,0 0.8,0.3H35l20,-9L56.8,81Z"
        fill="#a8eefc"/>
    <path
        d="M75.6,79l-18.5,-2.7l-0.5,7l19,29l0,-10.6l-11.3,-17.9l11.3,1.4l0,-6.2z"
        fill="#ffbb24"/>
    <path
        d="M109.4,73.7l-8,-4.5l-7.7,1.8l0.1,1.3l0.4,4.8l15.2,-3.4z"
        fill="#ffbb24"/>
    <path
        d="M94.9,85.8l-0.7,-9.3l0,0l-0.5,-5.5l-18.1,8l0,6.2l11.9,-5.2l7.4,5.8z"
        fill="#ffdb56"/>
    <path
        d="M118,112l-1.7,-9.2L94.2,77.1l0.7,8.7 22.7,27.4A1.3,1.3 0,0 0,118 112Z"
        fill="#ffbb24"/>
    <path
        d="M75.7,37.8A17.4,17.4 0,0 0,58.3 55.2c0,5.9 2.8,12.3 8.4,18.9A64,64 0,0 0,75 82.3l0.7,0.2 0.8,-0.2a64,64 0,0 0,8.3 -8.2c5.5,-6.6 8.3,-13 8.3,-18.9A17.4,17.4 0,0 0,75.7 37.8ZM82.2,55.2a6.5,6.5 0,1 1,-6.5 -6.5A6.5,6.5 0,0 1,82.2 55.2Z"
        fill="#ff4a4a"/>
    <path
        d="M75.7,37.8H73.5A17.5,17.5 0,0 1,88.6 55.2c0,5.9 -2.8,12.3 -8.3,18.9A63.5,63.5 0,0 1,73.5 81,16 16,0 0,0 75,82.3l0.7,0.2 0.8,-0.2a64,64 0,0 0,8.3 -8.2c5.5,-6.6 8.3,-13 8.3,-18.9A17.4,17.4 0,0 0,75.7 37.8Z"
        fill="#e7343f"/>
    <path
        d="M76.2,113.4l7.5,-3.4 -8.1,-8.3v11.8h0.6Z"
        fill="#ffdb56"/>
    <path
        d="M111.4,75.3a1.1,1.1 0,0 0,-0.7 -0.8l-1.3,-0.8L94.2,77.1h0l22.1,25.7Z"
        fill="#1ea4e9"/>
    <path
        d="M75.6,113.5h0v-1.2l-19,-29 -1.6,21 20.1,9.1Z"
        fill="#1ea4e9"/>

</svg>
