<svg xmlns="http://www.w3.org/2000/svg" width="50" height="50" viewBox="0 0 50 50">
    <path
        d="M25,25m-24.272,0a24.272,24.272 0,1 1,48.544 0a24.272,24.272 0,1 1,-48.544 0"
        fill="#E5EEF9"/>
    <path
        d="M26.169,8.6c-0.239,-0.172 -0.482,-0.298 -0.729,-0.348C25.699,8.294 25.946,8.416 26.169,8.6z"
        fill="#C88C54"/>
    <path
        d="M24.417,8.517c-0.046,0.038 -0.092,0.071 -0.134,0.109c-0.034,0.021 -0.067,0.05 -0.096,0.084c-0.034,0.025 -0.063,0.059 -0.088,0.088c-0.029,0.029 -0.059,0.059 -0.08,0.088c-0.029,0.029 -0.054,0.063 -0.075,0.092c-0.021,0.029 -0.046,0.063 -0.067,0.092c-0.046,0.063 -0.084,0.126 -0.117,0.189c-0.017,0.034 -0.034,0.067 -0.05,0.096c-0.017,0.029 -0.034,0.063 -0.046,0.096c-0.017,0.034 -0.029,0.063 -0.042,0.096c-0.025,0.054 -0.046,0.109 -0.067,0.163c-0.226,0.637 -0.222,1.169 -0.532,1.027c-0.524,-0.247 -1.5,-0.402 -2.339,0.277c-0.838,0.683 -3.441,0.821 -4.82,-0.507c0,0 -0.909,-1.656 1.312,-2.024c1.22,0 3.177,1.924 4.049,1.941c0.872,0.017 1.798,-0.335 2.184,-0.926C23.633,9.145 24.006,8.768 24.417,8.517z"
        fill="#C2A985"/>
    <path
        d="M24.496,8.466c-0.025,0.017 -0.054,0.038 -0.08,0.05c0.004,-0.004 0.004,-0.004 0.008,-0.008C24.45,8.496 24.471,8.479 24.496,8.466z"
        fill="#C2A985"/>
    <path
        d="M24.651,8.374c-0.052,0.025 -0.102,0.061 -0.154,0.091c0.016,-0.01 0.029,-0.022 0.045,-0.032C24.58,8.412 24.614,8.391 24.651,8.374z"
        fill="#C88C54"/>
    <path
        d="M31.215,13.06l-0.054,0.004c-0.553,0.025 -5.101,0.18 -4.35,-1.576c0.474,-1.098 0.084,-2.263 -0.599,-2.858c0.369,0.277 0.725,0.65 1.039,0.956c0.557,0.541 3.491,0.277 4.191,1.66C32.137,12.624 31.215,13.06 31.215,13.06z"
        fill="#C2A985"/>
    <path
        d="M36.873,39.063c-2.095,0.993 -2.833,0.733 -3.722,0.419c-0.888,-0.315 -2.095,-0.209 -4.87,0.839c-4.401,2.46 -8.856,0.054 -9.849,-0.315c-0.998,-0.369 -2.096,0.419 -3.563,0.889c-4.455,0.628 -4.351,-2.461 -3.827,-3.873c-0.628,-1.366 -0.893,-2.359 -0.893,-6.705c0,-7.125 6.186,-11.057 6.735,-11.493c0.26,-0.208 0.702,-0.708 1,-1.339c0.236,-0.497 0.382,-1.075 0.28,-1.655c-0.042,-0.238 -0.126,-0.477 -0.262,-0.711c-0.859,-1.471 -1.969,-4.418 -2.036,-4.602l-0.005,-0.008c1.379,1.328 3.537,1.029 4.376,0.346c0.839,-0.678 1.851,-0.673 2.497,-0.541c0.335,0.069 0.592,0.035 0.818,-0.602c0.021,-0.054 0.042,-0.109 0.067,-0.163c0.013,-0.033 0.025,-0.063 0.042,-0.097c0.013,-0.034 0.03,-0.063 0.047,-0.097c0.017,-0.029 0.034,-0.062 0.05,-0.096c0.034,-0.063 0.075,-0.126 0.117,-0.189c0.02,-0.029 0.047,-0.062 0.067,-0.092c0.025,-0.029 0.05,-0.062 0.075,-0.092c0.025,-0.03 0.05,-0.059 0.08,-0.088c0.029,-0.029 0.059,-0.059 0.087,-0.087c0.03,-0.03 0.063,-0.059 0.097,-0.084c0.042,-0.038 0.087,-0.072 0.134,-0.109c0.004,-0.005 0.004,-0.005 0.008,-0.008c0.037,-0.025 0.075,-0.05 0.117,-0.075c0.038,-0.021 0.072,-0.042 0.109,-0.059c0.063,-0.03 0.126,-0.055 0.189,-0.076c0.037,-0.012 0.071,-0.02 0.104,-0.029c0.021,-0.005 0.038,-0.008 0.055,-0.013c0.033,-0.008 0.062,-0.012 0.092,-0.017c0.075,-0.008 0.147,-0.008 0.218,-0.004c0.013,0 0.021,0 0.034,0.004c0.033,0.005 0.063,0.008 0.097,0.013c0.247,0.05 0.49,0.176 0.729,0.348c0.013,0.012 0.025,0.02 0.042,0.029c0.684,0.596 1.073,1.761 0.599,2.859c-0.75,1.756 3.798,1.601 4.351,1.576l0.055,-0.004c0,0 -0.42,0.8 -1.522,2.112c-0.28,0.334 -0.465,0.678 -0.576,1.019c-0.107,0.329 -0.145,0.657 -0.132,0.972c0.011,0.276 0.069,0.545 0.165,0.8c0.001,0 0.001,0 0.001,0c0.188,0.503 0.526,0.95 0.957,1.285c7.578,5.889 6.045,14.311 6.765,16.356C37.602,37.7 37.602,38.379 36.873,39.063z"
        fill="#DDC69D"/>
    <path
        d="M32.024,38.517c-0.583,0.415 -1.111,0.775 -1.588,1.086c-0.595,0.159 -1.299,0.394 -2.154,0.717c-4.401,2.46 -8.856,0.054 -9.849,-0.314c-0.122,-0.046 -0.247,-0.075 -0.373,-0.088c-1.002,-0.725 -1.609,-1.4 -1.609,-1.4C24.446,42.185 27.518,40.194 32.024,38.517z"

        fill="#DDC69D"
        fill-opacity="0.3"/>
    <path
        d="M37.296,36.996c-7.812,0.889 -7.75,-2.121 -10.763,-4.133c-2.733,-1.819 -1.266,-1.412 -5.247,-3.278c-3.982,-1.865 -5.449,0.608 -6.287,-0.44c-0.838,-1.048 6.706,-1.521 7.544,-4.204c0.838,-2.682 2.062,-2.33 4.099,-3.261c2.033,-0.93 1.614,-1.459 0.65,-2.758c-0.96,-1.299 2.402,-3.751 2.402,-3.751c-0.553,0.654 -0.738,1.35 -0.708,1.991c0.034,0.821 0.469,1.58 1.119,2.083c7.578,5.889 6.048,14.313 6.769,16.358C37.066,36.158 37.208,36.615 37.296,36.996z"

        fill="#DDC69D"
        fill-opacity="0.3"/>
    <path
        d="M19.454,38.157c-1.572,-0.365 -3.718,-1.375 -4.874,-1.002c-0.738,0.239 -2.381,0.671 -3.697,0.423c0.042,-0.201 0.096,-0.39 0.159,-0.557c-0.629,-1.366 -0.893,-2.36 -0.893,-6.706c0,-0.226 0.004,-0.453 0.017,-0.671c0.658,0.272 1.446,0.914 2.217,2.309c1.832,3.324 1.936,2.154 3.822,3.156c1.886,1.006 1.915,2.783 3.998,2.364C22.283,37.055 21.026,38.522 19.454,38.157z"

        fill="#DDC69D"
        fill-opacity="0.3"/>
    <path
        d="M20.493,17.146c0,0 0.468,-0.166 0.114,-1.818c-0.355,-1.652 -0.246,-2.906 0.397,-2.328c0.643,0.579 0.692,0.772 0.681,1.8c-0.011,1.028 0.488,2.634 0.488,2.634s1.13,1.979 0.008,3.786c-1.122,1.807 -1.867,1.205 -1.16,0.022C21.727,20.058 20.248,17.845 20.493,17.146z"

        fill="#DDC69D"
        fill-opacity="0.3"/>
    <path
        d="M25.806,18.558c0,0 -0.427,0.062 -0.385,1.394c0.042,1.333 -0.25,2.291 -0.708,1.749c-0.458,-0.541 -0.469,-0.699 -0.297,-1.495s0,-2.114 0,-2.114s-0.652,-1.698 0.593,-2.939c1.245,-1.241 1.786,-0.667 0.995,0.15C25.213,16.121 26.126,18.051 25.806,18.558z"

        fill="#DDC69D"
        fill-opacity="0.3"/>
    <path
        d="M32.007,32.612c-0.072,0.583 -0.193,1.174 -0.36,1.756c-0.013,0.038 -0.021,0.08 -0.034,0.118c-0.11,0.364 -0.44,0.599 -0.805,0.599c-0.08,0 -0.159,-0.013 -0.239,-0.033c-0.251,-0.076 -0.44,-0.256 -0.532,-0.478c-0.071,-0.172 -0.087,-0.373 -0.029,-0.566c0.096,-0.323 0.171,-0.641 0.23,-0.951c0.126,-0.624 0.185,-1.224 0.194,-1.79c0.008,-0.616 -0.047,-1.19 -0.143,-1.706c-0.113,-0.624 -0.293,-1.165 -0.511,-1.597c-0.084,-0.159 -0.168,-0.306 -0.26,-0.436c-0.26,-0.378 -0.557,-0.73 -0.864,-1.069c-0.323,-0.352 -0.663,-0.687 -0.993,-1.023c-0.172,-0.171 -0.344,-0.343 -0.512,-0.519c-0.465,-0.474 -0.901,-0.96 -1.249,-1.483c-0.419,-0.629 -0.704,-1.312 -0.733,-2.087c-0.017,-0.427 0.042,-0.889 0.206,-1.383c0.017,-0.055 0.034,-0.105 0.046,-0.159c0.063,-0.214 0.114,-0.436 0.168,-0.666c0.05,-0.219 0.101,-0.44 0.164,-0.667c0.008,-0.03 0.018,-0.06 0.026,-0.09c-0.266,0.008 -0.538,0.012 -0.812,0.012c-0.235,0 -0.474,-0.005 -0.713,-0.008c-0.616,-0.013 -1.236,-0.047 -1.84,-0.092c-0.566,-0.042 -1.115,-0.101 -1.639,-0.172c-0.62,-0.079 -1.194,-0.18 -1.698,-0.289c-0.467,-0.104 -0.87,-0.222 -1.189,-0.347c0.236,-0.497 0.382,-1.075 0.28,-1.655c0.09,0.007 0.181,0.028 0.268,0.066c0.206,0.087 0.44,0.168 0.705,0.238c0.516,0.147 1.132,0.261 1.802,0.344c0.554,0.075 1.145,0.126 1.744,0.163c0.44,0.03 0.884,0.047 1.324,0.055c0.583,0.013 1.152,0.013 1.693,-0.005c0.704,-0.02 1.354,-0.062 1.899,-0.129c0.763,-0.083 1.314,-0.212 1.518,-0.37c-0.107,0.329 -0.145,0.657 -0.132,0.972c0.011,0.276 0.069,0.545 0.165,0.8c-0.101,0.029 -0.207,0.056 -0.317,0.082c-0.298,0.071 -0.626,0.128 -0.98,0.177c0.008,0.28 0.128,0.599 0.35,0.916c0.042,0.063 0.087,0.127 0.138,0.189c0.214,0.264 0.482,0.507 0.763,0.758c0.046,0.038 0.092,0.08 0.138,0.122c0.181,0.159 0.361,0.318 0.537,0.486c0.072,0.067 0.147,0.142 0.226,0.222c0.239,0.243 0.495,0.544 0.708,0.901c0.184,0.302 0.336,0.646 0.42,1.023c0.012,0.055 0.02,0.109 0.02,0.164c0.008,0.394 -0.26,0.75 -0.653,0.838c-0.063,0.013 -0.127,0.021 -0.185,0.021c-0.31,0 -0.595,-0.176 -0.737,-0.449c-0.034,-0.055 -0.059,-0.117 -0.072,-0.184c-0.004,-0.008 -0.008,-0.017 -0.008,-0.025c-0.059,-0.26 -0.196,-0.524 -0.419,-0.809c-0.126,-0.155 -0.276,-0.319 -0.457,-0.49c-0.134,-0.126 -0.268,-0.251 -0.41,-0.369c-0.025,-0.025 -0.055,-0.046 -0.08,-0.071c-0.365,-0.327 -0.746,-0.663 -1.085,-1.073c-0.013,-0.016 -0.025,-0.032 -0.037,-0.047c-0.014,0.048 -0.028,0.096 -0.044,0.144c-0.004,0.008 -0.004,0.017 -0.008,0.025c-0.164,0.519 -0.142,0.973 0.03,1.42c0.159,0.398 0.436,0.793 0.812,1.224c0.294,0.336 0.646,0.696 1.048,1.094c0.05,0.05 0.101,0.101 0.155,0.154c0.365,0.365 0.75,0.763 1.123,1.191c0.268,0.305 0.532,0.633 0.771,0.976c0.114,0.159 0.214,0.331 0.311,0.507c0.293,0.536 0.516,1.144 0.666,1.806c0.138,0.599 0.218,1.244 0.235,1.911C32.124,31.389 32.095,31.996 32.007,32.612z"

        fill="#DDC69D"
        fill-opacity="0.5"/>
    <path
        d="M25.5,25.892h1.96l-0.686,1.022c0,0 -0.224,0 -1.255,0c-0.37,2.559 -3.461,2.641 -3.461,2.641v0.088l4.084,5.025h-1.737l-3.969,-4.879v-0.992c1.159,0.104 1.947,-0.039 2.48,-0.286c0.006,-0.002 0.012,-0.005 0.019,-0.008c1.226,-0.542 1.106,-1.588 1.106,-1.588h-3.965l0.696,-0.992c0,0 1.235,0 3.167,0c-0.277,-0.978 -1.678,-1.124 -1.868,-1.116c-0.19,0.007 -1.995,0 -1.995,0l0.696,-1.034h6.722l-0.72,1.041c0,0 -1.245,0 -1.8,0C25.402,25.231 25.5,25.892 25.5,25.892z"
        fill="#2B211D"/>
    <path
        d="M30.374,22.668c-0.511,0.18 -1.044,0.335 -1.576,0.411c-0.034,-0.054 -0.059,-0.117 -0.071,-0.184c-0.004,-0.008 -0.008,-0.017 -0.008,-0.025c-0.059,-0.26 -0.197,-0.524 -0.419,-0.809c0.134,-0.017 0.264,-0.038 0.394,-0.067c0.44,-0.096 0.868,-0.26 1.241,-0.511c0.184,0.302 0.335,0.645 0.419,1.023C30.366,22.559 30.374,22.613 30.374,22.668z"
        fill="#43352E"/>
    <path
        d="M30.374,22.668c0.008,0.394 -0.26,0.75 -0.654,0.838c-0.063,0.013 -0.126,0.021 -0.184,0.021c-0.31,0 -0.595,-0.176 -0.738,-0.448C29.331,23.003 29.863,22.848 30.374,22.668z"
        fill="#55443E"/>
    <path
        d="M29.934,21.482c-0.373,0.251 -0.801,0.415 -1.241,0.511c-0.13,0.029 -0.26,0.05 -0.394,0.067c-0.126,-0.155 -0.277,-0.319 -0.457,-0.49c-0.134,-0.126 -0.268,-0.251 -0.411,-0.369h0.063c0.624,-0.025 1.253,-0.218 1.731,-0.62C29.465,20.823 29.721,21.125 29.934,21.482z"
        fill="#4A3B34"/>
    <path
        d="M29.226,20.58c-0.478,0.402 -1.106,0.595 -1.731,0.62h-0.063c-0.025,-0.025 -0.054,-0.046 -0.08,-0.071c-0.365,-0.327 -0.746,-0.662 -1.086,-1.073c-0.046,-0.059 -0.092,-0.117 -0.134,-0.176c0.151,0.017 0.302,0.021 0.453,0.025c0.428,0.017 0.859,0.025 1.283,-0.042c0.155,-0.025 0.306,-0.063 0.457,-0.113c0.046,0.038 0.092,0.08 0.138,0.122c0.18,0.159 0.36,0.319 0.536,0.486C29.071,20.425 29.146,20.501 29.226,20.58z"
        fill="#55443E"/>
    <path
        d="M28.325,19.751c-0.151,0.05 -0.302,0.088 -0.457,0.113c-0.423,0.067 -0.855,0.059 -1.283,0.042c-0.151,-0.004 -0.302,-0.008 -0.453,-0.025c-0.319,-0.419 -0.536,-0.868 -0.645,-1.316c0.067,0.025 0.134,0.05 0.205,0.071c0.411,0.122 0.842,0.142 1.27,0.163c0.155,0.008 0.31,0.017 0.461,0.004c0.042,0.063 0.088,0.126 0.138,0.189C27.776,19.256 28.044,19.499 28.325,19.751z"
        fill="#43352E"/>
    <path
        d="M27.424,18.803c-0.151,0.013 -0.306,0.004 -0.461,-0.004c-0.428,-0.021 -0.859,-0.042 -1.27,-0.163c-0.071,-0.021 -0.138,-0.046 -0.205,-0.071c-0.092,-0.356 -0.113,-0.713 -0.067,-1.06c0.532,0.189 1.102,0.26 1.66,0.197v0.029C27.038,18.045 27.16,18.426 27.424,18.803z"
        fill="#4A3B34"/>
    <path
        d="M27.08,17.701c-0.557,0.063 -1.127,-0.008 -1.66,-0.197c0,-0.004 0,-0.004 0,-0.008c0.067,-0.457 0.486,-0.78 0.947,-0.712C26.82,16.846 27.135,17.253 27.08,17.701z"
        fill="#55443E"/>
    <path
        d="M30.868,34.034c-0.013,0.038 -0.021,0.08 -0.034,0.117c-0.109,0.365 -0.44,0.599 -0.805,0.599c-0.08,0 -0.159,-0.013 -0.239,-0.034c-0.251,-0.075 -0.44,-0.256 -0.532,-0.478c0.281,-0.004 0.57,-0.029 0.847,-0.071C30.344,34.131 30.604,34.089 30.868,34.034z"
        fill="#4A3B34"/>
    <path
        d="M26.79,17.999c-0.113,0.251 -0.193,0.528 -0.268,0.821c-0.549,-0.034 -1.178,-0.36 -1.513,-0.645c-0.013,-0.013 -0.025,-0.021 -0.038,-0.038c0.075,-0.281 0.168,-0.562 0.302,-0.847c0.193,-0.419 0.692,-0.599 1.111,-0.407C26.807,17.081 26.987,17.58 26.79,17.999z"
        fill="#43352E"/>
    <path
        d="M26.522,18.82c-0.025,0.117 -0.054,0.235 -0.08,0.352c-0.071,0.319 -0.147,0.645 -0.256,0.981c-0.004,0.008 -0.004,0.017 -0.008,0.025c-0.528,-0.088 -1.035,-0.306 -1.459,-0.641c-0.025,-0.021 -0.054,-0.042 -0.08,-0.067c0.063,-0.214 0.113,-0.436 0.168,-0.666c0.05,-0.218 0.101,-0.44 0.163,-0.666c0.013,0.017 0.025,0.025 0.038,0.038C25.344,18.46 25.973,18.787 26.522,18.82z"
        fill="#55443E"/>
    <path
        d="M26.207,21.599c-0.587,-0.042 -1.165,-0.193 -1.676,-0.499c-0.046,-0.029 -0.096,-0.059 -0.143,-0.088c-0.017,-0.427 0.042,-0.889 0.205,-1.383c0.017,-0.054 0.034,-0.105 0.046,-0.159c0.025,0.025 0.054,0.046 0.08,0.067c0.423,0.335 0.93,0.553 1.459,0.641C26.015,20.698 26.036,21.151 26.207,21.599z"
        fill="#4A3B34"/>
    <path
        d="M27.021,22.823c-0.26,0.042 -0.528,0.063 -0.733,0.101c-0.386,0.071 -0.775,0.13 -1.165,0.176c-0.419,-0.629 -0.704,-1.312 -0.733,-2.087c0.046,0.029 0.096,0.059 0.143,0.088c0.511,0.306 1.09,0.457 1.676,0.499C26.367,21.997 26.643,22.391 27.021,22.823z"
        fill="#43352E"/>
    <path
        d="M28.223,24.072c-0.444,0.251 -1.052,0.344 -1.517,0.444c-0.113,0.025 -0.222,0.046 -0.335,0.067c-0.465,-0.474 -0.901,-0.96 -1.249,-1.484c0.39,-0.046 0.78,-0.105 1.165,-0.176c0.205,-0.038 0.474,-0.059 0.733,-0.101c0.293,0.335 0.645,0.696 1.048,1.094C28.119,23.967 28.169,24.017 28.223,24.072z"
        fill="#55443E"/>
    <path
        d="M29.347,25.262c-0.004,0.004 -0.008,0.013 -0.013,0.017c-0.365,0.44 -0.897,0.729 -1.459,0.847c-0.323,-0.352 -0.662,-0.687 -0.993,-1.023c-0.172,-0.172 -0.344,-0.344 -0.511,-0.52c0.113,-0.021 0.222,-0.042 0.335,-0.067c0.465,-0.101 1.073,-0.193 1.517,-0.444C28.588,24.436 28.974,24.835 29.347,25.262z"
        fill="#4A3B34"/>
    <path
        d="M30.428,26.746c-0.184,0.235 -0.423,0.44 -0.721,0.608c-0.222,0.126 -0.461,0.218 -0.708,0.277c-0.084,-0.159 -0.168,-0.306 -0.26,-0.436c-0.26,-0.377 -0.557,-0.729 -0.863,-1.069c0.562,-0.117 1.094,-0.407 1.459,-0.847c0.004,-0.004 0.008,-0.013 0.013,-0.017c0.268,0.306 0.532,0.633 0.771,0.977C30.231,26.398 30.332,26.57 30.428,26.746z"
        fill="#43352E"/>
    <path
        d="M31.094,28.552c-0.319,0.256 -0.679,0.457 -1.073,0.57c-0.168,0.046 -0.339,0.08 -0.511,0.105c-0.113,-0.625 -0.293,-1.165 -0.511,-1.597c0.247,-0.059 0.486,-0.151 0.708,-0.277c0.298,-0.168 0.536,-0.373 0.721,-0.608C30.721,27.282 30.944,27.89 31.094,28.552z"
        fill="#55443E"/>
    <path
        d="M31.329,30.463c-0.528,0.247 -1.098,0.407 -1.676,0.469c0.008,-0.616 -0.046,-1.19 -0.142,-1.706c0.172,-0.025 0.344,-0.059 0.511,-0.105c0.394,-0.113 0.754,-0.314 1.073,-0.57C31.233,29.152 31.312,29.797 31.329,30.463z"
        fill="#4A3B34"/>
    <path
        d="M31.329,30.463c0.017,0.591 -0.013,1.199 -0.101,1.815c-0.302,0.088 -0.591,0.155 -0.813,0.218c-0.314,0.088 -0.633,0.168 -0.956,0.226c0.126,-0.624 0.184,-1.224 0.193,-1.79C30.231,30.87 30.801,30.711 31.329,30.463z"
        fill="#43352E"/>
    <path
        d="M31.229,32.278c-0.071,0.583 -0.193,1.174 -0.36,1.756c-0.264,0.054 -0.524,0.096 -0.763,0.134c-0.277,0.042 -0.566,0.067 -0.847,0.071c-0.071,-0.172 -0.088,-0.373 -0.029,-0.566c0.096,-0.323 0.172,-0.641 0.231,-0.951c0.323,-0.059 0.641,-0.138 0.956,-0.226C30.638,32.433 30.927,32.366 31.229,32.278z"
        fill="#55443E"/>
    <path
        d="M29.693,16.65c-0.034,0.193 -0.134,0.373 -0.298,0.507c-0.289,0.235 -0.75,0.415 -1.341,0.553c0.071,-0.101 0.122,-0.214 0.176,-0.327c0.256,-0.557 0.52,-1.123 0.683,-1.71c0.231,0.008 0.448,0.113 0.608,0.306c0.054,0.067 0.096,0.138 0.122,0.214C29.705,16.34 29.722,16.499 29.693,16.65z"
        fill="#55443E"/>
    <path
        d="M18.359,15.799c-0.197,0.159 -0.415,0.306 -0.633,0.436c-0.352,0.21 -0.733,0.398 -1.127,0.507c-0.126,-0.218 -0.151,-0.495 -0.042,-0.742c0.021,-0.05 0.046,-0.096 0.08,-0.143c0.218,-0.323 0.645,-0.461 1.018,-0.298C17.861,15.648 18.095,15.728 18.359,15.799z"
        fill="#43352E"/>
    <path
        d="M20.162,16.143c-0.591,0.495 -1.215,0.947 -1.865,1.354c-0.524,-0.117 -0.968,-0.251 -1.303,-0.394c-0.168,-0.071 -0.298,-0.193 -0.381,-0.339c-0.004,-0.008 -0.008,-0.013 -0.013,-0.021c0.394,-0.109 0.775,-0.298 1.127,-0.507c0.218,-0.13 0.436,-0.277 0.633,-0.436C18.875,15.946 19.491,16.059 20.162,16.143z"
        fill="#55443E"/>
    <path
        d="M21.905,16.306c-0.054,0.063 -0.117,0.126 -0.18,0.18c-0.536,0.482 -1.127,0.897 -1.731,1.299c-0.62,-0.08 -1.195,-0.18 -1.697,-0.289c0.65,-0.407 1.274,-0.859 1.865,-1.354C20.715,16.218 21.306,16.269 21.905,16.306z"
        fill="#4A3B34"/>
    <path
        d="M23.23,16.361c-0.298,0.457 -0.679,0.859 -1.098,1.211c-0.163,0.134 -0.327,0.264 -0.499,0.386c-0.566,-0.042 -1.115,-0.101 -1.639,-0.172c0.604,-0.402 1.194,-0.817 1.731,-1.299c0.063,-0.054 0.126,-0.117 0.18,-0.18C22.345,16.336 22.79,16.353 23.23,16.361z"
        fill="#43352E"/>
    <path
        d="M24.923,16.357c-0.067,0.168 -0.168,0.323 -0.272,0.474c-0.327,0.465 -0.725,0.88 -1.178,1.22c-0.616,-0.013 -1.236,-0.046 -1.84,-0.092c0.172,-0.122 0.335,-0.251 0.499,-0.386c0.419,-0.352 0.801,-0.754 1.098,-1.211C23.812,16.373 24.382,16.373 24.923,16.357z"
        fill="#55443E"/>
    <path
        d="M26.822,16.227c-0.025,0.184 -0.05,0.369 -0.105,0.541c-0.101,0.31 -0.289,0.583 -0.499,0.83c-0.117,0.147 -0.243,0.285 -0.377,0.411c-0.528,0.034 -1.086,0.05 -1.656,0.05c-0.235,0 -0.474,-0.004 -0.713,-0.008c0.453,-0.339 0.851,-0.754 1.178,-1.22c0.105,-0.151 0.205,-0.306 0.272,-0.474C25.627,16.336 26.277,16.294 26.822,16.227z"
        fill="#4A3B34"/>
    <path
        d="M28.913,15.674c-0.163,0.587 -0.427,1.153 -0.683,1.71c-0.054,0.113 -0.105,0.226 -0.176,0.327c-0.62,0.147 -1.379,0.243 -2.213,0.298c0.134,-0.126 0.26,-0.264 0.377,-0.411c0.21,-0.247 0.398,-0.52 0.499,-0.83c0.054,-0.172 0.08,-0.356 0.105,-0.541c0.767,-0.084 1.32,-0.214 1.521,-0.373C28.511,15.72 28.716,15.657 28.913,15.674z"
        fill="#43352E"/>
    <path
        d="M34.674,37.834c0.173,0.042 0.349,0.07 0.532,0.086c-0.131,0.013 -0.266,0.019 -0.4,0.019c-0.045,0 -0.086,0 -0.131,-0.003c-2.281,-0.067 -4.113,-1.941 -4.113,-4.241c0,-2.297 1.832,-4.182 4.112,-4.25c0,0 0.75,-0.007 0.881,0.005c-0.183,0.016 -0.707,0.064 -0.88,0.106c-1.893,0.423 -3.312,2.117 -3.312,4.139C31.362,35.72 32.781,37.412 34.674,37.834z"
        fill="#9C9C9B"/>
    <path
        d="M39.85,33.696c0,2.319 -1.858,4.203 -4.167,4.241c-0.026,0.003 -0.051,0.003 -0.077,0.003c-0.135,0 -0.269,-0.006 -0.4,-0.019c-0.183,-0.016 -0.359,-0.045 -0.532,-0.086c-1.893,-0.423 -3.312,-2.114 -3.312,-4.139c0,-2.021 1.419,-3.716 3.312,-4.139c0.173,-0.042 0.349,-0.07 0.532,-0.086c0.131,-0.013 0.266,-0.019 0.4,-0.019c0.026,0 0.051,0 0.077,0.003C37.992,29.493 39.85,31.38 39.85,33.696z"
        fill="#DBDADA"/>
    <path
        d="M35.745,30.121c0.015,0 0.031,0 0.039,0.001l0.012,0.002l0.013,0c0.922,0.016 1.786,0.394 2.434,1.065c0.649,0.673 1.007,1.563 1.007,2.507c0,0.945 -0.358,1.836 -1.007,2.508c-0.648,0.671 -1.512,1.049 -2.434,1.064l-0.012,0l-0.012,0.002c-0.008,0.001 -0.024,0.001 -0.039,0.001c-0.111,0 -0.222,-0.005 -0.332,-0.016c-0.149,-0.013 -0.291,-0.037 -0.434,-0.072l-0.002,0l-0.002,0c-0.763,-0.174 -1.457,-0.612 -1.953,-1.236c-0.505,-0.633 -0.783,-1.433 -0.783,-2.25c0,-0.817 0.278,-1.615 0.783,-2.249c0.497,-0.624 1.191,-1.063 1.953,-1.237l0.002,0l0.002,0c0.143,-0.035 0.285,-0.059 0.436,-0.072C35.523,30.126 35.634,30.121 35.745,30.121M35.745,29.892c-0.118,0 -0.237,0.006 -0.352,0.017c-0.161,0.014 -0.316,0.04 -0.468,0.077c-1.665,0.379 -2.914,1.897 -2.914,3.709c0,1.814 1.248,3.33 2.914,3.709c0.152,0.037 0.307,0.063 0.468,0.077c0.116,0.011 0.234,0.017 0.352,0.017c0.023,0 0.045,0 0.068,-0.003c2.032,-0.034 3.666,-1.722 3.666,-3.801c0,-2.075 -1.634,-3.766 -3.666,-3.801C35.79,29.892 35.768,29.892 35.745,29.892L35.745,29.892z"
        fill="#B3B3B3"/>
    <path
        d="M36.396,32.26h0.903l-0.316,0.535c0,0 -0.103,0 -0.578,0c-0.17,1.341 -1.594,1.384 -1.594,1.384v0.046l1.881,2.633h-0.8l-1.828,-2.557v-0.52c0.534,0.055 0.897,-0.02 1.142,-0.15c0.003,-0.001 0.006,-0.003 0.009,-0.004c0.565,-0.284 0.509,-0.832 0.509,-0.832h-1.826l0.32,-0.52c0,0 0.569,0 1.459,0c-0.128,-0.512 -0.773,-0.589 -0.86,-0.585c-0.087,0.004 -0.919,0 -0.919,0l0.32,-0.542h3.096l-0.332,0.545c0,0 -0.573,0 -0.829,0C36.351,31.913 36.396,32.26 36.396,32.26z"

        fill="#878787"
        fill-opacity="0.3"/>
    <path
        d="M36.713,32.062h0.903L37.3,32.597c0,0 -0.103,0 -0.578,0c-0.17,1.341 -1.594,1.384 -1.594,1.384v0.046l1.881,2.633h-0.8l-1.828,-2.557v-0.52c0.534,0.055 0.897,-0.02 1.142,-0.15c0.003,-0.001 0.006,-0.003 0.009,-0.004c0.565,-0.284 0.509,-0.832 0.509,-0.832h-1.826l0.32,-0.52c0,0 0.569,0 1.459,0c-0.128,-0.512 -0.773,-0.589 -0.86,-0.585c-0.087,0.004 -0.919,0 -0.919,0l0.32,-0.542h3.096L37.3,31.496c0,0 -0.573,0 -0.829,0C36.668,31.715 36.713,32.062 36.713,32.062z"
        fill="#FFFFFF"/>
    <path
        d="M31.388,33.216c-0.009,0.078 -0.016,0.157 -0.02,0.236h-0.801c0.004,-0.079 0.011,-0.158 0.02,-0.236H31.388z"

        fill="#9C9C9B"
        fill-opacity="0.3"/>
    <path
        d="M31.467,32.744c-0.018,0.078 -0.034,0.157 -0.047,0.236h-0.8c0.013,-0.079 0.028,-0.158 0.046,-0.236H31.467z"

        fill="#9C9C9B"
        fill-opacity="0.3"/>
    <path
        d="M31.604,32.273c-0.027,0.077 -0.053,0.155 -0.075,0.235h-0.801c0.023,-0.079 0.048,-0.158 0.075,-0.235H31.604z"

        fill="#9C9C9B"
        fill-opacity="0.3"/>
    <path
        d="M31.804,31.801c-0.038,0.077 -0.075,0.155 -0.108,0.235h-0.801c0.034,-0.08 0.069,-0.158 0.107,-0.235H31.804z"

        fill="#9C9C9B"
        fill-opacity="0.3"/>
    <path
        d="M32.078,31.33c-0.052,0.077 -0.101,0.155 -0.147,0.235h-0.801c0.046,-0.08 0.095,-0.158 0.147,-0.235H32.078z"

        fill="#9C9C9B"
        fill-opacity="0.3"/>
    <path
        d="M32.446,30.858c-0.069,0.076 -0.135,0.155 -0.198,0.236h-0.801c0.062,-0.082 0.128,-0.16 0.197,-0.236H32.446z"

        fill="#9C9C9B"
        fill-opacity="0.3"/>
    <path
        d="M32.942,30.386c-0.093,0.075 -0.182,0.153 -0.268,0.236h-0.802c0.086,-0.082 0.175,-0.161 0.268,-0.236H32.942z"

        fill="#9C9C9B"
        fill-opacity="0.3"/>
    <path
        d="M33.665,29.915c-0.139,0.072 -0.273,0.15 -0.402,0.236h-0.801c0.129,-0.086 0.262,-0.165 0.401,-0.236H33.665z"

        fill="#9C9C9B"
        fill-opacity="0.3"/>
    <path
        d="M35.541,29.451c-0.392,0.01 -0.624,0.058 -0.821,0.096c-0.015,0.002 -0.03,0.006 -0.046,0.01c-0.156,0.035 -0.309,0.078 -0.459,0.13h-0.805c0.398,-0.139 0.822,-0.22 1.264,-0.233v-0.003h0.132C34.94,29.451 35.409,29.438 35.541,29.451z"

        fill="#9C9C9B"
        fill-opacity="0.3"/>
    <path
        d="M31.368,33.923h-0.801c-0.005,-0.078 -0.007,-0.157 -0.007,-0.236h0.801C31.362,33.767 31.364,33.845 31.368,33.923z"

        fill="#9C9C9B"
        fill-opacity="0.3"/>
    <path
        d="M31.42,34.395h-0.8c-0.014,-0.078 -0.024,-0.157 -0.033,-0.236h0.801C31.397,34.238 31.407,34.317 31.42,34.395z"

        fill="#9C9C9B"
        fill-opacity="0.3"/>
    <path
        d="M31.528,34.866h-0.8c-0.024,-0.078 -0.043,-0.157 -0.062,-0.236h0.801C31.485,34.71 31.506,34.789 31.528,34.866z"

        fill="#9C9C9B"
        fill-opacity="0.3"/>
    <path
        d="M31.695,35.338h-0.801c-0.033,-0.077 -0.062,-0.155 -0.091,-0.235h0.801C31.632,35.183 31.662,35.26 31.695,35.338z"

        fill="#9C9C9B"
        fill-opacity="0.3"/>
    <path
        d="M31.931,35.809H31.13c-0.046,-0.077 -0.088,-0.155 -0.127,-0.235h0.801C31.844,35.654 31.886,35.733 31.931,35.809z"

        fill="#9C9C9B"
        fill-opacity="0.3"/>
    <path
        d="M32.247,36.281h-0.801c-0.059,-0.076 -0.116,-0.155 -0.169,-0.235h0.801C32.132,36.126 32.188,36.205 32.247,36.281z"

        fill="#9C9C9B"
        fill-opacity="0.3"/>
    <path
        d="M32.672,36.752H31.87c-0.079,-0.075 -0.155,-0.154 -0.228,-0.235h0.802C32.517,36.599 32.593,36.677 32.672,36.752z"

        fill="#9C9C9B"
        fill-opacity="0.3"/>
    <path
        d="M33.263,37.225H32.46c-0.111,-0.074 -0.219,-0.152 -0.321,-0.236h0.803C33.045,37.072 33.152,37.152 33.263,37.225z"

        fill="#9C9C9B"
        fill-opacity="0.3"/>
    <path
        d="M34.215,37.696H33.41c-0.19,-0.066 -0.374,-0.145 -0.55,-0.236h0.804C33.84,37.551 34.024,37.631 34.215,37.696z"

        fill="#9C9C9B"
        fill-opacity="0.3"/>
    <path
        d="M35.522,29.445c-0.181,0.016 -0.606,0.056 -0.803,0.094c0.158,-0.037 0.32,-0.062 0.486,-0.077C35.309,29.452 35.415,29.446 35.522,29.445z"

        fill="#9C9C9B"
        fill-opacity="0.3"/>
    <path
        d="M35.554,29.452c-0.027,0 -0.478,0 -0.88,0.106c-0.155,0.041 -0.31,0.07 -0.459,0.122H33.41c0.398,-0.139 0.822,-0.22 1.264,-0.233v-0.003L35.554,29.452z"

        fill="#9C9C9B"
        fill-opacity="0.3"/>
    <path
        d="M33.665,29.915c-0.139,0.072 -0.273,0.15 -0.402,0.236h-0.801c0.129,-0.086 0.262,-0.165 0.401,-0.236H33.665z"

        fill="#9C9C9B"
        fill-opacity="0.3"/>
    <path
        d="M32.942,30.386c-0.093,0.075 -0.182,0.153 -0.268,0.236h-0.802c0.086,-0.082 0.175,-0.161 0.268,-0.236H32.942z"

        fill="#9C9C9B"
        fill-opacity="0.3"/>
    <path
        d="M32.446,30.858c-0.069,0.076 -0.135,0.155 -0.198,0.236h-0.801c0.062,-0.082 0.128,-0.16 0.197,-0.236H32.446z"

        fill="#9C9C9B"
        fill-opacity="0.3"/>
    <path
        d="M32.078,31.33c-0.052,0.077 -0.101,0.155 -0.147,0.235h-0.801c0.046,-0.08 0.095,-0.158 0.147,-0.235H32.078z"

        fill="#9C9C9B"
        fill-opacity="0.3"/>
    <path
        d="M31.804,31.801c-0.038,0.077 -0.075,0.155 -0.108,0.235h-0.801c0.034,-0.08 0.069,-0.158 0.107,-0.235H31.804z"

        fill="#9C9C9B"
        fill-opacity="0.3"/>
    <path
        d="M31.604,32.273c-0.027,0.077 -0.053,0.155 -0.075,0.235h-0.801c0.023,-0.079 0.048,-0.158 0.075,-0.235H31.604z"

        fill="#9C9C9B"
        fill-opacity="0.3"/>
    <path
        d="M31.467,32.744c-0.018,0.078 -0.034,0.157 -0.047,0.236h-0.8c0.013,-0.079 0.028,-0.158 0.046,-0.236H31.467z"

        fill="#9C9C9B"
        fill-opacity="0.3"/>
    <path
        d="M31.388,33.216c-0.009,0.078 -0.016,0.157 -0.02,0.236h-0.801c0.004,-0.079 0.011,-0.158 0.02,-0.236H31.388z"

        fill="#9C9C9B"
        fill-opacity="0.3"/>
    <path
        d="M31.368,33.923h-0.801c-0.005,-0.078 -0.007,-0.157 -0.007,-0.236h0.801C31.362,33.767 31.364,33.845 31.368,33.923z"

        fill="#9C9C9B"
        fill-opacity="0.3"/>
    <path
        d="M31.42,34.395h-0.8c-0.014,-0.078 -0.024,-0.157 -0.033,-0.236h0.801C31.397,34.238 31.407,34.317 31.42,34.395z"

        fill="#9C9C9B"
        fill-opacity="0.3"/>
    <path
        d="M31.528,34.866h-0.8c-0.024,-0.078 -0.043,-0.157 -0.062,-0.236h0.801C31.485,34.71 31.506,34.789 31.528,34.866z"

        fill="#9C9C9B"
        fill-opacity="0.3"/>
    <path
        d="M31.695,35.338h-0.801c-0.033,-0.077 -0.062,-0.155 -0.091,-0.235h0.801C31.632,35.183 31.662,35.26 31.695,35.338z"

        fill="#9C9C9B"
        fill-opacity="0.3"/>
    <path
        d="M31.931,35.809H31.13c-0.046,-0.077 -0.088,-0.155 -0.127,-0.235h0.801C31.844,35.654 31.886,35.733 31.931,35.809z"

        fill="#9C9C9B"
        fill-opacity="0.3"/>
    <path
        d="M32.247,36.281h-0.801c-0.059,-0.076 -0.116,-0.155 -0.169,-0.235h0.801C32.132,36.126 32.188,36.205 32.247,36.281z"

        fill="#9C9C9B"
        fill-opacity="0.3"/>
    <path
        d="M32.672,36.752H31.87c-0.079,-0.075 -0.155,-0.154 -0.228,-0.235h0.802C32.517,36.599 32.593,36.677 32.672,36.752z"

        fill="#9C9C9B"
        fill-opacity="0.3"/>
    <path
        d="M33.263,37.225H32.46c-0.111,-0.074 -0.219,-0.152 -0.321,-0.236h0.803C33.045,37.072 33.152,37.152 33.263,37.225z"

        fill="#9C9C9B"
        fill-opacity="0.3"/>
    <path
        d="M34.215,37.696H33.41c-0.19,-0.066 -0.374,-0.145 -0.55,-0.236h0.804C33.84,37.551 34.024,37.631 34.215,37.696z"

        fill="#9C9C9B"
        fill-opacity="0.3"/>
    <path
        d="M38.59,40.232c0,0.098 -2.606,0.173 -5.825,0.173c-3.214,0 -5.82,-0.075 -5.82,-0.173c0,-0.098 2.606,-0.178 5.82,-0.178C35.984,40.055 38.59,40.134 38.59,40.232z"
        fill="#DBDADA"/>
    <path
        d="M37.616,40.248c0,0.054 -2.17,0.095 -4.85,0.095c-2.676,0 -4.846,-0.041 -4.846,-0.095c0,-0.054 2.17,-0.098 4.846,-0.098C35.446,40.15 37.616,40.194 37.616,40.248z"

        fill="#9C9C9B"
        fill-opacity="0.3"/>
    <path
        d="M38.59,40.232v1.109c0,0.098 -2.606,0.178 -5.825,0.178c-3.214,0 -5.82,-0.08 -5.82,-0.178v-1.109c0,0.098 2.606,0.173 5.82,0.173C35.984,40.405 38.59,40.331 38.59,40.232z"
        fill="#9C9C9B"/>
    <path
        d="M27.287,40.292v1.11c-0.221,-0.019 -0.343,-0.039 -0.343,-0.06v-1.109C26.944,40.254 27.066,40.274 27.287,40.292z"

        fill="#9C9C9B"
        fill-opacity="0.3"/>
    <path
        d="M27.63,40.315c0.103,0.006 0.218,0.011 0.343,0.017v1.11c-0.125,-0.004 -0.239,-0.01 -0.343,-0.017V40.315z"

        fill="#9C9C9B"
        fill-opacity="0.3"/>
    <path
        d="M28.315,40.344c0.108,0.004 0.223,0.009 0.343,0.011v1.113c-0.12,-0.004 -0.235,-0.008 -0.343,-0.011V40.344z"

        fill="#9C9C9B"
        fill-opacity="0.3"/>
    <path
        d="M29,40.365c0.11,0.002 0.225,0.004 0.342,0.008v1.113c-0.117,-0.002 -0.231,-0.006 -0.342,-0.008V40.365z"

        fill="#9C9C9B"
        fill-opacity="0.3"/>
    <path
        d="M29.685,40.379c0.111,0.002 0.226,0.003 0.343,0.006v1.114c-0.117,-0.002 -0.231,-0.004 -0.343,-0.007V40.379z"

        fill="#9C9C9B"
        fill-opacity="0.3"/>
    <path
        d="M30.37,40.391c0.112,0.001 0.227,0.002 0.343,0.003v1.114c-0.116,-0.001 -0.23,-0.003 -0.343,-0.004V40.391z"

        fill="#9C9C9B"
        fill-opacity="0.3"/>
    <path
        d="M31.055,40.397c0.112,0.001 0.227,0.002 0.343,0.003v1.114c-0.116,-0.001 -0.23,-0.002 -0.343,-0.003V40.397z"

        fill="#9C9C9B"
        fill-opacity="0.3"/>
    <path
        d="M31.74,40.403c0.112,0 0.227,0.001 0.343,0.001v1.114c-0.116,0 -0.23,-0.001 -0.343,-0.002V40.403z"

        fill="#9C9C9B"
        fill-opacity="0.3"/>
    <path
        d="M32.765,40.405c0.001,0 0.001,0 0.002,0v1.114c-0.001,0 -0.001,0 -0.002,0c-0.115,0 -0.228,0 -0.34,-0.001v-1.114C32.537,40.405 32.651,40.405 32.765,40.405z"

        fill="#9C9C9B"
        fill-opacity="0.3"/>
    <path
        d="M33.11,40.405c0.116,0 0.229,-0.001 0.343,-0.001v1.114c-0.113,0 -0.227,0.001 -0.343,0.001V40.405z"

        fill="#9C9C9B"
        fill-opacity="0.3"/>
    <path
        d="M33.796,40.403c0.116,-0.001 0.229,-0.002 0.342,-0.002v1.114c-0.112,0 -0.226,0.001 -0.342,0.002V40.403z"

        fill="#9C9C9B"
        fill-opacity="0.3"/>
    <path
        d="M34.48,40.397c0.116,-0.001 0.23,-0.002 0.343,-0.003v1.114c-0.112,0.001 -0.227,0.002 -0.343,0.003V40.397z"

        fill="#9C9C9B"
        fill-opacity="0.3"/>
    <path
        d="M35.165,40.391c0.117,-0.002 0.231,-0.003 0.343,-0.006v1.114c-0.111,0.001 -0.226,0.003 -0.343,0.004V40.391z"

        fill="#9C9C9B"
        fill-opacity="0.3"/>
    <path
        d="M35.851,40.379c0.117,-0.002 0.231,-0.004 0.343,-0.007v1.113c-0.111,0.002 -0.226,0.004 -0.343,0.007V40.379z"

        fill="#9C9C9B"
        fill-opacity="0.3"/>
    <path
        d="M36.535,40.365c0.119,-0.003 0.233,-0.007 0.343,-0.01v1.113c-0.11,0.003 -0.224,0.007 -0.343,0.01V40.365z"

        fill="#9C9C9B"
        fill-opacity="0.3"/>
    <path
        d="M37.22,40.344c0.121,-0.003 0.236,-0.008 0.343,-0.012v1.11c-0.107,0.006 -0.221,0.01 -0.343,0.014V40.344z"

        fill="#9C9C9B"
        fill-opacity="0.3"/>
    <path
        d="M38.248,40.292v1.11c-0.096,0.008 -0.21,0.016 -0.343,0.023v-1.11C38.038,40.308 38.153,40.3 38.248,40.292z"

        fill="#9C9C9B"
        fill-opacity="0.3"/>
    <path
        d="M27.287,40.292v1.11c-0.221,-0.019 -0.343,-0.039 -0.343,-0.06v-1.109C26.944,40.254 27.066,40.274 27.287,40.292z"

        fill="#9C9C9B"
        fill-opacity="0.3"/>
    <path
        d="M27.972,40.332v1.11c-0.125,-0.004 -0.239,-0.01 -0.343,-0.017v-1.11C27.733,40.321 27.848,40.326 27.972,40.332z"

        fill="#9C9C9B"
        fill-opacity="0.3"/>
    <path
        d="M28.658,40.355v1.113c-0.12,-0.004 -0.235,-0.008 -0.343,-0.011v-1.113C28.423,40.348 28.538,40.353 28.658,40.355z"

        fill="#9C9C9B"
        fill-opacity="0.3"/>
    <path
        d="M29.342,40.373v1.113c-0.117,-0.002 -0.231,-0.006 -0.342,-0.008v-1.113C29.111,40.367 29.225,40.369 29.342,40.373z"

        fill="#9C9C9B"
        fill-opacity="0.3"/>
    <path
        d="M30.027,40.385v1.114c-0.117,-0.002 -0.231,-0.004 -0.343,-0.007v-1.113C29.796,40.382 29.911,40.383 30.027,40.385z"

        fill="#9C9C9B"
        fill-opacity="0.3"/>
    <path
        d="M30.713,40.394v1.114c-0.116,-0.001 -0.23,-0.003 -0.343,-0.004v-1.113C30.482,40.392 30.597,40.393 30.713,40.394z"

        fill="#9C9C9B"
        fill-opacity="0.3"/>
    <path
        d="M31.398,40.401v1.114c-0.116,-0.001 -0.23,-0.002 -0.343,-0.003v-1.114C31.168,40.398 31.282,40.4 31.398,40.401z"

        fill="#9C9C9B"
        fill-opacity="0.3"/>
    <path
        d="M32.082,40.404v1.114c-0.116,0 -0.23,-0.001 -0.343,-0.002v-1.113C31.852,40.403 31.967,40.404 32.082,40.404z"

        fill="#9C9C9B"
        fill-opacity="0.3"/>
    <path
        d="M32.768,40.405v1.114c-0.001,0 -0.001,0 -0.002,0c-0.115,0 -0.228,0 -0.34,-0.001v-1.114c0.112,0.001 0.226,0.001 0.34,0.001C32.767,40.405 32.767,40.405 32.768,40.405z"

        fill="#9C9C9B"
        fill-opacity="0.3"/>
    <path
        d="M33.453,40.404v1.114c-0.113,0 -0.227,0.001 -0.343,0.001v-1.114C33.226,40.405 33.34,40.404 33.453,40.404z"

        fill="#9C9C9B"
        fill-opacity="0.3"/>
    <path
        d="M34.137,40.401v1.114c-0.112,0 -0.226,0.001 -0.342,0.002v-1.114C33.911,40.402 34.025,40.401 34.137,40.401z"

        fill="#9C9C9B"
        fill-opacity="0.3"/>
    <path
        d="M34.823,40.394v1.114c-0.112,0.001 -0.227,0.002 -0.343,0.003v-1.114C34.596,40.396 34.71,40.395 34.823,40.394z"

        fill="#9C9C9B"
        fill-opacity="0.3"/>
    <path
        d="M35.508,40.385v1.114c-0.111,0.001 -0.226,0.003 -0.343,0.004v-1.113C35.282,40.388 35.397,40.387 35.508,40.385z"

        fill="#9C9C9B"
        fill-opacity="0.3"/>
    <path
        d="M36.193,40.373v1.113c-0.111,0.002 -0.226,0.004 -0.343,0.007v-1.113C35.968,40.377 36.082,40.375 36.193,40.373z"

        fill="#9C9C9B"
        fill-opacity="0.3"/>
    <path
        d="M36.878,40.355v1.113c-0.11,0.003 -0.224,0.007 -0.343,0.01v-1.113C36.654,40.362 36.767,40.358 36.878,40.355z"

        fill="#9C9C9B"
        fill-opacity="0.3"/>
    <path
        d="M37.563,40.332v1.11c-0.107,0.006 -0.221,0.01 -0.343,0.014v-1.113C37.342,40.341 37.456,40.336 37.563,40.332z"

        fill="#9C9C9B"
        fill-opacity="0.3"/>
    <path
        d="M38.248,40.292v1.11c-0.096,0.008 -0.21,0.016 -0.343,0.023v-1.11C38.038,40.308 38.153,40.3 38.248,40.292z"

        fill="#9C9C9B"
        fill-opacity="0.3"/>
    <path
        d="M39.617,39.077c0,0.098 -2.606,0.173 -5.825,0.173c-3.214,0 -5.82,-0.075 -5.82,-0.173c0,-0.098 2.606,-0.178 5.82,-0.178C37.011,38.899 39.617,38.979 39.617,39.077z"
        fill="#F8B232"/>
    <path
        d="M39.617,39.077v1.109c0,0.098 -2.606,0.178 -5.825,0.178c-3.214,0 -5.82,-0.08 -5.82,-0.178v-1.109c0,0.098 2.606,0.173 5.82,0.173C37.011,39.25 39.617,39.175 39.617,39.077z"
        fill="#F29220"/>
    <path
        d="M28.314,39.136v1.11c-0.221,-0.019 -0.343,-0.039 -0.343,-0.06v-1.109C27.971,39.098 28.093,39.118 28.314,39.136z"

        fill="#F29220"
        fill-opacity="0.3"/>
    <path
        d="M28.657,39.16c0.103,0.006 0.218,0.011 0.343,0.017v1.11c-0.125,-0.004 -0.239,-0.01 -0.343,-0.017V39.16z"

        fill="#F29220"
        fill-opacity="0.3"/>
    <path
        d="M29.342,39.189c0.108,0.004 0.223,0.009 0.343,0.011v1.113c-0.12,-0.004 -0.235,-0.008 -0.343,-0.011V39.189z"

        fill="#F29220"
        fill-opacity="0.3"/>
    <path
        d="M30.027,39.21c0.11,0.002 0.225,0.004 0.342,0.008v1.113c-0.117,-0.002 -0.231,-0.006 -0.342,-0.008V39.21z"

        fill="#F29220"
        fill-opacity="0.3"/>
    <path
        d="M30.712,39.224c0.111,0.002 0.226,0.003 0.343,0.006v1.114c-0.117,-0.002 -0.231,-0.004 -0.343,-0.007V39.224z"

        fill="#F29220"
        fill-opacity="0.3"/>
    <path
        d="M31.397,39.235c0.112,0.001 0.227,0.002 0.343,0.003v1.114c-0.116,-0.001 -0.23,-0.003 -0.343,-0.004V39.235z"

        fill="#F29220"
        fill-opacity="0.3"/>
    <path
        d="M32.082,39.242c0.112,0.001 0.227,0.002 0.343,0.003v1.114c-0.116,-0.001 -0.23,-0.002 -0.343,-0.003V39.242z"

        fill="#F29220"
        fill-opacity="0.3"/>
    <path
        d="M32.767,39.248c0.112,0 0.227,0.001 0.343,0.001v1.114c-0.116,0 -0.23,-0.001 -0.343,-0.002V39.248z"

        fill="#F29220"
        fill-opacity="0.3"/>
    <path
        d="M33.792,39.25c0.001,0 0.001,0 0.002,0v1.114c-0.001,0 -0.001,0 -0.002,0c-0.115,0 -0.228,0 -0.34,-0.001v-1.114C33.564,39.25 33.678,39.25 33.792,39.25z"

        fill="#F29220"
        fill-opacity="0.3"/>
    <path
        d="M34.137,39.25c0.116,0 0.229,-0.001 0.343,-0.001v1.114c-0.113,0 -0.227,0.001 -0.343,0.001V39.25z"

        fill="#F29220"
        fill-opacity="0.3"/>
    <path
        d="M34.823,39.248c0.116,-0.001 0.229,-0.002 0.342,-0.002v1.114c-0.112,0 -0.226,0.001 -0.342,0.002V39.248z"

        fill="#F29220"
        fill-opacity="0.3"/>
    <path
        d="M35.507,39.242c0.116,-0.001 0.23,-0.002 0.343,-0.003v1.114c-0.112,0.001 -0.227,0.002 -0.343,0.003V39.242z"

        fill="#F29220"
        fill-opacity="0.3"/>
    <path
        d="M36.192,39.235c0.117,-0.002 0.231,-0.003 0.343,-0.006v1.114c-0.111,0.001 -0.226,0.003 -0.343,0.004V39.235z"

        fill="#F29220"
        fill-opacity="0.3"/>
    <path
        d="M36.878,39.224c0.117,-0.002 0.231,-0.004 0.343,-0.007v1.113c-0.111,0.002 -0.226,0.004 -0.343,0.007V39.224z"

        fill="#F29220"
        fill-opacity="0.3"/>
    <path
        d="M37.562,39.21c0.119,-0.003 0.233,-0.007 0.343,-0.01v1.113c-0.11,0.003 -0.224,0.007 -0.343,0.01V39.21z"

        fill="#F29220"
        fill-opacity="0.3"/>
    <path
        d="M38.247,39.189c0.121,-0.003 0.236,-0.008 0.343,-0.012v1.11c-0.107,0.006 -0.221,0.01 -0.343,0.014V39.189z"

        fill="#F29220"
        fill-opacity="0.3"/>
    <path
        d="M39.275,39.136v1.11c-0.096,0.008 -0.21,0.016 -0.343,0.023v-1.11C39.065,39.153 39.18,39.145 39.275,39.136z"

        fill="#F29220"
        fill-opacity="0.3"/>
    <path
        d="M28.314,39.136v1.11c-0.221,-0.019 -0.343,-0.039 -0.343,-0.06v-1.109C27.971,39.098 28.093,39.118 28.314,39.136z"

        fill="#F29220"
        fill-opacity="0.3"/>
    <path
        d="M28.999,39.176v1.11c-0.125,-0.004 -0.239,-0.01 -0.343,-0.017v-1.11C28.76,39.165 28.875,39.171 28.999,39.176z"

        fill="#F29220"
        fill-opacity="0.3"/>
    <path
        d="M29.685,39.2v1.113c-0.12,-0.004 -0.235,-0.008 -0.343,-0.011v-1.113C29.45,39.193 29.565,39.197 29.685,39.2z"

        fill="#F29220"
        fill-opacity="0.3"/>
    <path
        d="M30.369,39.217v1.113c-0.117,-0.002 -0.231,-0.006 -0.342,-0.008V39.21C30.138,39.212 30.252,39.214 30.369,39.217z"

        fill="#F29220"
        fill-opacity="0.3"/>
    <path
        d="M31.054,39.23v1.114c-0.117,-0.002 -0.231,-0.004 -0.343,-0.007v-1.113C30.823,39.226 30.937,39.228 31.054,39.23z"

        fill="#F29220"
        fill-opacity="0.3"/>
    <path
        d="M31.74,39.239v1.114c-0.116,-0.001 -0.23,-0.003 -0.343,-0.004v-1.113C31.509,39.236 31.624,39.238 31.74,39.239z"

        fill="#F29220"
        fill-opacity="0.3"/>
    <path
        d="M32.425,39.245v1.114c-0.116,-0.001 -0.23,-0.002 -0.343,-0.003v-1.114C32.195,39.243 32.309,39.244 32.425,39.245z"

        fill="#F29220"
        fill-opacity="0.3"/>
    <path
        d="M33.109,39.249v1.114c-0.116,0 -0.23,-0.001 -0.343,-0.002v-1.113C32.879,39.248 32.994,39.249 33.109,39.249z"

        fill="#F29220"
        fill-opacity="0.3"/>
    <path
        d="M33.795,39.25v1.114c-0.001,0 -0.001,0 -0.002,0c-0.115,0 -0.228,0 -0.34,-0.001v-1.114c0.112,0.001 0.226,0.001 0.34,0.001C33.794,39.25 33.794,39.25 33.795,39.25z"

        fill="#F29220"
        fill-opacity="0.3"/>
    <path
        d="M34.48,39.249v1.114c-0.113,0 -0.227,0.001 -0.343,0.001V39.25C34.253,39.25 34.366,39.249 34.48,39.249z"

        fill="#F29220"
        fill-opacity="0.3"/>
    <path
        d="M35.164,39.245v1.114c-0.112,0 -0.226,0.001 -0.342,0.002v-1.114C34.938,39.246 35.052,39.245 35.164,39.245z"

        fill="#F29220"
        fill-opacity="0.3"/>
    <path
        d="M35.85,39.239v1.114c-0.112,0.001 -0.227,0.002 -0.343,0.003v-1.114C35.623,39.241 35.737,39.24 35.85,39.239z"

        fill="#F29220"
        fill-opacity="0.3"/>
    <path
        d="M36.535,39.23v1.114c-0.111,0.001 -0.226,0.003 -0.343,0.004v-1.113C36.309,39.233 36.424,39.232 36.535,39.23z"

        fill="#F29220"
        fill-opacity="0.3"/>
    <path
        d="M37.22,39.217v1.113c-0.111,0.002 -0.226,0.004 -0.343,0.007v-1.113C36.994,39.222 37.109,39.22 37.22,39.217z"

        fill="#F29220"
        fill-opacity="0.3"/>
    <path
        d="M37.905,39.2v1.113c-0.11,0.003 -0.224,0.007 -0.343,0.01V39.21C37.681,39.206 37.794,39.203 37.905,39.2z"

        fill="#F29220"
        fill-opacity="0.3"/>
    <path
        d="M38.59,39.176v1.11c-0.107,0.006 -0.221,0.01 -0.343,0.014v-1.113C38.368,39.185 38.483,39.181 38.59,39.176z"

        fill="#F29220"
        fill-opacity="0.3"/>
    <path
        d="M39.275,39.136v1.11c-0.096,0.008 -0.21,0.016 -0.343,0.023v-1.11C39.065,39.153 39.18,39.145 39.275,39.136z"

        fill="#F29220"
        fill-opacity="0.3"/>
    <path
        d="M39.275,37.872c0,0.098 -2.606,0.173 -5.825,0.173c-3.214,0 -5.82,-0.075 -5.82,-0.173c0,-0.098 2.606,-0.178 5.82,-0.178C36.669,37.694 39.275,37.774 39.275,37.872z"
        fill="#F8B232"/>
    <path
        d="M39.275,37.872v1.109c0,0.098 -2.606,0.178 -5.825,0.178c-3.214,0 -5.82,-0.08 -5.82,-0.178v-1.109c0,0.098 2.606,0.173 5.82,0.173C36.669,38.045 39.275,37.971 39.275,37.872z"
        fill="#F29220"/>
    <path
        d="M27.971,37.931v1.11c-0.221,-0.019 -0.343,-0.039 -0.343,-0.06v-1.109C27.629,37.894 27.75,37.914 27.971,37.931z"

        fill="#F29220"
        fill-opacity="0.3"/>
    <path
        d="M28.314,37.955c0.103,0.006 0.218,0.011 0.343,0.017v1.11c-0.125,-0.004 -0.239,-0.01 -0.343,-0.017V37.955z"

        fill="#F29220"
        fill-opacity="0.3"/>
    <path
        d="M28.999,37.984c0.108,0.004 0.223,0.009 0.343,0.011v1.113c-0.12,-0.004 -0.235,-0.008 -0.343,-0.011V37.984z"

        fill="#F29220"
        fill-opacity="0.3"/>
    <path
        d="M29.685,38.005c0.11,0.002 0.225,0.004 0.342,0.008v1.113c-0.117,-0.002 -0.231,-0.006 -0.342,-0.008V38.005z"

        fill="#F29220"
        fill-opacity="0.3"/>
    <path
        d="M30.369,38.019c0.111,0.002 0.226,0.003 0.343,0.006v1.114c-0.117,-0.002 -0.231,-0.004 -0.343,-0.007V38.019z"

        fill="#F29220"
        fill-opacity="0.3"/>
    <path
        d="M31.054,38.03c0.112,0.001 0.227,0.002 0.343,0.003v1.114c-0.116,-0.001 -0.23,-0.003 -0.343,-0.004V38.03z"

        fill="#F29220"
        fill-opacity="0.3"/>
    <path
        d="M31.74,38.037c0.112,0.001 0.227,0.002 0.343,0.003v1.114c-0.116,-0.001 -0.23,-0.002 -0.343,-0.003V38.037z"

        fill="#F29220"
        fill-opacity="0.3"/>
    <path
        d="M32.424,38.043c0.112,0 0.227,0.001 0.343,0.001v1.114c-0.116,0 -0.23,-0.001 -0.343,-0.002V38.043z"

        fill="#F29220"
        fill-opacity="0.3"/>
    <path
        d="M33.45,38.045c0.001,0 0.001,0 0.002,0v1.114c-0.001,0 -0.001,0 -0.002,0c-0.115,0 -0.228,0 -0.34,-0.001v-1.114C33.222,38.045 33.335,38.045 33.45,38.045z"

        fill="#F29220"
        fill-opacity="0.3"/>
    <path
        d="M33.795,38.045c0.116,0 0.229,-0.001 0.343,-0.001v1.114c-0.113,0 -0.227,0.001 -0.343,0.001V38.045z"

        fill="#F29220"
        fill-opacity="0.3"/>
    <path
        d="M34.48,38.043c0.116,-0.001 0.229,-0.002 0.342,-0.002v1.114c-0.112,0 -0.226,0.001 -0.342,0.002V38.043z"

        fill="#F29220"
        fill-opacity="0.3"/>
    <path
        d="M35.164,38.037c0.116,-0.001 0.23,-0.002 0.343,-0.003v1.114c-0.112,0.001 -0.227,0.002 -0.343,0.003V38.037z"

        fill="#F29220"
        fill-opacity="0.3"/>
    <path
        d="M35.85,38.03c0.117,-0.002 0.231,-0.003 0.343,-0.006v1.114c-0.111,0.001 -0.226,0.003 -0.343,0.004V38.03z"

        fill="#F29220"
        fill-opacity="0.3"/>
    <path
        d="M36.535,38.019c0.117,-0.002 0.231,-0.004 0.343,-0.007v1.113c-0.111,0.002 -0.226,0.004 -0.343,0.007V38.019z"

        fill="#F29220"
        fill-opacity="0.3"/>
    <path
        d="M37.219,38.005c0.119,-0.003 0.233,-0.007 0.343,-0.01v1.113c-0.11,0.003 -0.224,0.007 -0.343,0.01V38.005z"

        fill="#F29220"
        fill-opacity="0.3"/>
    <path
        d="M37.905,37.984c0.121,-0.003 0.236,-0.008 0.343,-0.012v1.11c-0.107,0.006 -0.221,0.01 -0.343,0.014V37.984z"

        fill="#F29220"
        fill-opacity="0.3"/>
    <path
        d="M38.933,37.931v1.11c-0.096,0.008 -0.21,0.016 -0.343,0.023v-1.11C38.722,37.948 38.837,37.94 38.933,37.931z"

        fill="#F29220"
        fill-opacity="0.3"/>
    <path
        d="M27.971,37.931v1.11c-0.221,-0.019 -0.343,-0.039 -0.343,-0.06v-1.109C27.629,37.894 27.75,37.914 27.971,37.931z"

        fill="#F29220"
        fill-opacity="0.3"/>
    <path
        d="M28.657,37.972v1.11c-0.125,-0.004 -0.239,-0.01 -0.343,-0.017v-1.11C28.417,37.96 28.532,37.966 28.657,37.972z"

        fill="#F29220"
        fill-opacity="0.3"/>
    <path
        d="M29.342,37.995v1.113c-0.12,-0.004 -0.235,-0.008 -0.343,-0.011v-1.113C29.107,37.988 29.222,37.993 29.342,37.995z"

        fill="#F29220"
        fill-opacity="0.3"/>
    <path
        d="M30.026,38.013v1.113c-0.117,-0.002 -0.231,-0.006 -0.342,-0.008v-1.113C29.795,38.007 29.909,38.009 30.026,38.013z"

        fill="#F29220"
        fill-opacity="0.3"/>
    <path
        d="M30.712,38.025v1.114c-0.117,-0.002 -0.231,-0.004 -0.343,-0.007v-1.113C30.48,38.022 30.595,38.023 30.712,38.025z"

        fill="#F29220"
        fill-opacity="0.3"/>
    <path
        d="M31.397,38.034v1.114c-0.116,-0.001 -0.23,-0.003 -0.343,-0.004V38.03C31.167,38.032 31.281,38.033 31.397,38.034z"

        fill="#F29220"
        fill-opacity="0.3"/>
    <path
        d="M32.082,38.041v1.114c-0.116,-0.001 -0.23,-0.002 -0.343,-0.003v-1.114C31.852,38.038 31.967,38.039 32.082,38.041z"

        fill="#F29220"
        fill-opacity="0.3"/>
    <path
        d="M32.767,38.044v1.114c-0.116,0 -0.23,-0.001 -0.343,-0.002v-1.113C32.536,38.043 32.651,38.044 32.767,38.044z"

        fill="#F29220"
        fill-opacity="0.3"/>
    <path
        d="M33.452,38.045v1.114c-0.001,0 -0.001,0 -0.002,0c-0.115,0 -0.228,0 -0.34,-0.001v-1.114c0.112,0.001 0.226,0.001 0.34,0.001C33.451,38.045 33.451,38.045 33.452,38.045z"

        fill="#F29220"
        fill-opacity="0.3"/>
    <path
        d="M34.137,38.044v1.114c-0.113,0 -0.227,0.001 -0.343,0.001v-1.114C33.91,38.045 34.024,38.044 34.137,38.044z"

        fill="#F29220"
        fill-opacity="0.3"/>
    <path
        d="M34.822,38.041v1.114c-0.112,0 -0.226,0.001 -0.342,0.002v-1.114C34.596,38.042 34.709,38.041 34.822,38.041z"

        fill="#F29220"
        fill-opacity="0.3"/>
    <path
        d="M35.507,38.034v1.114c-0.112,0.001 -0.227,0.002 -0.343,0.003v-1.114C35.28,38.036 35.395,38.035 35.507,38.034z"

        fill="#F29220"
        fill-opacity="0.3"/>
    <path
        d="M36.192,38.025v1.114c-0.111,0.001 -0.226,0.003 -0.343,0.004V38.03C35.966,38.028 36.081,38.027 36.192,38.025z"

        fill="#F29220"
        fill-opacity="0.3"/>
    <path
        d="M36.878,38.013v1.113c-0.111,0.002 -0.226,0.004 -0.343,0.007v-1.113C36.652,38.017 36.766,38.015 36.878,38.013z"

        fill="#F29220"
        fill-opacity="0.3"/>
    <path
        d="M37.562,37.995v1.113c-0.11,0.003 -0.224,0.007 -0.343,0.01v-1.113C37.338,38.002 37.452,37.998 37.562,37.995z"

        fill="#F29220"
        fill-opacity="0.3"/>
    <path
        d="M38.247,37.972v1.11c-0.107,0.006 -0.221,0.01 -0.343,0.014v-1.113C38.026,37.98 38.14,37.976 38.247,37.972z"

        fill="#F29220"
        fill-opacity="0.3"/>
    <path
        d="M38.933,37.931v1.11c-0.096,0.008 -0.21,0.016 -0.343,0.023v-1.11C38.722,37.948 38.837,37.94 38.933,37.931z"

        fill="#F29220"
        fill-opacity="0.3"/>
    <path
        d="M38.849,36.583c0,0.098 -2.606,0.173 -5.825,0.173c-3.214,0 -5.82,-0.075 -5.82,-0.173c0,-0.098 2.606,-0.178 5.82,-0.178C36.242,36.405 38.849,36.485 38.849,36.583z"
        fill="#DBDADA"/>
    <path
        d="M37.874,36.598c0,0.054 -2.17,0.095 -4.85,0.095c-2.676,0 -4.846,-0.041 -4.846,-0.095c0,-0.054 2.17,-0.098 4.846,-0.098C35.704,36.501 37.874,36.544 37.874,36.598z"

        fill="#9C9C9B"
        fill-opacity="0.3"/>
    <path
        d="M38.849,36.583v1.109c0,0.098 -2.606,0.178 -5.825,0.178c-3.214,0 -5.82,-0.08 -5.82,-0.178v-1.109c0,0.098 2.606,0.173 5.82,0.173C36.242,36.756 38.849,36.681 38.849,36.583z"
        fill="#9C9C9B"/>
    <path
        d="M27.545,36.642v1.11c-0.221,-0.019 -0.343,-0.039 -0.343,-0.06v-1.109C27.202,36.605 27.324,36.625 27.545,36.642z"

        fill="#9C9C9B"
        fill-opacity="0.3"/>
    <path
        d="M27.888,36.666c0.103,0.006 0.218,0.011 0.343,0.017v1.11c-0.125,-0.004 -0.239,-0.01 -0.343,-0.017V36.666z"

        fill="#9C9C9B"
        fill-opacity="0.3"/>
    <path
        d="M28.573,36.695c0.108,0.004 0.223,0.009 0.343,0.011v1.113c-0.12,-0.004 -0.235,-0.008 -0.343,-0.011V36.695z"

        fill="#9C9C9B"
        fill-opacity="0.3"/>
    <path
        d="M29.259,36.716c0.11,0.002 0.225,0.004 0.342,0.008v1.113c-0.117,-0.002 -0.231,-0.006 -0.342,-0.008V36.716z"

        fill="#9C9C9B"
        fill-opacity="0.3"/>
    <path
        d="M29.943,36.73c0.111,0.002 0.226,0.003 0.343,0.006v1.114c-0.117,-0.002 -0.231,-0.004 -0.343,-0.007V36.73z"

        fill="#9C9C9B"
        fill-opacity="0.3"/>
    <path
        d="M30.628,36.741c0.112,0.001 0.227,0.002 0.343,0.003v1.114c-0.116,-0.001 -0.23,-0.003 -0.343,-0.004V36.741z"

        fill="#9C9C9B"
        fill-opacity="0.3"/>
    <path
        d="M31.313,36.748c0.112,0.001 0.227,0.002 0.343,0.003v1.114c-0.116,-0.001 -0.23,-0.002 -0.343,-0.003V36.748z"

        fill="#9C9C9B"
        fill-opacity="0.3"/>
    <path
        d="M31.998,36.754c0.112,0 0.227,0.001 0.343,0.001v1.114c-0.116,0 -0.23,-0.001 -0.343,-0.002V36.754z"

        fill="#9C9C9B"
        fill-opacity="0.3"/>
    <path
        d="M33.024,36.756c0.001,0 0.001,0 0.002,0v1.114c-0.001,0 -0.001,0 -0.002,0c-0.115,0 -0.228,0 -0.34,-0.001v-1.114C32.795,36.756 32.909,36.756 33.024,36.756z"

        fill="#9C9C9B"
        fill-opacity="0.3"/>
    <path
        d="M33.368,36.756c0.116,0 0.229,-0.001 0.343,-0.001v1.114c-0.113,0 -0.227,0.001 -0.343,0.001V36.756z"

        fill="#9C9C9B"
        fill-opacity="0.3"/>
    <path
        d="M34.054,36.754c0.116,-0.001 0.229,-0.002 0.342,-0.002v1.114c-0.112,0 -0.226,0.001 -0.342,0.002V36.754z"

        fill="#9C9C9B"
        fill-opacity="0.3"/>
    <path
        d="M34.738,36.748c0.116,-0.001 0.23,-0.002 0.343,-0.003v1.114c-0.112,0.001 -0.227,0.002 -0.343,0.003V36.748z"

        fill="#9C9C9B"
        fill-opacity="0.3"/>
    <path
        d="M35.423,36.741c0.117,-0.002 0.231,-0.003 0.343,-0.006v1.114c-0.111,0.001 -0.226,0.003 -0.343,0.004V36.741z"

        fill="#9C9C9B"
        fill-opacity="0.3"/>
    <path
        d="M36.109,36.73c0.117,-0.002 0.231,-0.004 0.343,-0.007v1.113c-0.111,0.002 -0.226,0.004 -0.343,0.007V36.73z"

        fill="#9C9C9B"
        fill-opacity="0.3"/>
    <path
        d="M36.793,36.716c0.119,-0.003 0.233,-0.007 0.343,-0.01v1.113c-0.11,0.003 -0.224,0.007 -0.343,0.01V36.716z"

        fill="#9C9C9B"
        fill-opacity="0.3"/>
    <path
        d="M37.478,36.695c0.121,-0.003 0.236,-0.008 0.343,-0.012v1.11c-0.107,0.006 -0.221,0.01 -0.343,0.014V36.695z"

        fill="#9C9C9B"
        fill-opacity="0.3"/>
    <path
        d="M38.506,36.642v1.11c-0.096,0.008 -0.21,0.016 -0.343,0.023v-1.11C38.296,36.659 38.411,36.651 38.506,36.642z"

        fill="#9C9C9B"
        fill-opacity="0.3"/>
    <path
        d="M27.545,36.642v1.11c-0.221,-0.019 -0.343,-0.039 -0.343,-0.06v-1.109C27.202,36.605 27.324,36.625 27.545,36.642z"

        fill="#9C9C9B"
        fill-opacity="0.3"/>
    <path
        d="M28.23,36.682v1.11c-0.125,-0.004 -0.239,-0.01 -0.343,-0.017v-1.11C27.991,36.671 28.106,36.677 28.23,36.682z"

        fill="#9C9C9B"
        fill-opacity="0.3"/>
    <path
        d="M28.916,36.706v1.113c-0.12,-0.004 -0.235,-0.008 -0.343,-0.011v-1.113C28.681,36.699 28.796,36.704 28.916,36.706z"

        fill="#9C9C9B"
        fill-opacity="0.3"/>
    <path
        d="M29.6,36.724v1.113c-0.117,-0.002 -0.231,-0.006 -0.342,-0.008v-1.113C29.369,36.718 29.483,36.72 29.6,36.724z"

        fill="#9C9C9B"
        fill-opacity="0.3"/>
    <path
        d="M30.285,36.736v1.114c-0.117,-0.002 -0.231,-0.004 -0.343,-0.007V36.73C30.054,36.733 30.169,36.734 30.285,36.736z"

        fill="#9C9C9B"
        fill-opacity="0.3"/>
    <path
        d="M30.971,36.745v1.114c-0.116,-0.001 -0.23,-0.003 -0.343,-0.004v-1.113C30.74,36.743 30.855,36.744 30.971,36.745z"

        fill="#9C9C9B"
        fill-opacity="0.3"/>
    <path
        d="M31.656,36.751v1.114c-0.116,-0.001 -0.23,-0.002 -0.343,-0.003v-1.114C31.426,36.749 31.54,36.75 31.656,36.751z"

        fill="#9C9C9B"
        fill-opacity="0.3"/>
    <path
        d="M32.34,36.755v1.114c-0.116,0 -0.23,-0.001 -0.343,-0.002v-1.113C32.11,36.754 32.225,36.755 32.34,36.755z"

        fill="#9C9C9B"
        fill-opacity="0.3"/>
    <path
        d="M33.026,36.756v1.114c-0.001,0 -0.001,0 -0.002,0c-0.115,0 -0.228,0 -0.34,-0.001v-1.114c0.112,0.001 0.226,0.001 0.34,0.001C33.025,36.756 33.025,36.756 33.026,36.756z"

        fill="#9C9C9B"
        fill-opacity="0.3"/>
    <path
        d="M33.711,36.755v1.114c-0.113,0 -0.227,0.001 -0.343,0.001v-1.114C33.484,36.756 33.598,36.755 33.711,36.755z"

        fill="#9C9C9B"
        fill-opacity="0.3"/>
    <path
        d="M34.395,36.751v1.114c-0.112,0 -0.226,0.001 -0.342,0.002v-1.114C34.17,36.753 34.283,36.751 34.395,36.751z"

        fill="#9C9C9B"
        fill-opacity="0.3"/>
    <path
        d="M35.081,36.745v1.114c-0.112,0.001 -0.227,0.002 -0.343,0.003v-1.114C34.854,36.747 34.968,36.746 35.081,36.745z"

        fill="#9C9C9B"
        fill-opacity="0.3"/>
    <path
        d="M35.766,36.736v1.114c-0.111,0.001 -0.226,0.003 -0.343,0.004v-1.113C35.54,36.739 35.655,36.738 35.766,36.736z"

        fill="#9C9C9B"
        fill-opacity="0.3"/>
    <path
        d="M36.451,36.724v1.113c-0.111,0.002 -0.226,0.004 -0.343,0.007V36.73C36.226,36.728 36.34,36.726 36.451,36.724z"

        fill="#9C9C9B"
        fill-opacity="0.3"/>
    <path
        d="M37.136,36.706v1.113c-0.11,0.003 -0.224,0.007 -0.343,0.01v-1.113C36.912,36.713 37.026,36.709 37.136,36.706z"

        fill="#9C9C9B"
        fill-opacity="0.3"/>
    <path
        d="M37.821,36.682v1.11c-0.107,0.006 -0.221,0.01 -0.343,0.014v-1.113C37.6,36.691 37.714,36.687 37.821,36.682z"

        fill="#9C9C9B"
        fill-opacity="0.3"/>
    <path
        d="M38.506,36.642v1.11c-0.096,0.008 -0.21,0.016 -0.343,0.023v-1.11C38.296,36.659 38.411,36.651 38.506,36.642z"

        fill="#9C9C9B"
        fill-opacity="0.3"/>
    <path
        d="M39.532,35.31c0,0.098 -2.606,0.173 -5.825,0.173c-3.214,0 -5.82,-0.075 -5.82,-0.173c0,-0.098 2.606,-0.178 5.82,-0.178C36.926,35.132 39.532,35.212 39.532,35.31z"
        fill="#F8B232"/>
    <path
        d="M39.532,35.31v1.109c0,0.098 -2.606,0.178 -5.825,0.178c-3.214,0 -5.82,-0.08 -5.82,-0.178V35.31c0,0.098 2.606,0.173 5.82,0.173C36.926,35.483 39.532,35.408 39.532,35.31z"
        fill="#F29220"/>
    <path
        d="M28.229,35.369v1.11c-0.221,-0.019 -0.343,-0.039 -0.343,-0.06V35.31C27.886,35.331 28.007,35.351 28.229,35.369z"

        fill="#F29220"
        fill-opacity="0.3"/>
    <path
        d="M28.571,35.393c0.103,0.006 0.218,0.011 0.343,0.017v1.11c-0.125,-0.004 -0.239,-0.01 -0.343,-0.017V35.393z"

        fill="#F29220"
        fill-opacity="0.3"/>
    <path
        d="M29.257,35.422c0.108,0.004 0.223,0.009 0.343,0.011v1.113c-0.12,-0.004 -0.235,-0.008 -0.343,-0.011V35.422z"

        fill="#F29220"
        fill-opacity="0.3"/>
    <path
        d="M29.942,35.443c0.11,0.002 0.225,0.004 0.342,0.008v1.113c-0.117,-0.002 -0.231,-0.006 -0.342,-0.008V35.443z"

        fill="#F29220"
        fill-opacity="0.3"/>
    <path
        d="M30.626,35.457c0.111,0.002 0.226,0.003 0.343,0.006v1.114c-0.117,-0.002 -0.231,-0.004 -0.343,-0.007V35.457z"

        fill="#F29220"
        fill-opacity="0.3"/>
    <path
        d="M31.312,35.468c0.112,0.001 0.227,0.002 0.343,0.003v1.114c-0.116,-0.001 -0.23,-0.003 -0.343,-0.004V35.468z"

        fill="#F29220"
        fill-opacity="0.3"/>
    <path
        d="M31.997,35.475c0.112,0.001 0.227,0.002 0.343,0.003v1.114c-0.116,-0.001 -0.23,-0.002 -0.343,-0.003V35.475z"

        fill="#F29220"
        fill-opacity="0.3"/>
    <path
        d="M32.681,35.48c0.112,0 0.227,0.001 0.343,0.001v1.114c-0.116,0 -0.23,-0.001 -0.343,-0.002V35.48z"

        fill="#F29220"
        fill-opacity="0.3"/>
    <path
        d="M33.707,35.483c0.001,0 0.001,0 0.002,0v1.114c-0.001,0 -0.001,0 -0.002,0c-0.115,0 -0.228,0 -0.34,-0.001v-1.114C33.479,35.483 33.592,35.483 33.707,35.483z"

        fill="#F29220"
        fill-opacity="0.3"/>
    <path
        d="M34.052,35.483c0.116,0 0.229,-0.001 0.343,-0.001v1.114c-0.113,0 -0.227,0.001 -0.343,0.001V35.483z"

        fill="#F29220"
        fill-opacity="0.3"/>
    <path
        d="M34.737,35.48c0.116,-0.001 0.229,-0.002 0.342,-0.002v1.114c-0.112,0 -0.226,0.001 -0.342,0.002V35.48z"

        fill="#F29220"
        fill-opacity="0.3"/>
    <path
        d="M35.422,35.475c0.116,-0.001 0.23,-0.002 0.343,-0.003v1.114c-0.112,0.001 -0.227,0.002 -0.343,0.003V35.475z"

        fill="#F29220"
        fill-opacity="0.3"/>
    <path
        d="M36.107,35.468c0.117,-0.002 0.231,-0.003 0.343,-0.006v1.114c-0.111,0.001 -0.226,0.003 -0.343,0.004V35.468z"

        fill="#F29220"
        fill-opacity="0.3"/>
    <path
        d="M36.792,35.457c0.117,-0.002 0.231,-0.004 0.343,-0.007v1.113c-0.111,0.002 -0.226,0.004 -0.343,0.007V35.457z"

        fill="#F29220"
        fill-opacity="0.3"/>
    <path
        d="M37.477,35.443c0.119,-0.003 0.233,-0.007 0.343,-0.01v1.113c-0.11,0.003 -0.224,0.007 -0.343,0.01V35.443z"

        fill="#F29220"
        fill-opacity="0.3"/>
    <path
        d="M38.162,35.422c0.121,-0.003 0.236,-0.008 0.343,-0.012v1.11c-0.107,0.006 -0.221,0.01 -0.343,0.014V35.422z"

        fill="#F29220"
        fill-opacity="0.3"/>
    <path
        d="M39.19,35.369v1.11c-0.096,0.008 -0.21,0.016 -0.343,0.023v-1.11C38.98,35.386 39.094,35.378 39.19,35.369z"

        fill="#F29220"
        fill-opacity="0.3"/>
    <path
        d="M28.229,35.369v1.11c-0.221,-0.019 -0.343,-0.039 -0.343,-0.06V35.31C27.886,35.331 28.007,35.351 28.229,35.369z"

        fill="#F29220"
        fill-opacity="0.3"/>
    <path
        d="M28.914,35.409v1.11c-0.125,-0.004 -0.239,-0.01 -0.343,-0.017v-1.11C28.675,35.398 28.789,35.404 28.914,35.409z"

        fill="#F29220"
        fill-opacity="0.3"/>
    <path
        d="M29.599,35.433v1.113c-0.12,-0.004 -0.235,-0.008 -0.343,-0.011v-1.113C29.365,35.426 29.479,35.43 29.599,35.433z"

        fill="#F29220"
        fill-opacity="0.3"/>
    <path
        d="M30.284,35.45v1.113c-0.117,-0.002 -0.231,-0.006 -0.342,-0.008v-1.113C30.052,35.445 30.167,35.447 30.284,35.45z"

        fill="#F29220"
        fill-opacity="0.3"/>
    <path
        d="M30.969,35.463v1.114c-0.117,-0.002 -0.231,-0.004 -0.343,-0.007v-1.113C30.738,35.459 30.852,35.46 30.969,35.463z"

        fill="#F29220"
        fill-opacity="0.3"/>
    <path
        d="M31.654,35.472v1.114c-0.116,-0.001 -0.23,-0.003 -0.343,-0.004v-1.113C31.424,35.469 31.539,35.47 31.654,35.472z"

        fill="#F29220"
        fill-opacity="0.3"/>
    <path
        d="M32.34,35.478v1.114c-0.116,-0.001 -0.23,-0.002 -0.343,-0.003v-1.114C32.109,35.476 32.224,35.477 32.34,35.478z"

        fill="#F29220"
        fill-opacity="0.3"/>
    <path
        d="M33.024,35.482v1.114c-0.116,0 -0.23,-0.001 -0.343,-0.002V35.48C32.794,35.48 32.908,35.482 33.024,35.482z"

        fill="#F29220"
        fill-opacity="0.3"/>
    <path
        d="M33.709,35.483v1.114c-0.001,0 -0.001,0 -0.002,0c-0.115,0 -0.228,0 -0.34,-0.001v-1.114c0.112,0.001 0.226,0.001 0.34,0.001C33.708,35.483 33.708,35.483 33.709,35.483z"

        fill="#F29220"
        fill-opacity="0.3"/>
    <path
        d="M34.395,35.482v1.114c-0.113,0 -0.227,0.001 -0.343,0.001v-1.114C34.168,35.483 34.281,35.482 34.395,35.482z"

        fill="#F29220"
        fill-opacity="0.3"/>
    <path
        d="M35.079,35.478v1.114c-0.112,0 -0.226,0.001 -0.342,0.002V35.48C34.853,35.479 34.967,35.478 35.079,35.478z"

        fill="#F29220"
        fill-opacity="0.3"/>
    <path
        d="M35.764,35.472v1.114c-0.112,0.001 -0.227,0.002 -0.343,0.003v-1.114C35.537,35.474 35.652,35.473 35.764,35.472z"

        fill="#F29220"
        fill-opacity="0.3"/>
    <path
        d="M36.45,35.463v1.114c-0.111,0.001 -0.226,0.003 -0.343,0.004v-1.113C36.224,35.466 36.338,35.465 36.45,35.463z"

        fill="#F29220"
        fill-opacity="0.3"/>
    <path
        d="M37.135,35.45v1.113c-0.111,0.002 -0.226,0.004 -0.343,0.007v-1.113C36.909,35.455 37.024,35.453 37.135,35.45z"

        fill="#F29220"
        fill-opacity="0.3"/>
    <path
        d="M37.819,35.433v1.113c-0.11,0.003 -0.224,0.007 -0.343,0.01v-1.113C37.596,35.439 37.709,35.436 37.819,35.433z"

        fill="#F29220"
        fill-opacity="0.3"/>
    <path
        d="M38.505,35.409v1.11c-0.107,0.006 -0.221,0.01 -0.343,0.014v-1.113C38.283,35.418 38.398,35.414 38.505,35.409z"

        fill="#F29220"
        fill-opacity="0.3"/>
    <path
        d="M39.19,35.369v1.11c-0.096,0.008 -0.21,0.016 -0.343,0.023v-1.11C38.98,35.386 39.094,35.378 39.19,35.369z"

        fill="#F29220"
        fill-opacity="0.3"/>
    <path
        d="M25.67,37.076a4.056,4.393 0,1 0,8.112 0a4.056,4.393 0,1 0,-8.112 0z"

        fill="#878787"
        fill-opacity="0.3"/>
    <path
        d="M33.296,36.988c0,2.518 -1.894,4.58 -4.296,4.764c-0.235,0.027 -0.55,0.013 -0.715,-0.002c2.081,-0.307 3.899,-2.333 3.899,-4.761c0,-2.507 -1.718,-4.569 -3.899,-4.76c0.12,-0.015 0.247,-0.019 0.37,-0.019C31.215,32.21 33.296,34.35 33.296,36.988z"
        fill="#F29220"/>
    <path
        d="M29.815,32.687c0.03,0.017 0.061,0.034 0.09,0.052h0.898c-0.194,-0.105 -0.397,-0.196 -0.606,-0.271H29.35c0.129,0.051 0.254,0.109 0.377,0.172C29.756,32.655 29.786,32.671 29.815,32.687z"

        fill="#F29220"
        fill-opacity="0.3"/>
    <path
        d="M30.63,33.279c0.001,0 0.002,0.001 0.002,0.002h0.965c-0.114,-0.096 -0.231,-0.187 -0.354,-0.271H30.31C30.421,33.094 30.528,33.183 30.63,33.279z"

        fill="#F29220"
        fill-opacity="0.3"/>
    <path
        d="M30.941,33.597c0.065,0.073 0.127,0.148 0.188,0.226h1.012c-0.079,-0.093 -0.163,-0.184 -0.25,-0.271h-0.99C30.915,33.566 30.928,33.581 30.941,33.597z"

        fill="#F29220"
        fill-opacity="0.3"/>
    <path
        d="M31.341,34.116c0.021,0.031 0.041,0.062 0.061,0.093c0.02,0.031 0.039,0.062 0.058,0.094c0.006,0.011 0.012,0.02 0.019,0.031c0.005,0.01 0.012,0.02 0.017,0.03h0.001h1.046c-0.059,-0.093 -0.12,-0.183 -0.185,-0.271h-1.03C31.331,34.101 31.337,34.109 31.341,34.116z"

        fill="#F29220"
        fill-opacity="0.3"/>
    <path
        d="M31.674,34.701c0.016,0.034 0.032,0.069 0.048,0.103c0.015,0.034 0.03,0.069 0.045,0.103h0.001h1.071c-0.044,-0.093 -0.089,-0.182 -0.138,-0.271h-1.06C31.652,34.657 31.663,34.679 31.674,34.701z"

        fill="#F29220"
        fill-opacity="0.3"/>
    <path
        d="M31.894,35.235c0.012,0.033 0.022,0.065 0.033,0.098c0.012,0.036 0.023,0.073 0.035,0.11c0,0.002 0.001,0.004 0.002,0.006h1.091c-0.03,-0.092 -0.062,-0.182 -0.098,-0.271h-1.082C31.88,35.197 31.887,35.216 31.894,35.235z"

        fill="#F29220"
        fill-opacity="0.3"/>
    <path
        d="M32.036,35.721c0.005,0.02 0.01,0.041 0.014,0.061c0.01,0.038 0.018,0.077 0.025,0.116c0.006,0.031 0.012,0.062 0.018,0.094h0.001h1.103c-0.019,-0.092 -0.04,-0.182 -0.063,-0.271H32.036L32.036,35.721z"

        fill="#F29220"
        fill-opacity="0.3"/>
    <path
        d="M32.137,36.262c0.004,0.035 0.009,0.069 0.013,0.105c0.006,0.055 0.012,0.11 0.015,0.166h0.002h1.11c-0.008,-0.092 -0.019,-0.182 -0.032,-0.271H32.137L32.137,36.262z"

        fill="#F29220"
        fill-opacity="0.3"/>
    <path
        d="M33.292,36.804h-1.111H32.18c0.001,0.028 0.003,0.057 0.003,0.085c0.001,0.028 0.001,0.058 0.001,0.086c0,0.033 0,0.067 -0.001,0.1h0.001h1.111c0.002,-0.033 0.002,-0.067 0.002,-0.101C33.296,36.918 33.295,36.861 33.292,36.804z"

        fill="#F29220"
        fill-opacity="0.3"/>
    <path
        d="M32.17,37.347c-0.002,0.032 -0.004,0.063 -0.006,0.095c-0.005,0.059 -0.012,0.117 -0.019,0.175h0.001h1.108c0.012,-0.089 0.021,-0.179 0.028,-0.271H32.17L32.17,37.347z"

        fill="#F29220"
        fill-opacity="0.3"/>
    <path
        d="M32.106,37.889c0,0.002 -0.001,0.004 -0.001,0.007c-0.008,0.043 -0.016,0.085 -0.024,0.127c-0.005,0.031 -0.012,0.062 -0.02,0.093c-0.004,0.015 -0.006,0.029 -0.01,0.044h0.001h1.099c0.022,-0.09 0.042,-0.18 0.059,-0.271H32.106L32.106,37.889z"

        fill="#F29220"
        fill-opacity="0.3"/>
    <path
        d="M31.983,38.431c-0.026,0.092 -0.054,0.182 -0.085,0.271h0.001h1.084c0.034,-0.089 0.065,-0.18 0.094,-0.271H31.983L31.983,38.431z"

        fill="#F29220"
        fill-opacity="0.3"/>
    <path
        d="M31.796,38.973c-0.012,0.029 -0.024,0.059 -0.036,0.088c-0.027,0.061 -0.054,0.123 -0.084,0.183h1.064c0.047,-0.089 0.091,-0.18 0.133,-0.271H31.796L31.796,38.973z"

        fill="#F29220"
        fill-opacity="0.3"/>
    <path
        d="M31.521,39.542c-0.018,0.031 -0.036,0.061 -0.053,0.092c-0.002,0.002 -0.003,0.004 -0.003,0.005c-0.03,0.05 -0.061,0.1 -0.093,0.148h1.035c0.063,-0.088 0.122,-0.178 0.179,-0.271h-1.051C31.53,39.525 31.525,39.533 31.521,39.542z"

        fill="#F29220"
        fill-opacity="0.3"/>
    <path
        d="M31.182,40.058c-0.003,0.004 -0.005,0.008 -0.009,0.012c-0.02,0.028 -0.041,0.055 -0.063,0.082c-0.02,0.028 -0.043,0.054 -0.066,0.081c-0.022,0.027 -0.044,0.053 -0.067,0.079c-0.005,0.005 -0.01,0.012 -0.014,0.017h0.997c0.084,-0.087 0.164,-0.178 0.241,-0.271H31.182L31.182,40.058z"

        fill="#F29220"
        fill-opacity="0.3"/>
    <path
        d="M30.693,40.611c-0.077,0.075 -0.158,0.147 -0.24,0.214c-0.019,0.015 -0.037,0.03 -0.056,0.045h0.943c0.117,-0.085 0.23,-0.175 0.338,-0.271h-0.973C30.701,40.603 30.697,40.608 30.693,40.611z"

        fill="#F29220"
        fill-opacity="0.3"/>
    <path
        d="M29.949,41.184c-0.141,0.085 -0.286,0.162 -0.435,0.229h0.86c0.19,-0.078 0.374,-0.168 0.55,-0.271h-0.908C29.994,41.158 29.972,41.171 29.949,41.184z"

        fill="#F29220"
        fill-opacity="0.3"/>
    <path
        d="M32.185,36.988c0,2.429 -1.609,4.431 -3.69,4.737c-2.432,-0.254 -4.345,-2.174 -4.472,-4.55c-0.007,-0.06 -0.007,-0.123 -0.007,-0.187v-0.06c0,-0.146 0.007,-0.288 0.022,-0.427c0.041,-0.483 0.157,-0.943 0.341,-1.373c0.03,-0.067 0.06,-0.142 0.097,-0.21c0.019,-0.045 0.041,-0.09 0.064,-0.131c0.022,-0.056 0.052,-0.109 0.086,-0.161c0.037,-0.075 0.079,-0.146 0.12,-0.21c0.045,-0.064 0.086,-0.127 0.127,-0.191c0.483,-0.685 1.145,-1.242 1.92,-1.617c0.022,-0.007 0.049,-0.019 0.071,-0.034c0.442,-0.187 0.921,-0.311 1.422,-0.348C30.467,32.419 32.185,34.481 32.185,36.988z"
        fill="#F8B232"/>
    <path
        d="M32.183,36.99c0,2.518 -1.731,4.581 -3.923,4.762c-2.441,-0.021 -4.427,-2.039 -4.549,-4.577c-0.007,-0.059 -0.007,-0.122 -0.007,-0.185v-0.063c0,-0.143 0.007,-0.287 0.021,-0.427c0.038,-0.483 0.143,-0.941 0.311,-1.371c0.028,-0.07 0.056,-0.143 0.087,-0.21c0.017,-0.045 0.038,-0.091 0.059,-0.133c0.021,-0.056 0.049,-0.108 0.077,-0.161c0.035,-0.073 0.073,-0.143 0.112,-0.21c0.038,-0.063 0.077,-0.126 0.115,-0.189c0.441,-0.685 1.046,-1.245 1.755,-1.615c0.021,-0.01 0.042,-0.021 0.063,-0.035c0.504,-0.234 1.059,-0.367 1.64,-0.367C30.284,32.21 32.183,34.35 32.183,36.99z"
        fill="#F8B232"/>
    <path
        d="M27.901,33.003c1.93,0 3.5,1.786 3.5,3.982c0,2.069 -1.418,3.809 -3.23,3.966c-2.011,-0.024 -3.665,-1.697 -3.767,-3.814l0,-0.009l-0.001,-0.009c-0.004,-0.037 -0.004,-0.084 -0.004,-0.134v-0.056c0,-0.119 0.006,-0.238 0.017,-0.353l0,-0.003l0,-0.003c0.032,-0.399 0.119,-0.783 0.258,-1.14l0.014,-0.035c0.02,-0.049 0.038,-0.096 0.057,-0.136l0.004,-0.009l0.004,-0.009c0.011,-0.028 0.025,-0.06 0.042,-0.095l0.006,-0.013l0.005,-0.013c0.012,-0.033 0.033,-0.071 0.054,-0.111l0.003,-0.005l0.003,-0.005c0.023,-0.049 0.051,-0.102 0.088,-0.165l0.015,-0.024l0.084,-0.138c0.368,-0.571 0.871,-1.034 1.456,-1.34c0.017,-0.009 0.039,-0.019 0.062,-0.034C26.997,33.102 27.444,33.003 27.901,33.003M27.901,32.736c-0.516,0 -1.01,0.118 -1.458,0.326c-0.019,0.012 -0.037,0.022 -0.056,0.031c-0.631,0.329 -1.169,0.827 -1.56,1.436c-0.034,0.056 -0.068,0.112 -0.103,0.168c-0.034,0.059 -0.068,0.121 -0.099,0.186c-0.025,0.047 -0.05,0.093 -0.068,0.143c-0.019,0.037 -0.037,0.078 -0.053,0.118c-0.028,0.059 -0.053,0.124 -0.078,0.186c-0.149,0.382 -0.242,0.789 -0.277,1.218c-0.012,0.124 -0.019,0.252 -0.019,0.379v0.056c0,0.056 0,0.112 0.006,0.165c0.109,2.256 1.874,4.05 4.044,4.069c1.949,-0.162 3.487,-1.995 3.487,-4.233C31.668,34.638 29.981,32.736 27.901,32.736L27.901,32.736z"
        fill="#F29220"/>
    <path
        d="M28.989,35.757h0.983l-0.481,0.512c0,0 -0.112,0 -0.629,0c-0.529,1.283 -2.09,1.324 -2.09,1.324l-0.012,0.044l1.372,2.519h-0.871l-1.335,-2.446l0.133,-0.498c0.567,0.052 0.981,-0.019 1.282,-0.143c0.004,-0.001 0.007,-0.003 0.01,-0.004c0.687,-0.272 0.768,-0.796 0.768,-0.796h-1.988l0.482,-0.498c0,0 0.619,0 1.588,0c-0.008,-0.49 -0.69,-0.563 -0.787,-0.56c-0.096,0.004 -1,0 -1,0l0.488,-0.518h3.37l-0.501,0.522c0,0 -0.624,0 -0.902,0C29.029,35.425 28.989,35.757 28.989,35.757z"

        fill="#F29220"
        fill-opacity="0.3"/>
    <path
        d="M28.7,35.601h0.983l-0.481,0.512c0,0 -0.112,0 -0.629,0c-0.529,1.283 -2.09,1.324 -2.09,1.324l-0.012,0.044l1.372,2.519h-0.871l-1.335,-2.446l0.133,-0.498c0.567,0.052 0.981,-0.019 1.282,-0.143c0.004,-0.001 0.007,-0.003 0.01,-0.004c0.687,-0.272 0.768,-0.796 0.768,-0.796h-1.988l0.482,-0.498c0,0 0.619,0 1.588,0c-0.008,-0.49 -0.69,-0.563 -0.787,-0.56c-0.096,0.004 -1,0 -1,0l0.488,-0.518h3.37l-0.501,0.522c0,0 -0.624,0 -0.902,0C28.74,35.27 28.7,35.601 28.7,35.601z"
        fill="#FFEFAC"/>
</svg>
