<svg xmlns="http://www.w3.org/2000/svg" width="50" height="50" viewBox="0 0 151.3 151.3">
    <path
        d="M75.6,75.6m-75.6,0a75.6,75.6 0,1 1,151.2 0a75.6,75.6 0,1 1,-151.2 0"
        fill="#e4eff9"/>
    <path
        d="M104.4,44.8a6,6 0,0 0,-6 -6H44.8a6,6 0,0 0,-6 6V92.1a5.6,5.6 0,0 0,5.7 5.7H98.7a5.6,5.6 0,0 0,5.7 -5.7V44.8Z"
        fill="#edf2fa"/>
    <path
        d="M98.4,38.8H44.8a6,6 0,0 0,-6 6V52h65.6V44.8A6,6 0,0 0,98.4 38.8Z"
        fill="#4dbaf6"/>
    <path
        d="M105.1,58H78.6a7.5,7.5 0,0 0,-7.5 7.4V77.9a7.5,7.5 0,0 0,7.5 7.5H82v5.9l5.8,-5.9h17.3a7.4,7.4 0,0 0,7.4 -7.5V65.4A7.4,7.4 0,0 0,105.1 58Z"
        fill="#ff5d5d"/>
    <path
        d="M79.8,71.6m-3,0a3,3 0,1 1,6 0a3,3 0,1 1,-6 0"
        fill="#fff"/>
    <path
        d="M91.8,71.6m-3,0a3,3 0,1 1,6 0a3,3 0,1 1,-6 0"
        fill="#fff"/>
    <path
        d="M103.8,71.6m-3,0a3,3 0,1 1,6 0a3,3 0,1 1,-6 0"
        fill="#fff"/>
    <path
        d="M63.4,83.8v8.5a3.9,3.9 0,0 1,-1.7 3.1l-5.1,2.9a2.9,2.9 0,0 1,-3.3 0l-5,-2.9a4.3,4.3 0,0 1,-1.8 -3.1V83.8Z"
        fill="#ffefd5"/>
    <path
        d="M64.9,82.7c0,1.7 -0.6,2.6 -2.5,2.6H50.5A5.4,5.4 0,0 1,45 79.9V75a0.5,0.5 0,0 1,0.9 -0.4,4.2 4.2,0 0,0 2.3,0.8H60.9a3.9,3.9 0,0 1,4 3.9h0Z"
        fill="#898998"/>
    <path
        d="M58.4,98.2v1.4a2.6,2.6 0,0 0,2.1 2.5l5.6,1.1a5.8,5.8 0,0 1,4.6 5.1l0.5,4.2H38.8l0.4,-4.2a6,6 0,0 1,4.7 -5.1l5.6,-1.1a2.6,2.6 0,0 0,2.1 -2.5V98.2Z"
        fill="#62cd4d"/>
    <path
        d="M49.8,102.3a7.3,7.3 0,0 0,10.4 0l0.2,-0.2a2.6,2.6 0,0 1,-2 -2.5V98.2H51.6v1.4a2.6,2.6 0,0 1,-2.1 2.5h0.3Z"
        fill="#ffefd5"/>
    <path
        fill="#FF000000"
        d="M45.4,44.1a1.5,1.5 0,0 0,-1.5 1.5,1.5 1.5,0 0,0 1.5,1.5h0.1a1.5,1.5 0,0 0,1.4 -1.5A1.4,1.4 0,0 0,45.4 44.1Z"/>
    <path
        fill="#FF000000"
        d="M52.6,44.1a1.5,1.5 0,0 0,-1.5 1.5,1.5 1.5,0 0,0 1.5,1.5h0a1.5,1.5 0,0 0,1.5 -1.5A1.4,1.4 0,0 0,52.6 44.1Z"/>
    <path
        fill="#FF000000"
        d="M59.8,44.1a1.5,1.5 0,0 0,-1.5 1.5,1.5 1.5,0 0,0 1.5,1.5h0a1.5,1.5 0,0 0,0 -3Z"/>
    <path
        fill="#FF000000"
        d="M96.6,44.1H78.4a1.5,1.5 0,0 0,-1.5 1.5,1.5 1.5,0 0,0 1.5,1.5H96.6a1.5,1.5 0,0 0,1.5 -1.5A1.5,1.5 0,0 0,96.6 44.1Z"/>
    <path
        fill="#FF000000"
        d="M70.2,96.8a1.2,1.2 0,0 0,-0.4 1,1.4 1.4,0 0,0 1.5,1.5 1.2,1.2 0,0 0,1 -0.4,1.6 1.6,0 0,0 0.5,-1.1 1.8,1.8 0,0 0,-1.5 -1.5A1.6,1.6 0,0 0,70.2 96.8Z"/>
    <path
        fill="#FF000000"
        d="M105.9,56.5L105.9,44.8a7.4,7.4 0,0 0,-7.5 -7.5L44.8,37.3a7.4,7.4 0,0 0,-7.5 7.5L37.3,92.1a7.2,7.2 0,0 0,7.2 7.2h5.6v0.3a1.1,1.1 0,0 1,-0.9 1l-5.6,1.2a7.2,7.2 0,0 0,-5.9 6.3l-0.4,4.3a1.2,1.2 0,0 0,0.4 1.1,1.3 1.3,0 0,0 1.1,0.5L71.3,114a1.6,1.6 0,0 0,1.1 -0.5,1.5 1.5,0 0,0 0.4,-1.1l-0.5,-4.3a7.2,7.2 0,0 0,-5.8 -6.3l-5.7,-1.2a1,1 0,0 1,-0.8 -1L60,98.2h0l2.5,-1.4h0.1A6,6 0,0 0,65 92.3h0L65,86.1a3.9,3.9 0,0 0,1.5 -3.5L66.5,79.2h0A5.5,5.5 0,0 0,61 73.8L48.2,73.8a2.2,2.2 0,0 1,-1.4 -0.6,2.2 2.2,0 0,0 -3.3,1.7v4.9a6.7,6.7 0,0 0,1.6 4.3v8.1h0a5.4,5.4 0,0 0,2 4L44.5,96.2a4.2,4.2 0,0 1,-4.2 -4.2L40.3,60.7L57,60.7a1.5,1.5 0,0 0,1.5 -1.5A1.5,1.5 0,0 0,57 57.7L40.3,57.7L40.3,53.5h62.6v3L78.6,56.5a8.9,8.9 0,0 0,-8.9 8.9L69.7,77.9a8.9,8.9 0,0 0,8.9 9h1.9v4.4a1.5,1.5 0,0 0,0.9 1.4L82,92.7a1.4,1.4 0,0 0,1 -0.5l5.5,-5.4h14.4v5.2a4.2,4.2 0,0 1,-4.2 4.2L77.4,96.2a1.5,1.5 0,0 0,-1.5 1.5,1.4 1.4,0 0,0 1.5,1.5L98.7,99.2a7.2,7.2 0,0 0,7.2 -7.2L105.9,86.8a8.8,8.8 0,0 0,8.1 -8.9L114,65.4A8.9,8.9 0,0 0,105.9 56.5ZM57,99.8a4.2,4.2 0,0 0,0.9 2.4,5.7 5.7,0 0,1 -2.9,0.7 5.9,5.9 0,0 1,-2.9 -0.7,4.3 4.3,0 0,0 1,-2.4 4.5,4.5 0,0 0,1.9 0.5A4.9,4.9 0,0 0,57 99.8ZM69.3,108.4 L69.6,111L40.4,111l0.3,-2.6a4.3,4.3 0,0 1,3.5 -3.7l4.9,-1a8.7,8.7 0,0 0,5.9 2.2,8.5 8.5,0 0,0 5.9,-2.2l5,1A4.4,4.4 0,0 1,69.3 108.4ZM61,94.1 L55.9,97h-0.1a1.2,1.2 0,0 1,-1.6 0h-0.1l-5,-2.9a2.3,2.3 0,0 1,-1 -1.9L48.1,86.3a6.1,6.1 0,0 0,2.4 0.4L62,86.7v5.5A2.9,2.9 0,0 1,61 94.1ZM46.5,76.5l1.7,0.3L61,76.8a2.5,2.5 0,0 1,2.5 2.5h0v3.3h0a4.5,4.5 0,0 1,-0.1 1L50.5,83.6a3.9,3.9 0,0 1,-4 -3.9ZM40.3,50.5L40.3,44.8a4.5,4.5 0,0 1,4.5 -4.5L98.4,40.3a4.5,4.5 0,0 1,4.5 4.5v5.7ZM111,77.9a5.9,5.9 0,0 1,-5.9 6L87.8,83.9a1.3,1.3 0,0 0,-1 0.4l-3.3,3.3L83.5,85.4A1.5,1.5 0,0 0,82 83.9L78.6,83.9a6,6 0,0 1,-6 -6L72.6,65.4a5.9,5.9 0,0 1,6 -5.9h26.5a5.8,5.8 0,0 1,5.9 5.9L111,77.9Z"/>
    <path
        fill="#FF000000"
        d="M79.8,67.1a4.5,4.5 0,1 0,0 9,4.5 4.5,0 0,0 0,-9ZM79.8,73.1a1.5,1.5 0,1 1,0 -3,1.5 1.5,0 0,1 0,3Z"/>
    <path
        fill="#FF000000"
        d="M91.8,67.1a4.5,4.5 0,1 0,0 9,4.5 4.5,0 0,0 0,-9ZM91.8,73.1a1.5,1.5 0,1 1,0 -3,1.5 1.5,0 0,1 0,3Z"/>
    <path
        fill="#FF000000"
        d="M103.8,67.1a4.5,4.5 0,1 0,4.5 4.5A4.5,4.5 0,0 0,103.8 67.1ZM103.8,73.1a1.5,1.5 0,1 1,0 -3,1.5 1.5,0 0,1 0,3Z"/>
    <path
        fill="#FF000000"
        d="M61.6,58.1a1.6,1.6 0,0 0,-0.5 1.1,1.4 1.4,0 0,0 0.5,1 1.2,1.2 0,0 0,1 0.5,1.6 1.6,0 0,0 1.1,-0.5 1.3,1.3 0,0 0,0.4 -1,1.4 1.4,0 0,0 -1.5,-1.5A1.2,1.2 0,0 0,61.6 58.1Z"/>
</svg>