<svg xmlns="http://www.w3.org/2000/svg" width="621.9" height="635" viewBox="0 0 621.9 635">
  <path fill="#000000" d="M214.4,61L54.4,61L54.4,221h160ZM182.4,189h-96L86.4,93h96Z"/>
  <path fill="#000000" d="M118.4,125h32v32h-32z"/>
  <path fill="#000000" d="M406.4,61L406.4,221h160L566.4,61ZM534.4,189h-96L438.4,93h96Z"/>
  <path fill="#000000" d="M470.4,125h32v32h-32z"/>
  <path fill="#000000" d="M54.4,573h160L214.4,413L54.4,413ZM86.4,445h96v96h-96Z"/>
  <path fill="#000000" d="M118.4,477h32v32h-32z"/>
  <path fill="#000000" d="M310.4,61h64v32h-64z"/>
  <path fill="#000000" d="M310.4,189l32,0l0,-32l32,0l0,-32l-96,0l0,-32l-32,0l0,32l0,16l0,16l64,0l0,32z"/>
  <path fill="#000000" d="M246.4,189h32v32h-32z"/>
  <path fill="#000000" d="M374.4,221l-32,0l0,32l-96,0l0,32l128,0l0,-64z"/>
  <path fill="#000000" d="M86.4,349l32,0l0,-32l-32,0l0,-64l-32,0l0,128l32,0l0,-32z"/>
  <path fill="#000000" d="M118.4,253h32v32h-32z"/>
  <path fill="#000000" d="M246.4,381l64,0l0,-32l-32,0l0,-32l-64,0l0,-64l-32,0l0,64l-32,0l0,64l32,0l0,-32l16,0l16,0l32,0l0,32z"/>
  <path fill="#000000" d="M342.4,317h32v64h-32z"/>
  <path fill="#000000" d="M342.4,413l-96,0l0,32l64,0l0,96l-64,0l0,32l96,0l0,-32l64,0l0,-32l-64,0l0,-96z"/>
  <path fill="#000000" d="M246.4,477h32v32h-32z"/>
  <path fill="#000000" d="M374.4,413h32v64h-32z"/>
  <path fill="#000000" d="M534.4,477l-96,0l0,96l32,0l0,-64l64,0l0,-32z"/>
  <path fill="#000000" d="M502.4,541h64v32h-64z"/>
  <path fill="#000000" d="M534.4,413h32v32h-32z"/>
  <path fill="#000000" d="M438.4,445l32,0l0,-96l-64,0l0,32l32,0l0,64z"/>
  <path fill="#000000" d="M502.4,285l-32,0l0,-32l-32,0l0,32l-32,0l0,32l128,0l0,-32l32,0l0,-32l-64,0l0,32z"/>
  <path fill="#000000" d="M502.4,349h64v32h-64z"/>
  <path d="M1,2.8L1,142.4" stroke="#000" stroke-width="2" fill="#000000"/>
  <path d="M1.6,1L141.2,1" stroke="#000" stroke-width="2" fill="#000000"/>
  <path d="M620.9,632.2L620.9,492.6" stroke="#000" stroke-width="2" fill="none"/>
  <path d="M620.3,634L480.7,634" stroke="#000" stroke-width="2" fill="none"/>
</svg>
