<svg xmlns="http://www.w3.org/2000/svg" width="50" height="50" viewBox="-15 0 115.62 90">
  <path
      d="M80.6,9a7.2,7.2 0,0 0,-7.2 -7.2H9A7.2,7.2 0,0 0,1.8 9V65.9a6.9,6.9 0,0 0,6.8 6.8H73.8a6.8,6.8 0,0 0,6.8 -6.8V9Z"
      fill="#edf2fa"/>
  <path
      d="M73.4,1.8H9A7.2,7.2 0,0 0,1.8 9v8.7H80.6V9A7.2,7.2 0,0 0,73.4 1.8Z"
      fill="#4dbaf6"/>
  <path
      d="M81.4,24.8H49.6a8.9,8.9 0,0 0,-8.9 9v15a8.9,8.9 0,0 0,8.9 9h4.1v7l7,-7H81.4a9,9 0,0 0,9 -9v-15A9,9 0,0 0,81.4 24.8Z"
      fill="#ff5d5d"/>
  <path
      d="M51.1,41.2m-3.6,0a3.6,3.6 0,1 1,7.2 0a3.6,3.6 0,1 1,-7.2 0"
      fill="#fff"/>
  <path
      d="M65.5,41.2m-3.6,0a3.6,3.6 0,1 1,7.2 0a3.6,3.6 0,1 1,-7.2 0"
      fill="#fff"/>
  <path
      d="M79.9,41.2m-3.6,0a3.6,3.6 0,1 1,7.2 0a3.6,3.6 0,1 1,-7.2 0"
      fill="#fff"/>
  <path
      d="M31.4,55.9V66.1a4.6,4.6 0,0 1,-2.1 3.7l-6.1,3.5a3.5,3.5 0,0 1,-3.9 0l-6.1,-3.5a5.1,5.1 0,0 1,-2.1 -3.7V55.9Z"
      fill="#ffefd5"/>
  <path
      d="M33.2,54.5c0,2.1 -0.7,3.2 -3.1,3.2H15.8a6.5,6.5 0,0 1,-6.5 -6.5V45.3a0.7,0.7 0,0 1,1.1 -0.5,4.4 4.4,0 0,0 2.7,1H28.4a4.8,4.8 0,0 1,4.8 4.7h0Z"
      fill="#898998"/>
  <path
      d="M25.4,73.2v1.7a3.1,3.1 0,0 0,2.5 3l6.7,1.3a7.1,7.1 0,0 1,5.6 6.1l0.5,5.1H1.8l0.6,-5.1a6.9,6.9 0,0 1,5.5 -6.1l6.8,-1.3a3.2,3.2 0,0 0,2.5 -3V73.2Z"
      fill="#62cd4d"/>
  <path
      d="M15,78.1a8.8,8.8 0,0 0,12.5 0l0.3,-0.2a3.2,3.2 0,0 1,-2.4 -3V73.2H17.2v1.7a3.2,3.2 0,0 1,-2.5 3h-0.2Z"
      fill="#ffefd5"/>
  <path
      fill="#FF000000"
      d="M9.8,8.2a1.8,1.8 0,0 0,0 3.6h0a1.8,1.8 0,0 0,0 -3.6Z"/>
  <path
      fill="#FF000000"
      d="M18.4,8.2A1.9,1.9 0,0 0,16.6 10a1.9,1.9 0,0 0,1.8 1.8h0.1A1.8,1.8 0,0 0,20.3 10,1.9 1.9,0 0,0 18.4,8.2Z"/>
  <path
      fill="#FF000000"
      d="M27.1,8.2a1.8,1.8 0,0 0,0 3.6h0a1.8,1.8 0,0 0,0 -3.6Z"/>
  <path
      fill="#FF000000"
      d="M71.2,8.2H49.4a1.8,1.8 0,1 0,0 3.6H71.2a1.8,1.8 0,0 0,0 -3.6Z"/>
  <path
      fill="#FF000000"
      d="M39.6,71.4a1.8,1.8 0,0 0,-0.6 1.3,1.6 1.6,0 0,0 0.6,1.3 1.8,1.8 0,0 0,1.2 0.5,1.7 1.7,0 0,0 1.8,-1.8 2.1,2.1 0,0 0,-0.5 -1.3,1.9 1.9,0 0,0 -1.3,-0.5A1.8,1.8 0,0 0,39.6 71.4Z"/>
  <path
      fill="#FF000000"
      d="M82.4,23.1L82.4,9a9,9 0,0 0,-9 -9L9,0A9,9 0,0 0,0 9L0,65.9a8.7,8.7 0,0 0,8.6 8.6h6.8v0.3a1.3,1.3 0,0 1,-1 1.3L7.6,77.4a8.7,8.7 0,0 0,-7 7.7L0,90.2a1.9,1.9 0,0 0,0.5 1.4,2 2,0 0,0 1.3,0.6h39a2.5,2.5 0,0 0,1.4 -0.6,1.8 1.8,0 0,0 0.4,-1.4l-0.5,-5.1a8.9,8.9 0,0 0,-7 -7.7l-6.8,-1.3a1.4,1.4 0,0 1,-1.1 -1.3L27.2,73.1h0l3.1,-1.8h0.1a7,7 0,0 0,2.9 -5.2h0L33.3,58.6a4.8,4.8 0,0 0,1.8 -4.2L35.1,50.2a6.7,6.7 0,0 0,-6.7 -6.4L13.2,43.8a2.9,2.9 0,0 1,-1.7 -0.6A2.3,2.3 0,0 0,8.9 43a2.3,2.3 0,0 0,-1.4 2.2L7.5,51a8.4,8.4 0,0 0,1.9 5.3L9.4,66h0a6.6,6.6 0,0 0,2.4 4.8L8.6,70.8a5,5 0,0 1,-5 -5L3.6,28.1L23.7,28.1a1.8,1.8 0,0 0,0 -3.6L3.6,24.5v-5L78.8,19.5L78.8,23L49.6,23A10.8,10.8 0,0 0,38.9 33.8v15A10.7,10.7 0,0 0,49.6 59.6h2.3v5.2A1.8,1.8 0,0 0,53 66.5h0.7a1.5,1.5 0,0 0,1.2 -0.5l6.6,-6.5L78.8,59.5v6.3a5,5 0,0 1,-5 5L48.2,70.8a1.8,1.8 0,0 0,0 3.6L73.8,74.4a8.6,8.6 0,0 0,8.6 -8.6L82.4,59.5a10.8,10.8 0,0 0,9.8 -10.7v-15A10.8,10.8 0,0 0,82.4 23.1ZM23.7,75.1A4.4,4.4 0,0 0,24.8 78a8.2,8.2 0,0 1,-3.5 0.9,8.6 8.6,0 0,1 -3.5,-0.9A5,5 0,0 0,19 75.1a4.6,4.6 0,0 0,2.3 0.6A5.3,5.3 0,0 0,23.7 75.1ZM38.5,85.5l0.3,3.1L3.8,88.6l0.4,-3.1A5,5 0,0 1,8.3 81l5.9,-1.2a11,11 0,0 0,7.1 2.7,10.6 10.6,0 0,0 7.1,-2.7l6,1.2A5.1,5.1 0,0 1,38.5 85.5ZM28.4,68.3l-6,3.4h-0.1a1.8,1.8 0,0 1,-2 0h-0.1l-6,-3.4A3.3,3.3 0,0 1,13 65.9v-7a9.3,9.3 0,0 0,2.9 0.5L29.7,59.4v6.5A3.4,3.4 0,0 1,28.4 68.3ZM11.1,47.1a7.6,7.6 0,0 0,2.1 0.3L28.4,47.4a3.1,3.1 0,0 1,3.1 3h0v3.9h0a2.4,2.4 0,0 1,-0.2 1.2c-0.1,0.1 -0.4,0.2 -1.1,0.2L15.9,55.7A4.7,4.7 0,0 1,11.1 51ZM3.6,15.9L3.6,9A5.4,5.4 0,0 1,9 3.6L73.4,3.6A5.4,5.4 0,0 1,78.8 9v6.9ZM88.6,48.8A7.2,7.2 0,0 1,81.4 56L60.7,56a1.8,1.8 0,0 0,-1.2 0.5l-4,4L55.5,57.8A1.8,1.8 0,0 0,53.7 56L49.6,56a7.1,7.1 0,0 1,-7.1 -7.2v-15a7.1,7.1 0,0 1,7.1 -7.2L81.4,26.6a7.2,7.2 0,0 1,7.2 7.2v15Z"/>
  <path
      fill="#FF000000"
      d="M51.1,35.8a5.4,5.4 0,0 0,-5.4 5.4,5.4 5.4,0 1,0 10.8,0A5.4,5.4 0,0 0,51.1 35.8ZM51.1,43a1.8,1.8 0,1 1,1.8 -1.8A1.8,1.8 0,0 1,51.1 43Z"/>
  <path
      fill="#FF000000"
      d="M65.5,35.8a5.4,5.4 0,0 0,-5.4 5.4,5.4 5.4,0 0,0 10.8,0A5.4,5.4 0,0 0,65.5 35.8ZM65.5,43a1.8,1.8 0,1 1,1.8 -1.8A1.8,1.8 0,0 1,65.5 43Z"/>
  <path
      fill="#FF000000"
      d="M79.9,35.8a5.4,5.4 0,0 0,-5.4 5.4,5.4 5.4,0 1,0 10.8,0A5.4,5.4 0,0 0,79.9 35.8ZM79.9,43a1.8,1.8 0,1 1,1.8 -1.8A1.8,1.8 0,0 1,79.9 43Z"/>
  <path
      fill="#FF000000"
      d="M29.2,25a1.7,1.7 0,0 0,0 2.6,1.8 1.8,0 0,0 1.2,0.5 1.9,1.9 0,0 0,1.3 -0.5,1.9 1.9,0 0,0 0,-2.6 1.9,1.9 0,0 0,-1.3 -0.5A1.8,1.8 0,0 0,29.2 25Z"/>
</svg>
