<svg
    xmlns="http://www.w3.org/2000/svg"
    width="50"
    height="50"
    viewBox="0 0 151.3 151.3">

    <path
       d="M75.6,75.6m-75.6,0a75.6,75.6 0,1 1,151.2 0a75.6,75.6 0,1 1,-151.2 0"
        fill="#e4eff9"/>

    <path
        d="M60,108.9v4H91.3v-4A13.4,13.4 0,0 0,78 95.6H73.3A13.3,13.3 0,0 0,60 108.9Z"
        fill="#effafe"/>
    <path
        d="M54.4,68.5a3.2,3.2 0,0 0,-3.2 3.1v46.5a3.2,3.2 0,0 0,3.2 3.1H98.9a3.1,3.1 0,0 0,3.1 -3.1V71.6a3.1,3.1 0,0 0,-3.1 -3.1ZM70.1,94a10.2,10.2 0,1 1,14.1 -3,9.9 9.9,0 0,1 -3.1,3l-0.3,0.3h0.4a15,15 0,0 1,11.7 14.5v4.7a0.8,0.8 0,0 1,-0.8 0.8H59.2a0.8,0.8 0,0 1,-0.8 -0.8v-4.7A14.9,14.9 0,0 1,70.1 94.4h0.4Z"
        fill="#fd0"/>
    <path
        d="M98.9,68.5h-2a3.1,3.1 0,0 1,3.1 3.1v46.5a3.1,3.1 0,0 1,-3.1 3.1h2a3.1,3.1 0,0 0,3.1 -3.1V71.6A3.1,3.1 0,0 0,98.9 68.5Z"
        fill="#efc803"/>
    <path
        d="M45.7,38.7l-0.9,-1.8 -0.9,1.8c-0.1,0.3 -0.3,0.4 -0.6,0.5l-1.9,0.2 1.4,1.4a0.7,0.7 0,0 1,0.2 0.7l-0.3,2 1.8,-0.9a0.9,0.9 0,0 1,0.7 0l1.8,0.9 -0.4,-2a1.9,1.9 0,0 1,0.2 -0.7l1.5,-1.4 -2,-0.2C46,39.1 45.8,39 45.7,38.7Z"
        fill="#fd0"/>
    <path
        d="M76.5,94.1h0a8.5,8.5 0,1 0,-1.8 0Z"
        fill="#effafe"/>
    <path
        d="M78,95.6H76a13.3,13.3 0,0 1,13.3 13.3v4h2v-4A13.4,13.4 0,0 0,78 95.6Z"
        fill="#e4ebed"/>
    <path
        d="M75.6,76.9h-0.9a8.6,8.6 0,0 1,0 17.1h1.8a8.6,8.6 0,0 0,-0.9 -17.1Z"
        fill="#e4ebed"/>
    <path
        d="M106.8,42.6l1.8,0.9 -0.3,-2a0.7,0.7 0,0 1,0.2 -0.7l1.4,-1.4 -1.9,-0.2c-0.3,-0.1 -0.5,-0.2 -0.6,-0.5l-0.9,-1.8 -0.9,1.8c-0.1,0.3 -0.3,0.4 -0.6,0.5l-2,0.2 1.5,1.4a1,1 0,0 1,0.2 0.7l-0.3,2 1.7,-0.9A0.8,0.8 0,0 1,106.8 42.6Z"
        fill="#effafe"/>
    <path
        d="M106.9,50.1h6.9a3.2,3.2 0,0 0,3.1 -3.2L116.9,33.2a3.1,3.1 0,0 0,-3.1 -3.1L39.5,30.1a3.2,3.2 0,0 0,-3.2 3.1L36.3,46.9a3.3,3.3 0,0 0,3.2 3.2L90.6,50.1a0.8,0.8 0,0 1,0.8 0.7h0v9.5l15.1,-10.1ZM91.6,39.5l-2.3,2.2 0.6,3.1c0,0.4 -0.3,0.9 -0.7,0.9h-0.5l-2.8,-1.5 -2.8,1.4a0.7,0.7 0,0 1,-1 -0.3,0.4 0.4,0 0,1 -0.1,-0.5l0.5,-3.1 -2.3,-2.3a0.8,0.8 0,0 1,0 -1.1l0.5,-0.2 3.1,-0.4 1.4,-2.9a0.9,0.9 0,0 1,1.1 -0.4c0.1,0.1 0.3,0.2 0.3,0.4L88,37.7l3.2,0.4a1,1 0,0 1,0.7 0.9l-0.3,0.5ZM102.5,44.8 L103,41.7 100.8,39.5a0.8,0.8 0,0 1,0 -1.1c0.1,-0.2 0.3,-0.2 0.4,-0.3l3.2,-0.4 1.4,-2.9a0.7,0.7 0,0 1,1 -0.3c0.2,0 0.3,0.2 0.4,0.3l1.4,2.9 3.1,0.4a0.8,0.8 0,0 1,0.7 0.9c0,0.2 -0.1,0.3 -0.2,0.5l-2.3,2.2 0.5,3.1a0.7,0.7 0,0 1,-0.6 0.9h-0.5l-2.8,-1.5 -2.8,1.5a0.8,0.8 0,0 1,-1.1 -0.4,0.7 0.7,0 0,1 -0.1,-0.5ZM71,39.5l-2.2,2.2 0.5,3.1a0.7,0.7 0,0 1,-0.6 0.9h-0.5l-2.9,-1.5 -2.8,1.5a0.8,0.8 0,0 1,-1 -0.4,0.7 0.7,0 0,1 -0.1,-0.5l0.5,-3.1 -2.2,-2.2a0.8,0.8 0,0 1,-0.1 -1.2l0.5,-0.2 3.1,-0.4 1.4,-2.9a0.8,0.8 0,0 1,1.1 -0.3c0.2,0 0.3,0.2 0.4,0.3l1.4,2.9 3.1,0.4a1,1 0,0 1,0.7 0.9c0,0.2 -0.1,0.3 -0.2,0.5ZM50.5,39.5 L48.2,41.7 48.8,44.8a0.8,0.8 0,0 1,-0.7 0.9h-0.5l-2.8,-1.5L42,45.7a0.8,0.8 0,0 1,-1.1 -0.4c0,-0.1 -0.1,-0.3 0,-0.5l0.5,-3.1 -2.3,-2.2a0.8,0.8 0,0 1,0 -1.1c0.1,-0.2 0.3,-0.2 0.5,-0.3l3.1,-0.4 1.4,-2.9a0.8,0.8 0,0 1,1.1 -0.3l0.3,0.3 1.4,2.9 3.2,0.4a0.8,0.8 0,0 1,0.6 0.9C50.7,39.2 50.6,39.3 50.5,39.5Z"
        fill="#40bdff"/>
    <path
        d="M113.8,30.1h-2a3.1,3.1 0,0 1,3.1 3.1V46.9a3.2,3.2 0,0 1,-3.1 3.2h2a3.2,3.2 0,0 0,3.1 -3.2V33.2A3.1,3.1 0,0 0,113.8 30.1Z"
        fill="#2197f7"/>
    <path
        d="M66.2,38.7l-0.8,-1.8 -0.9,1.8c-0.1,0.3 -0.4,0.4 -0.6,0.5l-2,0.2 1.5,1.4a1.9,1.9 0,0 1,0.2 0.7l-0.4,2 1.8,-0.9a0.9,0.9 0,0 1,0.7 0l1.8,0.9 -0.3,-2a0.7,0.7 0,0 1,0.2 -0.7l1.4,-1.4 -1.9,-0.2A1.2,1.2 0,0 1,66.2 38.7Z"
        fill="#fd0"/>
    <path
        d="M86.8,38.7l-0.9,-1.8L85,38.7c-0.1,0.3 -0.3,0.4 -0.6,0.5l-1.9,0.2 1.4,1.4a0.7,0.7 0,0 1,0.2 0.7l-0.3,2 1.8,-0.9a0.9,0.9 0,0 1,0.7 0l1.8,0.9 -0.4,-2a1.9,1.9 0,0 1,0.2 -0.7l1.5,-1.4 -2,-0.2C87.1,39.1 86.9,39 86.8,38.7Z"
        fill="#fd0"/>
    <path
        d="M81.3,94.2A10.4,10.4 0,0 0,70 76.7a10.5,10.5 0,0 0,-3.1 14.4A11.4,11.4 0,0 0,70 94.2a15.1,15.1 0,0 0,-11.8 14.7v4.7a1,1 0,0 0,1 1L92.1,114.6a1,1 0,0 0,1 -1v-4.7A15.1,15.1 0,0 0,81.3 94.2ZM67.2,85.5a8.5,8.5 0,1 1,16.9 0,8.4 8.4,0 0,1 -7.6,8.3L74.8,93.8A8.4,8.4 0,0 1,67.2 85.5ZM91.1,112.7L60.2,112.7v-3.8A13.1,13.1 0,0 1,73.3 95.8L78,95.8a13.1,13.1 0,0 1,13.1 13.1Z"
        fill="#263238"/>
    <path
        d="M52.4,66.7a4.9,4.9 0,0 0,-4.9 4.9v46.5a4.9,4.9 0,0 0,4.9 4.9L98.9,123a4.9,4.9 0,0 0,4.9 -4.9L103.8,71.6a4.9,4.9 0,0 0,-4.9 -4.9ZM101.8,71.6v46.5a2.9,2.9 0,0 1,-2.9 2.9L52.4,121a2.9,2.9 0,0 1,-2.9 -2.9L49.5,71.6a2.9,2.9 0,0 1,2.9 -2.9L98.9,68.7a2.9,2.9 0,0 1,2.9 2.9Z"
        fill="#263238"/>
    <path
        d="M50.1,37.9l-3,-0.4 -1.4,-2.8a0.9,0.9 0,0 0,-1.3 -0.4,1 1,0 0,0 -0.5,0.4l-1.3,2.8 -3.1,0.4a1,1 0,0 0,-0.8 1.1,0.9 0.9,0 0,0 0.3,0.6l2.2,2.1 -0.5,3.1a0.9,0.9 0,0 0,0.8 1.1,0.7 0.7,0 0,0 0.6,-0.1l2.7,-1.4 2.7,1.4a1,1 0,0 0,1.4 -0.4,1.3 1.3,0 0,0 0.1,-0.6l-0.6,-3 2.2,-2.2a1,1 0,0 0,0.1 -1.4C50.5,38.1 50.3,37.9 50.1,37.9ZM46.7,40.7a1.2,1.2 0,0 0,-0.3 0.9l0.3,1.5 -1.4,-0.7a0.7,0.7 0,0 0,-0.9 0l-1.4,0.7 0.2,-1.5a0.8,0.8 0,0 0,-0.3 -0.9l-1.1,-1.1 1.6,-0.3a0.8,0.8 0,0 0,0.7 -0.5l0.7,-1.4 0.7,1.4a0.9,0.9 0,0 0,0.8 0.5l1.5,0.3Z"
        fill="#263238"/>
    <path
        d="M70.6,37.9l-3,-0.4 -1.4,-2.8a0.9,0.9 0,0 0,-1.3 -0.4,0.8 0.8,0 0,0 -0.4,0.4l-1.4,2.8 -3,0.4a1.1,1.1 0,0 0,-0.9 1.1l0.3,0.6 2.2,2.2 -0.5,3a1,1 0,0 0,0.8 1.1,0.6 0.6,0 0,0 0.6,-0.1l2.8,-1.4 2.7,1.4a0.9,0.9 0,0 0,1.3 -0.4,1.3 1.3,0 0,0 0.1,-0.6l-0.5,-3 2.2,-2.2a1,1 0,0 0,0 -1.4A0.9,0.9 0,0 0,70.6 37.9ZM67.3,40.7a0.8,0.8 0,0 0,-0.3 0.9l0.2,1.5 -1.4,-0.7a1.4,1.4 0,0 0,-0.9 0l-1.4,0.7 0.3,-1.5a1.4,1.4 0,0 0,-0.3 -0.9l-1.2,-1.1 1.6,-0.2a1.1,1.1 0,0 0,0.7 -0.6l0.8,-1.4 0.7,1.4a1.1,1.1 0,0 0,0.7 0.6l1.6,0.2Z"
        fill="#263238"/>
    <path
        d="M91.2,37.9l-3,-0.4 -1.4,-2.8a0.9,0.9 0,0 0,-1.3 -0.4,1 1,0 0,0 -0.5,0.4l-1.3,2.8 -3.1,0.4a1,1 0,0 0,-0.8 1.1,0.9 0.9,0 0,0 0.3,0.6l2.2,2.1 -0.5,3.1a0.9,0.9 0,0 0,0.8 1.1h0.6l2.7,-1.4 2.7,1.4a1,1 0,0 0,1.4 -0.4,1.3 1.3,0 0,0 0.1,-0.6l-0.5,-3.1 2.2,-2.1a1,1 0,0 0,0 -1.4C91.6,38.1 91.4,37.9 91.2,37.9ZM87.8,40.7a1.4,1.4 0,0 0,-0.3 0.9l0.3,1.5 -1.4,-0.7a0.7,0.7 0,0 0,-0.9 0l-1.4,0.7 0.2,-1.5a1,1 0,0 0,-0.2 -0.9l-1.2,-1.1 1.6,-0.2a1.1,1.1 0,0 0,0.7 -0.6l0.7,-1.4 0.7,1.4a1.6,1.6 0,0 0,0.8 0.6l1.6,0.2Z"
        fill="#263238"/>
    <path
        d="M111.8,37.9l-3.1,-0.4 -1.3,-2.8a1,1 0,0 0,-1.4 -0.4l-0.4,0.4 -1.4,2.8 -3,0.4a1,1 0,0 0,-0.8 1.1,1.4 1.4,0 0,0 0.2,0.6l2.2,2.1 -0.5,3.1a1,1 0,0 0,0.8 1.1h0.7l2.7,-1.4 2.7,1.4a0.9,0.9 0,0 0,1.3 -0.4,0.7 0.7,0 0,0 0.1,-0.6l-0.5,-3 2.2,-2.2a1,1 0,0 0,0 -1.4A0.9,0.9 0,0 0,111.8 37.9ZM108.4,40.7a0.8,0.8 0,0 0,-0.3 0.9l0.3,1.5 -1.5,-0.7a0.7,0.7 0,0 0,-0.9 0l-1.4,0.7 0.3,-1.5a1.2,1.2 0,0 0,-0.3 -0.9l-1.1,-1.1 1.5,-0.3a1,1 0,0 0,0.8 -0.5l0.7,-1.4 0.7,1.4a0.8,0.8 0,0 0,0.7 0.5l1.6,0.3Z"
        fill="#263238"/>
    <path
        d="M113.8,51.8a4.9,4.9 0,0 0,4.9 -4.9V33.2a4.9,4.9 0,0 0,-4.9 -4.9H37.5a4.9,4.9 0,0 0,-4.9 4.9h0V46.9a4.9,4.9 0,0 0,4.9 4.9H89.6v10a0.9,0.9 0,0 0,1 1l0.5,-0.2 16.1,-10.8ZM106.4,50 L91.5,60V50.8a0.9,0.9 0,0 0,-0.9 -0.9H37.5a3,3 0,0 1,-2.9 -3V33.2a2.9,2.9 0,0 1,2.9 -2.9h76.3a2.9,2.9 0,0 1,2.9 2.9V46.9a3,3 0,0 1,-2.9 3h-7.4Z"
        fill="#263238"/>

    <!-- Rest of the paths... -->

</svg>
