<svg xmlns="http://www.w3.org/2000/svg" width="50" height="50" viewBox="-10 0 115.62 90">
  <path
      d="M87,80.1h0A7,7 0,0 1,80.1 87h0a7.3,7.3 0,0 1,-5.2 -2.2L52.8,60.7a1.9,1.9 0,0 1,0 -2.8l5.1,-5.1a1.9,1.9 0,0 1,2.8 0L84.8,75.1A6.8,6.8 0,0 1,87 80.1Z"
      fill="#b06328"/>
  <path
      d="M47.455,51.4101l3.8891,-3.8891l5.869,5.869l-3.8891,3.8891z"
      fill="#b0c4d8"/>
  <path
      d="M54.4,54.4l1,1 1.9,-2 -5.9,-5.9 -3.9,3.9 2.9,3h0A2.7,2.7 0,0 1,54.4 54.4Z"
      fill="#99b4cd"/>
  <path
      d="M29.7,0A29.7,29.7 0,1 0,59.3 29.7,29.6 29.6,0 0,0 29.7,0ZM29.7,53.4A23.8,23.8 0,1 1,53.4 29.7,23.8 23.8,0 0,1 29.7,53.4Z"
      fill="#c4d7e5"/>
  <path
      d="M29.7,29.7m-23.7,0a23.7,23.7 0,1 1,47.4 0a23.7,23.7 0,1 1,-47.4 0"
      fill="#70b7e5"/>
  <path
      d="M18,32.4A16.8,16.8 0,0 1,32.4 18h0.2c3.4,-0.4 3.6,-5.1 0.4,-5.7a19.5,19.5 0,0 0,-5.9 -0.2A17.4,17.4 0,0 0,12.3 26.9a14.6,14.6 0,0 0,0.2 5.9c0.5,3.4 5.3,3 5.7,-0.4C18,32.6 18,32.4 18,32.4Z"
      fill="#92c5eb"/>
  <path
      d="M7.9,31.6A23.8,23.8 0,0 1,31.6 7.9a25.3,25.3 0,0 1,15.9 5.9A23.9,23.9 0,0 0,5.9 29.7a24.4,24.4 0,0 0,7.9 17.8A25.3,25.3 0,0 1,7.9 31.6Z"
      fill="#4c9cd6"/>
  <path
      d="M29.7,59.3h0A29.5,29.5 0,0 0,59.3 29.7h0a2,2 0,0 0,-2 1.9A26.4,26.4 0,0 1,49.4 49a27.3,27.3 0,0 1,-17.8 8.3A1.9,1.9 0,0 0,29.7 59.3Z"
      fill="#b0c9db"/>
  <path
      d="M29.7,0h0A29.6,29.6 0,0 0,0 29.7H0a2,2 0,0 0,2 -2A26.4,26.4 0,0 1,9.3 10.9,28.8 28.8,0 0,1 27.7,2 2,2 0,0 0,29.7 0Z"
      fill="#e2e7f0"/>
  <path
      d="M84.6,74.9 L83.4,74A6.5,6.5 0,0 1,85 78.3h0a2.8,2.8 0,0 1,-4.9 1.8L59.3,59.3a2.8,2.8 0,0 0,-4.1 0l-2,2L74.7,84.4a8,8 0,0 0,4.4 2.4,7 7,0 0,0 7.7,-7.7A6.2,6.2 0,0 0,84.6 74.9Z"
      fill="#a35425"/>
  <path
      d="M64.3,61.3a1.2,1.2 0,0 1,-0.8 -0.2l-5,-4.9a1,1 0,0 1,1.4 -1.4l5,4.9a1.2,1.2 0,0 1,0 1.4C64.9,61.3 64.5,61.3 64.3,61.3Z"
      fill="#c97629"/>
</svg>
