<svg
    width="24"
    height="25"
    viewBox="0 0 60.1 59.8"
    xmlns="http://www.w3.org/2000/svg"
    xmlns:android="http://schemas.android.com/apk/res/android">

    <path
        d="M43,24.4 L12.5,55a6.3,6.3 0,0 1,-9 0.3h0a6,6 0,0 1,0.4 -9L35.5,17A11.6,11.6 0,0 1,38.4 5.1,11.8 11.8,0 0,1 50.9,2.5L44.6,8.8l6.5,6.6L57.5,9a11.9,11.9 0,0 1,-2.7 12.6A12,12 0,0 1,43 24.4Z"
        fill="#011842"/>
    <path
        d="M2.3,56.6a8.2,8.2 0,0 1,0.3 -11.7l31,-28.5A13.2,13.2 0,0 1,37.1 3.9,13.7 13.7,0 0,1 51.6,0.9c0.6,0.1 0.9,0.7 1.1,1.2a1.5,1.5 0,0 1,-0.5 1.6L47,8.8l4.1,4.1L56,7.8a2.5,2.5 0,0 1,1.6 -0.6,2.1 2.1,0 0,1 1.3,1.1 13.5,13.5 0,0 1,-3 14.3,13.6 13.6,0 0,1 -12.6,3.6l-29.5,30A7.8,7.8 0,0 1,2.3 56.6ZM39.6,6.4a9.5,9.5 0,0 0,-2.3 10,2.1 2.1,0 0,1 -0.5,2L5.1,47.6a4.6,4.6 0,0 0,-0.2 6.5,4.7 4.7,0 0,0 6.6,-0.2L41.9,23.2a1.3,1.3 0,0 1,1.8 -0.4,9.9 9.9,0 0,0 10,-2.3 9.6,9.6 0,0 0,2.9 -7.8l-4.3,3.9a1.6,1.6 0,0 1,-2.4 0l-6.6,-6.5a1.9,1.9 0,0 1,-0.5 -1.3,1.7 1.7,0 0,1 0.5,-1.2l4.1,-4.1A9.7,9.7 0,0 0,39.6 6.4Z"
        fill="#030303"/>
    <path
        d="M44,19.6l-3.7,-3.7a1.8,1.8 0,0 1,2.5 -2.5l3.7,3.7A1.8,1.8 0,0 1,44 19.6Z"
        fill="#030303"/>
    <path
        d="M14.1,8.3l3.2,5.1l23.7,23.2l-4.4,4.4l-23.9,-23l-5.1,-3l-4.8,-6.5l4.6,-4.8l6.7,4.6z"
        fill="#fff"/>
    <path
        d="M36.6,42.8a1.7,1.7 0,0 1,-1.2 -0.5L11.7,19.4l-5,-2.8 -0.5,-0.5L1.4,9.4a1.6,1.6 0,0 1,0.2 -2.2L6,2.5a1.8,1.8 0,0 1,2.3 -0.2L15,6.9l0.5,0.5 3.1,5 23.5,23a1.6,1.6 0,0 1,0 2.4l-4.4,4.6A1.6,1.6 0,0 1,36.6 42.8ZM8.8,13.8l4.8,2.8c0.2,0 0.2,0.2 0.4,0.2L36.4,38.5l2,-1.9L16.1,14.7c-0.2,0 -0.2,-0.2 -0.2,-0.4l-3,-4.8L7.6,6 5.1,8.7Z"
        fill="#030303"/>
    <path
        d="M57.3,51.5l-5.1,5.3a3.8,3.8 0,0 1,-5.5 0L33.4,43.9 43.8,33.1 57.1,46A3.9,3.9 0,0 1,57.3 51.5Z"
        fill="#f15e75"/>
    <path
        d="M57.3,51.5l-5.1,5.3a3.8,3.8 0,0 1,-5.5 0L33.4,43.9 43.8,33.1 57.1,46A3.9,3.9 0,0 1,57.3 51.5Z"
        fill="#ffca19"/>
    <path
        d="M33.4668,44.0707l10.4387,-10.7719l7.9999,7.7525l-10.4387,10.7719z"
        fill="#d69d28"/>
    <path
        d="M33.4626,44.15l10.4387,-10.7719l5.587,5.4142l-10.4387,10.7719z"
        fill="#fff"/>
    <path
        d="M45.4,58.2 L32.2,45.3a1.6,1.6 0,0 1,-0.6 -1.3,1.4 1.4,0 0,1 0.6,-1.2L42.6,32a1.8,1.8 0,0 1,2.5 0L58.3,44.9a5.7,5.7 0,0 1,0.2 8l-5.1,5.3A5.9,5.9 0,0 1,45.4 58.2ZM35.9,44l12,11.7a2.1,2.1 0,0 0,2.8 0l5.2,-5.3a2.1,2.1 0,0 0,0 -2.8L43.8,35.9Z"
        fill="#030303"/>
    <path
        d="M38.9,51.3a1.4,1.4 0,0 1,-1.2 -0.6,1.5 1.5,0 0,1 0,-2.4L48.1,37.5A1.8,1.8 0,0 1,50.6 40L40.1,50.7A1.4,1.4 0,0 1,38.9 51.3Z"
        fill="#030303"/>

</svg>