<svg xmlns="http://www.w3.org/2000/svg" width="50" height="50" viewBox="0 0 135.62 135">

<path
      d="M95.91,54.46 L28,122.78a14,14 0,0 1,-20.14 0.79h0c-5.53,-5.53 -5.53,-15 0.79,-20.14L79.33,37.88a25.57,25.57 0,0 1,6.32 -26.46,26.49 26.49,0 0,1 28,-5.92L99.47,19.72l14.61,14.61 14.21,-14.22A26.11,26.11 0,0 1,95.91 54.46Z"
      fill="#a5c3d1"/>
  <path
      d="M5.09,126.33a18.24,18.24 0,0 1,0.79 -26.06L75,36.7a29.78,29.78 0,0 1,7.89 -28C91.57,0 104.21,-2 115.26,2a4.14,4.14 0,0 1,2.37 2.76,3.18 3.18,0 0,1 -1.18,3.55L105,19.72l9.08,9.08 11.06,-11.45a5.49,5.49 0,0 1,3.55 -1.19,4.19 4.19,0 0,1 2.76,2.37A29.83,29.83 0,0 1,96.7 58.41L30.76,125.54A17.43,17.43 0,0 1,5.09 126.33ZM88.41,14.19A21.61,21.61 0,0 0,83.28 36.7,4.46 4.46,0 0,1 82.09,41L11.41,106.19A10.15,10.15 0,0 0,11 120.8c3.94,4 10.66,3.56 14.61,-0.39L93.55,51.7c1.18,-1.18 2.76,-1.58 3.94,-0.79A22.84,22.84 0,0 0,120 45.78a22.23,22.23 0,0 0,6.32 -17.38l-9.48,8.69a3.82,3.82 0,0 1,-5.53 0L96.7,22.48a3.58,3.58 0,0 1,-1.18 -2.76A3.58,3.58 0,0 1,96.7 17l9.09,-9.08A22.23,22.23 0,0 0,88.41 14.19Z"
      fill="#030303"/>
  <path
      d="M98.28,43.8 L90,35.51A3.91,3.91 0,1 1,95.52 30l8.29,8.29a3.91,3.91 0,0 1,-5.53 5.53Z"
      fill="#030303"/>
  <path
      d="M31.55,18.53l7.11,11.45l52.91,51.73l-9.87,9.87l-53.31,-51.33l-11.45,-6.71l-10.66,-14.61l10.26,-10.67l15.01,10.27z"
      fill="#fff"/>
  <path
      d="M81.7,95.53a3.58,3.58 0,0 1,-2.77 -1.18L26,43.41 15,37.09l-1.18,-1.18L3.12,20.9a3.25,3.25 0,0 1,0.39 -4.74L13.39,5.5a4.13,4.13 0,0 1,5.13 -0.39l15,10.26 1.19,1.19 6.71,11.05L93.94,79a3.82,3.82 0,0 1,0 5.53L84.07,94.74A3.34,3.34 0,0 1,81.7 95.53ZM19.7,30.77 L30.36,37.09c0.4,0 0.4,0.4 0.79,0.4L81.3,86.05l4.35,-4.34 -49.76,-49c-0.39,0 -0.39,-0.4 -0.39,-0.79L28.79,21.29 16.94,13.4l-5.53,5.92Z"
      fill="#030303"/>
  <path
      d="M127.9,114.88l-11.45,11.85a8.36,8.36 0,0 1,-12.24 0L74.59,97.9l23.3,-24.09 29.61,28.83A8.71,8.71 0,0 1,127.9 114.88Z"
      fill="#f15e75"/>
  <path
      d="M127.9,114.88l-11.45,11.85a8.36,8.36 0,0 1,-12.24 0L74.59,97.9l23.3,-24.09 29.61,28.83A8.71,8.71 0,0 1,127.9 114.88Z"
      fill="#ffca19"/>
  <path
      d="M74.796,98.347l23.363,-24.092l17.861,17.321l-23.363,24.092z"
      fill="#d69d28"/>
  <path
      d="M74.78,98.583l23.363,-24.092l12.47,12.092l-23.363,24.092z"
      fill="#fff"/>
  <path
      d="M101.44,129.89 L71.83,101.06a3.81,3.81 0,0 1,0 -5.53l23.3,-24.09a3.81,3.81 0,0 1,5.52 0l29.62,28.83a12.51,12.51 0,0 1,0.39 17.77l-11.45,11.85A12.9,12.9 0,0 1,101.44 129.89ZM80.12,98.3 L107,124.36a4.81,4.81 0,0 0,6.32 0l11.45,-11.85a4.8,4.8 0,0 0,0 -6.32L97.89,80.13Z"
      fill="#030303"/>
  <path
      d="M86.83,114.49a3.59,3.59 0,0 1,-2.76 -1.19,3.82 3.82,0 0,1 0,-5.53l23.3,-24.08a3.9,3.9 0,0 1,5.52 5.52L89.6,113.3A3.59,3.59 0,0 1,86.83 114.49Z"
      fill="#030303"/>
</svg>
