<svg xmlns="http://www.w3.org/2000/svg" width="50" height="50" viewBox="0 0 151.3 151.3">

    <path
        d="M75.6,75.6m-75.6,0a75.6,75.6 0,1 1,151.2 0a75.6,75.6 0,1 1,-151.2 0"
        fill="#e4eff9"/>
    <path
        d="M73.9,105.5H39.8a6,6 0,0 1,-6 -6V93.6H79.7Z"
        fill="#d3dcfb"/>
    <path
        d="M111.5,57.7V99.5H39.8a5.9,5.9 0,0 1,-6 -5.9V57.7L75.6,42.8Z"
        fill="#ebf5fc"/>
    <path
        d="M44.4,69.7H41.2a1.4,1.4 0,0 1,-1.4 -1.4V65.1a1.4,1.4 0,0 1,1.4 -1.4h3.2a1.4,1.4 0,0 1,1.4 1.4v3.2A1.5,1.5 0,0 1,44.4 69.7Z"
        fill="#3c58a0"/>
    <path
        d="M56.3,69.7H53.1a1.5,1.5 0,0 1,-1.4 -1.4V65.1a1.4,1.4 0,0 1,1.4 -1.4h3.2a1.4,1.4 0,0 1,1.4 1.4v3.2A1.4,1.4 0,0 1,56.3 69.7Z"
        fill="#3c58a0"/>
    <path
        d="M68.3,69.7H65.1a1.4,1.4 0,0 1,-1.4 -1.4V65.1a1.4,1.4 0,0 1,1.4 -1.4h3.2a1.4,1.4 0,0 1,1.4 1.4v3.2A1.5,1.5 0,0 1,68.3 69.7Z"
        fill="#3c58a0"/>
    <path
        d="M80.2,69.7H77a1.5,1.5 0,0 1,-1.4 -1.4V65.1A1.4,1.4 0,0 1,77 63.7h3.2a1.4,1.4 0,0 1,1.4 1.4v3.2A1.4,1.4 0,0 1,80.2 69.7Z"
        fill="#3c58a0"/>
    <path
        d="M92.2,69.7H89a1.4,1.4 0,0 1,-1.4 -1.4V65.1A1.4,1.4 0,0 1,89 63.7h3.2a1.4,1.4 0,0 1,1.4 1.4v3.2A1.5,1.5 0,0 1,92.2 69.7Z"
        fill="#3c58a0"/>
    <path
        d="M104.1,69.7h-3.2a1.5,1.5 0,0 1,-1.4 -1.4V65.1a1.4,1.4 0,0 1,1.4 -1.4h3.2a1.4,1.4 0,0 1,1.4 1.4v3.2A1.4,1.4 0,0 1,104.1 69.7Z"
        fill="#3c58a0"/>
    <path
        d="M44.4,81.6H41.2a1.4,1.4 0,0 1,-1.4 -1.4V77a1.4,1.4 0,0 1,1.4 -1.4h3.2A1.5,1.5 0,0 1,45.8 77v3.2A1.4,1.4 0,0 1,44.4 81.6Z"
        fill="#3c58a0"/>
    <path
        d="M56.3,81.6H53.1a1.4,1.4 0,0 1,-1.4 -1.4V77a1.5,1.5 0,0 1,1.4 -1.4h3.2A1.4,1.4 0,0 1,57.7 77v3.2A1.4,1.4 0,0 1,56.3 81.6Z"
        fill="#3c58a0"/>
    <path
        d="M68.3,81.6H65.1a1.4,1.4 0,0 1,-1.4 -1.4V77a1.4,1.4 0,0 1,1.4 -1.4h3.2A1.5,1.5 0,0 1,69.7 77v3.2A1.4,1.4 0,0 1,68.3 81.6Z"
        fill="#3c58a0"/>
    <path
        d="M81.6,81.6V77.1a1.5,1.5 0,0 0,-1.5 -1.5h-3a1.5,1.5 0,0 0,-1.5 1.5v3a1.5,1.5 0,0 0,1.5 1.5Z"
        fill="#3c58a0"/>
    <path
        d="M44.4,93.6H41.2a1.4,1.4 0,0 1,-1.4 -1.4V89a1.4,1.4 0,0 1,1.4 -1.4h3.2A1.4,1.4 0,0 1,45.8 89v3.2A1.5,1.5 0,0 1,44.4 93.6Z"
        fill="#3c58a0"/>
    <path
        d="M56.3,93.6H53.1a1.5,1.5 0,0 1,-1.4 -1.4V89a1.4,1.4 0,0 1,1.4 -1.4h3.2A1.4,1.4 0,0 1,57.7 89v3.2A1.4,1.4 0,0 1,56.3 93.6Z"
        fill="#3c58a0"/>
    <path
        d="M68.3,93.6H65.1a1.4,1.4 0,0 1,-1.4 -1.4V89a1.4,1.4 0,0 1,1.4 -1.4h3.2A1.4,1.4 0,0 1,69.7 89v3.2A1.5,1.5 0,0 1,68.3 93.6Z"
        fill="#3c58a0"/>
    <path
        d="M104.1,63.7h-3.6a1.4,1.4 0,0 1,0.9 1.3v3.1a1.6,1.6 0,0 1,-0.9 1.4h3.6a1.5,1.5 0,0 0,1.4 -1.5V65.1A1.4,1.4 0,0 0,104.1 63.7Z"
        fill="#2a428c"/>
    <path
        d="M92.1,63.7H88.5a1.4,1.4 0,0 1,0.9 1.3v3.1a1.6,1.6 0,0 1,-0.9 1.4h3.6a1.5,1.5 0,0 0,1.5 -1.5V65.1A1.5,1.5 0,0 0,92.1 63.7Z"
        fill="#2a428c"/>
    <path
        d="M80.2,63.7H76.6a1.4,1.4 0,0 1,0.9 1.3v3.1a1.6,1.6 0,0 1,-0.9 1.4h3.6a1.5,1.5 0,0 0,1.4 -1.5V65.1A1.4,1.4 0,0 0,80.2 63.7Z"
        fill="#2a428c"/>
    <path
        d="M68.2,63.7H64.6a1.4,1.4 0,0 1,0.9 1.3v3.1a1.6,1.6 0,0 1,-0.9 1.4h3.6a1.5,1.5 0,0 0,1.5 -1.5V65.1A1.5,1.5 0,0 0,68.2 63.7Z"
        fill="#2a428c"/>
    <path
        d="M56.3,63.7H52.7a1.4,1.4 0,0 1,0.9 1.3v3.1a1.6,1.6 0,0 1,-0.9 1.4h3.6a1.5,1.5 0,0 0,1.4 -1.5V65.1A1.4,1.4 0,0 0,56.3 63.7Z"
        fill="#2a428c"/>
    <path
        d="M44.3,63.7H40.7a1.4,1.4 0,0 1,0.9 1.3v3.1a1.6,1.6 0,0 1,-0.9 1.4h3.6a1.5,1.5 0,0 0,1.5 -1.5V65.1A1.5,1.5 0,0 0,44.3 63.7Z"
        fill="#2a428c"/>
    <path
        d="M44.3,75.6H40.7a1.7,1.7 0,0 1,0.9 1.4v3.1a1.4,1.4 0,0 1,-0.9 1.3h3.6a1.5,1.5 0,0 0,1.5 -1.4V77.1a1.5,1.5 0,0 0,-1.5 -1.5Z"
        fill="#2a428c"/>
    <path
        d="M44.3,87.6H40.7a1.4,1.4 0,0 1,0.9 1.3v3.1a1.6,1.6 0,0 1,-0.9 1.4h3.6a1.5,1.5 0,0 0,1.5 -1.5V89a1.5,1.5 0,0 0,-1.5 -1.4Z"
        fill="#2a428c"/>
    <path
        d="M56.3,75.6H52.7a1.7,1.7 0,0 1,0.9 1.4v3.1a1.4,1.4 0,0 1,-0.9 1.3h3.6a1.4,1.4 0,0 0,1.4 -1.4V77.1a1.5,1.5 0,0 0,-1.4 -1.5Z"
        fill="#2a428c"/>
    <path
        d="M56.3,87.6H52.7a1.4,1.4 0,0 1,0.9 1.3v3.1a1.6,1.6 0,0 1,-0.9 1.4h3.6a1.5,1.5 0,0 0,1.4 -1.5V89a1.4,1.4 0,0 0,-1.4 -1.4Z"
        fill="#2a428c"/>
    <path
        d="M68.2,75.6H64.6a1.7,1.7 0,0 1,0.9 1.4v3.1a1.4,1.4 0,0 1,-0.9 1.3h3.6a1.5,1.5 0,0 0,1.5 -1.4V77.1a1.5,1.5 0,0 0,-1.5 -1.5Z"
        fill="#2a428c"/>
    <path
        d="M81.6,81.6V77.1a1.5,1.5 0,0 0,-1.4 -1.5H76.6a1.7,1.7 0,0 1,0.9 1.4v3.1a1.4,1.4 0,0 1,-0.9 1.3h5Z"
        fill="#2a428c"/>
    <path
        d="M68.2,87.6H64.6a1.4,1.4 0,0 1,0.9 1.3v3.1a1.6,1.6 0,0 1,-0.9 1.4h3.6a1.5,1.5 0,0 0,1.5 -1.5V89a1.5,1.5 0,0 0,-1.5 -1.4Z"
        fill="#2a428c"/>
    <path
        d="M107.4,56V99.5h4.1V57.7Z"
        fill="#d3dcfb"/>
    <path
        d="M111.5,57.7V42.8a6,6 0,0 0,-6 -6H39.8a6,6 0,0 0,-6 6V57.7Z"
        fill="#ff4155"/>
    <path
        d="M52.6,44.1H48.7a1.3,1.3 0,0 1,-1.3 -1.3,1.3 1.3,0 0,1 1.3,-1.4h3.9A1.4,1.4 0,0 1,54 42.8,1.3 1.3,0 0,1 52.6,44.1Z"
        fill="#e80054"/>
    <path
        d="M62.2,44.1H58.3A1.3,1.3 0,0 1,57 42.8a1.3,1.3 0,0 1,1.3 -1.4h3.9a1.3,1.3 0,0 1,1.3 1.4A1.3,1.3 0,0 1,62.2 44.1Z"
        fill="#e80054"/>
    <path
        d="M87,44.1H83.1a1.3,1.3 0,0 1,-1.3 -1.3,1.3 1.3,0 0,1 1.3,-1.4H87a1.4,1.4 0,0 1,1.4 1.4A1.3,1.3 0,0 1,87 44.1Z"
        fill="#e80054"/>
    <path
        d="M96.6,44.1H92.7a1.3,1.3 0,0 1,-1.4 -1.3,1.4 1.4,0 0,1 1.4,-1.4h3.9a1.3,1.3 0,0 1,1.3 1.4A1.3,1.3 0,0 1,96.6 44.1Z"
        fill="#e80054"/>
    <path
        d="M59.2,42a3.8,3.8 0,1 1,-7.5 0V34.6a3.8,3.8 0,1 1,7.5 0V42Z"
        fill="#ebf5fc"/>
    <path
        d="M93.6,42a3.8,3.8 0,1 1,-7.5 0V34.6a3.8,3.8 0,1 1,7.5 0V42Z"
        fill="#ebf5fc"/>
    <path
        d="M89.8,30.8a4.7,4.7 0,0 0,-2 0.6,3.9 3.9,0 0,1 1.6,3.2V42a3.6,3.6 0,0 1,-1.6 3.1,3.7 3.7,0 0,0 2,0.7A3.8,3.8 0,0 0,93.6 42V34.6A3.8,3.8 0,0 0,89.8 30.8Z"
        fill="#d3dcfb"/>
    <path
        d="M55.5,30.8a4.7,4.7 0,0 0,-2.1 0.6,4 4,0 0,1 1.7,3.2V42a3.7,3.7 0,0 1,-1.7 3.1A3.7,3.7 0,0 0,59.2 42V34.6a3.8,3.8 0,0 0,-3.7 -3.8Z"
        fill="#d3dcfb"/>
    <path
        d="M105.5,36.8h-4.1a6,6 0,0 1,6 6V57.7h4.1V42.8a6,6 0,0 0,-6 -6Z"
        fill="#e80054"/>
    <path
        d="M33.8,50.4h77.7v2.7H33.8Z"
        fill="#e80054"/>
    <path
        d="M95.1,98.1m-22.4,0a22.4,22.4 0,1 1,44.8 0a22.4,22.4 0,1 1,-44.8 0"
        fill="#4fabf7"/>
    <path
        d="M95.1,98.1m-16.4,0a16.4,16.4 0,1 1,32.8 0a16.4,16.4 0,1 1,-32.8 0"
        fill="#ebf5fc"/>
    <path
        d="M95.1,96.4a1.3,1.3 0,0 1,-1.4 -1.3V87.6a1.4,1.4 0,0 1,1.4 -1.4,1.3 1.3,0 0,1 1.3,1.4v7.5A1.3,1.3 0,0 1,95.1 96.4Z"
        fill="#3c58a0"/>
    <path
        d="M102.5,99.4H98.1a1.3,1.3 0,0 1,-1.4 -1.3,1.4 1.4,0 0,1 1.4,-1.4h4.4a1.4,1.4 0,0 1,1.4 1.4A1.3,1.3 0,0 1,102.5 99.4Z"
        fill="#3c58a0"/>
    <path
        d="M95.1,75.6H93a22.5,22.5 0,0 1,0 44.7h2.1a22.5,22.5 0,0 0,0 -44.9Z"
        fill="#1886ea"/>
    <path
        d="M95.1,81.6H93a16.5,16.5 0,0 1,0 32.7h2.1a16.5,16.5 0,0 0,0 -32.9Z"
        fill="#d3dcfb"/>
    <path
        d="M95.1,98.1m-3,0a3,3 0,1 1,6 0a3,3 0,1 1,-6 0"
        fill="#ffdd40"/>
</svg>