<svg xmlns="http://www.w3.org/2000/svg" width="50" height="50" viewBox="0 0 125.06 117.8">
  <path
      d="M79.83,116.27H45.23l6.92,-27.42H72.91Z"
      fill="#fff"/>
  <path
      d="M123.53,12V89.52A4.58,4.58 0,0 1,119 94.1H6.1a4.57,4.57 0,0 1,-4.57 -4.58V12A4.57,4.57 0,0 1,6.1 7.39H119A4.58,4.58 0,0 1,123.53 12Z"
      fill="#e0e0e2"/>
  <path
      d="M123.53,35.46V12A4.58,4.58 0,0 0,119 7.39H6.1A4.57,4.57 0,0 0,1.53 12V35.46Z"
      fill="#fcd765"/>
  <path
      d="M53.84,36.06H71.22V78.73H53.84Z"
      fill="#fff"/>
  <path
      d="M123.53,22.09V12A4.56,4.56 0,0 0,119 7.4H6.1A4.56,4.56 0,0 0,1.53 12V22.09Z"
      fill="#fff"/>
  <path
      d="M1.53,78.73V89.52A4.57,4.57 0,0 0,6.1 94.1H119a4.57,4.57 0,0 0,4.57 -4.58V78.73Z"
      fill="#fff"/>
  <path
      d="M87.24,21.81A24.71,24.71 0,1 1,47.55 2.16a3.06,3.06 0,0 1,4.92 2.42V15.1a3,3 0,0 0,3.05 3h14a3,3 0,0 0,3 -3V4.57a3.06,3.06 0,0 1,4.93 -2.4A24.65,24.65 0,0 1,87.24 21.81Z"
      fill="#cc990a"/>
  <path
      d="M13.14,16.29a1.53,1.53 0,0 0,1.53 -1.53v0a1.53,1.53 0,1 0,-3.05 0v0A1.52,1.52 0,0 0,13.14 16.29Z"
      fill="#2626bc"/>
  <path
      d="M19,16.29a1.52,1.52 0,0 0,1.52 -1.53v0a1.53,1.53 0,1 0,-3 0v0A1.52,1.52 0,0 0,19 16.29Z"
      fill="#2626bc"/>
  <path
      d="M24.93,16.29a1.52,1.52 0,0 0,1.52 -1.53v0a1.53,1.53 0,1 0,-3.05 0v0A1.53,1.53 0,0 0,24.93 16.29Z"
      fill="#2626bc"/>
  <path
      d="M119,5.87H83.38A26.41,26.41 0,0 0,78.44 1a4.57,4.57 0,0 0,-7.37 3.62V5.87H60.86a1.53,1.53 0,0 0,0 3.05H71.07V15.1a1.53,1.53 0,0 1,-1.53 1.52h-14A1.53,1.53 0,0 1,54 15.1V4.58A4.58,4.58 0,0 0,46.62 1a26.4,26.4 0,0 0,-4.93 4.92H6.1A6.11,6.11 0,0 0,0 12V89.52a6.11,6.11 0,0 0,6.1 6.1H48.87L44,114.75H39.37a1.53,1.53 0,1 0,0 3H85.69a1.53,1.53 0,1 0,0 -3H81L76.19,95.62H119a6.11,6.11 0,0 0,6.1 -6.1V12a6.11,6.11 0,0 0,-6.1 -6.1ZM3.05,77.2V23.61H36.37a26.06,26.06 0,0 0,7.54 16.58A26.58,26.58 0,0 0,52.31 46V77.2ZM55.36,47A26.08,26.08 0,0 0,69.7 47V70.33a1.53,1.53 0,0 0,3 0V46A26.29,26.29 0,0 0,88.69 23.61H122V77.2H55.36ZM119,8.92A3.06,3.06 0,0 1,122 12v8.59H88.73A26,26 0,0 0,85.4 8.92ZM48.47,3.37a1.59,1.59 0,0 1,0.94 -0.32,1.55 1.55,0 0,1 0.69,0.16 1.49,1.49 0,0 1,0.84 1.37V15.1a4.58,4.58 0,0 0,4.58 4.57h14a4.58,4.58 0,0 0,4.58 -4.57V4.57A1.44,1.44 0,0 1,75 3.22a1.51,1.51 0,0 1,1.63 0.16A23.18,23.18 0,0 1,62.53 45a23,23 0,0 1,-16.45 -6.94A23.09,23.09 0,0 1,48.47 3.37ZM6.1,8.92H39.67a26,26 0,0 0,-3.34 11.64H3.05V12A3.06,3.06 0,0 1,6.1 8.92ZM77.87,114.75H47.19L52,95.62H73ZM119,92.57H6.1a3.06,3.06 0,0 1,-3 -3V80.25H122v9.27A3.06,3.06 0,0 1,119 92.57Z"
      fill="#49c160"/>
  <path
      d="M33.49,47.49H28.92a1.56,1.56 0,1 1,0 -3.12h4.57a1.56,1.56 0,0 1,0 3.12Z"
      fill="#284268"/>
  <path
      d="M41.39,47.49h-2a1.56,1.56 0,0 1,0 -3.12h2a1.56,1.56 0,0 1,0 3.12Z"
      fill="#284268"/>
  <path
      d="M41.39,53.69H28.92a1.57,1.57 0,0 1,0 -3.13H41.39a1.57,1.57 0,0 1,0 3.13Z"
      fill="#284268"/>
  <path
      d="M14.79,52.24a1.49,1.49 0,0 1,-1.07 -0.45l-2.13,-2.12a1.52,1.52 0,0 1,2.15 -2.16l1,1.05 3.75,-3.75A1.53,1.53 0,0 1,20.7 47l-4.83,4.82A1.5,1.5 0,0 1,14.79 52.24Z"
      fill="#284268"/>
  <path
      d="M33.49,64.22H28.92a1.56,1.56 0,1 1,0 -3.12h4.57a1.56,1.56 0,0 1,0 3.12Z"
      fill="#284268"/>
  <path
      d="M41.39,64.22h-2a1.56,1.56 0,0 1,0 -3.12h2a1.56,1.56 0,1 1,0 3.12Z"
      fill="#284268"/>
  <path
      d="M41.39,70.42H28.92a1.57,1.57 0,0 1,0 -3.13H41.39a1.57,1.57 0,0 1,0 3.13Z"
      fill="#284268"/>
  <path
      d="M14.79,69a1.49,1.49 0,0 1,-1.07 -0.45L11.59,66.4a1.52,1.52 0,1 1,2.15 -2.16l1,1.05 3.75,-3.75A1.53,1.53 0,0 1,20.7 63.7l-4.83,4.82A1.5,1.5 0,0 1,14.79 69Z"
      fill="#284268"/>
  <path
      d="M104.46,47.49H99.89a1.56,1.56 0,0 1,0 -3.12h4.57a1.56,1.56 0,0 1,0 3.12Z"
      fill="#284268"/>
  <path
      d="M112.35,47.49h-2a1.56,1.56 0,1 1,0 -3.12h2a1.56,1.56 0,1 1,0 3.12Z"
      fill="#284268"/>
  <path
      d="M112.35,53.69H99.89a1.57,1.57 0,0 1,0 -3.13h12.46a1.57,1.57 0,1 1,0 3.13Z"
      fill="#284268"/>
  <path
      d="M85.76,52.24a1.53,1.53 0,0 1,-1.08 -0.45l-2.12,-2.12a1.52,1.52 0,1 1,2.15 -2.16l1.05,1.05 3.75,-3.75A1.53,1.53 0,0 1,91.67 47l-4.83,4.82A1.5,1.5 0,0 1,85.76 52.24Z"
      fill="#284268"/>
  <path
      d="M104.46,64.22H99.89a1.56,1.56 0,1 1,0 -3.12h4.57a1.56,1.56 0,1 1,0 3.12Z"
      fill="#284268"/>
  <path
      d="M112.35,64.22h-2a1.56,1.56 0,1 1,0 -3.12h2a1.56,1.56 0,1 1,0 3.12Z"
      fill="#284268"/>
  <path
      d="M112.35,70.42H99.89a1.57,1.57 0,0 1,0 -3.13h12.46a1.57,1.57 0,1 1,0 3.13Z"
      fill="#284268"/>
  <path
      d="M85.76,69a1.53,1.53 0,0 1,-1.08 -0.45L82.56,66.4a1.52,1.52 0,1 1,2.15 -2.16l1.05,1.05 3.75,-3.75a1.53,1.53 0,0 1,2.16 2.16l-4.83,4.82A1.5,1.5 0,0 1,85.76 69Z"
      fill="#284268"/>
</svg>
