<svg xmlns="http://www.w3.org/2000/svg"
    xmlns:xlink="http://www.w3.org/1999/xlink"
    width="25" height="25"
    viewBox="0 0 68 68">
    <path
        d="M34,34m-34,0a34,34 0,1 1,68 0a34,34 0,1 1,-68 0"
        fill="#e4eff9"/>
    <path
        fill="#000000"
        d="M11.3,45.2c0.3,-0.4 0.6,-1.1 1.1,-1.7L32.1,21.3c1.8,-2 3.1,-2 4.9,0.1L55.9,43.9c0.3,0.3 0.8,0.7 0.8,1s0.1,2.2 -0.5,2.8a2.6,2.6 0,0 1,-2.6 0.3L35.9,38.5a2.9,2.9 0,0 0,-3.2 -0.1L14.8,47.6C13.1,48.4 11.4,47.4 11.3,45.2Z"/>
</svg>
